<svg id="svg2" xmlns="http://www.w3.org/2000/svg" xmlns:xlink="http://www.w3.org/1999/xlink" viewBox="0 0 167.09 242.67"><defs><clipPath id="clip-path" transform="translate(0 0)"><path d="M96.57,113.44s14.18-11.35,14.18-27.08c0-9.21-8.18-24.5-27.08-24.5S56.59,77.16,56.59,86.36c0,15.73,14.18,27.08,14.18,27.08C55,101.17,26.94,109.55,26.94,134.07c0,12.28,10,25.79,25.79,25.79,18.9,0,27.08-20.63,27.08-20.63s2.4,23.52-11.6,36.11H99.15c-14-12.58-11.6-36.11-11.6-36.11s8.18,20.63,27.08,20.63c15.76,0,25.79-13.51,25.79-25.79C140.41,109.55,112.32,101.17,96.57,113.44Z" style="fill:none"/></clipPath></defs><title>1-Clubs</title><g id="Layer_1"><g id="path5"><path d="M166.84,235.55a6.89,6.89,0,0,1-6.87,6.87H7.11a6.88,6.88,0,0,1-6.86-6.87V7.12A6.89,6.89,0,0,1,7.11.25H160a6.89,6.89,0,0,1,6.87,6.87Z" transform="translate(0 0)" style="fill:#fff"/><path d="M160,242.67H7.11A7.12,7.12,0,0,1,0,235.55V7.12A7.12,7.12,0,0,1,7.11,0H160a7.13,7.13,0,0,1,7.12,7.12V235.55A7.13,7.13,0,0,1,160,242.67ZM7.11.5A6.62,6.62,0,0,0,.5,7.12V235.55a6.62,6.62,0,0,0,6.61,6.62H160a6.63,6.63,0,0,0,6.62-6.62V7.12A6.63,6.63,0,0,0,160,.5Z" transform="translate(0 0)"/></g></g><g id="text3788" style="isolation:isolate"><g style="isolation:isolate"><path d="M6.66,27.55l8.8-22.91h3.27L28.1,27.55H24.65L22,20.61H12.4L9.88,27.55Zm6.61-9.41H21L18.65,11.8Q17.55,8.91,17,7a29.22,29.22,0,0,1-1.23,4.38Z" transform="translate(0 0)"/></g></g><g id="g3804"><g id="layer1-1"><g id="cl"><g style="clip-path:url(#clip-path)"><rect x="26.94" y="61.87" width="113.47" height="113.47"/><polygon points="25.94 87.24 25.94 176.33 141.41 176.33 141.41 60.87 25.94 60.87 25.94 87.24"/><path d="M40,86.72c.42,35.89,20.58,64.76,45,64.47s43.93-29.61,43.51-65.51a91.62,91.62,0,0,0-3.78-25.26v.43H45V55.68q-1,2.77-1.8,5.7A91.62,91.62,0,0,0,40,86.72Z" transform="translate(0 0)"/></g></g></g></g><g id="layer1-1-4"><g id="cl-9"><path d="M20.69,43.74s3.53-2.82,3.53-6.74a6.47,6.47,0,0,0-6.74-6.09A6.47,6.47,0,0,0,10.75,37c0,3.91,3.53,6.74,3.53,6.74-3.92-3.05-10.91-1-10.91,5.13a6.48,6.48,0,0,0,6.42,6.42c4.7,0,6.74-5.13,6.74-5.13s.6,5.85-2.89,9h7.7c-3.48-3.13-2.89-9-2.89-9s2,5.13,6.74,5.13a6.48,6.48,0,0,0,6.42-6.42C31.6,42.77,24.61,40.69,20.69,43.74Z" transform="translate(0 0)"/></g></g><g id="text3788-8" style="isolation:isolate"><g style="isolation:isolate"><path d="M160.51,214.47l-8.8,22.91h-3.27l-9.37-22.91h3.45l2.67,6.94h9.58l2.52-6.94Zm-6.61,9.41h-7.77l2.39,6.34q1.09,2.89,1.63,4.75a29.22,29.22,0,0,1,1.23-4.37Z" transform="translate(0 0)"/></g></g><g id="layer1-1-4-1"><g id="cl-9-7"><path d="M146.48,198.74s-3.53,2.82-3.53,6.74a6.77,6.77,0,0,0,13.47,0c0-3.91-3.53-6.74-3.53-6.74,3.92,3.05,10.91,1,10.91-5.13a6.48,6.48,0,0,0-6.42-6.42c-4.7,0-6.74,5.13-6.74,5.13s-.6-5.85,2.89-9h-7.7c3.48,3.13,2.89,9,2.89,9s-2-5.13-6.74-5.13a6.48,6.48,0,0,0-6.42,6.42C135.58,199.71,142.56,201.79,146.48,198.74Z" transform="translate(0 0)"/></g></g></svg>