<svg xmlns="http://www.w3.org/2000/svg" viewBox="0 0 166.59 233.13"><defs><style>.cls-1{fill:#fff;}.cls-2{fill:#65a7dd;}.cls-3{fill:#272425;}.cls-4{fill:#151515;}</style></defs><title>Asset 55</title><g id="Layer_2" data-name="Layer 2"><g id="Objects"><rect class="cls-1" x="0.12" y="0.12" width="166.36" height="232.9" rx="5.94" ry="5.94"/><path class="cls-2" d="M160.53,233.13H6.06A6.06,6.06,0,0,1,0,227.08V6.06A6.06,6.06,0,0,1,6.06,0H160.53a6.06,6.06,0,0,1,6.06,6.06v221A6.06,6.06,0,0,1,160.53,233.13ZM6.06.23A5.83,5.83,0,0,0,.23,6.06v221a5.83,5.83,0,0,0,5.82,5.82H160.53a5.83,5.83,0,0,0,5.82-5.82V6.06A5.83,5.83,0,0,0,160.53.23Z"/><circle class="cls-1" cx="148.63" cy="18.48" r="0.57"/><circle class="cls-1" cx="121.5" cy="18.48" r="0.57"/><circle class="cls-1" cx="96.54" cy="18.48" r="0.57"/><circle class="cls-1" cx="71.49" cy="18.66" r="0.57"/><circle class="cls-1" cx="148.63" cy="39.62" r="0.57"/><circle class="cls-1" cx="148.63" cy="58.91" r="0.57"/><circle class="cls-1" cx="148.63" cy="79.13" r="0.57"/><circle class="cls-1" cx="148.63" cy="91.91" r="0.57"/><circle class="cls-1" cx="148.63" cy="104.74" r="0.57"/><circle class="cls-1" cx="18.33" cy="19.05" r="0.57"/><circle class="cls-1" cx="45.77" cy="18.66" r="0.57"/><circle class="cls-1" cx="18.33" cy="39.17" r="0.57"/><circle class="cls-1" cx="18.33" cy="59.05" r="0.57"/><circle class="cls-1" cx="18.33" cy="78.99" r="0.57"/><circle class="cls-1" cx="18.33" cy="91.91" r="0.57"/><circle class="cls-1" cx="18.33" cy="105.31" r="0.57"/><circle class="cls-1" cx="18.33" cy="118.24" r="0.57"/><circle class="cls-1" cx="18.33" cy="131.17" r="0.57"/><circle class="cls-1" cx="18.33" cy="144.57" r="0.57"/><circle class="cls-1" cx="18.33" cy="158" r="0.57"/><circle class="cls-1" cx="18.33" cy="170" r="0.57"/><circle class="cls-1" cx="18.33" cy="183.39" r="0.57"/><circle class="cls-1" cx="18.33" cy="196.44" r="0.57"/><circle class="cls-1" cx="18.56" cy="215.63" r="0.57"/><circle class="cls-1" cx="39.09" cy="216.19" r="0.57"/><circle class="cls-1" cx="65.54" cy="216.19" r="0.57"/><circle class="cls-1" cx="91.94" cy="216.19" r="0.57"/><circle class="cls-1" cx="117.67" cy="216.19" r="0.57"/><circle class="cls-1" cx="148.63" cy="117.93" r="0.57"/><circle class="cls-1" cx="148.63" cy="130.26" r="0.57"/><circle class="cls-1" cx="148.63" cy="143.55" r="0.57"/><circle class="cls-1" cx="148.63" cy="156.65" r="0.57"/><circle class="cls-1" cx="148.63" cy="169.41" r="0.57"/><circle class="cls-1" cx="148.63" cy="181.98" r="0.57"/><circle class="cls-1" cx="148.63" cy="194.82" r="0.57"/><circle class="cls-1" cx="148.63" cy="214.39" r="0.57"/><path class="cls-3" d="M15,24.63h.72q1.15,0,1.67-1.42l4.17-11.78H22l4.21,12.34a1.42,1.42,0,0,0,.47.67,1.21,1.21,0,0,0,.7.18H28.5v.62h-6v-.62h1.28a.79.79,0,0,0,.49-.15.42.42,0,0,0,.19-.34,1.06,1.06,0,0,0-.08-.43l-.91-2.58H18.92l-.47,1.3a3.93,3.93,0,0,0-.27,1.13,1.31,1.31,0,0,0,.21.75.82.82,0,0,0,.74.32h1.18v.62H15Zm4.13-4.11h4.11l-2-5.92Z"/><path class="cls-3" d="M143.46,206.59h5.32v.62h-1.18a.82.82,0,0,0-.74.32,1.31,1.31,0,0,0-.21.75,3.93,3.93,0,0,0,.27,1.13l.47,1.3h4.54l.91-2.58a1.06,1.06,0,0,0,.08-.43.42.42,0,0,0-.19-.34.79.79,0,0,0-.49-.15H151v-.62h6v.62h-1.09a1.21,1.21,0,0,0-.7.18,1.42,1.42,0,0,0-.47.67l-4.21,12.34H150l-4.17-11.78q-.52-1.42-1.67-1.42h-.72Zm6.23,10.66,2-5.92h-4.11Z"/><path class="cls-4" d="M17,34.23a2.45,2.45,0,0,0,2.62.46,1.91,1.91,0,0,0-.68,1.63s0,.05,0,.08a2.24,2.24,0,1,0,4.43-.45,2,2,0,0,0-.68-1.25,2.45,2.45,0,0,0,2.62-.46,2.34,2.34,0,0,0,.19-2.91,2.08,2.08,0,0,0-2-1.09,2.52,2.52,0,0,0-1.87.81,4.61,4.61,0,0,1,1-2.58H19.58a4.35,4.35,0,0,1,1,2.57,2.5,2.5,0,0,0-1.85-.79,2.08,2.08,0,0,0-2,1.09A2.34,2.34,0,0,0,17,34.23Z"/><path class="cls-4" d="M104.43,105.61c-5-5.46-12.68-2.22-12.68-2.22,2.15-2.29,3.58-4.12,3.31-7.88,0-.13,0-.25,0-.38a10.83,10.83,0,1,0-21.43,2.2c.25,2.6,1.53,4.17,3.3,6.07,0,0-7.68-3.24-12.68,2.22a11.31,11.31,0,0,0-.93,14.07c1.57,2.13,3.93,5.7,9.49,5.29,4.92-.37,5.64-1.2,9-3.9a22.29,22.29,0,0,1-4.91,12.49H91.75c-2.72-2.86-5.13-9.43-4.82-12.42,3.31,2.64,4.06,3.47,8.94,3.83,5.56.41,7.91-3.16,9.49-5.29A11.31,11.31,0,0,0,104.43,105.61Z"/><path class="cls-4" d="M146.11,197.36a2.45,2.45,0,0,1,2.62-.46,1.91,1.91,0,0,1-.68-1.63s0-.05,0-.08a2.24,2.24,0,1,1,4.43.45,2,2,0,0,1-.68,1.25,2.45,2.45,0,0,1,2.62.46,2.34,2.34,0,0,1,.19,2.91,2.08,2.08,0,0,1-2,1.09,2.52,2.52,0,0,1-1.87-.81,4.61,4.61,0,0,0,1,2.58h-3.06a4.35,4.35,0,0,0,1-2.57,2.5,2.5,0,0,1-1.85.79,2.08,2.08,0,0,1-2-1.09A2.34,2.34,0,0,1,146.11,197.36Z"/></g></g></svg>