<svg id="svg2" xmlns="http://www.w3.org/2000/svg" xmlns:xlink="http://www.w3.org/1999/xlink" viewBox="0 0 167.09 242.67"><defs><clipPath id="clip-path" transform="translate(0 0)"><path d="M101.59,88.77A165.55,165.55,0,0,1,82.28,54.4,165.55,165.55,0,0,1,63,88.77a140.77,140.77,0,0,1-28.31,28.12A140.51,140.51,0,0,1,63,145a165.43,165.43,0,0,1,19.3,34.36A165.43,165.43,0,0,1,101.59,145a140.51,140.51,0,0,1,28.31-28.13A140.77,140.77,0,0,1,101.59,88.77Z" style="fill:none"/></clipPath></defs><title>1-Diamonds</title><g id="Layer_1"><g id="path5"><path d="M166.84,235.55a6.89,6.89,0,0,1-6.87,6.87H7.11a6.88,6.88,0,0,1-6.86-6.87V7.12A6.89,6.89,0,0,1,7.11.25H160a6.89,6.89,0,0,1,6.87,6.87Z" transform="translate(0 0)" style="fill:#fff"/><path d="M160,242.67H7.11A7.12,7.12,0,0,1,0,235.55V7.12A7.12,7.12,0,0,1,7.11,0H160a7.13,7.13,0,0,1,7.12,7.12V235.55A7.13,7.13,0,0,1,160,242.67ZM7.11.5A6.62,6.62,0,0,0,.5,7.12V235.55a6.62,6.62,0,0,0,6.61,6.62H160a6.63,6.63,0,0,0,6.62-6.62V7.12A6.63,6.63,0,0,0,160,.5Z" transform="translate(0 0)"/></g></g><g id="text3788" style="isolation:isolate"><g style="isolation:isolate"><path d="M6.2,28,15,5.11h3.27L27.64,28H24.18l-2.67-6.94H11.93L9.42,28Zm6.61-9.41h7.77l-2.39-6.34q-1.09-2.89-1.62-4.75a29.22,29.22,0,0,1-1.23,4.38Z" transform="translate(0 0)" style="fill:#df0000"/></g></g><g id="text3788-4" style="isolation:isolate"><g style="isolation:isolate"><path d="M161.13,213.52l-8.8,22.91h-3.27l-9.37-22.91h3.45l2.67,6.94h9.58l2.52-6.94Zm-6.61,9.41h-7.77l2.39,6.34q1.09,2.89,1.63,4.75a29.22,29.22,0,0,1,1.23-4.37Z" transform="translate(0 0)" style="fill:#df0000"/></g></g><g id="g3011"><g id="layer1-2"><g id="dl"><g style="clip-path:url(#clip-path)"><rect x="34.67" y="54.4" width="95.22" height="124.98" style="fill:#df0000"/><path d="M28.84,91.89c.24,48.65,24.36,88,53.87,87.83s53.25-39.7,53-88.36h-4.83V57.1h.46q-1-3.95-2.29-7.69v4h-94V49.87q-1.22,3.75-2.21,7.71h.8V91.89Z" transform="translate(0 0)" style="fill:#df0000"/><ellipse cx="82.28" cy="91.63" rx="26.72" ry="44.05" transform="translate(-0.45 0.41) rotate(-0.28)" style="fill:#df0000"/></g></g></g></g><g id="layer1-2-6"><g id="dl-6"><path d="M21.76,37.26A41.08,41.08,0,0,1,17,28.73a41.08,41.08,0,0,1-4.79,8.53,34.93,34.93,0,0,1-7,7,34.87,34.87,0,0,1,7,7A41.05,41.05,0,0,1,17,59.74a41.05,41.05,0,0,1,4.79-8.53,34.87,34.87,0,0,1,7-7A34.93,34.93,0,0,1,21.76,37.26Z" transform="translate(0 0)" style="fill:#df0000"/></g></g><g id="layer1-2-6-4"><g id="dl-6-9"><path d="M155.41,191.52a41.08,41.08,0,0,1-4.79-8.53,41.08,41.08,0,0,1-4.79,8.53,34.93,34.93,0,0,1-7,7,34.87,34.87,0,0,1,7,7,41.05,41.05,0,0,1,4.79,8.53,41.05,41.05,0,0,1,4.79-8.53,34.87,34.87,0,0,1,7-7A34.93,34.93,0,0,1,155.41,191.52Z" transform="translate(0 0)" style="fill:#df0000"/></g></g></svg>