<svg xmlns="http://www.w3.org/2000/svg" viewBox="0 0 166.59 233.13"><defs><style>.cls-1{fill:#fff;}.cls-2{fill:#65a7dd;}.cls-3{fill:#af0f07;}.cls-4{fill:#a43e32;}</style></defs><title>Asset 29</title><g id="Layer_2" data-name="Layer 2"><g id="Objects"><rect class="cls-1" x="0.12" y="0.12" width="166.36" height="232.9" rx="5.94" ry="5.94"/><path class="cls-2" d="M160.53,233.13H6.06A6.06,6.06,0,0,1,0,227.08V6.06A6.06,6.06,0,0,1,6.06,0H160.53a6.06,6.06,0,0,1,6.06,6.06v221A6.06,6.06,0,0,1,160.53,233.13ZM6.06.23A5.83,5.83,0,0,0,.23,6.06v221a5.83,5.83,0,0,0,5.82,5.82H160.53a5.83,5.83,0,0,0,5.82-5.82V6.06A5.83,5.83,0,0,0,160.53.23Z"/><circle class="cls-1" cx="148.63" cy="18.48" r="0.57"/><circle class="cls-1" cx="121.5" cy="18.48" r="0.57"/><circle class="cls-1" cx="96.54" cy="18.48" r="0.57"/><circle class="cls-1" cx="71.49" cy="18.66" r="0.57"/><circle class="cls-1" cx="148.63" cy="39.62" r="0.57"/><circle class="cls-1" cx="148.63" cy="58.91" r="0.57"/><circle class="cls-1" cx="148.63" cy="79.13" r="0.57"/><circle class="cls-1" cx="148.63" cy="91.91" r="0.57"/><circle class="cls-1" cx="148.63" cy="104.74" r="0.57"/><circle class="cls-1" cx="18.33" cy="19.05" r="0.57"/><circle class="cls-1" cx="45.77" cy="18.66" r="0.57"/><circle class="cls-1" cx="18.33" cy="39.17" r="0.57"/><circle class="cls-1" cx="18.33" cy="59.05" r="0.57"/><circle class="cls-1" cx="18.33" cy="78.99" r="0.57"/><circle class="cls-1" cx="18.33" cy="91.91" r="0.57"/><circle class="cls-1" cx="18.33" cy="105.31" r="0.57"/><circle class="cls-1" cx="18.33" cy="118.24" r="0.57"/><circle class="cls-1" cx="18.33" cy="131.17" r="0.57"/><circle class="cls-1" cx="18.33" cy="144.57" r="0.57"/><circle class="cls-1" cx="18.33" cy="158" r="0.57"/><circle class="cls-1" cx="18.33" cy="170" r="0.57"/><circle class="cls-1" cx="18.33" cy="183.39" r="0.57"/><circle class="cls-1" cx="18.33" cy="196.44" r="0.57"/><circle class="cls-1" cx="18.56" cy="215.63" r="0.57"/><circle class="cls-1" cx="39.09" cy="216.2" r="0.57"/><circle class="cls-1" cx="65.54" cy="216.2" r="0.57"/><circle class="cls-1" cx="91.94" cy="216.2" r="0.57"/><circle class="cls-1" cx="117.67" cy="216.2" r="0.57"/><circle class="cls-1" cx="148.63" cy="117.93" r="0.57"/><circle class="cls-1" cx="148.63" cy="130.26" r="0.57"/><circle class="cls-1" cx="148.63" cy="143.55" r="0.57"/><circle class="cls-1" cx="148.63" cy="156.65" r="0.57"/><circle class="cls-1" cx="148.63" cy="169.41" r="0.57"/><circle class="cls-1" cx="148.63" cy="181.98" r="0.57"/><circle class="cls-1" cx="148.63" cy="194.82" r="0.57"/><circle class="cls-1" cx="148.63" cy="214.39" r="0.57"/><path class="cls-3" d="M95.12,90.58c-10.61-.26-13,7.84-13.61,11.74-.56-3.9-3-12-13.61-11.74-13.95.34-15.79,16-10.92,23.86s7.39,10.42,12.27,15.46c4.59,4.75,10.07,10.09,12.1,13.36,0,0,.11.38.17.28.06.1.17-.28.17-.28,2-3.27,7.51-8.62,12.1-13.36,4.87-5,7.39-7.56,12.27-15.46S109.07,90.92,95.12,90.58Z"/><path class="cls-3" d="M20.32,29.13a2.26,2.26,0,0,0-2.44,2.11,2.26,2.26,0,0,0-2.44-2.11c-2.5.06-2.83,2.86-2,4.28a13.07,13.07,0,0,0,2.2,2.77,21.07,21.07,0,0,1,2.17,2.4s0,.07,0,.05,0-.05,0-.05a21.07,21.07,0,0,1,2.17-2.4,13.08,13.08,0,0,0,2.2-2.77C23.15,32,22.82,29.19,20.32,29.13Z"/><path class="cls-4" d="M11.83,24.2h.72q1.15,0,1.67-1.42L18.4,11h.48l4.21,12.34a1.42,1.42,0,0,0,.47.67,1.22,1.22,0,0,0,.7.18h1.09v.62h-6V24.2h1.28a.79.79,0,0,0,.49-.15.42.42,0,0,0,.19-.34,1.06,1.06,0,0,0-.08-.43L20.3,20.7H15.76L15.29,22A3.93,3.93,0,0,0,15,23.13a1.31,1.31,0,0,0,.21.75.82.82,0,0,0,.74.32h1.18v.62H11.83ZM16,20.08h4.11l-2-5.92Z"/><path class="cls-3" d="M140.3,205.09h5.32v.62h-1.18a.82.82,0,0,0-.74.32,1.31,1.31,0,0,0-.21.75,3.92,3.92,0,0,0,.27,1.12l.47,1.3h4.54l.91-2.58a1.06,1.06,0,0,0,.08-.43.42.42,0,0,0-.19-.34.79.79,0,0,0-.49-.15h-1.28v-.62h6v.62h-1.09a1.21,1.21,0,0,0-.7.19,1.41,1.41,0,0,0-.47.67l-4.21,12.34h-.48l-4.17-11.78q-.52-1.42-1.67-1.42h-.72Zm6.23,10.66,2-5.92h-4.11Z"/><path class="cls-3" d="M150.63,200.36a2.26,2.26,0,0,1-2.44-2.11,2.26,2.26,0,0,1-2.44,2.11c-2.5-.06-2.83-2.86-2-4.28a13.07,13.07,0,0,1,2.2-2.77,21.07,21.07,0,0,0,2.17-2.4s0-.07,0-.05,0,.05,0,.05a21.07,21.07,0,0,0,2.17,2.4,13.08,13.08,0,0,1,2.2,2.77C153.46,197.5,153.13,200.3,150.63,200.36Z"/></g></g></svg>