<svg id="svg2" xmlns="http://www.w3.org/2000/svg" xmlns:xlink="http://www.w3.org/1999/xlink" viewBox="0 0 167.09 242.67"><defs><clipPath id="clip-path" transform="translate(0 0)"><path d="M108.23,64.78C86.1,64.78,83.14,87,83.14,87s-3-22.21-25.09-22.21c-15.49,0-29.51,10-29.51,28.75,0,24.82,44.91,49.79,54.6,86.24,9.23-36.42,54.6-61.42,54.6-86.24C137.75,74.74,123.73,64.78,108.23,64.78Z" style="fill:none"/></clipPath></defs><title>1-Hearts</title><g id="Layer_1"><g id="path5"><path d="M166.84,235.55a6.89,6.89,0,0,1-6.87,6.87H7.11a6.88,6.88,0,0,1-6.86-6.87V7.12A6.89,6.89,0,0,1,7.11.25H160a6.89,6.89,0,0,1,6.87,6.87Z" transform="translate(0 0)" style="fill:#fff"/><path d="M160,242.67H7.11A7.12,7.12,0,0,1,0,235.55V7.12A7.12,7.12,0,0,1,7.11,0H160a7.13,7.13,0,0,1,7.12,7.12V235.55A7.13,7.13,0,0,1,160,242.67ZM7.11.5A6.62,6.62,0,0,0,.5,7.12V235.55a6.62,6.62,0,0,0,6.61,6.62H160a6.63,6.63,0,0,0,6.62-6.62V7.12A6.63,6.63,0,0,0,160,.5Z" transform="translate(0 0)"/></g></g><g id="text3788" style="isolation:isolate"><g style="isolation:isolate"><path d="M6.2,28,15,5.11h3.27L27.64,28H24.18l-2.67-6.94H11.93L9.42,28Zm6.61-9.41h7.77l-2.39-6.34q-1.09-2.89-1.62-4.75a29.22,29.22,0,0,1-1.23,4.38Z" transform="translate(0 0)" style="fill:#df0000"/></g></g><g id="text3788-4" style="isolation:isolate"><g style="isolation:isolate"><path d="M161.13,213.52l-8.8,22.91h-3.27l-9.37-22.91h3.45l2.67,6.94h9.58l2.52-6.94Zm-6.61,9.41h-7.77l2.39,6.34q1.09,2.89,1.63,4.75a29.22,29.22,0,0,1,1.23-4.37Z" transform="translate(0 0)" style="fill:#df0000"/></g></g><g id="hl-8"><path d="M23.33,32.28c-5.43,0-6.15,5.45-6.15,5.45s-.72-5.45-6.15-5.45c-3.8,0-7.24,2.44-7.24,7.05,0,6.09,11,12.21,13.39,21.15,2.26-8.93,13.39-15.07,13.39-21.15C30.57,34.73,27.13,32.28,23.33,32.28Z" transform="translate(0 0)" style="fill:#df0000"/></g><g id="hl"><g style="clip-path:url(#clip-path)"><rect x="28.54" y="64.78" width="109.21" height="114.99" style="fill:#df0000"/><path d="M27.13,89.37c0,48.55,24.45,87.91,54.6,87.91s54.6-39.36,54.6-87.91a140.62,140.62,0,0,0-1.11-17.72q-.55-4.29-1.35-8.42v.55H29.59v-.55q-.8,4.13-1.35,8.42A140.62,140.62,0,0,0,27.13,89.37Z" transform="translate(0 0)" style="fill:#df0000"/><path d="M54.43,89.37c0,24.28,12.22,44,27.3,44s27.3-19.68,27.3-44c0-12.14-3.06-23.13-8-31.08v5.49H62.43V58.29C57.49,66.24,54.43,77.23,54.43,89.37Z" transform="translate(0 0)" style="fill:#df0000"/></g></g><g id="hl-8-1"><path d="M144,209.25c5.43,0,6.15-5.45,6.15-5.45s.72,5.45,6.15,5.45c3.8,0,7.24-2.44,7.24-7.05,0-6.09-11-12.21-13.39-21.15-2.26,8.93-13.39,15.07-13.39,21.15C136.76,206.8,140.2,209.25,144,209.25Z" transform="translate(0 0)" style="fill:#df0000"/></g></svg>