<svg id="svg2" xmlns="http://www.w3.org/2000/svg" viewBox="0 0 167.1 242.7"><title>1-Spades</title><g id="Layer_1"><g id="path5"><path d="M166.8,235.5a6.91,6.91,0,0,1-6.9,6.9H7.1a6.91,6.91,0,0,1-6.9-6.9V7.1A6.91,6.91,0,0,1,7.1.2H160a6.91,6.91,0,0,1,6.9,6.9V235.5Z" transform="translate(0 0)" style="fill:#fff"/><path d="M160,242.7H7.1A7.13,7.13,0,0,1,0,235.6V7.1A7.13,7.13,0,0,1,7.1,0H160a7.13,7.13,0,0,1,7.1,7.1V235.5A7.15,7.15,0,0,1,160,242.7ZM7.1.5A6.66,6.66,0,0,0,.5,7.1V235.5a6.66,6.66,0,0,0,6.6,6.6H160a6.59,6.59,0,0,0,6.6-6.6V7.1A6.59,6.59,0,0,0,160,.5Z" transform="translate(0 0)"/></g></g><g style="isolation:isolate"><path d="M6.2,28,15,5.1h3.3L27.6,28H24.1l-2.7-6.9H11.8L9.4,28Zm6.6-9.4h7.8l-2.4-6.3a44.53,44.53,0,0,1-1.6-4.8,36,36,0,0,1-1.2,4.4Z" transform="translate(0 0)"/></g><g id="layer1-7"><g id="sl"><path d="M29,49.34c-.45-5.66-11.77-16.14-12.07-18.76-.3,2.62-11.62,13.1-12.07,18.76A4.91,4.91,0,0,0,10,55c2.72,0,5.13-3.86,5.88-4.55.3,1-2.41,9.24-3.32,9.24H21.3c-.91,0-3.62-8.28-3.32-9.24.75.69,2.72,4.55,5.88,4.55A4.91,4.91,0,0,0,29,49.34Z" transform="translate(0 0)"/></g></g><g style="isolation:isolate"><path d="M161,215.1,152.2,238h-3.3l-9.4-22.9H143l2.7,6.9h9.6l2.5-6.9Zm-6.7,9.4h-7.8l2.4,6.3a44.53,44.53,0,0,1,1.6,4.8,36,36,0,0,1,1.2-4.4Z" transform="translate(0 0)"/></g><g id="layer1-7-8"><g id="sl-0"><path d="M138.16,193.77c.45,5.66,11.77,16.14,12.07,18.76.3-2.62,11.62-13.1,12.07-18.76a4.91,4.91,0,0,0-5.13-5.66c-2.72,0-5.13,3.86-5.88,4.55-.3-1,2.41-9.24,3.32-9.24h-8.75c.91,0,3.62,8.28,3.32,9.24-.75-.69-2.72-4.55-5.88-4.55A4.91,4.91,0,0,0,138.16,193.77Z" transform="translate(0 0)"/></g></g><g id="layer1-7-2" data-name="layer1-7"><g id="sl-2" data-name="sl"><path d="M139.15,135.57c-2.09-26.16-54.43-74.65-55.82-86.77-1.4,12.12-53.73,60.61-55.82,86.77-1.4,18.5,11.86,26.16,23.73,26.16,12.56,0,23.73-17.86,27.21-21.05,1.4,4.47-11.16,42.75-15.35,42.75h40.47c-4.19,0-16.75-38.28-15.35-42.75,3.49,3.19,12.56,21.05,27.21,21.05C127.29,161.73,140.55,154.07,139.15,135.57Z" transform="translate(0 0)"/></g></g></svg>