<svg xmlns="http://www.w3.org/2000/svg" viewBox="0 0 166.59 233.13"><defs><style>.cls-1{fill:#fff;}.cls-2{fill:#65a7dd;}.cls-3{fill:#151515;}</style></defs><title>Asset 42</title><g id="Layer_2" data-name="Layer 2"><g id="Objects"><rect class="cls-1" x="0.12" y="0.12" width="166.36" height="232.9" rx="5.94" ry="5.94"/><path class="cls-2" d="M160.53,233.13H6.06A6.06,6.06,0,0,1,0,227.08V6.06A6.06,6.06,0,0,1,6.06,0H160.53a6.06,6.06,0,0,1,6.06,6.06v221A6.06,6.06,0,0,1,160.53,233.13ZM6.06.23A5.83,5.83,0,0,0,.23,6.06v221a5.83,5.83,0,0,0,5.82,5.82H160.53a5.83,5.83,0,0,0,5.82-5.82V6.06A5.83,5.83,0,0,0,160.53.23Z"/><circle class="cls-1" cx="148.63" cy="18.48" r="0.57"/><circle class="cls-1" cx="121.5" cy="18.48" r="0.57"/><circle class="cls-1" cx="96.54" cy="18.48" r="0.57"/><circle class="cls-1" cx="71.49" cy="18.66" r="0.57"/><circle class="cls-1" cx="148.63" cy="39.62" r="0.57"/><circle class="cls-1" cx="148.63" cy="58.91" r="0.57"/><circle class="cls-1" cx="148.63" cy="79.13" r="0.57"/><circle class="cls-1" cx="148.63" cy="91.91" r="0.57"/><circle class="cls-1" cx="148.63" cy="104.74" r="0.57"/><circle class="cls-1" cx="18.33" cy="19.05" r="0.57"/><circle class="cls-1" cx="45.77" cy="18.66" r="0.57"/><circle class="cls-1" cx="18.33" cy="39.17" r="0.57"/><circle class="cls-1" cx="18.33" cy="59.05" r="0.57"/><circle class="cls-1" cx="18.33" cy="78.99" r="0.57"/><circle class="cls-1" cx="18.33" cy="91.91" r="0.57"/><circle class="cls-1" cx="18.33" cy="105.31" r="0.57"/><circle class="cls-1" cx="18.33" cy="118.24" r="0.57"/><circle class="cls-1" cx="18.33" cy="131.17" r="0.57"/><circle class="cls-1" cx="18.33" cy="144.57" r="0.57"/><circle class="cls-1" cx="18.33" cy="158" r="0.57"/><circle class="cls-1" cx="18.33" cy="170" r="0.57"/><circle class="cls-1" cx="18.33" cy="183.39" r="0.57"/><circle class="cls-1" cx="18.33" cy="196.44" r="0.57"/><circle class="cls-1" cx="18.56" cy="215.63" r="0.57"/><circle class="cls-1" cx="39.09" cy="216.19" r="0.57"/><circle class="cls-1" cx="65.54" cy="216.19" r="0.57"/><circle class="cls-1" cx="91.94" cy="216.19" r="0.57"/><circle class="cls-1" cx="117.67" cy="216.19" r="0.57"/><circle class="cls-1" cx="148.63" cy="117.93" r="0.57"/><circle class="cls-1" cx="148.63" cy="130.26" r="0.57"/><circle class="cls-1" cx="148.63" cy="143.55" r="0.57"/><circle class="cls-1" cx="148.63" cy="156.65" r="0.57"/><circle class="cls-1" cx="148.63" cy="169.41" r="0.57"/><circle class="cls-1" cx="148.63" cy="181.98" r="0.57"/><circle class="cls-1" cx="148.63" cy="194.82" r="0.57"/><circle class="cls-1" cx="148.63" cy="214.39" r="0.57"/><path class="cls-3" d="M23.13,31.36c-1.07-1.17-2.32-2.31-2.84-2.91s-.67-.79-.78-.93v-.07l0,0,0,0v.07c-.11.14-.39.48-.78.93s-1.77,1.74-2.84,2.91a3.56,3.56,0,0,0-1,3.31,2.38,2.38,0,0,0,2.81,1.68,1.78,1.78,0,0,0,1.13-.6,3.7,3.7,0,0,1-.92,2.09H21a4,4,0,0,1-.84-2.08,1.78,1.78,0,0,0,1.13.59,2.38,2.38,0,0,0,2.81-1.68A3.56,3.56,0,0,0,23.13,31.36Z"/><path class="cls-3" d="M103.53,109.34C97.7,103,90.93,96.79,88.09,93.54c-2.13-2.44-3.63-4.3-4.25-5.07v-.4l-.16.2-.16-.2v.4c-.62.77-2.13,2.63-4.25,5.07-2.83,3.25-9.6,9.45-15.43,15.81s-6.3,12.71-5.2,18,6.61,10.23,15.27,9.14a9.65,9.65,0,0,0,6.16-3.27,20.13,20.13,0,0,1-5,11.34H91.87c-3.07-3.42-4.15-8.28-4.54-11.3a9.65,9.65,0,0,0,6.12,3.23c8.66,1.08,14.17-3.87,15.27-9.14S109.35,115.69,103.53,109.34Z"/><path d="M13.57,23.43h.72q1.15,0,1.67-1.42l4.17-11.78h.48l4.21,12.34a1.42,1.42,0,0,0,.47.67,1.21,1.21,0,0,0,.7.18h1.09V24h-6v-.62h1.28a.79.79,0,0,0,.49-.15.42.42,0,0,0,.19-.34,1.05,1.05,0,0,0-.08-.43L22,19.93H17.49L17,21.23a3.93,3.93,0,0,0-.27,1.13,1.31,1.31,0,0,0,.21.75.82.82,0,0,0,.74.32h1.18V24H13.57Zm4.13-4.11h4.11l-2-5.92Z"/><path d="M142,204.32h5.32v.62h-1.18a.82.82,0,0,0-.74.32,1.31,1.31,0,0,0-.21.75,3.92,3.92,0,0,0,.27,1.12l.47,1.3h4.54l.91-2.58a1.06,1.06,0,0,0,.08-.43.42.42,0,0,0-.19-.34.79.79,0,0,0-.49-.15h-1.28v-.62h6v.62h-1.09a1.21,1.21,0,0,0-.7.19,1.41,1.41,0,0,0-.47.67l-4.21,12.34h-.48l-4.17-11.78q-.52-1.42-1.67-1.42H142ZM148.26,215l2-5.92h-4.11Z"/><path class="cls-3" d="M153.44,197.51c-1.07,1.17-2.32,2.31-2.84,2.91s-.67.79-.78.93v.07l0,0,0,0v-.07c-.11-.14-.39-.48-.78-.93s-1.77-1.74-2.84-2.91a3.56,3.56,0,0,1-1-3.31,2.38,2.38,0,0,1,2.81-1.68,1.78,1.78,0,0,1,1.13.6,3.7,3.7,0,0,0-.92-2.09h3.09a4,4,0,0,0-.84,2.08,1.78,1.78,0,0,1,1.13-.59,2.38,2.38,0,0,1,2.81,1.68A3.56,3.56,0,0,1,153.44,197.51Z"/></g></g></svg>