<svg id="svg2" xmlns="http://www.w3.org/2000/svg" viewBox="0 0 167.09 242.67"><title>10-Clubs</title><g id="Layer_1"><g id="path5"><path d="M166.84,235.55a6.89,6.89,0,0,1-6.87,6.87H7.11a6.88,6.88,0,0,1-6.86-6.87V7.12A6.89,6.89,0,0,1,7.11.25H160a6.89,6.89,0,0,1,6.87,6.87Z" transform="translate(0 0)" style="fill:#fff"/><path d="M160,242.67H7.11A7.12,7.12,0,0,1,0,235.55V7.12A7.12,7.12,0,0,1,7.11,0H160a7.13,7.13,0,0,1,7.12,7.12V235.55A7.13,7.13,0,0,1,160,242.67ZM7.11.5A6.62,6.62,0,0,0,.5,7.12V235.55a6.62,6.62,0,0,0,6.61,6.62H160a6.63,6.63,0,0,0,6.62-6.62V7.12A6.63,6.63,0,0,0,160,.5Z" transform="translate(0 0)"/></g></g><g id="layer1-1-4"><g id="cl-9"><path d="M20.69,43.74s3.53-2.82,3.53-6.74a6.47,6.47,0,0,0-6.74-6.09A6.47,6.47,0,0,0,10.75,37c0,3.91,3.53,6.74,3.53,6.74-3.92-3.05-10.91-1-10.91,5.13a6.48,6.48,0,0,0,6.42,6.42c4.7,0,6.74-5.13,6.74-5.13s.6,5.85-2.89,9h7.7c-3.48-3.13-2.89-9-2.89-9s2,5.13,6.74,5.13a6.48,6.48,0,0,0,6.42-6.42C31.6,42.77,24.61,40.69,20.69,43.74Z" transform="translate(0 0)"/></g></g><g id="layer1-1-4-1"><g id="cl-9-7"><path d="M146.48,198.74s-3.53,2.82-3.53,6.74a6.77,6.77,0,0,0,13.47,0c0-3.91-3.53-6.74-3.53-6.74,3.92,3.05,10.91,1,10.91-5.13a6.48,6.48,0,0,0-6.42-6.42c-4.7,0-6.74,5.13-6.74,5.13s-.6-5.85,2.89-9h-7.7c3.48,3.13,2.89,9,2.89,9s-2-5.13-6.74-5.13a6.48,6.48,0,0,0-6.42,6.42C135.58,199.71,142.56,201.79,146.48,198.74Z" transform="translate(0 0)"/></g></g><g id="cl-9-8"><path d="M57.57,25.1s6-4.77,6-11.39A10.94,10.94,0,0,0,52.15,3.4,11,11,0,0,0,40.76,13.71c0,6.62,6,11.39,6,11.39-6.63-5.16-18.44-1.64-18.44,8.68A11,11,0,0,0,39.13,44.63c8,0,11.39-8.68,11.39-8.68s1,9.89-4.88,15.19h13c-5.89-5.29-4.88-15.19-4.88-15.19s3.44,8.68,11.39,8.68A11,11,0,0,0,76,33.78C76,23.46,64.2,19.94,57.57,25.1Z" transform="translate(0 0)"/></g><g id="cl-9-8-0"><path d="M57.11,93.2s6-4.77,6-11.39A10.94,10.94,0,0,0,51.69,71.5,11,11,0,0,0,40.29,81.81c0,6.62,6,11.39,6,11.39-6.63-5.16-18.44-1.64-18.44,8.68a11,11,0,0,0,10.85,10.85c8,0,11.39-8.68,11.39-8.68s1,9.89-4.88,15.19h13c-5.89-5.29-4.88-15.19-4.88-15.19s3.44,8.68,11.39,8.68a11,11,0,0,0,10.85-10.85C75.56,91.56,63.74,88,57.11,93.2Z" transform="translate(0 0)"/></g><g id="cl-9-8-9"><path d="M121.56,24.93s6-4.77,6-11.39a11.45,11.45,0,0,0-22.78,0c0,6.62,6,11.39,6,11.39-6.63-5.16-18.44-1.64-18.44,8.68a11,11,0,0,0,10.85,10.85c8,0,11.39-8.68,11.39-8.68s1,9.89-4.88,15.19h13c-5.89-5.29-4.88-15.19-4.88-15.19s3.44,8.68,11.39,8.68A11,11,0,0,0,140,33.61C140,23.29,128.19,19.76,121.56,24.93Z" transform="translate(0 0)"/></g><g id="cl-9-8-0-4"><path d="M121.56,93s6-4.77,6-11.39a11.45,11.45,0,0,0-22.78,0c0,6.62,6,11.39,6,11.39-6.63-5.16-18.44-1.64-18.44,8.68a11,11,0,0,0,10.85,10.85c8,0,11.39-8.68,11.39-8.68s1,9.89-4.88,15.19h13c-5.89-5.29-4.88-15.19-4.88-15.19s3.44,8.68,11.39,8.68A11,11,0,0,0,140,101.71C140,91.39,128.19,87.86,121.56,93Z" transform="translate(0 0)"/></g><g id="cl-9-8-8"><path d="M89.58,59.28s6-4.77,6-11.39A10.94,10.94,0,0,0,84.15,37.58,11,11,0,0,0,72.76,47.89c0,6.62,6,11.39,6,11.39C72.1,54.12,60.28,57.64,60.28,68A11,11,0,0,0,71.13,78.81c8,0,11.39-8.68,11.39-8.68s1,9.89-4.88,15.19h13C84.77,80,85.78,70.13,85.78,70.13s3.44,8.68,11.39,8.68A11,11,0,0,0,108,68C108,57.64,96.2,54.12,89.58,59.28Z" transform="translate(0 0)"/></g><g id="cl-9-8-4"><path d="M110.06,217.8s-6,4.77-6,11.39a11.45,11.45,0,0,0,22.78,0c0-6.62-6-11.39-6-11.39,6.63,5.16,18.44,1.64,18.44-8.68a11,11,0,0,0-10.85-10.85c-8,0-11.39,8.68-11.39,8.68s-1-9.89,4.88-15.19H109c5.89,5.29,4.88,15.19,4.88,15.19s-3.44-8.68-11.39-8.68a11,11,0,0,0-10.85,10.85C91.62,219.44,103.43,223,110.06,217.8Z" transform="translate(0 0)"/></g><g id="cl-9-8-0-2"><path d="M110.71,149.7s-6,4.77-6,11.39a11.45,11.45,0,0,0,22.78,0c0-6.62-6-11.39-6-11.39,6.63,5.16,18.44,1.64,18.44-8.68a11,11,0,0,0-10.85-10.85c-8,0-11.39,8.68-11.39,8.68s-1-9.89,4.88-15.19h-13c5.89,5.29,4.88,15.19,4.88,15.19s-3.44-8.68-11.39-8.68A11,11,0,0,0,92.26,141C92.26,151.34,104.08,154.86,110.71,149.7Z" transform="translate(0 0)"/></g><g id="cl-9-8-9-6"><path d="M46.08,218s-6,4.77-6,11.39A10.94,10.94,0,0,0,51.5,239.67a11,11,0,0,0,11.39-10.31c0-6.62-6-11.39-6-11.39,6.63,5.16,18.44,1.64,18.44-8.68a11,11,0,0,0-10.85-10.85c-8,0-11.39,8.68-11.39,8.68s-1-9.89,4.88-15.19H45c5.89,5.29,4.88,15.19,4.88,15.19s-3.44-8.68-11.39-8.68a11,11,0,0,0-10.85,10.85C27.63,219.61,39.45,223.14,46.08,218Z" transform="translate(0 0)"/></g><g id="cl-9-8-0-4-9"><path d="M46.26,149.88s-6,4.77-6,11.39a10.94,10.94,0,0,0,11.39,10.31,11,11,0,0,0,11.39-10.31c0-6.62-6-11.39-6-11.39,6.63,5.16,18.44,1.64,18.44-8.68a11,11,0,0,0-10.85-10.85c-8,0-11.39,8.68-11.39,8.68s-1-9.89,4.88-15.19h-13c5.89,5.29,4.88,15.19,4.88,15.19s-3.44-8.68-11.39-8.68a11,11,0,0,0-10.85,10.85C27.82,151.51,39.63,155,46.26,149.88Z" transform="translate(0 0)"/></g><g id="text3788" style="isolation:isolate"><g style="isolation:isolate"><path d="M10.76,27.17H7.95V9.25a14.51,14.51,0,0,1-2.66,1.94,18.78,18.78,0,0,1-3,1.45V9.92A17,17,0,0,0,6.45,7.23a10.57,10.57,0,0,0,2.5-3.06h1.81Z" transform="translate(0 0)"/></g></g><g id="text3038" style="isolation:isolate"><g style="isolation:isolate"><path d="M12.33,16.2a21,21,0,0,1,.84-6.54,8.14,8.14,0,0,1,2.48-3.82A6.35,6.35,0,0,1,19.8,4.5,6.78,6.78,0,0,1,23,5.24a6.2,6.2,0,0,1,2.3,2.14,11.5,11.5,0,0,1,1.42,3.41,22.63,22.63,0,0,1,.52,5.41,21,21,0,0,1-.83,6.51A8.13,8.13,0,0,1,24,26.54a6.35,6.35,0,0,1-4.16,1.35,6.28,6.28,0,0,1-5.2-2.37Q12.33,22.66,12.33,16.2Zm2.89,0q0,5.64,1.32,7.51a3.77,3.77,0,0,0,6.52,0q1.32-1.87,1.32-7.5T23.06,8.69a3.92,3.92,0,0,0-3.29-1.86,3.6,3.6,0,0,0-3.09,1.64Q15.22,10.56,15.22,16.2Z" transform="translate(0 0)"/></g></g><g id="cl-9-8-8-8"><path d="M78.07,183.94s-6,4.77-6,11.39a10.94,10.94,0,0,0,11.39,10.31,11,11,0,0,0,11.39-10.31c0-6.62-6-11.39-6-11.39,6.63,5.16,18.44,1.64,18.44-8.68a11,11,0,0,0-10.85-10.85c-8,0-11.39,8.68-11.39,8.68s-1-9.89,4.88-15.19H77c5.89,5.29,4.88,15.19,4.88,15.19s-3.44-8.68-11.39-8.68a11,11,0,0,0-10.85,10.85C59.62,185.58,71.44,189.1,78.07,183.94Z" transform="translate(0 0)"/></g><g id="text3788-0" style="isolation:isolate"><g style="isolation:isolate"><path d="M156.89,216.23h2.81v17.92a14.52,14.52,0,0,1,2.66-1.94,18.8,18.8,0,0,1,3-1.45v2.72a17,17,0,0,0-4.12,2.69,10.57,10.57,0,0,0-2.5,3.06h-1.81Z" transform="translate(0 0)"/></g></g><g id="text3038-8" style="isolation:isolate"><g style="isolation:isolate"><path d="M155.32,227.19a21,21,0,0,1-.84,6.54,8.13,8.13,0,0,1-2.48,3.82,6.35,6.35,0,0,1-4.15,1.34,6.78,6.78,0,0,1-3.23-.74,6.2,6.2,0,0,1-2.3-2.14,11.51,11.51,0,0,1-1.42-3.41,22.63,22.63,0,0,1-.52-5.41,21,21,0,0,1,.83-6.51,8.14,8.14,0,0,1,2.48-3.83,6.35,6.35,0,0,1,4.16-1.35,6.28,6.28,0,0,1,5.2,2.38Q155.32,220.74,155.32,227.19Zm-2.89,0q0-5.64-1.32-7.51a3.77,3.77,0,0,0-6.52,0q-1.32,1.88-1.32,7.5t1.32,7.52a3.92,3.92,0,0,0,3.29,1.86,3.6,3.6,0,0,0,3.09-1.64Q152.43,232.83,152.43,227.19Z" transform="translate(0 0)"/></g></g></svg>