<svg xmlns="http://www.w3.org/2000/svg" viewBox="0 0 166.55 233.13"><defs><style>.cls-1{fill:#fff;}.cls-2{fill:#65a7dd;}.cls-3{fill:#151515;}</style></defs><title>Asset 46</title><g id="Layer_2" data-name="Layer 2"><g id="Objects"><rect class="cls-1" x="0.12" y="0.12" width="166.32" height="232.9" rx="5.94" ry="5.94"/><path class="cls-2" d="M160.5,233.13H6.05A6.06,6.06,0,0,1,0,227.08V6.06A6.06,6.06,0,0,1,6.05,0H160.5a6.06,6.06,0,0,1,6.05,6.06v221A6.06,6.06,0,0,1,160.5,233.13ZM6.05.23A5.83,5.83,0,0,0,.23,6.06v221a5.83,5.83,0,0,0,5.82,5.82H160.5a5.83,5.83,0,0,0,5.82-5.82V6.06A5.83,5.83,0,0,0,160.5.23Z"/><path class="cls-3" d="M23,33.44A2.45,2.45,0,0,0,20.38,33a1.91,1.91,0,0,0,.68-1.63s0-.05,0-.08a2.24,2.24,0,1,0-4.43.45A2,2,0,0,0,17.32,33a2.45,2.45,0,0,0-2.62.46,2.34,2.34,0,0,0-.19,2.91,2.08,2.08,0,0,0,2,1.09,2.52,2.52,0,0,0,1.87-.81,4.61,4.61,0,0,1-1,2.58h3.06a4.35,4.35,0,0,1-1-2.57,2.5,2.5,0,0,0,1.85.79,2.08,2.08,0,0,0,2-1.09A2.34,2.34,0,0,0,23,33.44Z"/><path d="M14.6,24.56h1.86a.61.61,0,0,0,.42-.12.51.51,0,0,0,.13-.39V14.52H14.6v-.7h1.07a2.5,2.5,0,0,0,1.7-.56,2.36,2.36,0,0,0,.81-1.36h.62V24.05a.51.51,0,0,0,.13.39.61.61,0,0,0,.42.12H21.2v.62H14.6Z"/><path d="M26.71,24.5a6.56,6.56,0,0,1-1.66-2.59,9.87,9.87,0,0,1,0-6.73,6.56,6.56,0,0,1,1.66-2.59,3.5,3.5,0,0,1,4.88,0,6.51,6.51,0,0,1,1.67,2.59,9.87,9.87,0,0,1,0,6.73,6.51,6.51,0,0,1-1.67,2.59,3.5,3.5,0,0,1-4.88,0ZM31.28,23a16.85,16.85,0,0,0,.51-4.5,16.85,16.85,0,0,0-.51-4.5A2.15,2.15,0,0,0,27,14a16.82,16.82,0,0,0-.51,4.51A16.82,16.82,0,0,0,27,23.05a2.15,2.15,0,0,0,4.25,0Z"/><path class="cls-3" d="M145,199.16a2.45,2.45,0,0,0,2.62.46,1.91,1.91,0,0,0-.68,1.63s0,.05,0,.08a2.24,2.24,0,1,0,4.43-.45,2,2,0,0,0-.68-1.25,2.45,2.45,0,0,0,2.62-.46,2.34,2.34,0,0,0,.19-2.91,2.08,2.08,0,0,0-2-1.09,2.52,2.52,0,0,0-1.87.81,4.61,4.61,0,0,1,1-2.58h-3.06a4.35,4.35,0,0,1,1,2.57,2.5,2.5,0,0,0-1.85-.79,2.08,2.08,0,0,0-2,1.09A2.34,2.34,0,0,0,145,199.16Z"/><path d="M153.41,208.05h-1.86a.61.61,0,0,0-.42.12.51.51,0,0,0-.13.39v9.53h2.41v.7h-1.07a2.5,2.5,0,0,0-1.7.56,2.36,2.36,0,0,0-.81,1.36h-.62V208.56a.51.51,0,0,0-.13-.39.61.61,0,0,0-.42-.12h-1.86v-.62h6.6Z"/><path d="M141.3,208.11A6.56,6.56,0,0,1,143,210.7a9.87,9.87,0,0,1,0,6.73A6.56,6.56,0,0,1,141.3,220a3.5,3.5,0,0,1-4.88,0,6.51,6.51,0,0,1-1.67-2.59,9.87,9.87,0,0,1,0-6.73,6.51,6.51,0,0,1,1.67-2.59,3.5,3.5,0,0,1,4.88,0Zm-4.57,1.46a20,20,0,0,0,0,9,2.15,2.15,0,0,0,4.25,0,20,20,0,0,0,0-9,2.15,2.15,0,0,0-4.25,0Z"/><path class="cls-3" d="M97.64,67.31c-3.58-3.91-9.07-1.59-9.07-1.59,1.54-1.64,2.56-2.95,2.37-5.64,0-.09,0-.18,0-.27a7.75,7.75,0,1,0-15.33,1.57c.18,1.86,1.1,3,2.36,4.34,0,0-5.5-2.32-9.07,1.59a8.1,8.1,0,0,0-.66,10.07c1.13,1.52,2.81,4.08,6.79,3.79,3.52-.26,4-.86,6.45-2.79A16,16,0,0,1,78,87.31H88.57c-1.95-2-3.67-6.75-3.45-8.89,2.36,1.89,2.91,2.48,6.39,2.74,4,.3,5.66-2.26,6.79-3.79A8.1,8.1,0,0,0,97.64,67.31Z"/><path class="cls-3" d="M59.56,40.68c-3.58-3.91-9.07-1.59-9.07-1.59C52,37.45,53,36.15,52.86,33.46c0-.09,0-.18,0-.27a7.75,7.75,0,1,0-15.33,1.57c.18,1.86,1.1,3,2.36,4.34,0,0-5.5-2.32-9.07,1.59a8.1,8.1,0,0,0-.66,10.07c1.13,1.52,2.81,4.08,6.79,3.79,3.52-.26,4-.86,6.45-2.79a16,16,0,0,1-3.51,8.94H50.49c-1.95-2-3.67-6.75-3.45-8.89,2.37,1.89,2.91,2.48,6.39,2.74,4,.3,5.66-2.26,6.79-3.79A8.1,8.1,0,0,0,59.56,40.68Z"/><path class="cls-3" d="M59.56,90.85c-3.58-3.91-9.07-1.59-9.07-1.59C52,87.62,53,86.31,52.86,83.62c0-.09,0-.18,0-.27a7.75,7.75,0,1,0-15.33,1.57c.18,1.86,1.1,3,2.36,4.34,0,0-5.5-2.32-9.07,1.59a8.1,8.1,0,0,0-.66,10.07c1.13,1.52,2.81,4.08,6.79,3.79,3.52-.26,4-.86,6.45-2.79a16,16,0,0,1-3.51,8.94H50.49c-1.95-2-3.67-6.75-3.45-8.89,2.37,1.89,2.91,2.48,6.39,2.74,4,.3,5.66-2.26,6.79-3.79A8.1,8.1,0,0,0,59.56,90.85Z"/><path class="cls-3" d="M59.56,195.92c-3.58,3.91-9.07,1.59-9.07,1.59,1.54,1.64,2.56,2.95,2.37,5.64,0,.09,0,.18,0,.27a7.75,7.75,0,1,1-15.33-1.57c.18-1.86,1.1-3,2.36-4.34,0,0-5.5,2.32-9.07-1.59a8.1,8.1,0,0,1-.66-10.07c1.13-1.52,2.81-4.08,6.79-3.79,3.52.26,4,.86,6.45,2.79a16,16,0,0,0-3.51-8.94H50.49c-1.95,2-3.67,6.75-3.45,8.89,2.37-1.89,2.91-2.48,6.39-2.74,4-.3,5.66,2.26,6.79,3.79A8.1,8.1,0,0,1,59.56,195.92Z"/><path class="cls-3" d="M137.79,40.68c-3.58-3.91-9.07-1.59-9.07-1.59,1.54-1.64,2.56-2.95,2.37-5.64,0-.09,0-.18,0-.27a7.75,7.75,0,1,0-15.33,1.57c.18,1.86,1.1,3,2.36,4.34,0,0-5.5-2.32-9.07,1.59a8.1,8.1,0,0,0-.66,10.07c1.13,1.52,2.81,4.08,6.79,3.79,3.52-.26,4-.86,6.45-2.79a16,16,0,0,1-3.51,8.94h10.59c-1.95-2-3.67-6.75-3.45-8.89,2.37,1.89,2.91,2.48,6.39,2.74,4,.3,5.66-2.26,6.79-3.79A8.1,8.1,0,0,0,137.79,40.68Z"/><path class="cls-3" d="M137.79,90.85c-3.58-3.91-9.07-1.59-9.07-1.59,1.54-1.64,2.56-2.95,2.37-5.64,0-.09,0-.18,0-.27a7.75,7.75,0,1,0-15.33,1.57c.18,1.86,1.1,3,2.36,4.34,0,0-5.5-2.32-9.07,1.59a8.1,8.1,0,0,0-.66,10.07c1.13,1.52,2.81,4.08,6.79,3.79,3.52-.26,4-.86,6.45-2.79a16,16,0,0,1-3.51,8.94h10.59c-1.95-2-3.67-6.75-3.45-8.89,2.37,1.89,2.91,2.48,6.39,2.74,4,.3,5.66-2.26,6.79-3.79A8.1,8.1,0,0,0,137.79,90.85Z"/><path class="cls-3" d="M137.79,195.92c-3.58,3.91-9.07,1.59-9.07,1.59,1.54,1.64,2.56,2.95,2.37,5.64,0,.09,0,.18,0,.27a7.75,7.75,0,1,1-15.33-1.57c.18-1.86,1.1-3,2.36-4.34,0,0-5.5,2.32-9.07-1.59a8.1,8.1,0,0,1-.66-10.07c1.13-1.52,2.81-4.08,6.79-3.79,3.52.26,4,.86,6.45,2.79a16,16,0,0,0-3.51-8.94h10.59c-1.95,2-3.67,6.75-3.45,8.89,2.37-1.89,2.91-2.48,6.39-2.74,4-.3,5.66,2.26,6.79,3.79A8.09,8.09,0,0,1,137.79,195.92Z"/><path class="cls-3" d="M59.56,145.76c-3.58,3.91-9.07,1.59-9.07,1.59C52,149,53,150.3,52.86,153c0,.09,0,.18,0,.27a7.75,7.75,0,1,1-15.33-1.57c.18-1.86,1.1-3,2.36-4.34,0,0-5.5,2.32-9.07-1.59a8.1,8.1,0,0,1-.66-10.07c1.13-1.52,2.81-4.08,6.79-3.79,3.52.26,4,.86,6.45,2.79a16,16,0,0,0-3.51-8.94H50.49c-1.95,2-3.67,6.75-3.45,8.89,2.37-1.89,2.91-2.48,6.39-2.74,4-.3,5.66,2.26,6.79,3.79A8.1,8.1,0,0,1,59.56,145.76Z"/><path class="cls-3" d="M137.79,145.76c-3.58,3.91-9.07,1.59-9.07,1.59,1.54,1.64,2.56,2.95,2.37,5.64,0,.09,0,.18,0,.27a7.75,7.75,0,1,1-15.33-1.57c.18-1.86,1.1-3,2.36-4.34,0,0-5.5,2.32-9.07-1.59a8.1,8.1,0,0,1-.66-10.07c1.13-1.52,2.81-4.08,6.79-3.79,3.52.26,4,.86,6.45,2.79a16,16,0,0,0-3.51-8.94h10.59c-1.95,2-3.67,6.75-3.45,8.89,2.37-1.89,2.91-2.48,6.39-2.74,4-.3,5.66,2.26,6.79,3.79A8.1,8.1,0,0,1,137.79,145.76Z"/><path class="cls-3" d="M97.64,166.33c-3.58,3.91-9.07,1.59-9.07,1.59,1.54,1.64,2.56,2.95,2.37,5.64,0,.09,0,.18,0,.27a7.75,7.75,0,1,1-15.33-1.57c.18-1.86,1.1-3,2.36-4.34,0,0-5.5,2.32-9.07-1.59a8.1,8.1,0,0,1-.66-10.07c1.13-1.52,2.81-4.08,6.79-3.79,3.52.26,4,.86,6.45,2.79A16,16,0,0,0,78,146.33H88.57c-1.95,2-3.67,6.75-3.45,8.89,2.36-1.89,2.91-2.48,6.39-2.74,4-.3,5.66,2.26,6.79,3.79A8.1,8.1,0,0,1,97.64,166.33Z"/></g></g></svg>