<svg id="svg2" xmlns="http://www.w3.org/2000/svg" viewBox="0 0 167.09 242.67"><title>10-Diamonds</title><g id="Layer_1"><g id="path5"><path d="M166.84,235.55a6.89,6.89,0,0,1-6.87,6.87H7.11a6.88,6.88,0,0,1-6.86-6.87V7.12A6.89,6.89,0,0,1,7.11.25H160a6.89,6.89,0,0,1,6.87,6.87Z" transform="translate(0 0)" style="fill:#fff"/><path d="M160,242.67H7.11A7.12,7.12,0,0,1,0,235.55V7.12A7.12,7.12,0,0,1,7.11,0H160a7.13,7.13,0,0,1,7.12,7.12V235.55A7.13,7.13,0,0,1,160,242.67ZM7.11.5A6.62,6.62,0,0,0,.5,7.12V235.55a6.62,6.62,0,0,0,6.61,6.62H160a6.63,6.63,0,0,0,6.62-6.62V7.12A6.63,6.63,0,0,0,160,.5Z" transform="translate(0 0)"/></g></g><g id="text3788" style="isolation:isolate"><g style="isolation:isolate"><path d="M12.33,26.41H9.52V8.49a14.51,14.51,0,0,1-2.66,1.94,18.78,18.78,0,0,1-3,1.45V9.16A17,17,0,0,0,8,6.48a10.57,10.57,0,0,0,2.5-3.06h1.81Z" transform="translate(0 0)" style="fill:#df0000"/></g></g><g id="layer1-2-6"><g id="dl-6"><path d="M21.76,37.26A41.08,41.08,0,0,1,17,28.73a41.08,41.08,0,0,1-4.79,8.53,34.93,34.93,0,0,1-7,7,34.87,34.87,0,0,1,7,7A41.05,41.05,0,0,1,17,59.74a41.05,41.05,0,0,1,4.79-8.53,34.87,34.87,0,0,1,7-7A34.93,34.93,0,0,1,21.76,37.26Z" transform="translate(0 0)" style="fill:#df0000"/></g></g><g id="layer1-2-6-4"><g id="dl-6-9"><path d="M155.41,191.52a41.08,41.08,0,0,1-4.79-8.53,41.08,41.08,0,0,1-4.79,8.53,34.93,34.93,0,0,1-7,7,34.87,34.87,0,0,1,7,7,41.05,41.05,0,0,1,4.79,8.53,41.05,41.05,0,0,1,4.79-8.53,34.87,34.87,0,0,1,7-7A34.93,34.93,0,0,1,155.41,191.52Z" transform="translate(0 0)" style="fill:#df0000"/></g></g><g id="layer1-2-6-8-8"><g id="dl-6-8-8"><path d="M62.52,198.68a72,72,0,0,1-8.39-14.95,72,72,0,0,1-8.39,14.95,61.22,61.22,0,0,1-12.31,12.23,61.11,61.11,0,0,1,12.31,12.23,72,72,0,0,1,8.39,14.94,72,72,0,0,1,8.39-14.94,61.11,61.11,0,0,1,12.31-12.23A61.22,61.22,0,0,1,62.52,198.68Z" transform="translate(0 0)" style="fill:#df0000"/></g></g><g id="layer1-2-6-8-2-4"><g id="dl-6-8-6-3"><path d="M62.52,19.39A72,72,0,0,1,54.13,4.44a72,72,0,0,1-8.39,14.95A61.22,61.22,0,0,1,33.42,31.62,61.11,61.11,0,0,1,45.73,43.85,72,72,0,0,1,54.13,58.8a72,72,0,0,1,8.39-14.94A61.11,61.11,0,0,1,74.84,31.62,61.22,61.22,0,0,1,62.52,19.39Z" transform="translate(0 0)" style="fill:#df0000"/></g></g><g id="layer1-2-6-8-2-8-1"><g id="dl-6-8-6-8-4"><path d="M62.52,139A72,72,0,0,1,54.13,124,72,72,0,0,1,45.73,139a61.22,61.22,0,0,1-12.31,12.23,61.11,61.11,0,0,1,12.31,12.23,72,72,0,0,1,8.39,14.94,72,72,0,0,1,8.39-14.94,61.11,61.11,0,0,1,12.31-12.23A61.22,61.22,0,0,1,62.52,139Z" transform="translate(0 0)" style="fill:#df0000"/></g></g><g id="layer1-2-6-8-2-8-1-4"><g id="dl-6-8-6-8-4-9"><path d="M62.52,79.12a72,72,0,0,1-8.39-14.95,72,72,0,0,1-8.39,14.95A61.22,61.22,0,0,1,33.42,91.35a61.11,61.11,0,0,1,12.31,12.23,72,72,0,0,1,8.39,14.94,72,72,0,0,1,8.39-14.94A61.11,61.11,0,0,1,74.84,91.35,61.22,61.22,0,0,1,62.52,79.12Z" transform="translate(0 0)" style="fill:#df0000"/></g></g><g id="layer1-2-6-8-8-9"><g id="dl-6-8-8-4"><path d="M121.29,198.68a72,72,0,0,1-8.39-14.95,72,72,0,0,1-8.39,14.95,61.22,61.22,0,0,1-12.31,12.23,61.11,61.11,0,0,1,12.31,12.23,72,72,0,0,1,8.39,14.94,72,72,0,0,1,8.39-14.94,61.11,61.11,0,0,1,12.31-12.23A61.22,61.22,0,0,1,121.29,198.68Z" transform="translate(0 0)" style="fill:#df0000"/></g></g><g id="layer1-2-6-8-2-4-9"><g id="dl-6-8-6-3-0"><path d="M121.29,19.39A72,72,0,0,1,112.9,4.44a72,72,0,0,1-8.39,14.95A61.22,61.22,0,0,1,92.19,31.62,61.11,61.11,0,0,1,104.5,43.85,72,72,0,0,1,112.9,58.8a72,72,0,0,1,8.39-14.94A61.11,61.11,0,0,1,133.6,31.62,61.22,61.22,0,0,1,121.29,19.39Z" transform="translate(0 0)" style="fill:#df0000"/></g></g><g id="layer1-2-6-8-2-8-1-9"><g id="dl-6-8-6-8-4-1"><path d="M121.29,139A72,72,0,0,1,112.9,124,72,72,0,0,1,104.5,139a61.22,61.22,0,0,1-12.31,12.23,61.11,61.11,0,0,1,12.31,12.23,72,72,0,0,1,8.39,14.94,72,72,0,0,1,8.39-14.94,61.11,61.11,0,0,1,12.31-12.23A61.22,61.22,0,0,1,121.29,139Z" transform="translate(0 0)" style="fill:#df0000"/></g></g><g id="layer1-2-6-8-2-8-1-4-7"><g id="dl-6-8-6-8-4-9-7"><path d="M121.29,79.12a72,72,0,0,1-8.39-14.95,72,72,0,0,1-8.39,14.95A61.22,61.22,0,0,1,92.19,91.35a61.11,61.11,0,0,1,12.31,12.23,72,72,0,0,1,8.39,14.94,72,72,0,0,1,8.39-14.94A61.11,61.11,0,0,1,133.6,91.35,61.22,61.22,0,0,1,121.29,79.12Z" transform="translate(0 0)" style="fill:#df0000"/></g></g><g id="layer1-2-6-8-2-4-8"><g id="dl-6-8-6-3-5"><path d="M91.61,49.6a72,72,0,0,1-8.39-14.95A72,72,0,0,1,74.82,49.6,61.22,61.22,0,0,1,62.51,61.83,61.11,61.11,0,0,1,74.82,74.06,72,72,0,0,1,83.21,89a72,72,0,0,1,8.39-14.94,61.11,61.11,0,0,1,12.31-12.23A61.22,61.22,0,0,1,91.61,49.6Z" transform="translate(0 0)" style="fill:#df0000"/></g></g><g id="layer1-2-6-8-2-4-8-8"><g id="dl-6-8-6-3-5-8"><path d="M91.4,168.61A72,72,0,0,1,83,153.66a72,72,0,0,1-8.39,14.95A61.22,61.22,0,0,1,62.3,180.84a61.11,61.11,0,0,1,12.31,12.23A72,72,0,0,1,83,208a72,72,0,0,1,8.39-14.94,61.11,61.11,0,0,1,12.31-12.23A61.22,61.22,0,0,1,91.4,168.61Z" transform="translate(0 0)" style="fill:#df0000"/></g></g><g id="text3788-43" style="isolation:isolate"><g style="isolation:isolate"><path d="M14.54,15.08a21,21,0,0,1,.84-6.54,8.14,8.14,0,0,1,2.48-3.82A6.35,6.35,0,0,1,22,3.38a6.78,6.78,0,0,1,3.23.74,6.2,6.2,0,0,1,2.3,2.14A11.5,11.5,0,0,1,29,9.67a22.63,22.63,0,0,1,.52,5.41,21,21,0,0,1-.83,6.51,8.13,8.13,0,0,1-2.48,3.83A6.35,6.35,0,0,1,22,26.77a6.28,6.28,0,0,1-5.2-2.37Q14.54,21.53,14.54,15.08Zm2.89,0q0,5.64,1.32,7.51a3.77,3.77,0,0,0,6.52,0q1.32-1.87,1.32-7.5T25.27,7.56A3.92,3.92,0,0,0,22,5.7a3.6,3.6,0,0,0-3.09,1.64Q17.44,9.44,17.44,15.08Z" transform="translate(0 0)" style="fill:#df0000"/></g></g><g id="text3788-4" style="isolation:isolate"><g style="isolation:isolate"><path d="M154.51,216h2.81v17.92A14.52,14.52,0,0,1,160,232a18.8,18.8,0,0,1,3-1.45v2.72a17,17,0,0,0-4.12,2.69,10.57,10.57,0,0,0-2.5,3.06h-1.81Z" transform="translate(0 0)" style="fill:#df0000"/></g></g><g id="text3788-43-2" style="isolation:isolate"><g style="isolation:isolate"><path d="M152.3,227.32a21,21,0,0,1-.84,6.54,8.13,8.13,0,0,1-2.48,3.82,6.35,6.35,0,0,1-4.15,1.34,6.78,6.78,0,0,1-3.23-.74,6.2,6.2,0,0,1-2.3-2.14,11.51,11.51,0,0,1-1.42-3.41,22.63,22.63,0,0,1-.52-5.41,21,21,0,0,1,.83-6.51,8.14,8.14,0,0,1,2.48-3.83,6.35,6.35,0,0,1,4.16-1.35A6.28,6.28,0,0,1,150,218Q152.3,220.87,152.3,227.32Zm-2.89,0q0-5.64-1.32-7.51a3.77,3.77,0,0,0-6.52,0q-1.32,1.88-1.32,7.5t1.32,7.52a3.92,3.92,0,0,0,3.29,1.86,3.6,3.6,0,0,0,3.09-1.64Q149.41,233,149.41,227.32Z" transform="translate(0 0)" style="fill:#df0000"/></g></g></svg>