<svg xmlns="http://www.w3.org/2000/svg" viewBox="0 0 166.48 233.07"><defs><style>.cls-1{fill:#fff;}.cls-2{fill:#65a7dd;}.cls-3{fill:#af0f07;}.cls-4{fill:#a43e32;}</style></defs><title>Asset 10</title><g id="Layer_2" data-name="Layer 2"><g id="Objects"><rect class="cls-1" x="0.11" y="0.11" width="166.25" height="232.84" rx="5.94" ry="5.94"/><path class="cls-2" d="M160.43,233.07H6.05A6.06,6.06,0,0,1,0,227V6.05A6.06,6.06,0,0,1,6.05,0H160.43a6.06,6.06,0,0,1,6.05,6.05V227A6.06,6.06,0,0,1,160.43,233.07ZM6.05.23A5.83,5.83,0,0,0,.23,6.05V227a5.83,5.83,0,0,0,5.82,5.82H160.43a5.83,5.83,0,0,0,5.82-5.82V6.05A5.83,5.83,0,0,0,160.43.23Z"/><circle class="cls-1" cx="148.53" cy="18.48" r="0.57"/><circle class="cls-1" cx="121.42" cy="18.48" r="0.57"/><circle class="cls-1" cx="96.48" cy="18.48" r="0.57"/><circle class="cls-1" cx="71.45" cy="18.66" r="0.57"/><circle class="cls-1" cx="148.53" cy="39.61" r="0.57"/><circle class="cls-1" cx="148.53" cy="58.9" r="0.57"/><circle class="cls-1" cx="148.53" cy="79.11" r="0.57"/><circle class="cls-1" cx="148.53" cy="91.89" r="0.57"/><circle class="cls-1" cx="148.53" cy="104.72" r="0.57"/><circle class="cls-1" cx="18.32" cy="19.04" r="0.57"/><circle class="cls-1" cx="45.74" cy="18.66" r="0.57"/><circle class="cls-1" cx="18.32" cy="39.16" r="0.57"/><circle class="cls-1" cx="18.32" cy="59.03" r="0.57"/><circle class="cls-1" cx="18.32" cy="78.97" r="0.57"/><circle class="cls-1" cx="18.32" cy="91.89" r="0.57"/><circle class="cls-1" cx="18.32" cy="105.28" r="0.57"/><circle class="cls-1" cx="18.32" cy="118.21" r="0.57"/><circle class="cls-1" cx="18.32" cy="131.13" r="0.57"/><circle class="cls-1" cx="18.32" cy="144.53" r="0.57"/><circle class="cls-1" cx="18.32" cy="157.95" r="0.57"/><circle class="cls-1" cx="18.32" cy="169.95" r="0.57"/><circle class="cls-1" cx="18.32" cy="183.35" r="0.57"/><circle class="cls-1" cx="18.32" cy="196.39" r="0.57"/><circle class="cls-1" cx="18.55" cy="215.57" r="0.57"/><circle class="cls-1" cx="39.06" cy="216.14" r="0.57"/><circle class="cls-1" cx="65.5" cy="216.14" r="0.57"/><circle class="cls-1" cx="91.89" cy="216.14" r="0.57"/><circle class="cls-1" cx="117.59" cy="216.14" r="0.57"/><circle class="cls-1" cx="148.53" cy="117.9" r="0.57"/><circle class="cls-1" cx="148.53" cy="130.22" r="0.57"/><circle class="cls-1" cx="148.53" cy="143.51" r="0.57"/><circle class="cls-1" cx="148.53" cy="156.61" r="0.57"/><circle class="cls-1" cx="148.53" cy="169.36" r="0.57"/><circle class="cls-1" cx="148.53" cy="181.94" r="0.57"/><circle class="cls-1" cx="148.53" cy="194.77" r="0.57"/><circle class="cls-1" cx="148.53" cy="214.34" r="0.57"/><polygon class="cls-3" points="144.13 194.24 139.4 199.46 143.61 205.18 148.45 199.93 144.13 194.24"/><polygon class="cls-3" points="18.21 28.94 13.48 34.16 17.69 39.88 22.53 34.63 18.21 28.94"/><path class="cls-4" d="M13,24.93h1.86a.61.61,0,0,0,.42-.12.51.51,0,0,0,.13-.39V14.9H13v-.7h1.07a2.5,2.5,0,0,0,1.7-.56,2.36,2.36,0,0,0,.8-1.36h.62V24.43a.51.51,0,0,0,.13.39.61.61,0,0,0,.42.12h1.86v.62H13Z"/><path class="cls-4" d="M25.09,24.87a6.56,6.56,0,0,1-1.66-2.59,9.87,9.87,0,0,1,0-6.73A6.55,6.55,0,0,1,25.09,13,3.5,3.5,0,0,1,30,13a6.5,6.5,0,0,1,1.67,2.59,9.87,9.87,0,0,1,0,6.73A6.51,6.51,0,0,1,30,24.87a3.5,3.5,0,0,1-4.88,0Zm4.57-1.46a16.84,16.84,0,0,0,.51-4.5,16.84,16.84,0,0,0-.51-4.5,2.15,2.15,0,0,0-4.25,0,16.82,16.82,0,0,0-.51,4.51,16.82,16.82,0,0,0,.51,4.51,2.15,2.15,0,0,0,4.25,0Z"/><path class="cls-3" d="M151.74,208.38h-1.86a.61.61,0,0,0-.42.12.51.51,0,0,0-.13.39v9.53h2.41v.7h-1.07a2.5,2.5,0,0,0-1.7.56,2.36,2.36,0,0,0-.8,1.36h-.62V208.88a.51.51,0,0,0-.13-.39.61.61,0,0,0-.42-.12h-1.86v-.62h6.6Z"/><path class="cls-3" d="M139.63,208.44a6.56,6.56,0,0,1,1.66,2.59,9.87,9.87,0,0,1,0,6.73,6.56,6.56,0,0,1-1.66,2.59,3.5,3.5,0,0,1-4.88,0,6.5,6.5,0,0,1-1.67-2.59,9.87,9.87,0,0,1,0-6.73,6.5,6.5,0,0,1,1.67-2.59,3.5,3.5,0,0,1,4.88,0Zm-4.57,1.46a20,20,0,0,0,0,9,2.15,2.15,0,0,0,4.25,0,20.09,20.09,0,0,0,0-9,2.15,2.15,0,0,0-4.25,0Z"/><polygon class="cls-3" points="50.94 24.91 37.65 41.06 50.94 57.47 64.58 41.19 50.94 24.91"/><polygon class="cls-3" points="85.69 51.95 72.4 68.1 85.69 84.5 99.33 68.23 85.69 51.95"/><polygon class="cls-3" points="85.18 148.5 71.89 164.65 85.18 181.06 98.82 164.78 85.18 148.5"/><polygon class="cls-3" points="50.94 74.77 37.65 90.92 50.94 107.32 64.58 91.05 50.94 74.77"/><polygon class="cls-3" points="50.94 124.63 37.65 140.77 50.94 157.18 64.58 140.9 50.94 124.63"/><polygon class="cls-3" points="50.94 174.48 37.65 190.63 50.94 207.04 64.58 190.76 50.94 174.48"/><polygon class="cls-3" points="118.36 24.91 105.07 41.06 118.36 57.47 132 41.19 118.36 24.91"/><polygon class="cls-3" points="118.36 74.77 105.07 90.92 118.36 107.32 132 91.05 118.36 74.77"/><polygon class="cls-3" points="118.36 124.63 105.07 140.77 118.36 157.18 132 140.9 118.36 124.63"/><polygon class="cls-3" points="118.36 174.48 105.07 190.63 118.36 207.04 132 190.76 118.36 174.48"/></g></g></svg>