<svg xmlns="http://www.w3.org/2000/svg" viewBox="0 0 166.48 233.07"><defs><style>.cls-1{fill:#fff;}.cls-2{fill:#65a7dd;}.cls-3{fill:#a43e32;}.cls-4{fill:#af0f07;}</style></defs><title>Asset 20</title><g id="Layer_2" data-name="Layer 2"><g id="Objects"><rect class="cls-1" x="0.12" y="0.11" width="166.25" height="232.84" rx="5.94" ry="5.94"/><path class="cls-2" d="M160.43,233.07H6.05A6.06,6.06,0,0,1,0,227V6.05A6.06,6.06,0,0,1,6.05,0H160.43a6.06,6.06,0,0,1,6.05,6.05V227A6.06,6.06,0,0,1,160.43,233.07ZM6.05.23A5.83,5.83,0,0,0,.23,6.05V227a5.83,5.83,0,0,0,5.82,5.82H160.43a5.83,5.83,0,0,0,5.82-5.82V6.05A5.83,5.83,0,0,0,160.43.23Z"/><path class="cls-3" d="M14.17,23.45H16a.61.61,0,0,0,.42-.12.51.51,0,0,0,.13-.39V13.42H14.17v-.7h1.07a2.5,2.5,0,0,0,1.7-.56,2.36,2.36,0,0,0,.8-1.36h.62V22.94a.51.51,0,0,0,.13.39.61.61,0,0,0,.42.12h1.86v.62h-6.6Z"/><path class="cls-3" d="M26.27,23.39a6.56,6.56,0,0,1-1.66-2.59,9.87,9.87,0,0,1,0-6.73,6.55,6.55,0,0,1,1.66-2.59,3.5,3.5,0,0,1,4.88,0,6.5,6.5,0,0,1,1.67,2.59,9.87,9.87,0,0,1,0,6.73,6.5,6.5,0,0,1-1.67,2.59,3.5,3.5,0,0,1-4.88,0Zm4.57-1.46a16.84,16.84,0,0,0,.51-4.5,16.84,16.84,0,0,0-.51-4.5,2.15,2.15,0,0,0-4.25,0,16.82,16.82,0,0,0-.51,4.51,16.82,16.82,0,0,0,.51,4.51,2.15,2.15,0,0,0,4.25,0Z"/><path class="cls-4" d="M152.92,206.9h-1.86a.61.61,0,0,0-.42.12.51.51,0,0,0-.13.39v9.53h2.41v.7h-1.07a2.5,2.5,0,0,0-1.7.56,2.36,2.36,0,0,0-.8,1.36h-.62V207.4a.51.51,0,0,0-.13-.39.61.61,0,0,0-.42-.12h-1.86v-.62h6.6Z"/><path class="cls-4" d="M140.82,207a6.55,6.55,0,0,1,1.66,2.59,9.87,9.87,0,0,1,0,6.73,6.55,6.55,0,0,1-1.66,2.59,3.5,3.5,0,0,1-4.88,0,6.5,6.5,0,0,1-1.67-2.59,9.87,9.87,0,0,1,0-6.73,6.5,6.5,0,0,1,1.67-2.59,3.5,3.5,0,0,1,4.88,0Zm-4.57,1.46a20,20,0,0,0,0,9,2.15,2.15,0,0,0,4.25,0,20.08,20.08,0,0,0,0-9,2.15,2.15,0,0,0-4.25,0Z"/><path class="cls-4" d="M148.68,201.75a2.26,2.26,0,0,1-2.44-2.1,2.26,2.26,0,0,1-2.44,2.1c-2.5-.06-2.83-2.86-2-4.28a13.07,13.07,0,0,1,2.2-2.77,21.06,21.06,0,0,0,2.17-2.4s0-.07,0-.05,0,.05,0,.05a21.06,21.06,0,0,0,2.17,2.4,13.07,13.07,0,0,1,2.2,2.77C151.51,198.88,151.18,201.69,148.68,201.75Z"/><path class="cls-4" d="M24,29.31a2.26,2.26,0,0,0-2.44,2.1,2.26,2.26,0,0,0-2.44-2.1c-2.5.06-2.83,2.86-2,4.28a13.07,13.07,0,0,0,2.2,2.77,21.07,21.07,0,0,1,2.17,2.4s0,.07,0,.05,0-.05,0-.05a21.07,21.07,0,0,1,2.17-2.4A13.07,13.07,0,0,0,26,33.59C26.88,32.17,26.54,29.37,24,29.31Z"/><path class="cls-4" d="M55.82,27.18c-5.48-.13-6.74,4.05-7,6.07-.29-2-1.55-6.2-7-6.07-7.2.17-8.16,8.25-5.64,12.33a37.68,37.68,0,0,0,6.34,8c2.37,2.45,5.2,5.21,6.25,6.91,0,0,.06.2.09.14s.09-.14.09-.14c1-1.69,3.88-4.45,6.25-6.91a37.68,37.68,0,0,0,6.34-8C64,35.43,63,27.35,55.82,27.18Z"/><path class="cls-4" d="M90.36,50.31c-5.48-.13-6.74,4.05-7,6.07-.29-2-1.55-6.2-7-6.07-7.2.17-8.16,8.25-5.64,12.33a37.68,37.68,0,0,0,6.34,8c2.37,2.45,5.2,5.21,6.25,6.91,0,0,.06.2.09.14s.09-.14.09-.14c1-1.69,3.88-4.45,6.25-6.91a37.68,37.68,0,0,0,6.34-8C98.52,58.56,97.56,50.49,90.36,50.31Z"/><path class="cls-4" d="M90.69,183.64c-5.48.13-6.74-4.05-7-6.07-.29,2-1.55,6.2-7,6.07-7.2-.17-8.16-8.25-5.64-12.33a37.68,37.68,0,0,1,6.34-8c2.37-2.45,5.2-5.21,6.25-6.91,0,0,.06-.2.09-.14s.09.14.09.14c1,1.69,3.88,4.45,6.25,6.91a37.68,37.68,0,0,1,6.34,8C98.85,175.39,97.9,183.46,90.69,183.64Z"/><path class="cls-4" d="M55.82,77.69c-5.48-.13-6.74,4.05-7,6.07-.29-2-1.55-6.2-7-6.07-7.2.17-8.16,8.25-5.64,12.33a37.68,37.68,0,0,0,6.34,8c2.37,2.45,5.2,5.21,6.25,6.91,0,0,.06.2.09.14s.09-.14.09-.14c1-1.69,3.88-4.45,6.25-6.91a37.68,37.68,0,0,0,6.34-8C64,85.94,63,77.87,55.82,77.69Z"/><path class="cls-4" d="M55.82,206.1c-5.48.13-6.74-4.05-7-6.07-.29,2-1.55,6.2-7,6.07-7.2-.17-8.16-8.25-5.64-12.33a37.68,37.68,0,0,1,6.34-8c2.37-2.45,5.2-5.21,6.25-6.91,0,0,.06-.2.09-.14s.09.14.09.14c1,1.69,3.88,4.45,6.25,6.91a37.68,37.68,0,0,1,6.34,8C64,197.86,63,205.93,55.82,206.1Z"/><path class="cls-4" d="M55.82,155.59c-5.48.13-6.74-4.05-7-6.07-.29,2-1.55,6.2-7,6.07-7.2-.17-8.16-8.25-5.64-12.33a37.68,37.68,0,0,1,6.34-8c2.37-2.45,5.2-5.21,6.25-6.91,0,0,.06-.2.09-.14s.09.14.09.14c1,1.69,3.88,4.45,6.25,6.91a37.68,37.68,0,0,1,6.34,8C64,147.34,63,155.41,55.82,155.59Z"/><path class="cls-4" d="M129.71,27.18c-5.48-.13-6.74,4.05-7,6.07-.29-2-1.55-6.2-7-6.07-7.2.17-8.16,8.25-5.64,12.33a37.68,37.68,0,0,0,6.34,8c2.37,2.45,5.2,5.21,6.25,6.91,0,0,.06.2.09.14s.09-.14.09-.14c1-1.69,3.88-4.45,6.25-6.91a37.68,37.68,0,0,0,6.34-8C137.87,35.43,136.91,27.35,129.71,27.18Z"/><path class="cls-4" d="M129.71,77.69c-5.48-.13-6.74,4.05-7,6.07-.29-2-1.55-6.2-7-6.07-7.2.17-8.16,8.25-5.64,12.33a37.68,37.68,0,0,0,6.34,8c2.37,2.45,5.2,5.21,6.25,6.91,0,0,.06.2.09.14s.09-.14.09-.14c1-1.69,3.88-4.45,6.25-6.91a37.68,37.68,0,0,0,6.34-8C137.87,85.94,136.91,77.87,129.71,77.69Z"/><path class="cls-4" d="M129.71,206.1c-5.48.13-6.74-4.05-7-6.07-.29,2-1.55,6.2-7,6.07-7.2-.17-8.16-8.25-5.64-12.33a37.68,37.68,0,0,1,6.34-8c2.37-2.45,5.2-5.21,6.25-6.91,0,0,.06-.2.09-.14s.09.14.09.14c1,1.69,3.88,4.45,6.25,6.91a37.68,37.68,0,0,1,6.34,8C137.87,197.86,136.91,205.93,129.71,206.1Z"/><path class="cls-4" d="M129.71,155.59c-5.48.13-6.74-4.05-7-6.07-.29,2-1.55,6.2-7,6.07-7.2-.17-8.16-8.25-5.64-12.33a37.68,37.68,0,0,1,6.34-8c2.37-2.45,5.2-5.21,6.25-6.91,0,0,.06-.2.09-.14s.09.14.09.14c1,1.69,3.88,4.45,6.25,6.91a37.68,37.68,0,0,1,6.34,8C137.87,147.34,136.91,155.41,129.71,155.59Z"/><circle class="cls-1" cx="148.53" cy="18.47" r="0.57"/><circle class="cls-1" cx="121.42" cy="18.47" r="0.57"/><circle class="cls-1" cx="96.48" cy="18.47" r="0.57"/><circle class="cls-1" cx="71.45" cy="18.66" r="0.57"/><circle class="cls-1" cx="148.53" cy="39.61" r="0.57"/><circle class="cls-1" cx="148.53" cy="58.9" r="0.57"/><circle class="cls-1" cx="148.53" cy="79.11" r="0.57"/><circle class="cls-1" cx="148.53" cy="91.89" r="0.57"/><circle class="cls-1" cx="148.53" cy="104.72" r="0.57"/><circle class="cls-1" cx="18.32" cy="19.04" r="0.57"/><circle class="cls-1" cx="45.74" cy="18.66" r="0.57"/><circle class="cls-1" cx="18.32" cy="39.16" r="0.57"/><circle class="cls-1" cx="18.32" cy="59.03" r="0.57"/><circle class="cls-1" cx="18.32" cy="78.97" r="0.57"/><circle class="cls-1" cx="18.32" cy="91.89" r="0.57"/><circle class="cls-1" cx="18.32" cy="105.28" r="0.57"/><circle class="cls-1" cx="18.32" cy="118.21" r="0.57"/><circle class="cls-1" cx="18.32" cy="131.13" r="0.57"/><circle class="cls-1" cx="18.32" cy="144.53" r="0.57"/><circle class="cls-1" cx="18.32" cy="157.95" r="0.57"/><circle class="cls-1" cx="18.32" cy="169.95" r="0.57"/><circle class="cls-1" cx="18.32" cy="183.35" r="0.57"/><circle class="cls-1" cx="18.32" cy="196.39" r="0.57"/><circle class="cls-1" cx="18.55" cy="215.57" r="0.57"/><circle class="cls-1" cx="39.07" cy="216.14" r="0.57"/><circle class="cls-1" cx="65.5" cy="216.14" r="0.57"/><circle class="cls-1" cx="91.89" cy="216.14" r="0.57"/><circle class="cls-1" cx="117.59" cy="216.14" r="0.57"/><circle class="cls-1" cx="148.53" cy="117.9" r="0.57"/><circle class="cls-1" cx="148.53" cy="130.22" r="0.57"/><circle class="cls-1" cx="148.53" cy="143.51" r="0.57"/><circle class="cls-1" cx="148.53" cy="156.61" r="0.57"/><circle class="cls-1" cx="148.53" cy="169.36" r="0.57"/><circle class="cls-1" cx="148.53" cy="181.94" r="0.57"/><circle class="cls-1" cx="148.53" cy="194.77" r="0.57"/><circle class="cls-1" cx="148.53" cy="214.34" r="0.57"/></g></g></svg>