<svg id="svg2" xmlns="http://www.w3.org/2000/svg" viewBox="0 0 167.09 242.67"><title>10-Hearts</title><g id="Layer_1"><g id="path5"><path d="M166.84,235.55a6.89,6.89,0,0,1-6.87,6.87H7.11a6.88,6.88,0,0,1-6.86-6.87V7.12A6.89,6.89,0,0,1,7.11.25H160a6.89,6.89,0,0,1,6.87,6.87Z" transform="translate(0 0)" style="fill:#fff;stroke:#000;stroke-width:0.5px"/></g></g><g id="text3788" style="isolation:isolate"><g style="isolation:isolate"><path d="M10.94,29.2H8.12V11.28a14.51,14.51,0,0,1-2.66,1.94,18.78,18.78,0,0,1-3,1.45V12A17,17,0,0,0,6.62,9.26,10.57,10.57,0,0,0,9.12,6.2h1.81Z" transform="translate(0 0)" style="fill:#df0000"/></g></g><g id="layer1-9-6"><g id="hl-8"><path d="M23.33,32.28c-5.43,0-6.15,5.45-6.15,5.45s-.72-5.45-6.15-5.45c-3.8,0-7.24,2.44-7.24,7.05,0,6.09,11,12.21,13.39,21.15,2.26-8.93,13.39-15.07,13.39-21.15C30.57,34.73,27.13,32.28,23.33,32.28Z" transform="translate(0 0)" style="fill:#df0000"/></g></g><g id="layer1-9-6-5"><g id="hl-8-1"><path d="M144,209.25c5.43,0,6.15-5.45,6.15-5.45s.72,5.45,6.15,5.45c3.8,0,7.24-2.44,7.24-7.05,0-6.09-11-12.21-13.39-21.15-2.26,8.93-13.39,15.07-13.39,21.15C136.76,206.8,140.2,209.25,144,209.25Z" transform="translate(0 0)" style="fill:#df0000"/></g></g><g id="layer1-9-6-8"><g id="hl-8-8"><path d="M64.73,6.6c-9,0-10.22,9-10.22,9s-1.2-9-10.22-9c-6.31,0-12,4.05-12,11.7,0,10.11,18.28,20.27,22.23,35.11,3.76-14.83,22.23-25,22.23-35.11C76.74,10.65,71,6.6,64.73,6.6Z" transform="translate(0 0)" style="fill:#df0000"/></g></g><g id="layer1-9-6-8-9"><g id="hl-8-8-5"><path d="M44.3,236.21c9,0,10.22-9,10.22-9s1.2,9,10.22,9c6.31,0,12-4.05,12-11.7,0-10.11-18.28-20.27-22.23-35.11-3.76,14.83-22.23,25-22.23,35.11C32.28,232.16,38,236.21,44.3,236.21Z" transform="translate(0 0)" style="fill:#df0000"/></g></g><g id="layer1-9-6-8-8"><g id="hl-8-8-8"><path d="M64.73,71.83c-9,0-10.22,9-10.22,9s-1.2-9-10.22-9c-6.31,0-12,4.05-12,11.7,0,10.11,18.28,20.27,22.23,35.11,3.76-14.83,22.23-25,22.23-35.11C76.74,75.89,71,71.83,64.73,71.83Z" transform="translate(0 0)" style="fill:#df0000"/></g></g><g id="layer1-9-6-8-884-8"><g id="hl-8-8-3-8"><path d="M44.3,168.76c9,0,10.22-9,10.22-9s1.2,9,10.22,9c6.31,0,12-4.05,12-11.7,0-10.11-18.28-20.27-22.23-35.11-3.76,14.83-22.23,25-22.23,35.11C32.28,164.71,38,168.76,44.3,168.76Z" transform="translate(0 0)" style="fill:#df0000"/></g></g><g id="layer1-9-6-8-7"><g id="hl-8-8-1"><path d="M122.21,7.19c-9,0-10.22,9-10.22,9s-1.2-9-10.22-9c-6.31,0-12,4.05-12,11.7C89.76,29,108,39.17,112,54c3.76-14.83,22.23-25,22.23-35.11C134.22,11.25,128.51,7.19,122.21,7.19Z" transform="translate(0 0)" style="fill:#df0000"/></g></g><g id="layer1-9-6-8-9-7"><g id="hl-8-8-5-2"><path d="M101.78,236.81c9,0,10.22-9,10.22-9s1.2,9,10.22,9c6.31,0,12-4.05,12-11.7,0-10.11-18.28-20.27-22.23-35.11-3.76,14.83-22.23,25-22.23,35.11C89.76,232.76,95.47,236.81,101.78,236.81Z" transform="translate(0 0)" style="fill:#df0000"/></g></g><g id="layer1-9-6-8-8-7"><g id="hl-8-8-8-2"><path d="M122.21,72.43c-9,0-10.22,9-10.22,9s-1.2-9-10.22-9c-6.31,0-12,4.05-12,11.7,0,10.11,18.28,20.27,22.23,35.11,3.76-14.83,22.23-25,22.23-35.11C134.22,76.48,128.51,72.43,122.21,72.43Z" transform="translate(0 0)" style="fill:#df0000"/></g></g><g id="layer1-9-6-8-884-8-2"><g id="hl-8-8-3-8-6"><path d="M101.78,169.36c9,0,10.22-9,10.22-9s1.2,9,10.22,9c6.31,0,12-4.05,12-11.7,0-10.11-18.28-20.27-22.23-35.11-3.76,14.83-22.23,25-22.23,35.11C89.76,165.31,95.47,169.36,101.78,169.36Z" transform="translate(0 0)" style="fill:#df0000"/></g></g><g id="layer1-9-6-8-91"><g id="hl-8-8-7"><path d="M93.43,39.3c-9,0-10.22,9-10.22,9s-1.2-9-10.22-9c-6.31,0-12,4.05-12,11.7,0,10.11,18.28,20.27,22.23,35.11C87,71.28,105.45,61.11,105.45,51,105.45,43.35,99.74,39.3,93.43,39.3Z" transform="translate(0 0)" style="fill:#df0000"/></g></g><g id="layer1-9-6-8-9-6"><g id="hl-8-8-5-8"><path d="M72.53,203.11c9,0,10.22-9,10.22-9s1.2,9,10.22,9c6.31,0,12-4.05,12-11.7,0-10.11-18.28-20.27-22.23-35.11-3.76,14.83-22.23,25-22.23,35.11C60.52,199.06,66.22,203.11,72.53,203.11Z" transform="translate(0 0)" style="fill:#df0000"/></g></g><g id="text3788-43" style="isolation:isolate"><g style="isolation:isolate"><path d="M13.61,17.66a21,21,0,0,1,.84-6.54A8.14,8.14,0,0,1,16.94,7.3,6.35,6.35,0,0,1,21.08,6a6.78,6.78,0,0,1,3.23.74,6.2,6.2,0,0,1,2.3,2.14A11.5,11.5,0,0,1,28,12.25a22.63,22.63,0,0,1,.52,5.41,21,21,0,0,1-.83,6.51A8.13,8.13,0,0,1,25.25,28a6.35,6.35,0,0,1-4.16,1.35A6.28,6.28,0,0,1,15.88,27Q13.61,24.12,13.61,17.66Zm2.89,0q0,5.64,1.32,7.51a3.77,3.77,0,0,0,6.52,0q1.32-1.87,1.32-7.5t-1.32-7.52a3.92,3.92,0,0,0-3.29-1.86A3.6,3.6,0,0,0,18,9.93Q16.51,12,16.51,17.66Z" transform="translate(0 0)" style="fill:#df0000"/></g></g><g id="text3788-7" style="isolation:isolate"><g style="isolation:isolate"><path d="M155.68,212.06h2.81V230a14.52,14.52,0,0,1,2.66-1.94,18.8,18.8,0,0,1,3-1.45v2.72A17,17,0,0,0,160,232a10.57,10.57,0,0,0-2.5,3.06h-1.81Z" transform="translate(0 0)" style="fill:#df0000"/></g></g><g id="text3788-43-8" style="isolation:isolate"><g style="isolation:isolate"><path d="M153,223.6a21,21,0,0,1-.84,6.54,8.13,8.13,0,0,1-2.48,3.82,6.35,6.35,0,0,1-4.15,1.34,6.78,6.78,0,0,1-3.23-.74,6.2,6.2,0,0,1-2.3-2.14,11.51,11.51,0,0,1-1.42-3.41,22.63,22.63,0,0,1-.52-5.41,21,21,0,0,1,.83-6.51,8.14,8.14,0,0,1,2.48-3.83,6.35,6.35,0,0,1,4.16-1.35,6.28,6.28,0,0,1,5.2,2.38Q153,217.15,153,223.6Zm-2.89,0q0-5.64-1.32-7.51a3.77,3.77,0,0,0-6.52,0q-1.32,1.88-1.32,7.5t1.32,7.52a3.92,3.92,0,0,0,3.29,1.86,3.6,3.6,0,0,0,3.09-1.64Q150.11,229.24,150.11,223.6Z" transform="translate(0 0)" style="fill:#df0000"/></g></g></svg>
