<svg xmlns="http://www.w3.org/2000/svg" viewBox="0 0 166.55 233.13"><defs><style>.cls-1{fill:#fff;}.cls-2{fill:#65a7dd;}.cls-3{fill:#151515;}</style></defs><title>Asset 33</title><g id="Layer_2" data-name="Layer 2"><g id="Objects"><rect class="cls-1" x="0.12" y="0.12" width="166.32" height="232.9" rx="5.94" ry="5.94"/><path class="cls-2" d="M160.5,233.13H6.05A6.06,6.06,0,0,1,0,227.08V6.06A6.06,6.06,0,0,1,6.05,0H160.5a6.06,6.06,0,0,1,6.05,6.06v221A6.06,6.06,0,0,1,160.5,233.13ZM6.05.23A5.83,5.83,0,0,0,.23,6.06v221a5.83,5.83,0,0,0,5.82,5.82H160.5a5.83,5.83,0,0,0,5.82-5.82V6.06A5.83,5.83,0,0,0,160.5.23Z"/><path d="M13.56,26.18h1.86a.61.61,0,0,0,.42-.12.51.51,0,0,0,.13-.39V16.14H13.56v-.7h1.07a2.5,2.5,0,0,0,1.7-.56,2.36,2.36,0,0,0,.81-1.36h.62V25.67a.51.51,0,0,0,.13.39.61.61,0,0,0,.42.12h1.86v.62h-6.6Z"/><path d="M25.67,26.12A6.56,6.56,0,0,1,24,23.53a9.87,9.87,0,0,1,0-6.73,6.56,6.56,0,0,1,1.66-2.59,3.5,3.5,0,0,1,4.88,0,6.51,6.51,0,0,1,1.67,2.59,9.88,9.88,0,0,1,0,6.73,6.51,6.51,0,0,1-1.67,2.59,3.5,3.5,0,0,1-4.88,0Zm4.57-1.46a16.85,16.85,0,0,0,.51-4.5,16.85,16.85,0,0,0-.51-4.5,2.15,2.15,0,0,0-4.25,0,16.82,16.82,0,0,0-.51,4.51A16.82,16.82,0,0,0,26,24.67a2.15,2.15,0,0,0,4.25,0Z"/><path d="M152.37,209.67H150.5a.61.61,0,0,0-.42.12.51.51,0,0,0-.13.39v9.53h2.41v.7H151.3a2.5,2.5,0,0,0-1.7.56,2.36,2.36,0,0,0-.81,1.36h-.62V210.18a.51.51,0,0,0-.13-.39.61.61,0,0,0-.42-.12h-1.86v-.62h6.6Z"/><path d="M140.26,209.73a6.56,6.56,0,0,1,1.66,2.59,9.87,9.87,0,0,1,0,6.73,6.56,6.56,0,0,1-1.66,2.59,3.5,3.5,0,0,1-4.88,0,6.51,6.51,0,0,1-1.67-2.59,9.87,9.87,0,0,1,0-6.73,6.51,6.51,0,0,1,1.67-2.59,3.5,3.5,0,0,1,4.88,0Zm-4.57,1.46a20,20,0,0,0,0,9,2.15,2.15,0,0,0,4.25,0,20,20,0,0,0,0-9,2.15,2.15,0,0,0-4.25,0Z"/><path class="cls-3" d="M95.1,67.81c-3.63-4-7.85-7.83-9.62-9.86-1.33-1.52-2.26-2.68-2.65-3.16v-.25l-.1.12-.1-.12v.25c-.39.48-1.33,1.64-2.65,3.16-1.77,2-6,5.89-9.62,9.86A12.06,12.06,0,0,0,67.12,79c.69,3.29,4.12,6.38,9.52,5.7a6,6,0,0,0,3.84-2,12.55,12.55,0,0,1-3.12,7.07H87.84a13.4,13.4,0,0,1-2.83-7,6,6,0,0,0,3.81,2c5.4.68,8.84-2.42,9.52-5.7A12.06,12.06,0,0,0,95.1,67.81Z"/><path class="cls-3" d="M63.57,42.57c-3.63-4-7.85-7.83-9.62-9.86-1.33-1.52-2.26-2.68-2.65-3.16V29.3l-.1.12-.1-.12v.25c-.39.48-1.33,1.64-2.65,3.16-1.77,2-6,5.89-9.62,9.86a12.06,12.06,0,0,0-3.24,11.21c.69,3.29,4.12,6.38,9.52,5.7a6,6,0,0,0,3.84-2,12.55,12.55,0,0,1-3.12,7.07H56.3a13.4,13.4,0,0,1-2.83-7,6,6,0,0,0,3.81,2c5.4.68,8.84-2.42,9.52-5.7A12.06,12.06,0,0,0,63.57,42.57Z"/><path class="cls-3" d="M63.57,93.14c-3.63-4-7.85-7.83-9.62-9.86-1.33-1.52-2.26-2.68-2.65-3.16v-.25l-.1.12-.1-.12v.25c-.39.48-1.33,1.64-2.65,3.16-1.77,2-6,5.89-9.62,9.86a12.06,12.06,0,0,0-3.24,11.21c.69,3.29,4.12,6.38,9.52,5.7a6,6,0,0,0,3.84-2,12.55,12.55,0,0,1-3.12,7.07H56.3a13.4,13.4,0,0,1-2.83-7,6,6,0,0,0,3.81,2c5.4.68,8.84-2.42,9.52-5.7A12.06,12.06,0,0,0,63.57,93.14Z"/><path class="cls-3" d="M63.57,202.94c-3.63,4-7.85,7.83-9.62,9.86-1.33,1.52-2.26,2.68-2.65,3.16v.25l-.1-.12-.1.12V216c-.39-.48-1.33-1.64-2.65-3.16-1.77-2-6-5.89-9.62-9.86a12.06,12.06,0,0,1-3.24-11.21c.69-3.29,4.12-6.38,9.52-5.7a6,6,0,0,1,3.84,2A12.55,12.55,0,0,0,45.83,181H56.3a13.4,13.4,0,0,0-2.83,7,6,6,0,0,1,3.81-2c5.4-.68,8.84,2.42,9.52,5.7A12.06,12.06,0,0,1,63.57,202.94Z"/><path class="cls-3" d="M127.54,42.57c-3.63-4-7.85-7.83-9.62-9.86-1.33-1.52-2.26-2.68-2.65-3.16V29.3l-.1.12-.1-.12v.25c-.39.48-1.33,1.64-2.65,3.16-1.77,2-6,5.89-9.62,9.86a12.06,12.06,0,0,0-3.24,11.21c.69,3.29,4.12,6.38,9.52,5.7a6,6,0,0,0,3.84-2,12.55,12.55,0,0,1-3.12,7.07h10.47a13.4,13.4,0,0,1-2.83-7,6,6,0,0,0,3.81,2c5.4.68,8.84-2.42,9.52-5.7A12.06,12.06,0,0,0,127.54,42.57Z"/><path class="cls-3" d="M127.54,93.14c-3.63-4-7.85-7.83-9.62-9.86-1.33-1.52-2.26-2.68-2.65-3.16v-.25l-.1.12-.1-.12v.25c-.39.48-1.33,1.64-2.65,3.16-1.77,2-6,5.89-9.62,9.86a12.06,12.06,0,0,0-3.24,11.21c.69,3.29,4.12,6.38,9.52,5.7a6,6,0,0,0,3.84-2,12.55,12.55,0,0,1-3.12,7.07h10.47a13.4,13.4,0,0,1-2.83-7,6,6,0,0,0,3.81,2c5.4.68,8.84-2.42,9.52-5.7A12.06,12.06,0,0,0,127.54,93.14Z"/><path class="cls-3" d="M127.54,202.94c-3.63,4-7.85,7.83-9.62,9.86-1.33,1.52-2.26,2.68-2.65,3.16v.25l-.1-.12-.1.12V216c-.39-.48-1.33-1.64-2.65-3.16-1.77-2-6-5.89-9.62-9.86a12.06,12.06,0,0,1-3.24-11.21c.69-3.29,4.12-6.38,9.52-5.7a6,6,0,0,1,3.84,2A12.55,12.55,0,0,0,109.8,181h10.47a13.4,13.4,0,0,0-2.83,7,6,6,0,0,1,3.81-2c5.4-.68,8.84,2.42,9.52,5.7A12.06,12.06,0,0,1,127.54,202.94Z"/><path class="cls-3" d="M63.57,152.38c-3.63,4-7.85,7.83-9.62,9.86-1.33,1.52-2.26,2.68-2.65,3.16v.25l-.1-.12-.1.12v-.25c-.39-.48-1.33-1.64-2.65-3.16-1.77-2-6-5.89-9.62-9.86a12.06,12.06,0,0,1-3.24-11.21c.69-3.29,4.12-6.38,9.52-5.7a6,6,0,0,1,3.84,2,12.55,12.55,0,0,0-3.12-7.07H56.3a13.4,13.4,0,0,0-2.83,7,6,6,0,0,1,3.81-2c5.4-.68,8.84,2.42,9.52,5.7A12.06,12.06,0,0,1,63.57,152.38Z"/><path class="cls-3" d="M127.54,152.38c-3.63,4-7.85,7.83-9.62,9.86-1.33,1.52-2.26,2.68-2.65,3.16v.25l-.1-.12-.1.12v-.25c-.39-.48-1.33-1.64-2.65-3.16-1.77-2-6-5.89-9.62-9.86a12.06,12.06,0,0,1-3.24-11.21c.69-3.29,4.12-6.38,9.52-5.7a6,6,0,0,1,3.84,2,12.56,12.56,0,0,0-3.12-7.07h10.47a13.4,13.4,0,0,0-2.83,7,6,6,0,0,1,3.81-2c5.4-.68,8.84,2.42,9.52,5.7A12.06,12.06,0,0,1,127.54,152.38Z"/><path class="cls-3" d="M95.1,176.3c-3.63,4-7.85,7.83-9.62,9.86-1.33,1.52-2.26,2.68-2.65,3.16v.25l-.1-.12-.1.12v-.25c-.39-.48-1.33-1.64-2.65-3.16-1.77-2-6-5.89-9.62-9.86a12.06,12.06,0,0,1-3.24-11.21c.69-3.29,4.12-6.38,9.52-5.7a6,6,0,0,1,3.84,2,12.55,12.55,0,0,0-3.12-7.07H87.84a13.4,13.4,0,0,0-2.83,7,6,6,0,0,1,3.81-2c5.4-.68,8.84,2.42,9.52,5.7A12.06,12.06,0,0,1,95.1,176.3Z"/><path class="cls-3" d="M25.68,34.73c-1.07-1.17-2.32-2.31-2.84-2.91s-.67-.79-.78-.93v-.07l0,0,0,0v.07c-.11.14-.39.48-.78.93s-1.77,1.74-2.84,2.91a3.56,3.56,0,0,0-1,3.31,2.38,2.38,0,0,0,2.81,1.68,1.78,1.78,0,0,0,1.13-.6,3.7,3.7,0,0,1-.92,2.09h3.09a4,4,0,0,1-.84-2.08,1.77,1.77,0,0,0,1.13.59A2.38,2.38,0,0,0,26.63,38,3.56,3.56,0,0,0,25.68,34.73Z"/><path class="cls-3" d="M146.72,200.87c-1.07,1.17-2.32,2.31-2.84,2.91s-.67.79-.78.93v.07l0,0,0,0v-.07c-.11-.14-.39-.48-.78-.93s-1.77-1.74-2.84-2.91a3.56,3.56,0,0,1-1-3.31,2.38,2.38,0,0,1,2.81-1.68,1.78,1.78,0,0,1,1.13.6,3.7,3.7,0,0,0-.92-2.09h3.09a4,4,0,0,0-.84,2.08,1.77,1.77,0,0,1,1.13-.59,2.38,2.38,0,0,1,2.81,1.68A3.56,3.56,0,0,1,146.72,200.87Z"/><circle class="cls-1" cx="148.59" cy="18.48" r="0.57"/><circle class="cls-1" cx="121.47" cy="18.48" r="0.57"/><circle class="cls-1" cx="96.52" cy="18.48" r="0.57"/><circle class="cls-1" cx="71.48" cy="18.66" r="0.57"/><circle class="cls-1" cx="148.59" cy="39.62" r="0.57"/><circle class="cls-1" cx="148.59" cy="58.91" r="0.57"/><circle class="cls-1" cx="148.59" cy="79.13" r="0.57"/><circle class="cls-1" cx="148.59" cy="91.91" r="0.57"/><circle class="cls-1" cx="148.59" cy="104.74" r="0.57"/><circle class="cls-1" cx="18.33" cy="19.05" r="0.57"/><circle class="cls-1" cx="45.76" cy="18.66" r="0.57"/><circle class="cls-1" cx="18.33" cy="39.17" r="0.57"/><circle class="cls-1" cx="18.33" cy="59.05" r="0.57"/><circle class="cls-1" cx="18.33" cy="78.99" r="0.57"/><circle class="cls-1" cx="18.33" cy="91.91" r="0.57"/><circle class="cls-1" cx="18.33" cy="105.31" r="0.57"/><circle class="cls-1" cx="18.33" cy="118.24" r="0.57"/><circle class="cls-1" cx="18.33" cy="131.17" r="0.57"/><circle class="cls-1" cx="18.33" cy="144.57" r="0.57"/><circle class="cls-1" cx="18.33" cy="158" r="0.57"/><circle class="cls-1" cx="18.33" cy="170" r="0.57"/><circle class="cls-1" cx="18.33" cy="183.39" r="0.57"/><circle class="cls-1" cx="18.33" cy="196.44" r="0.57"/><circle class="cls-1" cx="18.56" cy="215.63" r="0.57"/><circle class="cls-1" cx="39.08" cy="216.2" r="0.57"/><circle class="cls-1" cx="65.52" cy="216.2" r="0.57"/><circle class="cls-1" cx="91.92" cy="216.2" r="0.57"/><circle class="cls-1" cx="117.64" cy="216.2" r="0.57"/><circle class="cls-1" cx="148.59" cy="117.93" r="0.57"/><circle class="cls-1" cx="148.59" cy="130.26" r="0.57"/><circle class="cls-1" cx="148.59" cy="143.55" r="0.57"/><circle class="cls-1" cx="148.59" cy="156.65" r="0.57"/><circle class="cls-1" cx="148.59" cy="169.41" r="0.57"/><circle class="cls-1" cx="148.59" cy="181.98" r="0.57"/><circle class="cls-1" cx="148.59" cy="194.82" r="0.57"/><circle class="cls-1" cx="148.59" cy="214.39" r="0.57"/></g></g></svg>