<svg id="svg2" xmlns="http://www.w3.org/2000/svg" viewBox="0 0 167.09 242.67"><title>2-Clubs</title><g id="Layer_1"><g id="path5"><path d="M166.84,235.55a6.89,6.89,0,0,1-6.87,6.87H7.11a6.88,6.88,0,0,1-6.86-6.87V7.12A6.89,6.89,0,0,1,7.11.25H160a6.89,6.89,0,0,1,6.87,6.87Z" transform="translate(0 0)" style="fill:#fff;stroke:#000;stroke-width:0.5px"/></g></g><g id="text3788" style="isolation:isolate"><g style="isolation:isolate"><path d="M24.42,24.85v2.7H9.28a5,5,0,0,1,.33-2,10.33,10.33,0,0,1,1.85-3,29,29,0,0,1,3.68-3.47,31.15,31.15,0,0,0,5-4.85,5.81,5.81,0,0,0,1.31-3.38A3.76,3.76,0,0,0,20.3,8a4.31,4.31,0,0,0-3.12-1.15A4.39,4.39,0,0,0,13.94,8.1a4.61,4.61,0,0,0-1.23,3.38l-2.89-.3A7.11,7.11,0,0,1,12,6.24a7.62,7.62,0,0,1,5.2-1.7,7.26,7.26,0,0,1,5.22,1.83,6,6,0,0,1,1.92,4.53,6.87,6.87,0,0,1-.56,2.7A10.48,10.48,0,0,1,22,16.41a45.48,45.48,0,0,1-4.34,4q-2.53,2.13-3.25,2.88a9.29,9.29,0,0,0-1.19,1.52Z" transform="translate(0 0)"/></g></g><g id="layer1-1-4"><g id="cl-9"><path d="M20.69,43.74s3.53-2.82,3.53-6.74a6.47,6.47,0,0,0-6.74-6.09A6.47,6.47,0,0,0,10.75,37c0,3.91,3.53,6.74,3.53,6.74-3.92-3.05-10.91-1-10.91,5.13a6.48,6.48,0,0,0,6.42,6.42c4.7,0,6.74-5.13,6.74-5.13s.6,5.85-2.89,9h7.7c-3.48-3.13-2.89-9-2.89-9s2,5.13,6.74,5.13a6.48,6.48,0,0,0,6.42-6.42C31.6,42.77,24.61,40.69,20.69,43.74Z" transform="translate(0 0)"/></g></g><g id="text3788-8" style="isolation:isolate"><g style="isolation:isolate"><path d="M142.75,217.17v-2.7H157.9a5,5,0,0,1-.33,2,10.35,10.35,0,0,1-1.85,3,29,29,0,0,1-3.68,3.47,31.15,31.15,0,0,0-5,4.85,5.81,5.81,0,0,0-1.31,3.38,3.76,3.76,0,0,0,1.2,2.82,4.31,4.31,0,0,0,3.12,1.15,4.39,4.39,0,0,0,3.25-1.22,4.61,4.61,0,0,0,1.23-3.37l2.89.3a7.12,7.12,0,0,1-2.23,4.93,7.62,7.62,0,0,1-5.2,1.7,7.26,7.26,0,0,1-5.22-1.83,6,6,0,0,1-1.92-4.53,6.87,6.87,0,0,1,.56-2.7,10.47,10.47,0,0,1,1.87-2.8,45.48,45.48,0,0,1,4.34-4q2.53-2.13,3.25-2.88a9.29,9.29,0,0,0,1.19-1.52Z" transform="translate(0 0)"/></g></g><g id="layer1-1-4-1"><g id="cl-9-7"><path d="M146.48,198.74s-3.53,2.82-3.53,6.74a6.77,6.77,0,0,0,13.47,0c0-3.91-3.53-6.74-3.53-6.74,3.92,3.05,10.91,1,10.91-5.13a6.48,6.48,0,0,0-6.42-6.42c-4.7,0-6.74,5.13-6.74,5.13s-.6-5.85,2.89-9h-7.7c3.48,3.13,2.89,9,2.89,9s-2-5.13-6.74-5.13a6.48,6.48,0,0,0-6.42,6.42C135.58,199.71,142.56,201.79,146.48,198.74Z" transform="translate(0 0)"/></g></g><g id="layer1-1-4-8"><g id="cl-9-8"><path d="M89.57,55.5s6-4.77,6-11.39A10.94,10.94,0,0,0,84.15,33.8,11,11,0,0,0,72.76,44.11c0,6.62,6,11.39,6,11.39-6.63-5.16-18.44-1.64-18.44,8.68A11,11,0,0,0,71.13,75c8,0,11.39-8.68,11.39-8.68s1,9.89-4.88,15.19h13c-5.89-5.29-4.88-15.19-4.88-15.19S89.22,75,97.17,75A11,11,0,0,0,108,64.18C108,53.86,96.2,50.34,89.57,55.5Z" transform="translate(0 0)"/></g></g><g id="layer1-1-4-8-0"><g id="cl-9-8-6"><path d="M78.77,188.24s-6,4.77-6,11.39a10.94,10.94,0,0,0,11.39,10.31,11,11,0,0,0,11.39-10.31c0-6.62-6-11.39-6-11.39,6.63,5.16,18.44,1.64,18.44-8.68a11,11,0,0,0-10.85-10.85c-8,0-11.39,8.68-11.39,8.68s-1-9.89,4.88-15.19h-13c5.89,5.29,4.88,15.19,4.88,15.19s-3.44-8.68-11.39-8.68a11,11,0,0,0-10.85,10.85C60.32,189.88,72.14,193.41,78.77,188.24Z" transform="translate(0 0)"/></g></g></svg>