<svg xmlns="http://www.w3.org/2000/svg" viewBox="0 0 166.59 233.13"><defs><style>.cls-1{fill:#fff;}.cls-2{fill:#65a7dd;}.cls-3{fill:#151515;}.cls-4{fill:#272425;}</style></defs><title>Asset 54</title><g id="Layer_2" data-name="Layer 2"><g id="Objects"><rect class="cls-1" x="0.12" y="0.12" width="166.36" height="232.9" rx="5.94" ry="5.94"/><path class="cls-2" d="M160.53,233.13H6.06A6.06,6.06,0,0,1,0,227.08V6.06A6.06,6.06,0,0,1,6.06,0H160.53a6.06,6.06,0,0,1,6.06,6.06v221A6.06,6.06,0,0,1,160.53,233.13ZM6.06.23A5.83,5.83,0,0,0,.23,6.06v221a5.83,5.83,0,0,0,5.82,5.82H160.53a5.83,5.83,0,0,0,5.82-5.82V6.06A5.83,5.83,0,0,0,160.53.23Z"/><circle class="cls-1" cx="148.63" cy="18.48" r="0.57"/><circle class="cls-1" cx="121.5" cy="18.48" r="0.57"/><circle class="cls-1" cx="96.54" cy="18.48" r="0.57"/><circle class="cls-1" cx="71.49" cy="18.66" r="0.57"/><circle class="cls-1" cx="148.63" cy="39.62" r="0.57"/><circle class="cls-1" cx="148.63" cy="58.91" r="0.57"/><circle class="cls-1" cx="148.63" cy="79.13" r="0.57"/><circle class="cls-1" cx="148.63" cy="91.91" r="0.57"/><circle class="cls-1" cx="148.63" cy="104.74" r="0.57"/><circle class="cls-1" cx="18.33" cy="19.05" r="0.57"/><circle class="cls-1" cx="45.77" cy="18.66" r="0.57"/><circle class="cls-1" cx="18.33" cy="39.17" r="0.57"/><circle class="cls-1" cx="18.33" cy="59.05" r="0.57"/><circle class="cls-1" cx="18.33" cy="78.99" r="0.57"/><circle class="cls-1" cx="18.33" cy="91.91" r="0.57"/><circle class="cls-1" cx="18.33" cy="105.31" r="0.57"/><circle class="cls-1" cx="18.33" cy="118.24" r="0.57"/><circle class="cls-1" cx="18.33" cy="131.17" r="0.57"/><circle class="cls-1" cx="18.33" cy="144.57" r="0.57"/><circle class="cls-1" cx="18.33" cy="158" r="0.57"/><circle class="cls-1" cx="18.33" cy="170" r="0.57"/><circle class="cls-1" cx="18.33" cy="183.39" r="0.57"/><circle class="cls-1" cx="18.33" cy="196.44" r="0.57"/><circle class="cls-1" cx="18.56" cy="215.63" r="0.57"/><circle class="cls-1" cx="39.09" cy="216.19" r="0.57"/><circle class="cls-1" cx="65.54" cy="216.19" r="0.57"/><circle class="cls-1" cx="91.94" cy="216.19" r="0.57"/><circle class="cls-1" cx="117.67" cy="216.19" r="0.57"/><circle class="cls-1" cx="148.63" cy="117.93" r="0.57"/><circle class="cls-1" cx="148.63" cy="130.26" r="0.57"/><circle class="cls-1" cx="148.63" cy="143.55" r="0.57"/><circle class="cls-1" cx="148.63" cy="156.65" r="0.57"/><circle class="cls-1" cx="148.63" cy="169.41" r="0.57"/><circle class="cls-1" cx="148.63" cy="181.98" r="0.57"/><circle class="cls-1" cx="148.63" cy="194.82" r="0.57"/><circle class="cls-1" cx="148.63" cy="214.39" r="0.57"/><path class="cls-3" d="M98.91,185.47c-3.58,3.91-9.07,1.59-9.07,1.59,1.54,1.64,2.56,2.95,2.37,5.64,0,.09,0,.18,0,.27a7.75,7.75,0,1,1-15.34-1.57c.18-1.86,1.1-3,2.36-4.34,0,0-5.5,2.32-9.07-1.59a8.09,8.09,0,0,1-.66-10.07c1.13-1.52,2.81-4.08,6.79-3.79,3.52.26,4,.86,6.46,2.79a16,16,0,0,0-3.51-8.94h10.6c-1.95,2-3.67,6.75-3.45,8.89,2.37-1.89,2.91-2.48,6.39-2.74,4-.3,5.66,2.26,6.79,3.79A8.09,8.09,0,0,1,98.91,185.47Z"/><path class="cls-4" d="M15.7,23.13a6.1,6.1,0,0,1,1.82-2.25l1.86-1.59a5.47,5.47,0,0,0,1.39-1.67,4.47,4.47,0,0,0,.48-2.1,3.39,3.39,0,0,0-.74-2.34,2.67,2.67,0,0,0-2.1-.82,2.6,2.6,0,0,0-1.19.29,2.64,2.64,0,0,0-.93.77,1.61,1.61,0,0,0-.36,1,1,1,0,0,0,.21.69,1,1,0,0,0,.58.28,1.56,1.56,0,0,1,.92.42,1.08,1.08,0,0,1,.3.77.83.83,0,0,1-.26.62,1,1,0,0,1-.73.25,1.64,1.64,0,0,1-1.32-.63,2.51,2.51,0,0,1-.52-1.66,3.31,3.31,0,0,1,.5-1.79A3.38,3.38,0,0,1,17,12.11a4.3,4.3,0,0,1,2-.45,5.18,5.18,0,0,1,2.23.47,3.65,3.65,0,0,1,1.55,1.34,3.71,3.71,0,0,1,.56,2.06,3.15,3.15,0,0,1-.83,2.13,12.81,12.81,0,0,1-2.19,1.92l-1.9,1.47a6.49,6.49,0,0,0-1.25,1.08,1.62,1.62,0,0,0-.44,1.06q0,.47.6.47H21a1.46,1.46,0,0,0,1.1-.34,1.87,1.87,0,0,0,.44-1l.21-1.15h.43l-.27,4H15.29A5.8,5.8,0,0,1,15.7,23.13Z"/><path class="cls-4" d="M154.16,208.7a6.1,6.1,0,0,1-1.82,2.25l-1.86,1.59a5.47,5.47,0,0,0-1.39,1.67,4.47,4.47,0,0,0-.48,2.1,3.39,3.39,0,0,0,.74,2.34,2.67,2.67,0,0,0,2.1.82,2.6,2.6,0,0,0,1.19-.29,2.64,2.64,0,0,0,.93-.77,1.61,1.61,0,0,0,.36-1,1,1,0,0,0-.21-.69,1,1,0,0,0-.58-.28,1.56,1.56,0,0,1-.92-.42,1.08,1.08,0,0,1-.3-.77.83.83,0,0,1,.26-.62,1,1,0,0,1,.73-.25,1.64,1.64,0,0,1,1.32.63,2.51,2.51,0,0,1,.52,1.66,3.31,3.31,0,0,1-.5,1.79,3.38,3.38,0,0,1-1.38,1.24,4.3,4.3,0,0,1-2,.45,5.18,5.18,0,0,1-2.23-.47,3.65,3.65,0,0,1-1.55-1.34,3.71,3.71,0,0,1-.56-2.06,3.15,3.15,0,0,1,.83-2.14,12.81,12.81,0,0,1,2.19-1.92l1.9-1.47a6.5,6.5,0,0,0,1.25-1.08,1.62,1.62,0,0,0,.44-1.06q0-.47-.6-.47H148.9a1.46,1.46,0,0,0-1.1.34,1.87,1.87,0,0,0-.44,1l-.21,1.15h-.43l.27-4h7.57A5.8,5.8,0,0,1,154.16,208.7Z"/><path class="cls-3" d="M14.88,34.23a2.45,2.45,0,0,0,2.62.46,1.91,1.91,0,0,0-.68,1.63s0,.05,0,.08a2.24,2.24,0,1,0,4.43-.45,2,2,0,0,0-.68-1.25,2.45,2.45,0,0,0,2.62-.46,2.34,2.34,0,0,0,.19-2.91,2.08,2.08,0,0,0-2-1.09,2.52,2.52,0,0,0-1.87.81,4.61,4.61,0,0,1,1-2.58H17.5a4.35,4.35,0,0,1,1,2.57,2.5,2.5,0,0,0-1.85-.79,2.08,2.08,0,0,0-2,1.09A2.34,2.34,0,0,0,14.88,34.23Z"/><path class="cls-3" d="M98.91,41.32c-3.58-3.91-9.07-1.59-9.07-1.59,1.54-1.64,2.56-2.95,2.37-5.64,0-.09,0-.18,0-.27a7.75,7.75,0,1,0-15.34,1.57c.18,1.86,1.1,3,2.36,4.34,0,0-5.5-2.32-9.07,1.59a8.09,8.09,0,0,0-.66,10.07c1.13,1.52,2.81,4.08,6.79,3.79,3.52-.26,4-.86,6.46-2.79a16,16,0,0,1-3.51,8.94h10.6c-1.95-2-3.67-6.75-3.45-8.89,2.37,1.89,2.91,2.48,6.39,2.74,4,.3,5.66-2.26,6.79-3.79A8.09,8.09,0,0,0,98.91,41.32Z"/><path class="cls-3" d="M145.19,197.36a2.45,2.45,0,0,1,2.62-.46,1.91,1.91,0,0,1-.68-1.63s0-.05,0-.08a2.24,2.24,0,1,1,4.43.45,2,2,0,0,1-.68,1.25,2.45,2.45,0,0,1,2.62.46,2.34,2.34,0,0,1,.19,2.91,2.08,2.08,0,0,1-2,1.09,2.52,2.52,0,0,1-1.87-.81,4.61,4.61,0,0,0,1,2.58h-3.06a4.35,4.35,0,0,0,1-2.57,2.5,2.5,0,0,1-1.85.79,2.08,2.08,0,0,1-2-1.09A2.34,2.34,0,0,1,145.19,197.36Z"/></g></g></svg>