<svg xmlns="http://www.w3.org/2000/svg" viewBox="0 0 166.48 233.07"><defs><style>.cls-1{fill:#fff;}.cls-2{fill:#65a7dd;}.cls-3{fill:#af0f07;}.cls-4{fill:#a43e32;}</style></defs><title>Asset 18</title><g id="Layer_2" data-name="Layer 2"><g id="Objects"><rect class="cls-1" x="0.12" y="0.11" width="166.25" height="232.84" rx="5.94" ry="5.94"/><path class="cls-2" d="M160.43,233.07H6.05A6.06,6.06,0,0,1,0,227V6.05A6.06,6.06,0,0,1,6.05,0H160.43a6.06,6.06,0,0,1,6.05,6.05V227A6.06,6.06,0,0,1,160.43,233.07ZM6.05.23A5.83,5.83,0,0,0,.23,6.05V227a5.83,5.83,0,0,0,5.82,5.82H160.43a5.83,5.83,0,0,0,5.82-5.82V6.05A5.83,5.83,0,0,0,160.43.23Z"/><circle class="cls-1" cx="148.53" cy="18.48" r="0.57"/><circle class="cls-1" cx="121.42" cy="18.48" r="0.57"/><circle class="cls-1" cx="96.48" cy="18.48" r="0.57"/><circle class="cls-1" cx="71.45" cy="18.66" r="0.57"/><circle class="cls-1" cx="148.53" cy="39.61" r="0.57"/><circle class="cls-1" cx="148.53" cy="58.9" r="0.57"/><circle class="cls-1" cx="148.53" cy="79.11" r="0.57"/><circle class="cls-1" cx="148.53" cy="91.89" r="0.57"/><circle class="cls-1" cx="148.53" cy="104.72" r="0.57"/><circle class="cls-1" cx="18.32" cy="19.04" r="0.57"/><circle class="cls-1" cx="45.74" cy="18.66" r="0.57"/><circle class="cls-1" cx="18.32" cy="39.16" r="0.57"/><circle class="cls-1" cx="18.32" cy="59.03" r="0.57"/><circle class="cls-1" cx="18.32" cy="78.97" r="0.57"/><circle class="cls-1" cx="18.32" cy="91.89" r="0.57"/><circle class="cls-1" cx="18.32" cy="105.29" r="0.57"/><circle class="cls-1" cx="18.32" cy="118.21" r="0.57"/><circle class="cls-1" cx="18.32" cy="131.13" r="0.57"/><circle class="cls-1" cx="18.32" cy="144.53" r="0.57"/><circle class="cls-1" cx="18.32" cy="157.95" r="0.57"/><circle class="cls-1" cx="18.32" cy="169.95" r="0.57"/><circle class="cls-1" cx="18.32" cy="183.35" r="0.57"/><circle class="cls-1" cx="18.32" cy="196.39" r="0.57"/><circle class="cls-1" cx="18.55" cy="215.57" r="0.57"/><circle class="cls-1" cx="39.07" cy="216.14" r="0.57"/><circle class="cls-1" cx="65.5" cy="216.14" r="0.57"/><circle class="cls-1" cx="91.89" cy="216.14" r="0.57"/><circle class="cls-1" cx="117.59" cy="216.14" r="0.57"/><circle class="cls-1" cx="148.53" cy="117.9" r="0.57"/><circle class="cls-1" cx="148.53" cy="130.22" r="0.57"/><circle class="cls-1" cx="148.53" cy="143.51" r="0.57"/><circle class="cls-1" cx="148.53" cy="156.61" r="0.57"/><circle class="cls-1" cx="148.53" cy="169.36" r="0.57"/><circle class="cls-1" cx="148.53" cy="181.94" r="0.57"/><circle class="cls-1" cx="148.53" cy="194.77" r="0.57"/><circle class="cls-1" cx="148.53" cy="214.34" r="0.57"/><polygon class="cls-3" points="82.38 17.29 69.09 33.44 82.38 49.84 96.02 33.57 82.38 17.29"/><polygon class="cls-3" points="82.38 166.86 69.09 183.01 82.38 199.42 96.02 183.14 82.38 166.86"/><polygon class="cls-3" points="17.25 24.43 12.53 29.65 16.74 35.37 21.58 30.12 17.25 24.43"/><polygon class="cls-3" points="149.35 185.76 144.63 190.97 148.84 196.7 153.68 191.44 149.35 185.76"/><path class="cls-4" d="M13.28,19.2A6.1,6.1,0,0,1,15.11,17L17,15.36a5.46,5.46,0,0,0,1.39-1.67,4.47,4.47,0,0,0,.48-2.1,3.39,3.39,0,0,0-.74-2.34A2.66,2.66,0,0,0,16,8.44a2.59,2.59,0,0,0-1.19.29,2.65,2.65,0,0,0-.93.77,1.61,1.61,0,0,0-.36,1,1,1,0,0,0,.21.69,1,1,0,0,0,.58.28,1.56,1.56,0,0,1,.92.42,1.08,1.08,0,0,1,.3.77.82.82,0,0,1-.26.62,1,1,0,0,1-.73.25,1.64,1.64,0,0,1-1.32-.63,2.51,2.51,0,0,1-.52-1.66,3.31,3.31,0,0,1,.49-1.78,3.38,3.38,0,0,1,1.38-1.24,4.31,4.31,0,0,1,2-.45,5.18,5.18,0,0,1,2.23.47,3.66,3.66,0,0,1,1.55,1.34,3.72,3.72,0,0,1,.56,2.06,3.15,3.15,0,0,1-.83,2.13,12.81,12.81,0,0,1-2.19,1.92L16,17.13a6.48,6.48,0,0,0-1.25,1.08,1.63,1.63,0,0,0-.44,1.06q0,.47.6.47h3.67a1.46,1.46,0,0,0,1.1-.34,1.87,1.87,0,0,0,.44-1l.21-1.14h.43l-.27,4H12.88A5.8,5.8,0,0,1,13.28,19.2Z"/><path class="cls-3" d="M151.66,203.66a6.1,6.1,0,0,1-1.82,2.25L148,207.5a5.46,5.46,0,0,0-1.39,1.67,4.47,4.47,0,0,0-.48,2.1,3.39,3.39,0,0,0,.74,2.34,2.66,2.66,0,0,0,2.1.82,2.59,2.59,0,0,0,1.19-.29,2.65,2.65,0,0,0,.93-.77,1.61,1.61,0,0,0,.36-1,1,1,0,0,0-.21-.69,1,1,0,0,0-.58-.28,1.56,1.56,0,0,1-.92-.42,1.08,1.08,0,0,1-.3-.77.83.83,0,0,1,.26-.62,1,1,0,0,1,.73-.25,1.64,1.64,0,0,1,1.32.63,2.51,2.51,0,0,1,.52,1.66,3.31,3.31,0,0,1-.49,1.78,3.38,3.38,0,0,1-1.38,1.24,4.31,4.31,0,0,1-2,.45,5.19,5.19,0,0,1-2.23-.47,3.66,3.66,0,0,1-1.55-1.34,3.72,3.72,0,0,1-.56-2.06,3.15,3.15,0,0,1,.83-2.13,12.82,12.82,0,0,1,2.19-1.92l1.9-1.47a6.48,6.48,0,0,0,1.25-1.08,1.63,1.63,0,0,0,.44-1.06q0-.47-.6-.47h-3.67a1.46,1.46,0,0,0-1.1.34,1.87,1.87,0,0,0-.44,1l-.21,1.14h-.43l.27-4h7.56A5.8,5.8,0,0,1,151.66,203.66Z"/></g></g></svg>