<svg id="svg2" xmlns="http://www.w3.org/2000/svg" viewBox="0 0 167.09 242.67"><title>2-Diamonds</title><g id="Layer_1"><g id="path5"><path d="M166.84,235.55a6.89,6.89,0,0,1-6.87,6.87H7.11a6.88,6.88,0,0,1-6.86-6.87V7.12A6.89,6.89,0,0,1,7.11.25H160a6.89,6.89,0,0,1,6.87,6.87Z" transform="translate(0 0)" style="fill:#fff"/><path d="M160,242.67H7.11A7.12,7.12,0,0,1,0,235.55V7.12A7.12,7.12,0,0,1,7.11,0H160a7.13,7.13,0,0,1,7.12,7.12V235.55A7.13,7.13,0,0,1,160,242.67ZM7.11.5A6.62,6.62,0,0,0,.5,7.12V235.55a6.62,6.62,0,0,0,6.61,6.62H160a6.63,6.63,0,0,0,6.62-6.62V7.12A6.63,6.63,0,0,0,160,.5Z" transform="translate(0 0)"/></g></g><g id="text3788" style="isolation:isolate"><g style="isolation:isolate"><path d="M24,23.71v2.7H8.81a5,5,0,0,1,.33-2,10.33,10.33,0,0,1,1.85-3,29,29,0,0,1,3.68-3.47,31.15,31.15,0,0,0,5-4.85A5.81,5.81,0,0,0,21,9.71a3.76,3.76,0,0,0-1.2-2.82,4.31,4.31,0,0,0-3.12-1.15A4.39,4.39,0,0,0,13.47,7a4.61,4.61,0,0,0-1.23,3.37L9.35,10a7.11,7.11,0,0,1,2.23-4.93,7.62,7.62,0,0,1,5.2-1.7A7.26,7.26,0,0,1,22,5.24a6,6,0,0,1,1.92,4.53,6.87,6.87,0,0,1-.56,2.7,10.48,10.48,0,0,1-1.87,2.8,45.48,45.48,0,0,1-4.34,4q-2.53,2.13-3.25,2.88a9.29,9.29,0,0,0-1.19,1.52Z" transform="translate(0 0)" style="fill:#df0000"/></g></g><g id="text3788-4" style="isolation:isolate"><g style="isolation:isolate"><path d="M143.38,219.42v-2.7h15.14a5,5,0,0,1-.33,2,10.3,10.3,0,0,1-1.85,3,29,29,0,0,1-3.68,3.47,31.15,31.15,0,0,0-5,4.85,5.81,5.81,0,0,0-1.31,3.38,3.76,3.76,0,0,0,1.2,2.82,4.31,4.31,0,0,0,3.12,1.15,4.39,4.39,0,0,0,3.25-1.22,4.61,4.61,0,0,0,1.23-3.37l2.89.3a7.11,7.11,0,0,1-2.23,4.93,7.62,7.62,0,0,1-5.2,1.7,7.26,7.26,0,0,1-5.22-1.83,6,6,0,0,1-1.92-4.53,6.87,6.87,0,0,1,.56-2.7,10.49,10.49,0,0,1,1.87-2.8,45.48,45.48,0,0,1,4.34-4q2.53-2.13,3.25-2.88a9.29,9.29,0,0,0,1.19-1.52Z" transform="translate(0 0)" style="fill:#df0000"/></g></g><g id="layer1-2-6"><g id="dl-6"><path d="M21.76,37.26A41.08,41.08,0,0,1,17,28.73a41.08,41.08,0,0,1-4.79,8.53,34.93,34.93,0,0,1-7,7,34.87,34.87,0,0,1,7,7A41.05,41.05,0,0,1,17,59.74a41.05,41.05,0,0,1,4.79-8.53,34.87,34.87,0,0,1,7-7A34.93,34.93,0,0,1,21.76,37.26Z" transform="translate(0 0)" style="fill:#df0000"/></g></g><g id="layer1-2-6-4"><g id="dl-6-9"><path d="M155.41,191.52a41.08,41.08,0,0,1-4.79-8.53,41.08,41.08,0,0,1-4.79,8.53,34.93,34.93,0,0,1-7,7,34.87,34.87,0,0,1,7,7,41.05,41.05,0,0,1,4.79,8.53,41.05,41.05,0,0,1,4.79-8.53,34.87,34.87,0,0,1,7-7A34.93,34.93,0,0,1,155.41,191.52Z" transform="translate(0 0)" style="fill:#df0000"/></g></g><g id="layer1-2-6-8"><g id="dl-6-8"><path d="M91.32,171.79a72,72,0,0,1-8.39-14.95,72,72,0,0,1-8.39,14.95A61.22,61.22,0,0,1,62.22,184a61.11,61.11,0,0,1,12.31,12.23,72,72,0,0,1,8.39,14.94,72,72,0,0,1,8.39-14.94A61.11,61.11,0,0,1,103.64,184,61.22,61.22,0,0,1,91.32,171.79Z" transform="translate(0 0)" style="fill:#df0000"/></g></g><g id="layer1-2-6-8-2"><g id="dl-6-8-6"><path d="M91.32,43.39a72,72,0,0,1-8.39-14.95,72,72,0,0,1-8.39,14.95A61.22,61.22,0,0,1,62.22,55.62,61.11,61.11,0,0,1,74.53,67.85,72,72,0,0,1,82.93,82.8a72,72,0,0,1,8.39-14.94,61.11,61.11,0,0,1,12.31-12.23A61.22,61.22,0,0,1,91.32,43.39Z" transform="translate(0 0)" style="fill:#df0000"/></g></g></svg>