<svg id="svg2" xmlns="http://www.w3.org/2000/svg" viewBox="0 0 167.09 242.67"><title>2-Hearts</title><g id="Layer_1"><g id="path5"><path d="M166.84,235.55a6.89,6.89,0,0,1-6.87,6.87H7.11a6.88,6.88,0,0,1-6.86-6.87V7.12A6.89,6.89,0,0,1,7.11.25H160a6.89,6.89,0,0,1,6.87,6.87Z" transform="translate(0 0)" style="fill:#fff"/><path d="M160,242.67H7.11A7.12,7.12,0,0,1,0,235.55V7.12A7.12,7.12,0,0,1,7.11,0H160a7.13,7.13,0,0,1,7.12,7.12V235.55A7.13,7.13,0,0,1,160,242.67ZM7.11.5A6.62,6.62,0,0,0,.5,7.12V235.55a6.62,6.62,0,0,0,6.61,6.62H160a6.63,6.63,0,0,0,6.62-6.62V7.12A6.63,6.63,0,0,0,160,.5Z" transform="translate(0 0)"/></g></g><g id="text3788" style="isolation:isolate"><g style="isolation:isolate"><path d="M24.88,25.31V28H9.74a5,5,0,0,1,.33-2,10.33,10.33,0,0,1,1.85-3,29,29,0,0,1,3.68-3.47,31.15,31.15,0,0,0,5-4.85A5.81,5.81,0,0,0,22,11.31a3.76,3.76,0,0,0-1.2-2.82,4.31,4.31,0,0,0-3.12-1.15A4.39,4.39,0,0,0,14.4,8.56a4.61,4.61,0,0,0-1.23,3.38l-2.89-.3a7.11,7.11,0,0,1,2.23-4.93A7.62,7.62,0,0,1,17.71,5a7.26,7.26,0,0,1,5.22,1.83,6,6,0,0,1,1.92,4.53,6.87,6.87,0,0,1-.56,2.7,10.48,10.48,0,0,1-1.87,2.8,45.48,45.48,0,0,1-4.34,4Q15.56,23,14.84,23.79a9.29,9.29,0,0,0-1.19,1.52Z" transform="translate(0 0)" style="fill:#df0000"/></g></g><g id="layer1-9-6"><g id="hl-8"><path d="M23.33,32.28c-5.43,0-6.15,5.45-6.15,5.45s-.72-5.45-6.15-5.45c-3.8,0-7.24,2.44-7.24,7.05,0,6.09,11,12.21,13.39,21.15,2.26-8.93,13.39-15.07,13.39-21.15C30.57,34.73,27.13,32.28,23.33,32.28Z" transform="translate(0 0)" style="fill:#df0000"/></g></g><g id="text3788-4" style="isolation:isolate"><g style="isolation:isolate"><path d="M142.71,216.22v-2.7h15.14a5,5,0,0,1-.33,2,10.35,10.35,0,0,1-1.85,3A29,29,0,0,1,152,222a31.15,31.15,0,0,0-5,4.85,5.81,5.81,0,0,0-1.31,3.38,3.76,3.76,0,0,0,1.2,2.82,4.31,4.31,0,0,0,3.12,1.15,4.39,4.39,0,0,0,3.25-1.22,4.61,4.61,0,0,0,1.23-3.37l2.89.3a7.12,7.12,0,0,1-2.23,4.93,7.62,7.62,0,0,1-5.2,1.7,7.26,7.26,0,0,1-5.22-1.83,6,6,0,0,1-1.92-4.53,6.87,6.87,0,0,1,.56-2.7,10.47,10.47,0,0,1,1.87-2.8,45.48,45.48,0,0,1,4.34-4q2.53-2.13,3.25-2.88a9.29,9.29,0,0,0,1.19-1.52Z" transform="translate(0 0)" style="fill:#df0000"/></g></g><g id="layer1-9-6-5"><g id="hl-8-1"><path d="M144,209.25c5.43,0,6.15-5.45,6.15-5.45s.72,5.45,6.15,5.45c3.8,0,7.24-2.44,7.24-7.05,0-6.09-11-12.21-13.39-21.15-2.26,8.93-13.39,15.07-13.39,21.15C136.76,206.8,140.2,209.25,144,209.25Z" transform="translate(0 0)" style="fill:#df0000"/></g></g><g id="layer1-9-6-8"><g id="hl-8-8"><path d="M93.92,33.45c-9,0-10.22,9-10.22,9s-1.2-9-10.22-9c-6.31,0-12,4.05-12,11.7,0,10.11,18.28,20.27,22.23,35.11,3.76-14.83,22.23-25,22.23-35.11C105.93,37.51,100.23,33.45,93.92,33.45Z" transform="translate(0 0)" style="fill:#df0000"/></g></g><g id="layer1-9-6-8-9"><g id="hl-8-8-5"><path d="M73.49,208.67c9,0,10.22-9,10.22-9s1.2,9,10.22,9c6.31,0,12-4.05,12-11.7,0-10.11-18.28-20.27-22.23-35.11-3.76,14.83-22.23,25-22.23,35.11C61.47,204.62,67.18,208.67,73.49,208.67Z" transform="translate(0 0)" style="fill:#df0000"/></g></g></svg>