<svg xmlns="http://www.w3.org/2000/svg" viewBox="0 0 166.59 233.13"><defs><style>.cls-1{fill:#fff;}.cls-2{fill:#65a7dd;}.cls-3{fill:#af0f07;}.cls-4{fill:#a43e32;}</style></defs><title>Asset 28</title><g id="Layer_2" data-name="Layer 2"><g id="Objects"><rect class="cls-1" x="0.12" y="0.12" width="166.36" height="232.9" rx="5.94" ry="5.94"/><path class="cls-2" d="M160.53,233.13H6.06A6.06,6.06,0,0,1,0,227.08V6.06A6.06,6.06,0,0,1,6.06,0H160.53a6.06,6.06,0,0,1,6.06,6.06v221A6.06,6.06,0,0,1,160.53,233.13ZM6.06.23A5.83,5.83,0,0,0,.23,6.06v221a5.83,5.83,0,0,0,5.82,5.82H160.53a5.83,5.83,0,0,0,5.82-5.82V6.06A5.83,5.83,0,0,0,160.53.23Z"/><circle class="cls-1" cx="148.63" cy="18.48" r="0.57"/><circle class="cls-1" cx="121.5" cy="18.48" r="0.57"/><circle class="cls-1" cx="96.54" cy="18.48" r="0.57"/><circle class="cls-1" cx="71.49" cy="18.66" r="0.57"/><circle class="cls-1" cx="148.63" cy="39.62" r="0.57"/><circle class="cls-1" cx="148.63" cy="58.91" r="0.57"/><circle class="cls-1" cx="148.63" cy="79.13" r="0.57"/><circle class="cls-1" cx="148.63" cy="91.91" r="0.57"/><circle class="cls-1" cx="148.63" cy="104.74" r="0.57"/><circle class="cls-1" cx="18.33" cy="19.05" r="0.57"/><circle class="cls-1" cx="45.77" cy="18.66" r="0.57"/><circle class="cls-1" cx="18.33" cy="39.17" r="0.57"/><circle class="cls-1" cx="18.33" cy="59.05" r="0.57"/><circle class="cls-1" cx="18.33" cy="78.99" r="0.57"/><circle class="cls-1" cx="18.33" cy="91.91" r="0.57"/><circle class="cls-1" cx="18.33" cy="105.31" r="0.57"/><circle class="cls-1" cx="18.33" cy="118.24" r="0.57"/><circle class="cls-1" cx="18.33" cy="131.17" r="0.57"/><circle class="cls-1" cx="18.33" cy="144.57" r="0.57"/><circle class="cls-1" cx="18.33" cy="158" r="0.57"/><circle class="cls-1" cx="18.33" cy="170" r="0.57"/><circle class="cls-1" cx="18.33" cy="183.39" r="0.57"/><circle class="cls-1" cx="18.33" cy="196.44" r="0.57"/><circle class="cls-1" cx="18.56" cy="215.63" r="0.57"/><circle class="cls-1" cx="39.09" cy="216.2" r="0.57"/><circle class="cls-1" cx="65.54" cy="216.2" r="0.57"/><circle class="cls-1" cx="91.94" cy="216.2" r="0.57"/><circle class="cls-1" cx="117.67" cy="216.2" r="0.57"/><circle class="cls-1" cx="148.63" cy="117.93" r="0.57"/><circle class="cls-1" cx="148.63" cy="130.26" r="0.57"/><circle class="cls-1" cx="148.63" cy="143.55" r="0.57"/><circle class="cls-1" cx="148.63" cy="156.65" r="0.57"/><circle class="cls-1" cx="148.63" cy="169.41" r="0.57"/><circle class="cls-1" cx="148.63" cy="181.98" r="0.57"/><circle class="cls-1" cx="148.63" cy="194.82" r="0.57"/><circle class="cls-1" cx="148.63" cy="214.39" r="0.57"/><path class="cls-3" d="M89.8,21.25c-5.48-.13-6.74,4.05-7,6.07-.29-2-1.55-6.2-7-6.07-7.21.17-8.16,8.25-5.65,12.33a37.7,37.7,0,0,0,6.34,8c2.37,2.45,5.21,5.22,6.25,6.91,0,0,.06.2.09.14s.09-.14.09-.14c1-1.69,3.88-4.45,6.25-6.91a37.69,37.69,0,0,0,6.34-8C98,29.5,97,21.43,89.8,21.25Z"/><path class="cls-3" d="M89.8,200.23c-5.48.13-6.74-4.05-7-6.07-.29,2-1.55,6.2-7,6.07-7.21-.17-8.16-8.25-5.65-12.33a37.69,37.69,0,0,1,6.34-8c2.37-2.45,5.21-5.22,6.25-6.91,0,0,.06-.2.09-.14s.09.14.09.14c1,1.69,3.88,4.45,6.25,6.91a37.69,37.69,0,0,1,6.34,8C98,192,97,200.05,89.8,200.23Z"/><path class="cls-3" d="M20.73,29.13a2.26,2.26,0,0,0-2.44,2.11,2.26,2.26,0,0,0-2.44-2.11c-2.5.06-2.83,2.86-2,4.28a13.08,13.08,0,0,0,2.2,2.77,21.08,21.08,0,0,1,2.17,2.4s0,.07,0,.05,0-.05,0-.05a21.07,21.07,0,0,1,2.17-2.4,13.07,13.07,0,0,0,2.2-2.77C23.57,32,23.23,29.19,20.73,29.13Z"/><path class="cls-4" d="M13.76,22.7a6.1,6.1,0,0,1,1.82-2.25l1.86-1.59a5.48,5.48,0,0,0,1.39-1.67,4.47,4.47,0,0,0,.48-2.1,3.39,3.39,0,0,0-.74-2.34,2.66,2.66,0,0,0-2.1-.83,2.6,2.6,0,0,0-1.19.29,2.64,2.64,0,0,0-.93.77A1.61,1.61,0,0,0,14,14a1,1,0,0,0,.21.69,1,1,0,0,0,.58.28,1.56,1.56,0,0,1,.92.42,1.08,1.08,0,0,1,.3.77.83.83,0,0,1-.26.62A1,1,0,0,1,15,17a1.64,1.64,0,0,1-1.32-.63,2.51,2.51,0,0,1-.52-1.66,3.31,3.31,0,0,1,.5-1.79A3.38,3.38,0,0,1,15,11.68a4.3,4.3,0,0,1,2-.45,5.17,5.17,0,0,1,2.23.47A3.65,3.65,0,0,1,20.8,13a3.71,3.71,0,0,1,.56,2.06,3.15,3.15,0,0,1-.83,2.13,12.79,12.79,0,0,1-2.19,1.92l-1.9,1.47a6.48,6.48,0,0,0-1.25,1.08,1.62,1.62,0,0,0-.44,1.06q0,.47.6.47H19a1.46,1.46,0,0,0,1.1-.34,1.87,1.87,0,0,0,.44-1l.21-1.15h.43l-.27,4H13.35A5.8,5.8,0,0,1,13.76,22.7Z"/><path class="cls-3" d="M152.22,207.2a6.1,6.1,0,0,1-1.82,2.25L148.53,211a5.48,5.48,0,0,0-1.39,1.67,4.47,4.47,0,0,0-.48,2.1,3.39,3.39,0,0,0,.74,2.34,2.67,2.67,0,0,0,2.1.82,2.59,2.59,0,0,0,1.19-.29,2.64,2.64,0,0,0,.93-.77,1.61,1.61,0,0,0,.36-1,1,1,0,0,0-.21-.69,1,1,0,0,0-.58-.28,1.56,1.56,0,0,1-.92-.42,1.08,1.08,0,0,1-.3-.77.83.83,0,0,1,.26-.62,1,1,0,0,1,.73-.25,1.64,1.64,0,0,1,1.32.63,2.51,2.51,0,0,1,.52,1.66,3.31,3.31,0,0,1-.5,1.79,3.37,3.37,0,0,1-1.38,1.24,4.3,4.3,0,0,1-2,.45,5.17,5.17,0,0,1-2.23-.47,3.66,3.66,0,0,1-1.55-1.34,3.72,3.72,0,0,1-.56-2.06,3.16,3.16,0,0,1,.83-2.14,12.79,12.79,0,0,1,2.19-1.92l1.9-1.47a6.48,6.48,0,0,0,1.25-1.08,1.62,1.62,0,0,0,.44-1.06q0-.47-.6-.47H147a1.46,1.46,0,0,0-1.1.34,1.87,1.87,0,0,0-.44,1l-.21,1.15h-.43l.27-4h7.57A5.79,5.79,0,0,1,152.22,207.2Z"/><path class="cls-3" d="M151,200.36a2.26,2.26,0,0,1-2.44-2.11,2.26,2.26,0,0,1-2.44,2.11c-2.5-.06-2.83-2.86-2-4.28a13.08,13.08,0,0,1,2.2-2.77,21.08,21.08,0,0,0,2.17-2.4s0-.07,0-.05,0,.05,0,.05a21.07,21.07,0,0,0,2.17,2.4,13.07,13.07,0,0,1,2.2,2.77C153.88,197.5,153.55,200.3,151,200.36Z"/></g></g></svg>