<svg id="svg2" xmlns="http://www.w3.org/2000/svg" viewBox="0 0 167.09 242.67"><title>2-Spades</title><g id="Layer_1"><g id="path5"><path d="M166.84,235.55a6.89,6.89,0,0,1-6.87,6.87H7.11a6.88,6.88,0,0,1-6.86-6.87V7.12A6.89,6.89,0,0,1,7.11.25H160a6.89,6.89,0,0,1,6.87,6.87Z" transform="translate(0 0)" style="fill:#fff"/><path d="M160,242.67H7.11A7.12,7.12,0,0,1,0,235.55V7.12A7.12,7.12,0,0,1,7.11,0H160a7.13,7.13,0,0,1,7.12,7.12V235.55A7.13,7.13,0,0,1,160,242.67ZM7.11.5A6.62,6.62,0,0,0,.5,7.12V235.55a6.62,6.62,0,0,0,6.61,6.62H160a6.63,6.63,0,0,0,6.62-6.62V7.12A6.63,6.63,0,0,0,160,.5Z" transform="translate(0 0)"/></g></g><g id="text3788" style="isolation:isolate"><g style="isolation:isolate"><path d="M24.66,25.31V28H9.52a5,5,0,0,1,.33-2,10.33,10.33,0,0,1,1.85-3,29,29,0,0,1,3.68-3.47,31.15,31.15,0,0,0,5-4.85,5.81,5.81,0,0,0,1.31-3.38,3.76,3.76,0,0,0-1.2-2.82,4.31,4.31,0,0,0-3.12-1.15,4.39,4.39,0,0,0-3.25,1.22,4.61,4.61,0,0,0-1.23,3.38L10,11.64a7.11,7.11,0,0,1,2.23-4.93A7.62,7.62,0,0,1,17.48,5,7.26,7.26,0,0,1,22.7,6.84a6,6,0,0,1,1.92,4.53,6.87,6.87,0,0,1-.56,2.7,10.48,10.48,0,0,1-1.87,2.8,45.48,45.48,0,0,1-4.34,4Q15.33,23,14.61,23.79a9.29,9.29,0,0,0-1.19,1.52Z" transform="translate(0 0)"/></g></g><g id="layer1-7"><g id="sl"><path d="M29,49.35c-.37-5.6-11.69-16.13-12.05-18.76C16.56,33.22,5.24,43.75,4.88,49.35A4.9,4.9,0,0,0,10,54.94c2.77,0,5.06-3.86,5.84-4.61.37,1-2.42,9.22-3.29,9.22h8.77c-.87,0-3.65-8.23-3.29-9.22.69.68,2.71,4.49,5.84,4.61A4.9,4.9,0,0,0,29,49.35Z" transform="translate(0 0)"/></g></g><g id="layer1-7-88"><g id="sl-4"><path d="M104.57,64.88c-.64-9.82-20.52-28.32-21.16-32.94-.64,4.62-20.52,23.12-21.16,32.94-.45,6.95,4.49,9.82,9,9.82,4.86-.05,8.88-6.78,10.26-8.09.64,1.73-4.25,16.18-5.77,16.18H91.11c-1.53,0-6.41-14.45-5.77-16.18,1.21,1.2,4.76,7.89,10.26,8.09C100.08,74.7,105,71.83,104.57,64.88Z" transform="translate(0 0)"/></g></g><g id="text3788-7" style="isolation:isolate"><g style="isolation:isolate"><path d="M142.87,217.83v-2.7H158a5,5,0,0,1-.33,2,10.35,10.35,0,0,1-1.85,3,29,29,0,0,1-3.68,3.47,31.15,31.15,0,0,0-5,4.85,5.81,5.81,0,0,0-1.31,3.38,3.76,3.76,0,0,0,1.2,2.82,4.31,4.31,0,0,0,3.12,1.15,4.39,4.39,0,0,0,3.25-1.22,4.61,4.61,0,0,0,1.23-3.37l2.89.3a7.12,7.12,0,0,1-2.23,4.93,7.62,7.62,0,0,1-5.2,1.7,7.26,7.26,0,0,1-5.22-1.83,6,6,0,0,1-1.92-4.53,6.87,6.87,0,0,1,.56-2.7,10.47,10.47,0,0,1,1.87-2.8,45.48,45.48,0,0,1,4.34-4q2.53-2.13,3.25-2.88a9.29,9.29,0,0,0,1.19-1.52Z" transform="translate(0 0)"/></g></g><g id="layer1-7-3"><g id="sl-1"><path d="M138.17,193.76c.37,5.6,11.69,16.13,12.05,18.76.37-2.63,11.69-13.17,12.05-18.76a4.9,4.9,0,0,0-5.11-5.6c-2.77,0-5.06,3.86-5.84,4.61-.37-1,2.42-9.22,3.29-9.22h-8.77c.87,0,3.65,8.23,3.29,9.22-.69-.68-2.71-4.49-5.84-4.61A4.9,4.9,0,0,0,138.17,193.76Z" transform="translate(0 0)"/></g></g><g id="layer1-7-88-7"><g id="sl-4-5"><path d="M62.3,178.26c.64,9.82,20.52,28.32,21.16,32.94.64-4.62,20.52-23.12,21.16-32.94.45-6.95-4.49-9.82-9-9.82-4.86.05-8.88,6.78-10.26,8.09-.64-1.73,4.25-16.18,5.77-16.18H75.76c1.53,0,6.41,14.45,5.77,16.18-1.21-1.2-4.76-7.89-10.26-8.09C66.78,168.43,61.85,171.31,62.3,178.26Z" transform="translate(0 0)"/></g></g></svg>