<svg xmlns="http://www.w3.org/2000/svg" viewBox="0 0 166.59 233.13"><defs><style>.cls-1{fill:#fff;}.cls-2{fill:#65a7dd;}.cls-3{fill:#151515;}</style></defs><title>Asset 41</title><g id="Layer_2" data-name="Layer 2"><g id="Objects"><rect class="cls-1" x="0.12" y="0.12" width="166.36" height="232.9" rx="5.94" ry="5.94"/><path class="cls-2" d="M160.53,233.13H6.06A6.06,6.06,0,0,1,0,227.08V6.06A6.06,6.06,0,0,1,6.06,0H160.53a6.06,6.06,0,0,1,6.06,6.06v221A6.06,6.06,0,0,1,160.53,233.13ZM6.06.23A5.83,5.83,0,0,0,.23,6.06v221a5.83,5.83,0,0,0,5.82,5.82H160.53a5.83,5.83,0,0,0,5.82-5.82V6.06A5.83,5.83,0,0,0,160.53.23Z"/><circle class="cls-1" cx="148.63" cy="18.48" r="0.57"/><circle class="cls-1" cx="121.5" cy="18.48" r="0.57"/><circle class="cls-1" cx="96.54" cy="18.48" r="0.57"/><circle class="cls-1" cx="71.49" cy="18.66" r="0.57"/><circle class="cls-1" cx="148.63" cy="39.62" r="0.57"/><circle class="cls-1" cx="148.63" cy="58.91" r="0.57"/><circle class="cls-1" cx="148.63" cy="79.13" r="0.57"/><circle class="cls-1" cx="148.63" cy="91.91" r="0.57"/><circle class="cls-1" cx="148.63" cy="104.74" r="0.57"/><circle class="cls-1" cx="18.33" cy="19.05" r="0.57"/><circle class="cls-1" cx="45.77" cy="18.66" r="0.57"/><circle class="cls-1" cx="18.33" cy="39.17" r="0.57"/><circle class="cls-1" cx="18.33" cy="59.05" r="0.57"/><circle class="cls-1" cx="18.33" cy="78.99" r="0.57"/><circle class="cls-1" cx="18.33" cy="91.91" r="0.57"/><circle class="cls-1" cx="18.33" cy="105.31" r="0.57"/><circle class="cls-1" cx="18.33" cy="118.24" r="0.57"/><circle class="cls-1" cx="18.33" cy="131.17" r="0.57"/><circle class="cls-1" cx="18.33" cy="144.57" r="0.57"/><circle class="cls-1" cx="18.33" cy="158" r="0.57"/><circle class="cls-1" cx="18.33" cy="170" r="0.57"/><circle class="cls-1" cx="18.33" cy="183.39" r="0.57"/><circle class="cls-1" cx="18.33" cy="196.44" r="0.57"/><circle class="cls-1" cx="18.56" cy="215.63" r="0.57"/><circle class="cls-1" cx="39.09" cy="216.19" r="0.57"/><circle class="cls-1" cx="65.54" cy="216.19" r="0.57"/><circle class="cls-1" cx="91.94" cy="216.19" r="0.57"/><circle class="cls-1" cx="117.67" cy="216.19" r="0.57"/><circle class="cls-1" cx="148.63" cy="117.93" r="0.57"/><circle class="cls-1" cx="148.63" cy="130.26" r="0.57"/><circle class="cls-1" cx="148.63" cy="143.55" r="0.57"/><circle class="cls-1" cx="148.63" cy="156.65" r="0.57"/><circle class="cls-1" cx="148.63" cy="169.41" r="0.57"/><circle class="cls-1" cx="148.63" cy="181.98" r="0.57"/><circle class="cls-1" cx="148.63" cy="194.82" r="0.57"/><circle class="cls-1" cx="148.63" cy="214.39" r="0.57"/><path class="cls-3" d="M97.11,35.33c-3.68-4-7.95-7.92-9.73-10-1.34-1.54-2.29-2.71-2.68-3.2v-.25l-.1.13-.1-.13v.25c-.39.49-1.34,1.66-2.68,3.2-1.79,2.05-6.06,6-9.73,10A12.19,12.19,0,0,0,68.8,46.67c.7,3.32,4.17,6.45,9.64,5.77a6.09,6.09,0,0,0,3.88-2.06,12.7,12.7,0,0,1-3.16,7.15h10.6a13.56,13.56,0,0,1-2.87-7.13,6.09,6.09,0,0,0,3.86,2c5.46.68,8.94-2.44,9.64-5.77A12.19,12.19,0,0,0,97.11,35.33Z"/><path class="cls-3" d="M22.56,31.36c-1.07-1.17-2.32-2.31-2.84-2.91s-.67-.79-.78-.93v-.07l0,0,0,0v.07c-.11.14-.39.48-.78.93s-1.77,1.74-2.84,2.91a3.56,3.56,0,0,0-1,3.31,2.38,2.38,0,0,0,2.81,1.68,1.78,1.78,0,0,0,1.13-.6,3.7,3.7,0,0,1-.92,2.09h3.09a4,4,0,0,1-.84-2.08,1.78,1.78,0,0,0,1.13.59,2.38,2.38,0,0,0,2.81-1.68A3.56,3.56,0,0,0,22.56,31.36Z"/><path d="M15.18,21.93A6.1,6.1,0,0,1,17,19.68l1.86-1.59a5.47,5.47,0,0,0,1.39-1.67,4.47,4.47,0,0,0,.48-2.1A3.39,3.39,0,0,0,20,12a2.67,2.67,0,0,0-2.1-.82,2.6,2.6,0,0,0-1.19.29,2.65,2.65,0,0,0-.93.77,1.61,1.61,0,0,0-.36,1,1,1,0,0,0,.21.69,1,1,0,0,0,.58.28,1.56,1.56,0,0,1,.92.42,1.08,1.08,0,0,1,.3.77.83.83,0,0,1-.26.62,1,1,0,0,1-.73.25,1.64,1.64,0,0,1-1.32-.63,2.51,2.51,0,0,1-.52-1.66,3.31,3.31,0,0,1,.5-1.79,3.37,3.37,0,0,1,1.38-1.24,4.3,4.3,0,0,1,2-.45,5.17,5.17,0,0,1,2.23.47,3.65,3.65,0,0,1,1.55,1.34,3.71,3.71,0,0,1,.56,2.06A3.15,3.15,0,0,1,22,16.46a12.8,12.8,0,0,1-2.19,1.92l-1.9,1.47a6.49,6.49,0,0,0-1.25,1.08A1.62,1.62,0,0,0,16.17,22q0,.47.6.47h3.67a1.46,1.46,0,0,0,1.1-.34,1.87,1.87,0,0,0,.44-1L22.19,20h.43l-.27,4H14.78A5.8,5.8,0,0,1,15.18,21.93Z"/><path d="M153.65,206.44a6.1,6.1,0,0,1-1.82,2.25L150,210.28a5.48,5.48,0,0,0-1.39,1.67,4.47,4.47,0,0,0-.48,2.1,3.39,3.39,0,0,0,.74,2.34,2.67,2.67,0,0,0,2.1.82,2.59,2.59,0,0,0,1.19-.29,2.64,2.64,0,0,0,.93-.77,1.61,1.61,0,0,0,.36-1,1,1,0,0,0-.21-.69,1,1,0,0,0-.58-.28,1.56,1.56,0,0,1-.92-.42,1.08,1.08,0,0,1-.3-.77.83.83,0,0,1,.26-.62,1,1,0,0,1,.73-.25,1.64,1.64,0,0,1,1.32.63,2.51,2.51,0,0,1,.52,1.66,3.31,3.31,0,0,1-.5,1.79,3.37,3.37,0,0,1-1.38,1.24,4.3,4.3,0,0,1-2,.45,5.17,5.17,0,0,1-2.23-.47,3.66,3.66,0,0,1-1.55-1.34A3.72,3.72,0,0,1,146,214a3.15,3.15,0,0,1,.83-2.14,12.78,12.78,0,0,1,2.19-1.92l1.9-1.47a6.48,6.48,0,0,0,1.25-1.08,1.62,1.62,0,0,0,.44-1.06q0-.47-.6-.47h-3.67a1.46,1.46,0,0,0-1.1.34,1.87,1.87,0,0,0-.44,1l-.21,1.15h-.43l.27-4h7.57A5.79,5.79,0,0,1,153.65,206.44Z"/><path class="cls-3" d="M97.11,194.75c-3.68,4-7.95,7.92-9.73,10-1.34,1.54-2.29,2.71-2.68,3.2v.25l-.1-.13-.1.13v-.25c-.39-.49-1.34-1.66-2.68-3.2-1.79-2.05-6.06-6-9.73-10a12.19,12.19,0,0,1-3.28-11.34c.7-3.32,4.17-6.45,9.64-5.77a6.09,6.09,0,0,1,3.88,2.06,12.7,12.7,0,0,0-3.16-7.15h10.6a13.56,13.56,0,0,0-2.87,7.13,6.09,6.09,0,0,1,3.86-2c5.46-.68,8.94,2.44,9.64,5.77A12.19,12.19,0,0,1,97.11,194.75Z"/><path class="cls-3" d="M152.87,197.51c-1.07,1.17-2.32,2.31-2.84,2.91s-.67.79-.78.93v.07l0,0,0,0v-.07c-.11-.14-.39-.48-.78-.93s-1.77-1.74-2.84-2.91a3.56,3.56,0,0,1-1-3.31,2.38,2.38,0,0,1,2.81-1.68,1.78,1.78,0,0,1,1.13.6,3.7,3.7,0,0,0-.92-2.09h3.09a4,4,0,0,0-.84,2.08,1.78,1.78,0,0,1,1.13-.59,2.38,2.38,0,0,1,2.81,1.68A3.56,3.56,0,0,1,152.87,197.51Z"/></g></g></svg>