<svg id="svg2" xmlns="http://www.w3.org/2000/svg" viewBox="0 0 167.09 242.67"><title>3-Clubs</title><g id="Layer_1"><g id="path5"><path d="M166.84,235.55a6.89,6.89,0,0,1-6.87,6.87H7.11a6.88,6.88,0,0,1-6.86-6.87V7.12A6.89,6.89,0,0,1,7.11.25H160a6.89,6.89,0,0,1,6.87,6.87Z" transform="translate(0 0)" style="fill:#fff"/><path d="M160,242.67H7.11A7.12,7.12,0,0,1,0,235.55V7.12A7.12,7.12,0,0,1,7.11,0H160a7.13,7.13,0,0,1,7.12,7.12V235.55A7.13,7.13,0,0,1,160,242.67ZM7.11.5A6.62,6.62,0,0,0,.5,7.12V235.55a6.62,6.62,0,0,0,6.61,6.62H160a6.63,6.63,0,0,0,6.62-6.62V7.12A6.63,6.63,0,0,0,160,.5Z" transform="translate(0 0)"/></g></g><g id="text3788" style="isolation:isolate"><g style="isolation:isolate"><path d="M9.65,21.5l2.81-.37a6.19,6.19,0,0,0,1.65,3.45A4.07,4.07,0,0,0,17,25.63a4.54,4.54,0,0,0,3.35-1.37,4.64,4.64,0,0,0,1.37-3.41,4.32,4.32,0,0,0-1.27-3.2,4.38,4.38,0,0,0-3.22-1.26,8.09,8.09,0,0,0-2,.31l.31-2.47.45,0a5.79,5.79,0,0,0,3.23-.94,3.21,3.21,0,0,0,1.44-2.89,3.42,3.42,0,0,0-1-2.56,3.72,3.72,0,0,0-2.7-1,3.83,3.83,0,0,0-2.73,1A5.17,5.17,0,0,0,12.75,11l-2.81-.5A7.23,7.23,0,0,1,12.28,6.1a6.78,6.78,0,0,1,4.55-1.55,7.5,7.5,0,0,1,3.45.8,5.83,5.83,0,0,1,2.41,2.2,5.64,5.64,0,0,1,.84,3,4.83,4.83,0,0,1-.8,2.7,5.44,5.44,0,0,1-2.36,1.94,5.32,5.32,0,0,1,3.16,1.95,5.92,5.92,0,0,1,1.13,3.7,6.76,6.76,0,0,1-2.19,5.09A7.69,7.69,0,0,1,16.94,28a7.19,7.19,0,0,1-5-1.8A7,7,0,0,1,9.65,21.5Z" transform="translate(0 0)"/></g></g><g id="layer1-1-4"><g id="cl-9"><path d="M20.69,43.74s3.53-2.82,3.53-6.74a6.47,6.47,0,0,0-6.74-6.09A6.47,6.47,0,0,0,10.75,37c0,3.91,3.53,6.74,3.53,6.74-3.92-3.05-10.91-1-10.91,5.13a6.48,6.48,0,0,0,6.42,6.42c4.7,0,6.74-5.13,6.74-5.13s.6,5.85-2.89,9h7.7c-3.48-3.13-2.89-9-2.89-9s2,5.13,6.74,5.13a6.48,6.48,0,0,0,6.42-6.42C31.6,42.77,24.61,40.69,20.69,43.74Z" transform="translate(0 0)"/></g></g><g id="text3788-8" style="isolation:isolate"><g style="isolation:isolate"><path d="M157.52,220.51l-2.81.38a6.2,6.2,0,0,0-1.65-3.45,4.07,4.07,0,0,0-2.84-1.05,4.54,4.54,0,0,0-3.35,1.38,4.64,4.64,0,0,0-1.37,3.41,4.32,4.32,0,0,0,1.27,3.2,4.38,4.38,0,0,0,3.22,1.26,8.09,8.09,0,0,0,2-.31l-.31,2.47-.45,0a5.79,5.79,0,0,0-3.23.94,3.21,3.21,0,0,0-1.44,2.89,3.42,3.42,0,0,0,1,2.56,3.72,3.72,0,0,0,2.7,1,3.83,3.83,0,0,0,2.73-1,5.17,5.17,0,0,0,1.41-3.09l2.81.5a7.23,7.23,0,0,1-2.34,4.38,6.78,6.78,0,0,1-4.55,1.55,7.49,7.49,0,0,1-3.45-.8,5.83,5.83,0,0,1-2.41-2.2,5.64,5.64,0,0,1-.84-3,4.83,4.83,0,0,1,.8-2.7,5.43,5.43,0,0,1,2.36-1.94,5.31,5.31,0,0,1-3.16-1.95,5.92,5.92,0,0,1-1.12-3.7,6.76,6.76,0,0,1,2.19-5.09,7.69,7.69,0,0,1,5.53-2.09,7.19,7.19,0,0,1,5,1.8A7,7,0,0,1,157.52,220.51Z" transform="translate(0 0)"/></g></g><g id="layer1-1-4-1"><g id="cl-9-7"><path d="M146.48,198.74s-3.53,2.82-3.53,6.74a6.77,6.77,0,0,0,13.47,0c0-3.91-3.53-6.74-3.53-6.74,3.92,3.05,10.91,1,10.91-5.13a6.48,6.48,0,0,0-6.42-6.42c-4.7,0-6.74,5.13-6.74,5.13s-.6-5.85,2.89-9h-7.7c3.48,3.13,2.89,9,2.89,9s-2-5.13-6.74-5.13a6.48,6.48,0,0,0-6.42,6.42C135.58,199.71,142.56,201.79,146.48,198.74Z" transform="translate(0 0)"/></g></g><g id="layer1-1-4-8"><g id="cl-9-8"><path d="M89.57,47.5s6-4.77,6-11.39A10.94,10.94,0,0,0,84.15,25.8,11,11,0,0,0,72.76,36.11c0,6.62,6,11.39,6,11.39-6.63-5.16-18.44-1.64-18.44,8.68A11,11,0,0,0,71.13,67c8,0,11.39-8.68,11.39-8.68s1,9.89-4.88,15.19h13c-5.89-5.29-4.88-15.19-4.88-15.19S89.22,67,97.17,67A11,11,0,0,0,108,56.18C108,45.86,96.2,42.34,89.57,47.5Z" transform="translate(0 0)"/></g></g><g id="layer1-1-4-8-0"><g id="cl-9-8-6"><path d="M78.77,196.24s-6,4.77-6,11.39a10.94,10.94,0,0,0,11.39,10.31,11,11,0,0,0,11.39-10.31c0-6.62-6-11.39-6-11.39,6.63,5.16,18.44,1.64,18.44-8.68a11,11,0,0,0-10.85-10.85c-8,0-11.39,8.68-11.39,8.68s-1-9.89,4.88-15.19h-13c5.89,5.29,4.88,15.19,4.88,15.19s-3.44-8.68-11.39-8.68a11,11,0,0,0-10.85,10.85C60.32,197.88,72.14,201.41,78.77,196.24Z" transform="translate(0 0)"/></g></g><g id="layer1-1-4-8-2"><g id="cl-9-8-0"><path d="M89.57,117.2s6-4.77,6-11.39A10.94,10.94,0,0,0,84.15,95.5a11,11,0,0,0-11.39,10.31c0,6.62,6,11.39,6,11.39-6.63-5.16-18.44-1.64-18.44,8.68a11,11,0,0,0,10.85,10.85c8,0,11.39-8.68,11.39-8.68s1,9.89-4.88,15.19h13c-5.89-5.29-4.88-15.19-4.88-15.19s3.44,8.68,11.39,8.68A11,11,0,0,0,108,125.88C108,115.56,96.2,112,89.57,117.2Z" transform="translate(0 0)"/></g></g></svg>