<svg xmlns="http://www.w3.org/2000/svg" viewBox="0 0 166.59 233.13"><defs><style>.cls-1{fill:#fff;}.cls-2{fill:#65a7dd;}.cls-3{fill:#151515;}.cls-4{fill:#272425;}</style></defs><title>Asset 53</title><g id="Layer_2" data-name="Layer 2"><g id="Objects"><rect class="cls-1" x="0.12" y="0.12" width="166.36" height="232.9" rx="5.94" ry="5.94"/><path class="cls-2" d="M160.53,233.13H6.06A6.06,6.06,0,0,1,0,227.08V6.06A6.06,6.06,0,0,1,6.06,0H160.53a6.06,6.06,0,0,1,6.06,6.06v221A6.06,6.06,0,0,1,160.53,233.13ZM6.06.23A5.83,5.83,0,0,0,.23,6.06v221a5.83,5.83,0,0,0,5.82,5.82H160.53a5.83,5.83,0,0,0,5.82-5.82V6.06A5.83,5.83,0,0,0,160.53.23Z"/><path class="cls-3" d="M98,41.32c-3.58-3.91-9.07-1.59-9.07-1.59,1.54-1.64,2.56-2.95,2.37-5.64,0-.09,0-.18,0-.27a7.75,7.75,0,1,0-15.34,1.57c.18,1.86,1.1,3,2.36,4.34,0,0-5.5-2.32-9.07,1.59a8.09,8.09,0,0,0-.66,10.07c1.13,1.52,2.81,4.08,6.79,3.79,3.52-.26,4-.86,6.46-2.79a16,16,0,0,1-3.51,8.94H88.9c-1.95-2-3.67-6.75-3.45-8.89,2.37,1.89,2.91,2.48,6.39,2.74,4,.3,5.66-2.26,6.79-3.79A8.09,8.09,0,0,0,98,41.32Z"/><path class="cls-3" d="M98,111.32c-3.58-3.91-9.07-1.59-9.07-1.59,1.54-1.64,2.56-2.95,2.37-5.64,0-.09,0-.18,0-.27a7.75,7.75,0,1,0-15.34,1.57c.18,1.86,1.1,3,2.36,4.34,0,0-5.5-2.32-9.07,1.59a8.09,8.09,0,0,0-.66,10.07c1.13,1.52,2.81,4.08,6.79,3.79,3.52-.26,4-.86,6.46-2.79a16,16,0,0,1-3.51,8.94H88.9c-1.95-2-3.67-6.75-3.45-8.89,2.37,1.89,2.91,2.48,6.39,2.74,4,.3,5.66-2.26,6.79-3.79A8.09,8.09,0,0,0,98,111.32Z"/><path class="cls-3" d="M98,185.47c-3.58,3.91-9.07,1.59-9.07,1.59,1.54,1.64,2.56,2.95,2.37,5.64,0,.09,0,.18,0,.27a7.75,7.75,0,1,1-15.34-1.57c.18-1.86,1.1-3,2.36-4.34,0,0-5.5,2.32-9.07-1.59a8.09,8.09,0,0,1-.66-10.07c1.13-1.52,2.81-4.08,6.79-3.79,3.52.26,4,.86,6.46,2.79a16,16,0,0,0-3.51-8.94H88.9c-1.95,2-3.67,6.75-3.45,8.89,2.37-1.89,2.91-2.48,6.39-2.74,4-.3,5.66,2.26,6.79,3.79A8.09,8.09,0,0,1,98,185.47Z"/><path class="cls-4" d="M15.27,24.89a2.2,2.2,0,0,1-1-2,1.82,1.82,0,0,1,.41-1.19,1.32,1.32,0,0,1,1.07-.5,1.24,1.24,0,0,1,.88.3,1.08,1.08,0,0,1,.32.82,1.1,1.1,0,0,1-.24.71.77.77,0,0,1-.63.3c-.45,0-.68.11-.68.33q0,1.22,2.44,1.22a2.26,2.26,0,0,0,2-1,4.18,4.18,0,0,0,.63-2.33,3.49,3.49,0,0,0-.67-2.33,2.09,2.09,0,0,0-1.64-.78,2.39,2.39,0,0,0-.48,0,3.71,3.71,0,0,0-.46.14,3.39,3.39,0,0,1-1,.21,1,1,0,0,1-.51-.14.45.45,0,0,1-.22-.41.45.45,0,0,1,.21-.41,1,1,0,0,1,.52-.14,5.94,5.94,0,0,1,.91.1,7.58,7.58,0,0,0,1.07.06,1.57,1.57,0,0,0,1.43-.84,3.75,3.75,0,0,0,.49-1.93,3.58,3.58,0,0,0-.58-2.1,1.93,1.93,0,0,0-1.69-.83,2.71,2.71,0,0,0-1.62.37,1.05,1.05,0,0,0-.47.83.61.61,0,0,0,.14.36,1,1,0,0,0,.37.3,1,1,0,0,1,.7,1,.89.89,0,0,1-.27.67A1.08,1.08,0,0,1,16,16a1.27,1.27,0,0,1-1-.48,1.56,1.56,0,0,1-.42-1.06,2.42,2.42,0,0,1,1-2.1,4.23,4.23,0,0,1,2.51-.74A4.17,4.17,0,0,1,21,12.6,3.13,3.13,0,0,1,22,15.08a2.75,2.75,0,0,1-.38,1.45,3.29,3.29,0,0,1-1,1,3.36,3.36,0,0,1-1.15.53v.16A4,4,0,0,1,22.08,20a3,3,0,0,1,.49,1.69,3.43,3.43,0,0,1-.64,2.07,4.13,4.13,0,0,1-1.72,1.36,5.82,5.82,0,0,1-2.38.48A4.54,4.54,0,0,1,15.27,24.89Z"/><path class="cls-4" d="M153,206.95a2.2,2.2,0,0,1,1,2,1.82,1.82,0,0,1-.41,1.19,1.32,1.32,0,0,1-1.07.5,1.24,1.24,0,0,1-.88-.3,1.08,1.08,0,0,1-.32-.82,1.1,1.1,0,0,1,.24-.71.77.77,0,0,1,.63-.3q.68,0,.68-.33,0-1.22-2.45-1.22a2.26,2.26,0,0,0-2,1,4.18,4.18,0,0,0-.63,2.33,3.49,3.49,0,0,0,.67,2.33,2.09,2.09,0,0,0,1.64.78,2.39,2.39,0,0,0,.48,0,3.71,3.71,0,0,0,.46-.14,3.39,3.39,0,0,1,1-.21,1,1,0,0,1,.51.14.44.44,0,0,1,.22.41.45.45,0,0,1-.21.41,1,1,0,0,1-.52.14,5.94,5.94,0,0,1-.91-.1,7.6,7.6,0,0,0-1.07-.06,1.57,1.57,0,0,0-1.43.84,3.75,3.75,0,0,0-.49,1.93,3.58,3.58,0,0,0,.58,2.1,1.93,1.93,0,0,0,1.69.83,2.71,2.71,0,0,0,1.62-.37,1.05,1.05,0,0,0,.47-.83.61.61,0,0,0-.14-.36,1,1,0,0,0-.37-.3,1,1,0,0,1-.7-1,.89.89,0,0,1,.27-.67,1.08,1.08,0,0,1,.78-.26,1.27,1.27,0,0,1,1,.48,1.56,1.56,0,0,1,.42,1.06,2.42,2.42,0,0,1-1,2.1,4.23,4.23,0,0,1-2.51.74,4.17,4.17,0,0,1-2.84-.94,3.13,3.13,0,0,1-1.08-2.47,2.75,2.75,0,0,1,.38-1.45,3.29,3.29,0,0,1,1-1,3.36,3.36,0,0,1,1.15-.53v-.16a4,4,0,0,1-2.52-1.73,3,3,0,0,1-.49-1.69,3.43,3.43,0,0,1,.64-2.07,4.13,4.13,0,0,1,1.72-1.36,5.82,5.82,0,0,1,2.38-.48A4.54,4.54,0,0,1,153,206.95Z"/><path class="cls-3" d="M14.13,34.23a2.45,2.45,0,0,0,2.62.46,1.91,1.91,0,0,0-.68,1.63s0,.05,0,.08a2.24,2.24,0,1,0,4.43-.45,2,2,0,0,0-.68-1.25,2.45,2.45,0,0,0,2.62-.46,2.34,2.34,0,0,0,.19-2.91,2.08,2.08,0,0,0-2-1.09A2.52,2.52,0,0,0,18.8,31a4.61,4.61,0,0,1,1-2.58H16.75a4.35,4.35,0,0,1,1,2.57,2.5,2.5,0,0,0-1.85-.79,2.08,2.08,0,0,0-2,1.09A2.34,2.34,0,0,0,14.13,34.23Z"/><path class="cls-3" d="M144.44,197.36a2.45,2.45,0,0,1,2.62-.46,1.91,1.91,0,0,1-.68-1.63s0-.05,0-.08a2.24,2.24,0,1,1,4.43.45,2,2,0,0,1-.68,1.25,2.45,2.45,0,0,1,2.62.46,2.34,2.34,0,0,1,.19,2.91,2.08,2.08,0,0,1-2,1.09,2.52,2.52,0,0,1-1.87-.81,4.61,4.61,0,0,0,1,2.58h-3.06a4.35,4.35,0,0,0,1-2.57,2.5,2.5,0,0,1-1.85.79,2.08,2.08,0,0,1-2-1.09A2.34,2.34,0,0,1,144.44,197.36Z"/></g></g></svg>