<svg id="svg2" xmlns="http://www.w3.org/2000/svg" viewBox="0 0 167.09 242.67"><title>3-Diamonds</title><g id="Layer_1"><g id="path5"><path d="M166.84,235.55a6.89,6.89,0,0,1-6.87,6.87H7.11a6.88,6.88,0,0,1-6.86-6.87V7.12A6.89,6.89,0,0,1,7.11.25H160a6.89,6.89,0,0,1,6.87,6.87Z" transform="translate(0 0)" style="fill:#fff"/><path d="M160,242.67H7.11A7.12,7.12,0,0,1,0,235.55V7.12A7.12,7.12,0,0,1,7.11,0H160a7.13,7.13,0,0,1,7.12,7.12V235.55A7.13,7.13,0,0,1,160,242.67ZM7.11.5A6.62,6.62,0,0,0,.5,7.12V235.55a6.62,6.62,0,0,0,6.61,6.62H160a6.63,6.63,0,0,0,6.62-6.62V7.12A6.63,6.63,0,0,0,160,.5Z" transform="translate(0 0)"/></g></g><g id="text3788" style="isolation:isolate"><g style="isolation:isolate"><path d="M9.19,20.37,12,20a6.19,6.19,0,0,0,1.65,3.45,4.07,4.07,0,0,0,2.84,1.05,4.54,4.54,0,0,0,3.35-1.37,4.64,4.64,0,0,0,1.37-3.41,4.32,4.32,0,0,0-1.27-3.2,4.38,4.38,0,0,0-3.22-1.26,8.09,8.09,0,0,0-2,.31L15,13.1l.45,0a5.79,5.79,0,0,0,3.23-.94A3.21,3.21,0,0,0,20.17,9.3a3.42,3.42,0,0,0-1-2.56,3.72,3.72,0,0,0-2.7-1,3.83,3.83,0,0,0-2.73,1,5.17,5.17,0,0,0-1.41,3.09l-2.81-.5A7.23,7.23,0,0,1,11.81,5a6.78,6.78,0,0,1,4.55-1.55,7.5,7.5,0,0,1,3.45.8,5.83,5.83,0,0,1,2.41,2.2,5.64,5.64,0,0,1,.84,3,4.83,4.83,0,0,1-.8,2.7A5.44,5.44,0,0,1,19.91,14,5.32,5.32,0,0,1,23.06,16a5.92,5.92,0,0,1,1.13,3.7A6.76,6.76,0,0,1,22,24.73a7.69,7.69,0,0,1-5.53,2.09,7.19,7.19,0,0,1-5-1.8A7,7,0,0,1,9.19,20.37Z" transform="translate(0 0)" style="fill:#df0000"/></g></g><g id="text3788-4" style="isolation:isolate"><g style="isolation:isolate"><path d="M158.14,222.76l-2.81.38a6.19,6.19,0,0,0-1.65-3.45,4.07,4.07,0,0,0-2.84-1.05A4.54,4.54,0,0,0,147.5,220a4.64,4.64,0,0,0-1.37,3.41,4.32,4.32,0,0,0,1.27,3.2,4.38,4.38,0,0,0,3.22,1.26,8.09,8.09,0,0,0,2-.31l-.31,2.47-.45,0a5.79,5.79,0,0,0-3.23.94,3.21,3.21,0,0,0-1.44,2.89,3.42,3.42,0,0,0,1,2.56,3.72,3.72,0,0,0,2.7,1,3.83,3.83,0,0,0,2.73-1,5.17,5.17,0,0,0,1.41-3.09l2.81.5a7.23,7.23,0,0,1-2.34,4.38,6.78,6.78,0,0,1-4.55,1.55,7.5,7.5,0,0,1-3.45-.8,5.83,5.83,0,0,1-2.41-2.2,5.65,5.65,0,0,1-.84-3,4.83,4.83,0,0,1,.8-2.7,5.44,5.44,0,0,1,2.36-1.94,5.32,5.32,0,0,1-3.16-1.95,5.92,5.92,0,0,1-1.12-3.7,6.76,6.76,0,0,1,2.19-5.09,7.7,7.7,0,0,1,5.53-2.09,7.19,7.19,0,0,1,5,1.8A7,7,0,0,1,158.14,222.76Z" transform="translate(0 0)" style="fill:#df0000"/></g></g><g id="layer1-2-6"><g id="dl-6"><path d="M21.76,37.26A41.08,41.08,0,0,1,17,28.73a41.08,41.08,0,0,1-4.79,8.53,34.93,34.93,0,0,1-7,7,34.87,34.87,0,0,1,7,7A41.05,41.05,0,0,1,17,59.74a41.05,41.05,0,0,1,4.79-8.53,34.87,34.87,0,0,1,7-7A34.93,34.93,0,0,1,21.76,37.26Z" transform="translate(0 0)" style="fill:#df0000"/></g></g><g id="layer1-2-6-4"><g id="dl-6-9"><path d="M155.41,191.52a41.08,41.08,0,0,1-4.79-8.53,41.08,41.08,0,0,1-4.79,8.53,34.93,34.93,0,0,1-7,7,34.87,34.87,0,0,1,7,7,41.05,41.05,0,0,1,4.79,8.53,41.05,41.05,0,0,1,4.79-8.53,34.87,34.87,0,0,1,7-7A34.93,34.93,0,0,1,155.41,191.52Z" transform="translate(0 0)" style="fill:#df0000"/></g></g><g id="layer1-2-6-8"><g id="dl-6-8"><path d="M91.32,179.79a72,72,0,0,1-8.39-14.95,72,72,0,0,1-8.39,14.95A61.22,61.22,0,0,1,62.22,192a61.11,61.11,0,0,1,12.31,12.23,72,72,0,0,1,8.39,14.94,72,72,0,0,1,8.39-14.94A61.11,61.11,0,0,1,103.64,192,61.22,61.22,0,0,1,91.32,179.79Z" transform="translate(0 0)" style="fill:#df0000"/></g></g><g id="layer1-2-6-8-2"><g id="dl-6-8-6"><path d="M91.32,38.59a72,72,0,0,1-8.39-14.95,72,72,0,0,1-8.39,14.95A61.22,61.22,0,0,1,62.22,50.82,61.11,61.11,0,0,1,74.53,63.05,72,72,0,0,1,82.93,78a72,72,0,0,1,8.39-14.94,61.11,61.11,0,0,1,12.31-12.23A61.22,61.22,0,0,1,91.32,38.59Z" transform="translate(0 0)" style="fill:#df0000"/></g></g><g id="layer1-2-6-8-2-8"><g id="dl-6-8-6-8"><path d="M91.32,108.29a72,72,0,0,1-8.39-14.95,72,72,0,0,1-8.39,14.95,61.22,61.22,0,0,1-12.31,12.23,61.11,61.11,0,0,1,12.31,12.23,72,72,0,0,1,8.39,14.94,72,72,0,0,1,8.39-14.94,61.11,61.11,0,0,1,12.31-12.23A61.22,61.22,0,0,1,91.32,108.29Z" transform="translate(0 0)" style="fill:#df0000"/></g></g></svg>