<svg xmlns="http://www.w3.org/2000/svg" viewBox="0 0 166.48 233.07"><defs><style>.cls-1{fill:#fff;}.cls-2{fill:#65a7dd;}.cls-3{fill:#af0f07;}.cls-4{fill:#a43e32;}</style></defs><title>Asset 17</title><g id="Layer_2" data-name="Layer 2"><g id="Objects"><rect class="cls-1" x="0.12" y="0.11" width="166.25" height="232.84" rx="5.94" ry="5.94"/><path class="cls-2" d="M160.43,233.07H6.05A6.06,6.06,0,0,1,0,227V6.05A6.06,6.06,0,0,1,6.05,0H160.43a6.06,6.06,0,0,1,6.05,6.05V227A6.06,6.06,0,0,1,160.43,233.07ZM6.05.23A5.83,5.83,0,0,0,.23,6.05V227a5.83,5.83,0,0,0,5.82,5.82H160.43a5.83,5.83,0,0,0,5.82-5.82V6.05A5.83,5.83,0,0,0,160.43.23Z"/><polygon class="cls-3" points="16.39 24.43 11.67 29.65 15.88 35.37 20.72 30.12 16.39 24.43"/><polygon class="cls-3" points="148.76 185.76 144.03 190.97 148.24 196.7 153.09 191.44 148.76 185.76"/><path class="cls-4" d="M14.07,21a2.19,2.19,0,0,1-1-1.95,1.82,1.82,0,0,1,.41-1.19,1.32,1.32,0,0,1,1.07-.49,1.24,1.24,0,0,1,.88.3,1.08,1.08,0,0,1,.32.82,1.09,1.09,0,0,1-.24.71.77.77,0,0,1-.63.3q-.68,0-.68.33,0,1.22,2.44,1.22a2.26,2.26,0,0,0,2-1,4.18,4.18,0,0,0,.63-2.33,3.49,3.49,0,0,0-.67-2.33A2.09,2.09,0,0,0,17,14.61a2.44,2.44,0,0,0-.48,0,3.63,3.63,0,0,0-.46.14,3.4,3.4,0,0,1-1,.21,1,1,0,0,1-.51-.14.44.44,0,0,1-.22-.41.45.45,0,0,1,.21-.41,1,1,0,0,1,.52-.14A5.87,5.87,0,0,1,16,14a7.61,7.61,0,0,0,1.07.06,1.57,1.57,0,0,0,1.43-.84A3.75,3.75,0,0,0,19,11.29a3.57,3.57,0,0,0-.58-2.1,1.93,1.93,0,0,0-1.69-.83,2.7,2.7,0,0,0-1.62.37,1.05,1.05,0,0,0-.48.83.61.61,0,0,0,.14.36,1,1,0,0,0,.37.3,1,1,0,0,1,.7,1,.89.89,0,0,1-.27.67,1.07,1.07,0,0,1-.78.26,1.27,1.27,0,0,1-1-.47,1.56,1.56,0,0,1-.42-1.06,2.42,2.42,0,0,1,1-2.1,4.22,4.22,0,0,1,2.51-.74,4.16,4.16,0,0,1,2.84.94,3.13,3.13,0,0,1,1.08,2.47,2.75,2.75,0,0,1-.38,1.45,3.3,3.3,0,0,1-1,1,3.35,3.35,0,0,1-1.15.53v.16A4,4,0,0,1,20.88,16a3,3,0,0,1,.48,1.69,3.43,3.43,0,0,1-.64,2.07A4.13,4.13,0,0,1,19,21.15a5.83,5.83,0,0,1-2.38.48A4.54,4.54,0,0,1,14.07,21Z"/><path class="cls-3" d="M151.67,201.9a2.19,2.19,0,0,1,1,2,1.82,1.82,0,0,1-.41,1.19,1.31,1.31,0,0,1-1.07.49,1.24,1.24,0,0,1-.88-.3,1.07,1.07,0,0,1-.32-.82,1.09,1.09,0,0,1,.24-.71.77.77,0,0,1,.63-.3q.68,0,.68-.33,0-1.22-2.44-1.22a2.26,2.26,0,0,0-2,1,4.18,4.18,0,0,0-.63,2.33,3.5,3.5,0,0,0,.67,2.33,2.09,2.09,0,0,0,1.64.78,2.44,2.44,0,0,0,.48,0,3.66,3.66,0,0,0,.46-.14,3.4,3.4,0,0,1,1-.21,1,1,0,0,1,.51.14.45.45,0,0,1,.22.41.45.45,0,0,1-.21.41,1,1,0,0,1-.52.14,5.89,5.89,0,0,1-.91-.1,7.59,7.59,0,0,0-1.07-.06,1.56,1.56,0,0,0-1.43.84,3.75,3.75,0,0,0-.5,1.93,3.58,3.58,0,0,0,.58,2.1,1.93,1.93,0,0,0,1.69.83,2.7,2.7,0,0,0,1.62-.37,1.05,1.05,0,0,0,.47-.83.61.61,0,0,0-.14-.36,1,1,0,0,0-.37-.3,1,1,0,0,1-.7-1,.89.89,0,0,1,.27-.67,1.07,1.07,0,0,1,.78-.26,1.27,1.27,0,0,1,1,.47,1.56,1.56,0,0,1,.42,1.06,2.42,2.42,0,0,1-1,2.1,4.22,4.22,0,0,1-2.51.74,4.16,4.16,0,0,1-2.84-.94,3.13,3.13,0,0,1-1.08-2.47,2.75,2.75,0,0,1,.38-1.45,3.29,3.29,0,0,1,1-1,3.36,3.36,0,0,1,1.15-.53v-.16a4,4,0,0,1-2.52-1.73,3,3,0,0,1-.48-1.69,3.43,3.43,0,0,1,.64-2.07,4.12,4.12,0,0,1,1.72-1.36,5.82,5.82,0,0,1,2.38-.48A4.54,4.54,0,0,1,151.67,201.9Z"/><polygon class="cls-3" points="82.71 17.29 69.42 33.44 82.71 49.84 96.35 33.57 82.71 17.29"/><polygon class="cls-3" points="82.71 166.86 69.42 183.01 82.71 199.42 96.35 183.14 82.71 166.86"/><polygon class="cls-3" points="82.71 92.08 69.42 108.22 82.71 124.63 96.35 108.35 82.71 92.08"/></g></g></svg>