<svg xmlns="http://www.w3.org/2000/svg" viewBox="0 0 166.59 233.13"><defs><style>.cls-1{fill:#fff;}.cls-2{fill:#65a7dd;}.cls-3{fill:#af0f07;}.cls-4{fill:#a43e32;}</style></defs><title>Asset 27</title><g id="Layer_2" data-name="Layer 2"><g id="Objects"><rect class="cls-1" x="0.12" y="0.12" width="166.36" height="232.9" rx="5.94" ry="5.94"/><path class="cls-2" d="M160.53,233.13H6.06A6.06,6.06,0,0,1,0,227.08V6.06A6.06,6.06,0,0,1,6.06,0H160.53a6.06,6.06,0,0,1,6.06,6.06v221A6.06,6.06,0,0,1,160.53,233.13ZM6.06.23A5.83,5.83,0,0,0,.23,6.06v221a5.83,5.83,0,0,0,5.82,5.82H160.53a5.83,5.83,0,0,0,5.82-5.82V6.06A5.83,5.83,0,0,0,160.53.23Z"/><path class="cls-3" d="M90.19,21.25c-5.48-.13-6.74,4.05-7,6.07-.29-2-1.55-6.2-7-6.07-7.21.17-8.16,8.25-5.65,12.33a37.69,37.69,0,0,0,6.34,8C79.18,44,82,46.79,83.07,48.48c0,0,.06.2.09.14s.09-.14.09-.14c1-1.69,3.88-4.45,6.25-6.91a37.69,37.69,0,0,0,6.34-8C98.35,29.5,97.4,21.43,90.19,21.25Z"/><path class="cls-3" d="M90.19,97c-5.48-.13-6.74,4.05-7,6.07-.29-2-1.55-6.2-7-6.07-7.21.17-8.16,8.25-5.65,12.33a37.69,37.69,0,0,0,6.34,8c2.37,2.45,5.21,5.22,6.25,6.91,0,0,.06.2.09.14s.09-.14.09-.14c1-1.69,3.88-4.45,6.25-6.91a37.69,37.69,0,0,0,6.34-8C98.35,105.3,97.4,97.22,90.19,97Z"/><path class="cls-3" d="M90.19,200.23c-5.48.13-6.74-4.05-7-6.07-.29,2-1.55,6.2-7,6.07-7.21-.17-8.16-8.25-5.65-12.33a37.69,37.69,0,0,1,6.34-8c2.37-2.45,5.21-5.22,6.25-6.91,0,0,.06-.2.09-.14s.09.14.09.14c1,1.69,3.88,4.45,6.25,6.91a37.69,37.69,0,0,1,6.34,8C98.35,192,97.4,200.05,90.19,200.23Z"/><path class="cls-3" d="M20.75,29.13a2.26,2.26,0,0,0-2.44,2.11,2.26,2.26,0,0,0-2.44-2.11c-2.5.06-2.83,2.86-2,4.28a13.07,13.07,0,0,0,2.2,2.77,21.07,21.07,0,0,1,2.17,2.4s0,.07,0,.05,0-.05,0-.05a21.08,21.08,0,0,1,2.17-2.4,13.08,13.08,0,0,0,2.2-2.77C23.58,32,23.25,29.19,20.75,29.13Z"/><path class="cls-4" d="M14.54,24.46a2.2,2.2,0,0,1-1-2,1.82,1.82,0,0,1,.41-1.19,1.32,1.32,0,0,1,1.07-.5,1.24,1.24,0,0,1,.88.3,1.08,1.08,0,0,1,.32.82,1.1,1.1,0,0,1-.24.71.77.77,0,0,1-.63.3c-.45,0-.68.11-.68.33q0,1.22,2.44,1.22a2.26,2.26,0,0,0,2-1,4.18,4.18,0,0,0,.63-2.33,3.49,3.49,0,0,0-.67-2.33,2.09,2.09,0,0,0-1.64-.78,2.39,2.39,0,0,0-.48,0,3.7,3.7,0,0,0-.46.14,3.39,3.39,0,0,1-1,.21,1,1,0,0,1-.51-.14.44.44,0,0,1-.22-.41.45.45,0,0,1,.21-.41,1,1,0,0,1,.52-.14,5.94,5.94,0,0,1,.91.1,7.58,7.58,0,0,0,1.07.06A1.57,1.57,0,0,0,19,16.72a3.75,3.75,0,0,0,.49-1.93,3.58,3.58,0,0,0-.58-2.1,1.93,1.93,0,0,0-1.69-.83,2.71,2.71,0,0,0-1.62.37,1.05,1.05,0,0,0-.47.83.61.61,0,0,0,.14.36,1,1,0,0,0,.37.3,1,1,0,0,1,.7,1,.89.89,0,0,1-.27.67,1.08,1.08,0,0,1-.78.26,1.27,1.27,0,0,1-1-.48,1.56,1.56,0,0,1-.42-1.06,2.42,2.42,0,0,1,1-2.1,4.23,4.23,0,0,1,2.51-.74,4.17,4.17,0,0,1,2.84.94,3.13,3.13,0,0,1,1.08,2.47,2.75,2.75,0,0,1-.38,1.45,3.29,3.29,0,0,1-1,1,3.36,3.36,0,0,1-1.15.53v.16a4,4,0,0,1,2.52,1.73,3,3,0,0,1,.49,1.69,3.43,3.43,0,0,1-.64,2.07,4.13,4.13,0,0,1-1.72,1.36,5.82,5.82,0,0,1-2.38.48A4.54,4.54,0,0,1,14.54,24.46Z"/><path class="cls-3" d="M152.23,205.45a2.2,2.2,0,0,1,1,2,1.82,1.82,0,0,1-.41,1.19,1.31,1.31,0,0,1-1.07.49,1.24,1.24,0,0,1-.88-.3,1.08,1.08,0,0,1-.32-.82,1.1,1.1,0,0,1,.24-.71.77.77,0,0,1,.63-.3q.68,0,.68-.33,0-1.22-2.44-1.22a2.26,2.26,0,0,0-2,1,4.18,4.18,0,0,0-.63,2.33,3.49,3.49,0,0,0,.67,2.33,2.09,2.09,0,0,0,1.64.78,2.43,2.43,0,0,0,.48,0,3.76,3.76,0,0,0,.46-.14,3.4,3.4,0,0,1,1-.21,1,1,0,0,1,.51.14.44.44,0,0,1,.22.41.45.45,0,0,1-.21.41,1,1,0,0,1-.52.14,6,6,0,0,1-.91-.1,7.45,7.45,0,0,0-1.07-.06,1.57,1.57,0,0,0-1.43.84,3.75,3.75,0,0,0-.49,1.93,3.58,3.58,0,0,0,.58,2.1,1.93,1.93,0,0,0,1.69.83,2.7,2.7,0,0,0,1.62-.37,1.05,1.05,0,0,0,.47-.83.61.61,0,0,0-.14-.36,1,1,0,0,0-.37-.3,1,1,0,0,1-.7-1,.89.89,0,0,1,.27-.67,1.08,1.08,0,0,1,.78-.26,1.27,1.27,0,0,1,1,.48,1.56,1.56,0,0,1,.42,1.06,2.42,2.42,0,0,1-1,2.1,4.23,4.23,0,0,1-2.51.74,4.16,4.16,0,0,1-2.84-.94,3.13,3.13,0,0,1-1.08-2.47,2.75,2.75,0,0,1,.38-1.45,3.28,3.28,0,0,1,1-1,3.36,3.36,0,0,1,1.15-.53v-.16a4,4,0,0,1-2.52-1.73,3,3,0,0,1-.49-1.69,3.43,3.43,0,0,1,.64-2.07,4.12,4.12,0,0,1,1.72-1.36,5.81,5.81,0,0,1,2.38-.48A4.55,4.55,0,0,1,152.23,205.45Z"/><path class="cls-3" d="M151.06,200.36a2.26,2.26,0,0,1-2.44-2.11,2.26,2.26,0,0,1-2.44,2.11c-2.5-.06-2.83-2.86-2-4.28a13.07,13.07,0,0,1,2.2-2.77,21.07,21.07,0,0,0,2.17-2.4s0-.07,0-.05,0,.05,0,.05a21.08,21.08,0,0,0,2.17,2.4,13.08,13.08,0,0,1,2.2,2.77C153.9,197.5,153.57,200.3,151.06,200.36Z"/></g></g></svg>