<svg id="svg2" xmlns="http://www.w3.org/2000/svg" viewBox="0 0 167.09 242.67"><title>3-Hearts</title><g id="Layer_1"><g id="path5"><path d="M166.84,235.55a6.89,6.89,0,0,1-6.87,6.87H7.11a6.88,6.88,0,0,1-6.86-6.87V7.12A6.89,6.89,0,0,1,7.11.25H160a6.89,6.89,0,0,1,6.87,6.87Z" transform="translate(0 0)" style="fill:#fff"/><path d="M160,242.67H7.11A7.12,7.12,0,0,1,0,235.55V7.12A7.12,7.12,0,0,1,7.11,0H160a7.13,7.13,0,0,1,7.12,7.12V235.55A7.13,7.13,0,0,1,160,242.67ZM7.11.5A6.62,6.62,0,0,0,.5,7.12V235.55a6.62,6.62,0,0,0,6.61,6.62H160a6.63,6.63,0,0,0,6.62-6.62V7.12A6.63,6.63,0,0,0,160,.5Z" transform="translate(0 0)"/></g></g><g id="text3788" style="isolation:isolate"><g style="isolation:isolate"><path d="M10.12,22l2.81-.37A6.19,6.19,0,0,0,14.58,25a4.07,4.07,0,0,0,2.84,1.05,4.54,4.54,0,0,0,3.35-1.37,4.64,4.64,0,0,0,1.37-3.41,4.32,4.32,0,0,0-1.27-3.2,4.38,4.38,0,0,0-3.22-1.26,8.09,8.09,0,0,0-2,.31L16,14.7l.45,0a5.79,5.79,0,0,0,3.23-.94A3.21,3.21,0,0,0,21.1,10.9a3.42,3.42,0,0,0-1-2.56,3.72,3.72,0,0,0-2.7-1,3.83,3.83,0,0,0-2.73,1,5.17,5.17,0,0,0-1.41,3.09L10.4,11a7.23,7.23,0,0,1,2.34-4.38A6.78,6.78,0,0,1,17.29,5a7.5,7.5,0,0,1,3.45.8A5.83,5.83,0,0,1,23.16,8,5.64,5.64,0,0,1,24,11a4.83,4.83,0,0,1-.8,2.7,5.44,5.44,0,0,1-2.36,1.94A5.32,5.32,0,0,1,24,17.55a5.92,5.92,0,0,1,1.13,3.7,6.76,6.76,0,0,1-2.19,5.09,7.69,7.69,0,0,1-5.53,2.09,7.19,7.19,0,0,1-5-1.8A7,7,0,0,1,10.12,22Z" transform="translate(0 0)" style="fill:#df0000"/></g></g><g id="layer1-9-6"><g id="hl-8"><path d="M23.33,32.28c-5.43,0-6.15,5.45-6.15,5.45s-.72-5.45-6.15-5.45c-3.8,0-7.24,2.44-7.24,7.05,0,6.09,11,12.21,13.39,21.15,2.26-8.93,13.39-15.07,13.39-21.15C30.57,34.73,27.13,32.28,23.33,32.28Z" transform="translate(0 0)" style="fill:#df0000"/></g></g><g id="text3788-4" style="isolation:isolate"><g style="isolation:isolate"><path d="M157.47,219.56l-2.81.38a6.2,6.2,0,0,0-1.65-3.45,4.07,4.07,0,0,0-2.84-1.05,4.54,4.54,0,0,0-3.35,1.38,4.64,4.64,0,0,0-1.37,3.41,4.32,4.32,0,0,0,1.27,3.2,4.38,4.38,0,0,0,3.22,1.26,8.09,8.09,0,0,0,2-.31l-.31,2.47-.45,0a5.79,5.79,0,0,0-3.23.94,3.21,3.21,0,0,0-1.44,2.89,3.42,3.42,0,0,0,1,2.56,3.72,3.72,0,0,0,2.7,1,3.83,3.83,0,0,0,2.73-1,5.17,5.17,0,0,0,1.41-3.09l2.81.5a7.23,7.23,0,0,1-2.34,4.38,6.78,6.78,0,0,1-4.55,1.55,7.49,7.49,0,0,1-3.45-.8,5.83,5.83,0,0,1-2.41-2.2,5.64,5.64,0,0,1-.84-3,4.83,4.83,0,0,1,.8-2.7,5.43,5.43,0,0,1,2.36-1.94A5.31,5.31,0,0,1,143.6,224a5.92,5.92,0,0,1-1.12-3.7,6.76,6.76,0,0,1,2.19-5.09,7.69,7.69,0,0,1,5.53-2.09,7.19,7.19,0,0,1,5,1.8A7,7,0,0,1,157.47,219.56Z" transform="translate(0 0)" style="fill:#df0000"/></g></g><g id="layer1-9-6-5"><g id="hl-8-1"><path d="M144,209.25c5.43,0,6.15-5.45,6.15-5.45s.72,5.45,6.15,5.45c3.8,0,7.24-2.44,7.24-7.05,0-6.09-11-12.21-13.39-21.15-2.26,8.93-13.39,15.07-13.39,21.15C136.76,206.8,140.2,209.25,144,209.25Z" transform="translate(0 0)" style="fill:#df0000"/></g></g><g id="layer1-9-6-8"><g id="hl-8-8"><path d="M93.53,24.2c-9,0-10.22,9-10.22,9s-1.2-9-10.22-9c-6.31,0-12,4.05-12,11.7C61.08,46,79.36,56.17,83.31,71c3.76-14.83,22.23-25,22.23-35.11C105.54,28.25,99.84,24.2,93.53,24.2Z" transform="translate(0 0)" style="fill:#df0000"/></g></g><g id="layer1-9-6-8-9"><g id="hl-8-8-5"><path d="M73.1,215.41c9,0,10.22-9,10.22-9s1.2,9,10.22,9c6.31,0,12-4.05,12-11.7,0-10.11-18.28-20.27-22.23-35.11-3.76,14.83-22.23,25-22.23,35.11C61.08,211.36,66.79,215.41,73.1,215.41Z" transform="translate(0 0)" style="fill:#df0000"/></g></g><g id="layer1-9-6-8-8"><g id="hl-8-8-8"><path d="M93.53,95.5c-9,0-10.22,9-10.22,9s-1.2-9-10.22-9c-6.31,0-12,4.05-12,11.7,0,10.11,18.28,20.27,22.23,35.11,3.76-14.83,22.23-25,22.23-35.11C105.54,99.55,99.84,95.5,93.53,95.5Z" transform="translate(0 0)" style="fill:#df0000"/></g></g></svg>