<svg xmlns="http://www.w3.org/2000/svg" viewBox="0 0 166.59 233.13"><defs><style>.cls-1{fill:#fff;}.cls-2{fill:#65a7dd;}.cls-3{fill:#151515;}</style></defs><title>Asset 40</title><g id="Layer_2" data-name="Layer 2"><g id="Objects"><rect class="cls-1" x="0.12" y="0.12" width="166.36" height="232.9" rx="5.94" ry="5.94"/><path class="cls-2" d="M160.53,233.13H6.06A6.06,6.06,0,0,1,0,227.08V6.06A6.06,6.06,0,0,1,6.06,0H160.53a6.06,6.06,0,0,1,6.06,6.06v221A6.06,6.06,0,0,1,160.53,233.13ZM6.06.23A5.83,5.83,0,0,0,.23,6.06v221a5.83,5.83,0,0,0,5.82,5.82H160.53a5.83,5.83,0,0,0,5.82-5.82V6.06A5.83,5.83,0,0,0,160.53.23Z"/><path class="cls-3" d="M22.67,31.36c-1.07-1.17-2.32-2.31-2.84-2.91s-.67-.79-.78-.93v-.07l0,0,0,0v.07c-.11.14-.39.48-.78.93s-1.77,1.74-2.84,2.91a3.56,3.56,0,0,0-1,3.31,2.38,2.38,0,0,0,2.81,1.68,1.78,1.78,0,0,0,1.13-.6,3.7,3.7,0,0,1-.92,2.09h3.09a4,4,0,0,1-.84-2.08,1.78,1.78,0,0,0,1.13.59,2.38,2.38,0,0,0,2.81-1.68A3.56,3.56,0,0,0,22.67,31.36Z"/><path d="M15.66,23.69a2.2,2.2,0,0,1-1-2,1.82,1.82,0,0,1,.41-1.19,1.32,1.32,0,0,1,1.07-.5,1.24,1.24,0,0,1,.88.3,1.08,1.08,0,0,1,.32.82,1.1,1.1,0,0,1-.24.71.77.77,0,0,1-.63.3c-.45,0-.68.11-.68.33q0,1.22,2.44,1.22a2.26,2.26,0,0,0,2-1,4.18,4.18,0,0,0,.63-2.33,3.49,3.49,0,0,0-.67-2.33,2.09,2.09,0,0,0-1.64-.78,2.39,2.39,0,0,0-.48,0,3.68,3.68,0,0,0-.46.14,3.39,3.39,0,0,1-1,.21,1,1,0,0,1-.51-.14.44.44,0,0,1-.22-.41.45.45,0,0,1,.21-.41,1,1,0,0,1,.52-.14,5.93,5.93,0,0,1,.91.1,7.6,7.6,0,0,0,1.07.06,1.57,1.57,0,0,0,1.43-.84A3.75,3.75,0,0,0,20.57,14a3.58,3.58,0,0,0-.58-2.1,1.93,1.93,0,0,0-1.69-.83,2.71,2.71,0,0,0-1.62.37,1.05,1.05,0,0,0-.47.83.61.61,0,0,0,.14.36,1,1,0,0,0,.37.3,1,1,0,0,1,.7,1,.89.89,0,0,1-.27.67,1.07,1.07,0,0,1-.78.26,1.27,1.27,0,0,1-1-.48A1.56,1.56,0,0,1,15,13.3a2.42,2.42,0,0,1,1-2.1,4.23,4.23,0,0,1,2.51-.74,4.17,4.17,0,0,1,2.84.94,3.13,3.13,0,0,1,1.08,2.47,2.75,2.75,0,0,1-.38,1.45,3.29,3.29,0,0,1-1,1,3.36,3.36,0,0,1-1.15.53V17a4,4,0,0,1,2.52,1.73A3,3,0,0,1,23,20.46a3.43,3.43,0,0,1-.64,2.07,4.13,4.13,0,0,1-1.72,1.36,5.82,5.82,0,0,1-2.38.48A4.54,4.54,0,0,1,15.66,23.69Z"/><path d="M153.35,204.68a2.2,2.2,0,0,1,1,2,1.82,1.82,0,0,1-.41,1.19,1.31,1.31,0,0,1-1.07.49,1.24,1.24,0,0,1-.88-.3,1.08,1.08,0,0,1-.32-.82,1.1,1.1,0,0,1,.24-.71.77.77,0,0,1,.63-.3q.68,0,.68-.33,0-1.22-2.44-1.22a2.26,2.26,0,0,0-2,1,4.18,4.18,0,0,0-.63,2.33,3.49,3.49,0,0,0,.67,2.33,2.09,2.09,0,0,0,1.64.78,2.43,2.43,0,0,0,.48,0,3.76,3.76,0,0,0,.46-.14,3.4,3.4,0,0,1,1-.21,1,1,0,0,1,.51.14.49.49,0,0,1,0,.81,1,1,0,0,1-.52.14,6,6,0,0,1-.91-.1,7.45,7.45,0,0,0-1.07-.06,1.57,1.57,0,0,0-1.43.84,3.75,3.75,0,0,0-.49,1.93,3.57,3.57,0,0,0,.58,2.1,1.93,1.93,0,0,0,1.69.83,2.7,2.7,0,0,0,1.62-.37,1.05,1.05,0,0,0,.47-.83.61.61,0,0,0-.14-.36,1,1,0,0,0-.37-.3,1,1,0,0,1-.7-1,.89.89,0,0,1,.27-.67,1.08,1.08,0,0,1,.78-.26,1.27,1.27,0,0,1,1,.48,1.56,1.56,0,0,1,.42,1.06,2.42,2.42,0,0,1-1,2.1,4.23,4.23,0,0,1-2.51.74,4.16,4.16,0,0,1-2.84-.94,3.13,3.13,0,0,1-1.08-2.47A2.75,2.75,0,0,1,147,213a3.28,3.28,0,0,1,1-1,3.36,3.36,0,0,1,1.15-.53v-.16a4,4,0,0,1-2.52-1.73,3,3,0,0,1-.49-1.69,3.43,3.43,0,0,1,.64-2.07,4.12,4.12,0,0,1,1.72-1.36,5.81,5.81,0,0,1,2.38-.48A4.55,4.55,0,0,1,153.35,204.68Z"/><path class="cls-3" d="M97.13,35.33c-3.68-4-7.95-7.92-9.73-10-1.34-1.54-2.29-2.71-2.68-3.2v-.25l-.1.13-.1-.13v.25c-.39.49-1.34,1.66-2.68,3.2-1.79,2.05-6.06,6-9.73,10a12.19,12.19,0,0,0-3.28,11.34c.7,3.32,4.17,6.45,9.64,5.77a6.09,6.09,0,0,0,3.88-2.06,12.7,12.7,0,0,1-3.16,7.15h10.6a13.56,13.56,0,0,1-2.87-7.13,6.09,6.09,0,0,0,3.86,2c5.46.68,8.94-2.44,9.64-5.77A12.19,12.19,0,0,0,97.13,35.33Z"/><path class="cls-3" d="M97.13,111.91c-3.68-4-7.95-7.92-9.73-10-1.34-1.54-2.29-2.71-2.68-3.2v-.25l-.1.13-.1-.13v.25c-.39.49-1.34,1.66-2.68,3.2-1.79,2.05-6.06,6-9.73,10a12.19,12.19,0,0,0-3.28,11.34c.7,3.32,4.17,6.45,9.64,5.77A6.09,6.09,0,0,0,82.34,127a12.7,12.7,0,0,1-3.16,7.15h10.6A13.56,13.56,0,0,1,86.91,127a6.09,6.09,0,0,0,3.86,2c5.46.68,8.94-2.44,9.64-5.77A12.19,12.19,0,0,0,97.13,111.91Z"/><path class="cls-3" d="M97.13,194.75c-3.68,4-7.95,7.92-9.73,10-1.34,1.54-2.29,2.71-2.68,3.2v.25l-.1-.13-.1.13v-.25c-.39-.49-1.34-1.66-2.68-3.2-1.79-2.05-6.06-6-9.73-10a12.19,12.19,0,0,1-3.28-11.34c.7-3.32,4.17-6.45,9.64-5.77a6.09,6.09,0,0,1,3.88,2.06,12.7,12.7,0,0,0-3.16-7.15h10.6a13.56,13.56,0,0,0-2.87,7.13,6.09,6.09,0,0,1,3.86-2c5.46-.68,8.94,2.44,9.64,5.77A12.19,12.19,0,0,1,97.13,194.75Z"/><path class="cls-3" d="M153,197.51c-1.07,1.17-2.32,2.31-2.84,2.91s-.67.79-.78.93v.07l0,0,0,0v-.07c-.11-.14-.39-.48-.78-.93s-1.77-1.74-2.84-2.91a3.56,3.56,0,0,1-1-3.31,2.38,2.38,0,0,1,2.81-1.68,1.78,1.78,0,0,1,1.13.6,3.7,3.7,0,0,0-.92-2.09h3.09a4,4,0,0,0-.84,2.08,1.78,1.78,0,0,1,1.13-.59,2.38,2.38,0,0,1,2.81,1.68A3.56,3.56,0,0,1,153,197.51Z"/></g></g></svg>