<svg id="svg2" xmlns="http://www.w3.org/2000/svg" viewBox="0 0 167.09 242.67"><title>3-Spades</title><g id="Layer_1"><g id="path5"><path d="M166.84,235.55a6.89,6.89,0,0,1-6.87,6.87H7.11a6.88,6.88,0,0,1-6.86-6.87V7.12A6.89,6.89,0,0,1,7.11.25H160a6.89,6.89,0,0,1,6.87,6.87Z" transform="translate(0 0)" style="fill:#fff"/><path d="M160,242.67H7.11A7.12,7.12,0,0,1,0,235.55V7.12A7.12,7.12,0,0,1,7.11,0H160a7.13,7.13,0,0,1,7.12,7.12V235.55A7.13,7.13,0,0,1,160,242.67ZM7.11.5A6.62,6.62,0,0,0,.5,7.12V235.55a6.62,6.62,0,0,0,6.61,6.62H160a6.63,6.63,0,0,0,6.62-6.62V7.12A6.63,6.63,0,0,0,160,.5Z" transform="translate(0 0)"/></g></g><g id="text3788" style="isolation:isolate"><g style="isolation:isolate"><path d="M9.89,22l2.81-.37A6.19,6.19,0,0,0,14.35,25a4.07,4.07,0,0,0,2.84,1.05,4.54,4.54,0,0,0,3.35-1.37,4.64,4.64,0,0,0,1.37-3.41,4.32,4.32,0,0,0-1.27-3.2,4.38,4.38,0,0,0-3.22-1.26,8.09,8.09,0,0,0-2,.31l.31-2.47.45,0a5.79,5.79,0,0,0,3.23-.94,3.21,3.21,0,0,0,1.44-2.89,3.42,3.42,0,0,0-1-2.56,3.72,3.72,0,0,0-2.7-1,3.83,3.83,0,0,0-2.73,1A5.17,5.17,0,0,0,13,11.45L10.17,11a7.23,7.23,0,0,1,2.34-4.38A6.78,6.78,0,0,1,17.06,5a7.5,7.5,0,0,1,3.45.8A5.83,5.83,0,0,1,22.93,8a5.64,5.64,0,0,1,.84,3,4.83,4.83,0,0,1-.8,2.7,5.44,5.44,0,0,1-2.36,1.94,5.32,5.32,0,0,1,3.16,1.95,5.92,5.92,0,0,1,1.13,3.7,6.76,6.76,0,0,1-2.19,5.09,7.69,7.69,0,0,1-5.53,2.09,7.19,7.19,0,0,1-5-1.8A7,7,0,0,1,9.89,22Z" transform="translate(0 0)"/></g></g><g id="layer1-7"><g id="sl"><path d="M29,49.35c-.37-5.6-11.69-16.13-12.05-18.76C16.56,33.22,5.24,43.75,4.88,49.35A4.9,4.9,0,0,0,10,54.94c2.77,0,5.06-3.86,5.84-4.61.37,1-2.42,9.22-3.29,9.22h8.77c-.87,0-3.65-8.23-3.29-9.22.69.68,2.71,4.49,5.84,4.61A4.9,4.9,0,0,0,29,49.35Z" transform="translate(0 0)"/></g></g><g id="layer1-7-88"><g id="sl-4"><path d="M104.57,56.88c-.64-9.82-20.52-28.32-21.16-32.94-.64,4.62-20.52,23.12-21.16,32.94-.45,6.95,4.49,9.82,9,9.82,4.86-.05,8.88-6.78,10.26-8.09.64,1.73-4.25,16.18-5.77,16.18H91.11c-1.53,0-6.41-14.45-5.77-16.18,1.21,1.2,4.76,7.89,10.26,8.09C100.08,66.7,105,63.83,104.57,56.88Z" transform="translate(0 0)"/></g></g><g id="text3788-7" style="isolation:isolate"><g style="isolation:isolate"><path d="M157.63,221.17l-2.81.38a6.2,6.2,0,0,0-1.65-3.45,4.07,4.07,0,0,0-2.84-1.05,4.54,4.54,0,0,0-3.35,1.38,4.64,4.64,0,0,0-1.37,3.41,4.32,4.32,0,0,0,1.27,3.2,4.38,4.38,0,0,0,3.22,1.26,8.09,8.09,0,0,0,2-.31l-.31,2.47-.45,0a5.79,5.79,0,0,0-3.23.94,3.21,3.21,0,0,0-1.44,2.89,3.42,3.42,0,0,0,1,2.56,3.72,3.72,0,0,0,2.7,1,3.83,3.83,0,0,0,2.73-1,5.17,5.17,0,0,0,1.41-3.09l2.81.5a7.23,7.23,0,0,1-2.34,4.38,6.78,6.78,0,0,1-4.55,1.55,7.49,7.49,0,0,1-3.45-.8,5.83,5.83,0,0,1-2.41-2.2,5.64,5.64,0,0,1-.84-3,4.83,4.83,0,0,1,.8-2.7,5.43,5.43,0,0,1,2.36-1.94,5.31,5.31,0,0,1-3.16-1.95,5.92,5.92,0,0,1-1.12-3.7,6.76,6.76,0,0,1,2.19-5.09,7.69,7.69,0,0,1,5.53-2.09,7.19,7.19,0,0,1,5,1.8A7,7,0,0,1,157.63,221.17Z" transform="translate(0 0)"/></g></g><g id="layer1-7-3"><g id="sl-1"><path d="M138.17,193.76c.37,5.6,11.69,16.13,12.05,18.76.37-2.63,11.69-13.17,12.05-18.76a4.9,4.9,0,0,0-5.11-5.6c-2.77,0-5.06,3.86-5.84,4.61-.37-1,2.42-9.22,3.29-9.22h-8.77c.87,0,3.65,8.23,3.29,9.22-.69-.68-2.71-4.49-5.84-4.61A4.9,4.9,0,0,0,138.17,193.76Z" transform="translate(0 0)"/></g></g><g id="layer1-7-88-7"><g id="sl-4-5"><path d="M62.3,186.26c.64,9.82,20.52,28.32,21.16,32.94.64-4.62,20.52-23.12,21.16-32.94.45-6.95-4.49-9.82-9-9.82-4.86.05-8.88,6.78-10.26,8.09-.64-1.73,4.25-16.18,5.77-16.18H75.76c1.53,0,6.41,14.45,5.77,16.18-1.21-1.2-4.76-7.89-10.26-8.09C66.78,176.43,61.85,179.31,62.3,186.26Z" transform="translate(0 0)"/></g></g><g id="layer1-7-88-6"><g id="sl-4-8"><path d="M104.65,126.58c-.64-9.82-20.52-28.32-21.16-32.94-.64,4.62-20.52,23.12-21.16,32.94-.45,6.95,4.49,9.82,9,9.82,4.86-.05,8.88-6.78,10.26-8.09.64,1.73-4.25,16.18-5.77,16.18H91.19c-1.53,0-6.41-14.45-5.77-16.18,1.21,1.2,4.76,7.89,10.26,8.09C100.17,136.4,105.1,133.53,104.65,126.58Z" transform="translate(0 0)"/></g></g></svg>