<svg id="svg2" xmlns="http://www.w3.org/2000/svg" viewBox="0 0 167.09 242.67"><title>4-Clubs</title><g id="Layer_1"><g id="path5"><path d="M166.84,235.55a6.89,6.89,0,0,1-6.87,6.87H7.11a6.88,6.88,0,0,1-6.86-6.87V7.12A6.89,6.89,0,0,1,7.11.25H160a6.89,6.89,0,0,1,6.87,6.87Z" transform="translate(0 0)" style="fill:#fff"/><path d="M160,242.67H7.11A7.12,7.12,0,0,1,0,235.55V7.12A7.12,7.12,0,0,1,7.11,0H160a7.13,7.13,0,0,1,7.12,7.12V235.55A7.13,7.13,0,0,1,160,242.67ZM7.11.5A6.62,6.62,0,0,0,.5,7.12V235.55a6.62,6.62,0,0,0,6.61,6.62H160a6.63,6.63,0,0,0,6.62-6.62V7.12A6.63,6.63,0,0,0,160,.5Z" transform="translate(0 0)"/></g></g><g id="text3788" style="isolation:isolate"><g style="isolation:isolate"><path d="M18.65,27.55V22.06H8.72V19.49L19.17,4.64h2.3V19.49h3.09v2.58H21.47v5.48Zm0-8.06V9.16L11.48,19.49Z" transform="translate(0 0)"/></g></g><g id="layer1-1-4"><g id="cl-9"><path d="M20.69,43.74s3.53-2.82,3.53-6.74a6.47,6.47,0,0,0-6.74-6.09A6.47,6.47,0,0,0,10.75,37c0,3.91,3.53,6.74,3.53,6.74-3.92-3.05-10.91-1-10.91,5.13a6.48,6.48,0,0,0,6.42,6.42c4.7,0,6.74-5.13,6.74-5.13s.6,5.85-2.89,9h7.7c-3.48-3.13-2.89-9-2.89-9s2,5.13,6.74,5.13a6.48,6.48,0,0,0,6.42-6.42C31.6,42.77,24.61,40.69,20.69,43.74Z" transform="translate(0 0)"/></g></g><g id="text3788-8" style="isolation:isolate"><g style="isolation:isolate"><path d="M148.52,214.47V220h9.94v2.58L148,237.37h-2.3V222.53h-3.09V220h3.09v-5.48Zm0,8.06v10.33l7.17-10.33Z" transform="translate(0 0)"/></g></g><g id="layer1-1-4-1"><g id="cl-9-7"><path d="M146.48,198.74s-3.53,2.82-3.53,6.74a6.77,6.77,0,0,0,13.47,0c0-3.91-3.53-6.74-3.53-6.74,3.92,3.05,10.91,1,10.91-5.13a6.48,6.48,0,0,0-6.42-6.42c-4.7,0-6.74,5.13-6.74,5.13s-.6-5.85,2.89-9h-7.7c3.48,3.13,2.89,9,2.89,9s-2-5.13-6.74-5.13a6.48,6.48,0,0,0-6.42,6.42C135.58,199.71,142.56,201.79,146.48,198.74Z" transform="translate(0 0)"/></g></g><g id="layer1-1-4-8"><g id="cl-9-8"><path d="M59.17,55.5s6-4.77,6-11.39A10.94,10.94,0,0,0,53.75,33.8,11,11,0,0,0,42.36,44.11c0,6.62,6,11.39,6,11.39-6.63-5.16-18.44-1.64-18.44,8.68A11,11,0,0,0,40.73,75c8,0,11.39-8.68,11.39-8.68s1,9.89-4.88,15.19h13c-5.89-5.29-4.88-15.19-4.88-15.19S58.82,75,66.77,75A11,11,0,0,0,77.62,64.18C77.62,53.86,65.8,50.34,59.17,55.5Z" transform="translate(0 0)"/></g></g><g id="layer1-1-4-8-0"><g id="cl-9-8-6"><path d="M48.37,188.24s-6,4.77-6,11.39a10.94,10.94,0,0,0,11.39,10.31,11,11,0,0,0,11.39-10.31c0-6.62-6-11.39-6-11.39,6.63,5.16,18.44,1.64,18.44-8.68a11,11,0,0,0-10.85-10.85c-8,0-11.39,8.68-11.39,8.68s-1-9.89,4.88-15.19h-13c5.89,5.29,4.88,15.19,4.88,15.19s-3.44-8.68-11.39-8.68a11,11,0,0,0-10.85,10.85C29.92,189.88,41.74,193.41,48.37,188.24Z" transform="translate(0 0)"/></g></g><g id="layer1-1-4-8-2"><g id="cl-9-8-66"><path d="M117.25,55.5s6-4.77,6-11.39a11.45,11.45,0,0,0-22.78,0c0,6.62,6,11.39,6,11.39C99.77,50.34,88,53.86,88,64.18A11,11,0,0,0,98.8,75c8,0,11.39-8.68,11.39-8.68s1,9.89-4.88,15.19h13c-5.89-5.29-4.88-15.19-4.88-15.19S116.89,75,124.85,75a11,11,0,0,0,10.85-10.85C135.69,53.86,123.88,50.34,117.25,55.5Z" transform="translate(0 0)"/></g></g><g id="layer1-1-4-8-0-4"><g id="cl-9-8-6-9"><path d="M106.45,188.24s-6,4.77-6,11.39a11.45,11.45,0,0,0,22.78,0c0-6.62-6-11.39-6-11.39,6.63,5.16,18.44,1.64,18.44-8.68a11,11,0,0,0-10.85-10.85c-8,0-11.39,8.68-11.39,8.68s-1-9.89,4.88-15.19h-13c5.89,5.29,4.88,15.19,4.88,15.19s-3.44-8.68-11.39-8.68A11,11,0,0,0,88,179.56C88,189.88,99.82,193.41,106.45,188.24Z" transform="translate(0 0)"/></g></g></svg>