<svg id="svg2" xmlns="http://www.w3.org/2000/svg" viewBox="0 0 167.09 242.67"><title>4-Diamonds</title><g id="Layer_1"><g id="path5"><path d="M166.84,235.55a6.89,6.89,0,0,1-6.87,6.87H7.11a6.88,6.88,0,0,1-6.86-6.87V7.12A6.89,6.89,0,0,1,7.11.25H160a6.89,6.89,0,0,1,6.87,6.87Z" transform="translate(0 0)" style="fill:#fff"/><path d="M160,242.67H7.11A7.12,7.12,0,0,1,0,235.55V7.12A7.12,7.12,0,0,1,7.11,0H160a7.13,7.13,0,0,1,7.12,7.12V235.55A7.13,7.13,0,0,1,160,242.67ZM7.11.5A6.62,6.62,0,0,0,.5,7.12V235.55a6.62,6.62,0,0,0,6.61,6.62H160a6.63,6.63,0,0,0,6.62-6.62V7.12A6.63,6.63,0,0,0,160,.5Z" transform="translate(0 0)"/></g></g><g id="text3788" style="isolation:isolate"><g style="isolation:isolate"><path d="M18.19,26.41V20.93H8.25V18.35L18.71,3.51H21V18.35H24.1v2.58H21v5.48Zm0-8.06V8L11,18.35Z" transform="translate(0 0)" style="fill:#df0000"/></g></g><g id="text3788-4" style="isolation:isolate"><g style="isolation:isolate"><path d="M149.14,216.72v5.48h9.94v2.58l-10.45,14.84h-2.3V224.78h-3.09V222.2h3.09v-5.48Zm0,8.06v10.33l7.17-10.33Z" transform="translate(0 0)" style="fill:#df0000"/></g></g><g id="layer1-2-6"><g id="dl-6"><path d="M21.76,37.26A41.08,41.08,0,0,1,17,28.73a41.08,41.08,0,0,1-4.79,8.53,34.93,34.93,0,0,1-7,7,34.87,34.87,0,0,1,7,7A41.05,41.05,0,0,1,17,59.74a41.05,41.05,0,0,1,4.79-8.53,34.87,34.87,0,0,1,7-7A34.93,34.93,0,0,1,21.76,37.26Z" transform="translate(0 0)" style="fill:#df0000"/></g></g><g id="layer1-2-6-4"><g id="dl-6-9"><path d="M155.41,191.52a41.08,41.08,0,0,1-4.79-8.53,41.08,41.08,0,0,1-4.79,8.53,34.93,34.93,0,0,1-7,7,34.87,34.87,0,0,1,7,7,41.05,41.05,0,0,1,4.79,8.53,41.05,41.05,0,0,1,4.79-8.53,34.87,34.87,0,0,1,7-7A34.93,34.93,0,0,1,155.41,191.52Z" transform="translate(0 0)" style="fill:#df0000"/></g></g><g id="layer1-2-6-8"><g id="dl-6-8"><path d="M120.6,171.79a72,72,0,0,1-8.39-14.95,72,72,0,0,1-8.39,14.95A61.22,61.22,0,0,1,91.5,184a61.11,61.11,0,0,1,12.31,12.23,72,72,0,0,1,8.39,14.94,72,72,0,0,1,8.39-14.94A61.11,61.11,0,0,1,132.91,184,61.22,61.22,0,0,1,120.6,171.79Z" transform="translate(0 0)" style="fill:#df0000"/></g></g><g id="layer1-2-6-8-2"><g id="dl-6-8-6"><path d="M120.6,43.39a72,72,0,0,1-8.39-14.95,72,72,0,0,1-8.39,14.95A61.22,61.22,0,0,1,91.5,55.62a61.11,61.11,0,0,1,12.31,12.23,72,72,0,0,1,8.39,14.94,72,72,0,0,1,8.39-14.94,61.11,61.11,0,0,1,12.31-12.23A61.22,61.22,0,0,1,120.6,43.39Z" transform="translate(0 0)" style="fill:#df0000"/></g></g><g id="layer1-2-6-8-8"><g id="dl-6-8-8"><path d="M62.52,171.79a72,72,0,0,1-8.39-14.95,72,72,0,0,1-8.39,14.95A61.22,61.22,0,0,1,33.42,184a61.11,61.11,0,0,1,12.31,12.23,72,72,0,0,1,8.39,14.94,72,72,0,0,1,8.39-14.94A61.11,61.11,0,0,1,74.84,184,61.22,61.22,0,0,1,62.52,171.79Z" transform="translate(0 0)" style="fill:#df0000"/></g></g><g id="layer1-2-6-8-2-4"><g id="dl-6-8-6-3"><path d="M62.52,43.39a72,72,0,0,1-8.39-14.95,72,72,0,0,1-8.39,14.95A61.22,61.22,0,0,1,33.42,55.62,61.11,61.11,0,0,1,45.73,67.85,72,72,0,0,1,54.13,82.8a72,72,0,0,1,8.39-14.94A61.11,61.11,0,0,1,74.84,55.62,61.22,61.22,0,0,1,62.52,43.39Z" transform="translate(0 0)" style="fill:#df0000"/></g></g></svg>