<svg xmlns="http://www.w3.org/2000/svg" viewBox="0 0 166.59 233.13"><defs><style>.cls-1{fill:#fff;}.cls-2{fill:#65a7dd;}.cls-3{fill:#af0f07;}.cls-4{fill:#a43e32;}</style></defs><title>Asset 26</title><g id="Layer_2" data-name="Layer 2"><g id="Objects"><rect class="cls-1" x="0.12" y="0.12" width="166.36" height="232.9" rx="5.94" ry="5.94"/><path class="cls-2" d="M160.53,233.13H6.06A6.06,6.06,0,0,1,0,227.08V6.06A6.06,6.06,0,0,1,6.06,0H160.53a6.06,6.06,0,0,1,6.06,6.06v221A6.06,6.06,0,0,1,160.53,233.13ZM6.06.23A5.83,5.83,0,0,0,.23,6.06v221a5.83,5.83,0,0,0,5.82,5.82H160.53a5.83,5.83,0,0,0,5.82-5.82V6.06A5.83,5.83,0,0,0,160.53.23Z"/><circle class="cls-1" cx="148.63" cy="18.48" r="0.57"/><circle class="cls-1" cx="121.5" cy="18.48" r="0.57"/><circle class="cls-1" cx="71.49" cy="18.66" r="0.57"/><circle class="cls-1" cx="148.63" cy="39.62" r="0.57"/><circle class="cls-1" cx="148.63" cy="58.91" r="0.57"/><circle class="cls-1" cx="18.33" cy="19.05" r="0.57"/><circle class="cls-1" cx="45.77" cy="18.66" r="0.57"/><circle class="cls-1" cx="18.33" cy="39.17" r="0.57"/><circle class="cls-1" cx="18.33" cy="59.05" r="0.57"/><circle class="cls-1" cx="18.33" cy="78.99" r="0.57"/><circle class="cls-1" cx="18.33" cy="91.91" r="0.57"/><circle class="cls-1" cx="18.33" cy="105.31" r="0.57"/><circle class="cls-1" cx="18.33" cy="118.24" r="0.57"/><circle class="cls-1" cx="18.33" cy="170" r="0.57"/><circle class="cls-1" cx="18.33" cy="183.39" r="0.57"/><circle class="cls-1" cx="18.33" cy="196.44" r="0.57"/><circle class="cls-1" cx="18.56" cy="215.63" r="0.57"/><circle class="cls-1" cx="65.54" cy="216.2" r="0.57"/><circle class="cls-1" cx="91.94" cy="216.2" r="0.57"/><circle class="cls-1" cx="117.67" cy="216.2" r="0.57"/><circle class="cls-1" cx="148.63" cy="156.65" r="0.57"/><circle class="cls-1" cx="148.63" cy="169.41" r="0.57"/><circle class="cls-1" cx="148.63" cy="181.98" r="0.57"/><circle class="cls-1" cx="148.63" cy="194.82" r="0.57"/><circle class="cls-1" cx="148.63" cy="214.39" r="0.57"/><path class="cls-3" d="M20.77,29.13a2.26,2.26,0,0,0-2.44,2.11,2.26,2.26,0,0,0-2.44-2.11c-2.5.06-2.83,2.86-2,4.28a13.07,13.07,0,0,0,2.2,2.77,21.07,21.07,0,0,1,2.17,2.4s0,.07,0,.05,0-.05,0-.05a21.08,21.08,0,0,1,2.17-2.4,13.08,13.08,0,0,0,2.2-2.77C23.6,32,23.27,29.19,20.77,29.13Z"/><path class="cls-4" d="M16.15,24.2H18a.57.57,0,0,0,.4-.12.51.51,0,0,0,.13-.39v-2.6H13.63v-.7l6-8.87h.7v8.87h2.35v.7H20.34v2.6a.51.51,0,0,0,.13.39.57.57,0,0,0,.4.12h1.88v.62h-6.6Zm-1.63-3.8h4V14.45Z"/><path class="cls-3" d="M151.43,205.71h-1.88a.57.57,0,0,0-.4.12.51.51,0,0,0-.13.39v2.6H154v.7l-6,8.87h-.7v-8.87h-2.35v-.7h2.35v-2.6a.51.51,0,0,0-.13-.39.57.57,0,0,0-.4-.12h-1.88v-.62h6.6Zm1.63,3.81h-4v5.94Z"/><path class="cls-3" d="M151.08,200.36a2.26,2.26,0,0,1-2.44-2.11,2.26,2.26,0,0,1-2.44,2.11c-2.5-.06-2.83-2.86-2-4.28a13.07,13.07,0,0,1,2.2-2.77,21.07,21.07,0,0,0,2.17-2.4s0-.07,0-.05,0,.05,0,.05a21.07,21.07,0,0,0,2.17,2.4,13.08,13.08,0,0,1,2.2,2.77C153.92,197.5,153.58,200.3,151.08,200.36Z"/><path class="cls-3" d="M64.64,25c-5.48-.13-6.74,4.05-7,6.07-.29-2-1.55-6.2-7-6.07-7.21.17-8.16,8.25-5.65,12.33a37.69,37.69,0,0,0,6.34,8c2.37,2.45,5.21,5.22,6.25,6.91,0,0,.06.2.09.14s.09-.14.09-.14c1-1.69,3.88-4.45,6.25-6.91a37.69,37.69,0,0,0,6.34-8C72.81,33.21,71.85,25.13,64.64,25Z"/><path class="cls-3" d="M64.64,199.31c-5.48.13-6.74-4.05-7-6.07-.29,2-1.55,6.2-7,6.07-7.21-.17-8.16-8.25-5.65-12.33a37.69,37.69,0,0,1,6.34-8c2.37-2.45,5.21-5.22,6.25-6.91,0,0,.06-.2.09-.14s.09.14.09.14c1,1.69,3.88,4.45,6.25,6.91a37.69,37.69,0,0,1,6.34,8C72.81,191.06,71.85,199.13,64.64,199.31Z"/><path class="cls-3" d="M116.4,25c-5.48-.13-6.74,4.05-7,6.07-.29-2-1.55-6.2-7-6.07-7.21.17-8.16,8.25-5.65,12.33a37.69,37.69,0,0,0,6.34,8c2.37,2.45,5.21,5.22,6.25,6.91,0,0,.06.2.09.14s.09-.14.09-.14c1-1.69,3.88-4.45,6.25-6.91a37.7,37.7,0,0,0,6.34-8C124.56,33.21,123.61,25.13,116.4,25Z"/><path class="cls-3" d="M116.4,199.31c-5.48.13-6.74-4.05-7-6.07-.29,2-1.55,6.2-7,6.07-7.21-.17-8.16-8.25-5.65-12.33a37.69,37.69,0,0,1,6.34-8c2.37-2.45,5.21-5.22,6.25-6.91,0,0,.06-.2.09-.14s.09.14.09.14c1,1.69,3.88,4.45,6.25,6.91a37.7,37.7,0,0,1,6.34,8C124.56,191.06,123.61,199.13,116.4,199.31Z"/></g></g></svg>