<svg xmlns="http://www.w3.org/2000/svg" viewBox="0 0 166.59 233.13"><defs><style>.cls-1{fill:#fff;}.cls-2{fill:#65a7dd;}.cls-3{fill:#151515;}</style></defs><title>Asset 39</title><g id="Layer_2" data-name="Layer 2"><g id="Objects"><rect class="cls-1" x="0.12" y="0.12" width="166.36" height="232.9" rx="5.94" ry="5.94"/><path class="cls-2" d="M160.53,233.13H6.06A6.06,6.06,0,0,1,0,227.08V6.06A6.06,6.06,0,0,1,6.06,0H160.53a6.06,6.06,0,0,1,6.06,6.06v221A6.06,6.06,0,0,1,160.53,233.13ZM6.06.23A5.83,5.83,0,0,0,.23,6.06v221a5.83,5.83,0,0,0,5.82,5.82H160.53a5.83,5.83,0,0,0,5.82-5.82V6.06A5.83,5.83,0,0,0,160.53.23Z"/><circle class="cls-1" cx="148.63" cy="18.48" r="0.57"/><circle class="cls-1" cx="121.5" cy="18.48" r="0.57"/><circle class="cls-1" cx="71.49" cy="18.66" r="0.57"/><circle class="cls-1" cx="148.63" cy="39.62" r="0.57"/><circle class="cls-1" cx="148.63" cy="58.91" r="0.57"/><circle class="cls-1" cx="18.33" cy="19.05" r="0.57"/><circle class="cls-1" cx="45.77" cy="18.66" r="0.57"/><circle class="cls-1" cx="18.33" cy="39.17" r="0.57"/><circle class="cls-1" cx="18.33" cy="59.05" r="0.57"/><circle class="cls-1" cx="18.33" cy="78.99" r="0.57"/><circle class="cls-1" cx="18.33" cy="91.91" r="0.57"/><circle class="cls-1" cx="18.33" cy="105.31" r="0.57"/><circle class="cls-1" cx="18.33" cy="118.24" r="0.57"/><circle class="cls-1" cx="18.33" cy="170" r="0.57"/><circle class="cls-1" cx="18.33" cy="183.39" r="0.57"/><circle class="cls-1" cx="18.33" cy="196.44" r="0.57"/><circle class="cls-1" cx="18.56" cy="215.63" r="0.57"/><circle class="cls-1" cx="65.54" cy="216.19" r="0.57"/><circle class="cls-1" cx="91.94" cy="216.19" r="0.57"/><circle class="cls-1" cx="117.67" cy="216.19" r="0.57"/><circle class="cls-1" cx="148.63" cy="156.65" r="0.57"/><circle class="cls-1" cx="148.63" cy="169.41" r="0.57"/><circle class="cls-1" cx="148.63" cy="181.98" r="0.57"/><circle class="cls-1" cx="148.63" cy="194.82" r="0.57"/><circle class="cls-1" cx="148.63" cy="214.39" r="0.57"/><path class="cls-3" d="M22.79,31.36c-1.07-1.17-2.32-2.31-2.84-2.91s-.67-.79-.78-.93v-.07l0,0,0,0v.07c-.11.14-.39.48-.78.93s-1.77,1.74-2.84,2.91a3.56,3.56,0,0,0-1,3.31,2.38,2.38,0,0,0,2.81,1.68,1.78,1.78,0,0,0,1.13-.6,3.7,3.7,0,0,1-.92,2.09h3.09a4,4,0,0,1-.84-2.08,1.78,1.78,0,0,0,1.13.59,2.38,2.38,0,0,0,2.81-1.68A3.56,3.56,0,0,0,22.79,31.36Z"/><path d="M17,23.43h1.88a.57.57,0,0,0,.4-.12.51.51,0,0,0,.13-.39v-2.6H14.43v-.7l6-8.87h.7v8.87H23.5v.7H21.15v2.6a.51.51,0,0,0,.13.39.57.57,0,0,0,.4.12h1.88V24H17Zm-1.63-3.8h4V13.68Z"/><path d="M152.24,204.94h-1.88a.57.57,0,0,0-.4.12.51.51,0,0,0-.13.39V208h4.93v.7l-6,8.87H148v-8.87H145.7V208H148v-2.6a.51.51,0,0,0-.13-.39.57.57,0,0,0-.4-.12h-1.88v-.62h6.6Zm1.63,3.81h-4v5.94Z"/><path class="cls-3" d="M69.43,35.33c-3.68-4-7.95-7.92-9.73-10-1.34-1.54-2.29-2.71-2.68-3.2v-.25l-.1.13-.1-.13v.25c-.39.49-1.34,1.66-2.68,3.2-1.79,2.05-6.06,6-9.73,10a12.19,12.19,0,0,0-3.28,11.34c.7,3.32,4.17,6.45,9.64,5.77a6.09,6.09,0,0,0,3.88-2.06,12.7,12.7,0,0,1-3.16,7.15h10.6a13.56,13.56,0,0,1-2.87-7.13,6.09,6.09,0,0,0,3.86,2c5.46.68,8.94-2.44,9.64-5.77A12.19,12.19,0,0,0,69.43,35.33Z"/><path class="cls-3" d="M69.43,194.75c-3.68,4-7.95,7.92-9.73,10-1.34,1.54-2.29,2.71-2.68,3.2v.25l-.1-.13-.1.13v-.25c-.39-.49-1.34-1.66-2.68-3.2-1.79-2.05-6.06-6-9.73-10a12.19,12.19,0,0,1-3.28-11.34c.7-3.32,4.17-6.45,9.64-5.77a6.09,6.09,0,0,1,3.88,2.06,12.7,12.7,0,0,0-3.16-7.15h10.6a13.56,13.56,0,0,0-2.87,7.13,6.09,6.09,0,0,1,3.86-2c5.46-.68,8.94,2.44,9.64,5.77A12.19,12.19,0,0,1,69.43,194.75Z"/><path class="cls-3" d="M124,35.33c-3.68-4-7.95-7.92-9.73-10-1.34-1.54-2.29-2.71-2.68-3.2v-.25l-.1.13-.1-.13v.25c-.39.49-1.34,1.66-2.68,3.2-1.79,2.05-6.06,6-9.73,10a12.19,12.19,0,0,0-3.28,11.34c.7,3.32,4.17,6.45,9.64,5.77a6.09,6.09,0,0,0,3.88-2.06A12.7,12.7,0,0,1,106,57.53h10.6a13.56,13.56,0,0,1-2.87-7.13,6.09,6.09,0,0,0,3.86,2c5.46.68,8.94-2.44,9.64-5.77A12.19,12.19,0,0,0,124,35.33Z"/><path class="cls-3" d="M124,194.75c-3.68,4-7.95,7.92-9.73,10-1.34,1.54-2.29,2.71-2.68,3.2v.25l-.1-.13-.1.13v-.25c-.39-.49-1.34-1.66-2.68-3.2-1.79-2.05-6.06-6-9.73-10a12.19,12.19,0,0,1-3.28-11.34c.7-3.32,4.17-6.45,9.64-5.77a6.09,6.09,0,0,1,3.88,2.06,12.7,12.7,0,0,0-3.16-7.15h10.6a13.56,13.56,0,0,0-2.87,7.13,6.09,6.09,0,0,1,3.86-2c5.46-.68,8.94,2.44,9.64,5.77A12.19,12.19,0,0,1,124,194.75Z"/><path class="cls-3" d="M153.1,197.51c-1.07,1.17-2.32,2.31-2.84,2.91s-.67.79-.78.93v.07l0,0,0,0v-.07c-.11-.14-.39-.48-.78-.93s-1.77-1.74-2.84-2.91a3.56,3.56,0,0,1-1-3.31,2.38,2.38,0,0,1,2.81-1.68,1.78,1.78,0,0,1,1.13.6,3.7,3.7,0,0,0-.92-2.09H151a4,4,0,0,0-.84,2.08,1.78,1.78,0,0,1,1.13-.59,2.38,2.38,0,0,1,2.81,1.68A3.56,3.56,0,0,1,153.1,197.51Z"/></g></g></svg>