<svg id="svg2" xmlns="http://www.w3.org/2000/svg" viewBox="0 0 167.09 242.67"><title>4-Spades</title><g id="Layer_1"><g id="path5"><path d="M166.84,235.55a6.89,6.89,0,0,1-6.87,6.87H7.11a6.88,6.88,0,0,1-6.86-6.87V7.12A6.89,6.89,0,0,1,7.11.25H160a6.89,6.89,0,0,1,6.87,6.87Z" transform="translate(0 0)" style="fill:#fff"/><path d="M160,242.67H7.11A7.12,7.12,0,0,1,0,235.55V7.12A7.12,7.12,0,0,1,7.11,0H160a7.13,7.13,0,0,1,7.12,7.12V235.55A7.13,7.13,0,0,1,160,242.67ZM7.11.5A6.62,6.62,0,0,0,.5,7.12V235.55a6.62,6.62,0,0,0,6.61,6.62H160a6.63,6.63,0,0,0,6.62-6.62V7.12A6.63,6.63,0,0,0,160,.5Z" transform="translate(0 0)"/></g></g><g id="text3788" style="isolation:isolate"><g style="isolation:isolate"><path d="M18.89,28V22.53H9V20L19.41,5.11h2.3V20H24.8v2.58H21.7V28Zm0-8.06V9.62L11.72,20Z" transform="translate(0 0)"/></g></g><g id="layer1-7"><g id="sl"><path d="M29,49.35c-.37-5.6-11.69-16.13-12.05-18.76C16.56,33.22,5.24,43.75,4.88,49.35A4.9,4.9,0,0,0,10,54.94c2.77,0,5.06-3.86,5.84-4.61.37,1-2.42,9.22-3.29,9.22h8.77c-.87,0-3.65-8.23-3.29-9.22.69.68,2.71,4.49,5.84,4.61A4.9,4.9,0,0,0,29,49.35Z" transform="translate(0 0)"/></g></g><g id="layer1-7-88"><g id="sl-4"><path d="M75.77,64.88c-.64-9.82-20.52-28.32-21.16-32.94C54,36.56,34.09,55.05,33.45,64.88c-.45,6.95,4.49,9.82,9,9.82,4.86-.05,8.88-6.78,10.26-8.09.64,1.73-4.25,16.18-5.77,16.18H62.31c-1.53,0-6.41-14.45-5.77-16.18,1.21,1.2,4.76,7.89,10.26,8.09C71.28,74.7,76.22,71.83,75.77,64.88Z" transform="translate(0 0)"/></g></g><g id="text3788-7" style="isolation:isolate"><g style="isolation:isolate"><path d="M148.63,215.12v5.48h9.94v2.58L148.12,238h-2.3V223.19h-3.09v-2.58h3.09v-5.48Zm0,8.06v10.33l7.17-10.33Z" transform="translate(0 0)"/></g></g><g id="layer1-7-3"><g id="sl-1"><path d="M138.17,193.76c.37,5.6,11.69,16.13,12.05,18.76.37-2.63,11.69-13.17,12.05-18.76a4.9,4.9,0,0,0-5.11-5.6c-2.77,0-5.06,3.86-5.84,4.61-.37-1,2.42-9.22,3.29-9.22h-8.77c.87,0,3.65,8.23,3.29,9.22-.69-.68-2.71-4.49-5.84-4.61A4.9,4.9,0,0,0,138.17,193.76Z" transform="translate(0 0)"/></g></g><g id="layer1-7-88-7"><g id="sl-4-5"><path d="M33.5,178.26c.64,9.82,20.52,28.32,21.16,32.94.64-4.62,20.52-23.12,21.16-32.94.45-6.95-4.49-9.82-9-9.82-4.86.05-8.88,6.78-10.26,8.09-.64-1.73,4.25-16.18,5.77-16.18H47c1.53,0,6.41,14.45,5.77,16.18-1.21-1.2-4.76-7.89-10.26-8.09C38,168.43,33,171.31,33.5,178.26Z" transform="translate(0 0)"/></g></g><g id="layer1-7-88-1"><g id="sl-4-4"><path d="M133.85,64.87c-.64-9.82-20.52-28.32-21.16-32.94C112,36.55,92.17,55,91.53,64.87c-.45,6.95,4.49,9.82,9,9.82,4.86-.05,8.88-6.78,10.26-8.09.64,1.73-4.25,16.18-5.77,16.18h15.39c-1.53,0-6.41-14.45-5.77-16.18,1.21,1.2,4.76,7.89,10.26,8.09C129.36,74.69,134.3,71.81,133.85,64.87Z" transform="translate(0 0)"/></g></g><g id="layer1-7-88-7-9"><g id="sl-4-5-2"><path d="M91.57,178.25c.64,9.82,20.52,28.32,21.16,32.94.64-4.62,20.52-23.12,21.16-32.94.45-6.95-4.49-9.82-9-9.82-4.86.05-8.88,6.78-10.26,8.09-.64-1.73,4.25-16.18,5.77-16.18H105c1.53,0,6.41,14.45,5.77,16.18-1.21-1.2-4.76-7.89-10.26-8.09C96.06,168.42,91.13,171.3,91.57,178.25Z" transform="translate(0 0)"/></g></g></svg>