<svg xmlns="http://www.w3.org/2000/svg" viewBox="0 0 166.59 233.13"><defs><style>.cls-1{fill:#fff;}.cls-2{fill:#65a7dd;}.cls-3{fill:#151515;}</style></defs><title>Asset 51</title><g id="Layer_2" data-name="Layer 2"><g id="Objects"><rect class="cls-1" x="0.12" y="0.12" width="166.36" height="232.9" rx="5.94" ry="5.94"/><path class="cls-2" d="M160.53,233.13H6.06A6.06,6.06,0,0,1,0,227.08V6.06A6.06,6.06,0,0,1,6.06,0H160.53a6.06,6.06,0,0,1,6.06,6.06v221A6.06,6.06,0,0,1,160.53,233.13ZM6.06.23A5.83,5.83,0,0,0,.23,6.06v221a5.83,5.83,0,0,0,5.82,5.82H160.53a5.83,5.83,0,0,0,5.82-5.82V6.06A5.83,5.83,0,0,0,160.53.23Z"/><circle class="cls-1" cx="148.63" cy="18.48" r="0.57"/><circle class="cls-1" cx="121.5" cy="18.48" r="0.57"/><circle class="cls-1" cx="96.54" cy="18.48" r="0.57"/><circle class="cls-1" cx="71.49" cy="18.66" r="0.57"/><circle class="cls-1" cx="148.63" cy="39.62" r="0.57"/><circle class="cls-1" cx="148.63" cy="58.91" r="0.57"/><circle class="cls-1" cx="148.63" cy="79.13" r="0.57"/><circle class="cls-1" cx="148.63" cy="91.91" r="0.57"/><circle class="cls-1" cx="148.63" cy="104.74" r="0.57"/><circle class="cls-1" cx="18.33" cy="19.05" r="0.57"/><circle class="cls-1" cx="45.77" cy="18.66" r="0.57"/><circle class="cls-1" cx="18.33" cy="39.17" r="0.57"/><circle class="cls-1" cx="18.33" cy="59.05" r="0.57"/><circle class="cls-1" cx="18.33" cy="78.99" r="0.57"/><circle class="cls-1" cx="18.33" cy="91.91" r="0.57"/><circle class="cls-1" cx="18.33" cy="105.31" r="0.57"/><circle class="cls-1" cx="18.33" cy="118.24" r="0.57"/><circle class="cls-1" cx="18.33" cy="131.17" r="0.57"/><circle class="cls-1" cx="18.33" cy="144.57" r="0.57"/><circle class="cls-1" cx="18.33" cy="158" r="0.57"/><circle class="cls-1" cx="18.33" cy="170" r="0.57"/><circle class="cls-1" cx="18.33" cy="183.39" r="0.57"/><circle class="cls-1" cx="18.33" cy="196.44" r="0.57"/><circle class="cls-1" cx="18.56" cy="215.63" r="0.57"/><circle class="cls-1" cx="39.09" cy="216.19" r="0.57"/><circle class="cls-1" cx="65.54" cy="216.19" r="0.57"/><circle class="cls-1" cx="91.94" cy="216.19" r="0.57"/><circle class="cls-1" cx="117.67" cy="216.19" r="0.57"/><circle class="cls-1" cx="148.63" cy="117.93" r="0.57"/><circle class="cls-1" cx="148.63" cy="130.26" r="0.57"/><circle class="cls-1" cx="148.63" cy="143.55" r="0.57"/><circle class="cls-1" cx="148.63" cy="156.65" r="0.57"/><circle class="cls-1" cx="148.63" cy="169.41" r="0.57"/><circle class="cls-1" cx="148.63" cy="181.98" r="0.57"/><circle class="cls-1" cx="148.63" cy="194.82" r="0.57"/><circle class="cls-1" cx="148.63" cy="214.39" r="0.57"/><path class="cls-3" d="M21.37,35.95a2.45,2.45,0,0,0-2.62-.46,1.91,1.91,0,0,0,.68-1.63s0-.05,0-.08a2.24,2.24,0,1,0-4.43.45,2,2,0,0,0,.68,1.25,2.45,2.45,0,0,0-2.62.46,2.34,2.34,0,0,0-.19,2.91,2.08,2.08,0,0,0,2,1.09,2.52,2.52,0,0,0,1.87-.81,4.61,4.61,0,0,1-1,2.58h3.06a4.35,4.35,0,0,1-1-2.57,2.5,2.5,0,0,0,1.85.79,2.08,2.08,0,0,0,2-1.09A2.34,2.34,0,0,0,21.37,35.95Z"/><path d="M14,27.62a2.92,2.92,0,0,1-1.22-1,2.58,2.58,0,0,1-.43-1.45,1.94,1.94,0,0,1,.47-1.4,1.46,1.46,0,0,1,1.09-.48,1.08,1.08,0,0,1,.82.32,1.13,1.13,0,0,1,.3.81,1.05,1.05,0,0,1-.19.61,1.18,1.18,0,0,1-.5.42,2,2,0,0,0-.43.27.46.46,0,0,0-.16.37,1.13,1.13,0,0,0,.48,1,2.92,2.92,0,0,0,1.65.35,2.17,2.17,0,0,0,2.08-1.24A6.83,6.83,0,0,0,18.57,23a5,5,0,0,0-.62-2.74,2.23,2.23,0,0,0-2-1,2.26,2.26,0,0,0-1.81.76,1.48,1.48,0,0,0-.32.51,1.55,1.55,0,0,0-.13.55.55.55,0,0,1-.11.35.34.34,0,0,1-.28.14q-.31,0-.31-.49v-6.7l.43-.33a3.25,3.25,0,0,0,1.19.58,5.18,5.18,0,0,0,1.47.23,7.52,7.52,0,0,0,1.69-.17,5.57,5.57,0,0,0,1.55-.64l.23.27a5.37,5.37,0,0,1-1.72,1.47,4.48,4.48,0,0,1-2.16.55,6,6,0,0,1-1.15-.09,3.17,3.17,0,0,1-.83-.3v3.71l.12,0a3.2,3.2,0,0,1,1.14-.84,3.35,3.35,0,0,1,1.39-.3,4.15,4.15,0,0,1,3.17,1.2A4.45,4.45,0,0,1,20.62,23,5.1,5.1,0,0,1,20,25.55a4.83,4.83,0,0,1-1.74,1.8,4.56,4.56,0,0,1-2.39.65A4.34,4.34,0,0,1,14,27.62Z"/><path class="cls-3" d="M143.42,201.67a2.45,2.45,0,0,0,2.62.46,1.91,1.91,0,0,0-.68,1.63s0,.05,0,.08a2.24,2.24,0,1,0,4.43-.45,2,2,0,0,0-.68-1.25,2.45,2.45,0,0,0,2.62-.46,2.34,2.34,0,0,0,.19-2.91,2.08,2.08,0,0,0-2-1.09,2.52,2.52,0,0,0-1.87.81,4.61,4.61,0,0,1,1-2.58H146a4.35,4.35,0,0,1,1,2.57,2.5,2.5,0,0,0-1.85-.79,2.08,2.08,0,0,0-2,1.09A2.34,2.34,0,0,0,143.42,201.67Z"/><path d="M150.82,210a2.92,2.92,0,0,1,1.22,1,2.58,2.58,0,0,1,.43,1.45,1.94,1.94,0,0,1-.47,1.4,1.46,1.46,0,0,1-1.09.48,1.08,1.08,0,0,1-.82-.32,1.13,1.13,0,0,1-.3-.81,1.06,1.06,0,0,1,.19-.61,1.18,1.18,0,0,1,.5-.42,2,2,0,0,0,.43-.27.46.46,0,0,0,.16-.37,1.13,1.13,0,0,0-.48-1,2.92,2.92,0,0,0-1.65-.35,2.17,2.17,0,0,0-2.08,1.24,6.83,6.83,0,0,0-.64,3.14,5,5,0,0,0,.62,2.74,2.23,2.23,0,0,0,2,1,2.26,2.26,0,0,0,1.81-.76A1.48,1.48,0,0,0,151,217a1.55,1.55,0,0,0,.13-.55.55.55,0,0,1,.11-.35.34.34,0,0,1,.28-.14c.21,0,.31.16.31.49v6.7l-.43.33a3.25,3.25,0,0,0-1.19-.58,5.18,5.18,0,0,0-1.47-.23,7.57,7.57,0,0,0-1.69.17,5.6,5.6,0,0,0-1.55.64l-.23-.27a5.35,5.35,0,0,1,1.72-1.46,4.47,4.47,0,0,1,2.16-.55,5.92,5.92,0,0,1,1.15.09,3.13,3.13,0,0,1,.83.3v-3.71l-.12,0a3.19,3.19,0,0,1-1.14.84,3.35,3.35,0,0,1-1.39.3,4.15,4.15,0,0,1-3.17-1.2,4.45,4.45,0,0,1-1.14-3.18,5.1,5.1,0,0,1,.65-2.56,4.82,4.82,0,0,1,1.74-1.8,4.57,4.57,0,0,1,2.39-.65A4.34,4.34,0,0,1,150.82,210Z"/><path class="cls-3" d="M69.22,46.89C65.64,43,60.14,45.3,60.14,45.3c1.54-1.64,2.56-2.95,2.37-5.64,0-.09,0-.18,0-.27A7.75,7.75,0,1,0,47.19,41c.18,1.86,1.1,3,2.36,4.34,0,0-5.5-2.32-9.07,1.59A8.09,8.09,0,0,0,39.81,57c1.13,1.52,2.81,4.08,6.79,3.79,3.52-.26,4-.86,6.46-2.79a16,16,0,0,1-3.51,8.94h10.6c-1.95-2-3.67-6.75-3.45-8.89,2.37,1.89,2.91,2.48,6.39,2.74,4,.3,5.66-2.26,6.79-3.79A8.09,8.09,0,0,0,69.22,46.89Z"/><path class="cls-3" d="M125.86,46.89c-3.58-3.91-9.07-1.59-9.07-1.59,1.54-1.64,2.56-2.95,2.37-5.64,0-.09,0-.18,0-.27A7.75,7.75,0,1,0,103.83,41c.18,1.86,1.1,3,2.36,4.34,0,0-5.5-2.32-9.07,1.59A8.09,8.09,0,0,0,96.46,57c1.13,1.52,2.81,4.08,6.79,3.79,3.52-.26,4-.86,6.46-2.79a16,16,0,0,1-3.51,8.94h10.6c-1.95-2-3.67-6.75-3.45-8.89,2.37,1.89,2.91,2.48,6.39,2.74,4,.3,5.66-2.26,6.79-3.79A8.09,8.09,0,0,0,125.86,46.89Z"/><path class="cls-3" d="M95.74,116.93c-3.58-3.91-9.07-1.59-9.07-1.59,1.54-1.64,2.56-2.95,2.37-5.64,0-.09,0-.18,0-.27A7.75,7.75,0,1,0,73.7,111c.18,1.86,1.1,3,2.36,4.34,0,0-5.5-2.32-9.07,1.59A8.09,8.09,0,0,0,66.33,127c1.13,1.52,2.81,4.08,6.79,3.79,3.52-.26,4-.86,6.46-2.79a16,16,0,0,1-3.51,8.94h10.6c-1.95-2-3.67-6.75-3.45-8.89,2.37,1.89,2.91,2.48,6.39,2.74,4,.3,5.66-2.26,6.79-3.79A8.09,8.09,0,0,0,95.74,116.93Z"/><path class="cls-3" d="M69.22,191c-3.58,3.91-9.07,1.59-9.07,1.59,1.54,1.64,2.56,2.95,2.37,5.64,0,.09,0,.18,0,.27A7.75,7.75,0,1,1,47.19,197c.18-1.86,1.1-3,2.36-4.34,0,0-5.5,2.32-9.07-1.59A8.09,8.09,0,0,1,39.81,181c1.13-1.52,2.81-4.08,6.79-3.79,3.52.26,4,.86,6.46,2.79A16,16,0,0,0,49.55,171h10.6c-1.95,2-3.67,6.75-3.45,8.89,2.37-1.89,2.91-2.48,6.39-2.74,4-.3,5.66,2.26,6.79,3.79A8.09,8.09,0,0,1,69.22,191Z"/><path class="cls-3" d="M125.86,191c-3.58,3.91-9.07,1.59-9.07,1.59,1.54,1.64,2.56,2.95,2.37,5.64,0,.09,0,.18,0,.27A7.75,7.75,0,1,1,103.83,197c.18-1.86,1.1-3,2.36-4.34,0,0-5.5,2.32-9.07-1.59A8.09,8.09,0,0,1,96.46,181c1.13-1.52,2.81-4.08,6.79-3.79,3.52.26,4,.86,6.46,2.79a16,16,0,0,0-3.51-8.94h10.6c-1.95,2-3.67,6.75-3.45,8.89,2.37-1.89,2.91-2.48,6.39-2.74,4-.3,5.66,2.26,6.79,3.79A8.09,8.09,0,0,1,125.86,191Z"/></g></g></svg>