<svg id="svg2" xmlns="http://www.w3.org/2000/svg" viewBox="0 0 167.09 242.67"><title>5-Clubs</title><g id="Layer_1"><g id="path5"><path d="M166.84,235.55a6.89,6.89,0,0,1-6.87,6.87H7.11a6.88,6.88,0,0,1-6.86-6.87V7.12A6.89,6.89,0,0,1,7.11.25H160a6.89,6.89,0,0,1,6.87,6.87Z" transform="translate(0 0)" style="fill:#fff"/><path d="M160,242.67H7.11A7.12,7.12,0,0,1,0,235.55V7.12A7.12,7.12,0,0,1,7.11,0H160a7.13,7.13,0,0,1,7.12,7.12V235.55A7.13,7.13,0,0,1,160,242.67ZM7.11.5A6.62,6.62,0,0,0,.5,7.12V235.55a6.62,6.62,0,0,0,6.61,6.62H160a6.63,6.63,0,0,0,6.62-6.62V7.12A6.63,6.63,0,0,0,160,.5Z" transform="translate(0 0)"/></g></g><g id="text3788" style="isolation:isolate"><g style="isolation:isolate"><path d="M9.64,21.55l3-.25a5.29,5.29,0,0,0,1.52,3.24A4.13,4.13,0,0,0,17,25.63a4.49,4.49,0,0,0,3.44-1.53A5.77,5.77,0,0,0,21.84,20a5.22,5.22,0,0,0-1.35-3.8A4.72,4.72,0,0,0,17,14.85a4.91,4.91,0,0,0-2.45.62,4.76,4.76,0,0,0-1.72,1.6l-2.64-.34L12.36,5H23.75V7.64H14.61L13.37,13.8a7.46,7.46,0,0,1,4.33-1.44,6.86,6.86,0,0,1,5.06,2.08,7.26,7.26,0,0,1,2.06,5.34A8.34,8.34,0,0,1,23,25.16a7.26,7.26,0,0,1-6,2.78,7.41,7.41,0,0,1-5.1-1.75A6.83,6.83,0,0,1,9.64,21.55Z" transform="translate(0 0)"/></g></g><g id="layer1-1-4"><g id="cl-9"><path d="M20.69,43.74s3.53-2.82,3.53-6.74a6.47,6.47,0,0,0-6.74-6.09A6.47,6.47,0,0,0,10.75,37c0,3.91,3.53,6.74,3.53,6.74-3.92-3.05-10.91-1-10.91,5.13a6.48,6.48,0,0,0,6.42,6.42c4.7,0,6.74-5.13,6.74-5.13s.6,5.85-2.89,9h7.7c-3.48-3.13-2.89-9-2.89-9s2,5.13,6.74,5.13a6.48,6.48,0,0,0,6.42-6.42C31.6,42.77,24.61,40.69,20.69,43.74Z" transform="translate(0 0)"/></g></g><g id="text3788-8" style="isolation:isolate"><g style="isolation:isolate"><path d="M157.54,220.47l-3,.25a5.29,5.29,0,0,0-1.52-3.24,4.13,4.13,0,0,0-2.88-1.09,4.49,4.49,0,0,0-3.44,1.53,5.77,5.77,0,0,0-1.41,4.06,5.22,5.22,0,0,0,1.35,3.8,4.72,4.72,0,0,0,3.54,1.39,4.91,4.91,0,0,0,2.45-.62,4.77,4.77,0,0,0,1.72-1.6l2.64.34-2.22,11.77H143.43v-2.69h9.14l1.23-6.16a7.46,7.46,0,0,1-4.33,1.44,6.86,6.86,0,0,1-5.06-2.08,7.26,7.26,0,0,1-2.06-5.34,8.34,8.34,0,0,1,1.81-5.37,7.26,7.26,0,0,1,6-2.78,7.41,7.41,0,0,1,5.1,1.75A6.83,6.83,0,0,1,157.54,220.47Z" transform="translate(0 0)"/></g></g><g id="layer1-1-4-1"><g id="cl-9-7"><path d="M146.48,198.74s-3.53,2.82-3.53,6.74a6.77,6.77,0,0,0,13.47,0c0-3.91-3.53-6.74-3.53-6.74,3.92,3.05,10.91,1,10.91-5.13a6.48,6.48,0,0,0-6.42-6.42c-4.7,0-6.74,5.13-6.74,5.13s-.6-5.85,2.89-9h-7.7c3.48,3.13,2.89,9,2.89,9s-2-5.13-6.74-5.13a6.48,6.48,0,0,0-6.42,6.42C135.58,199.71,142.56,201.79,146.48,198.74Z" transform="translate(0 0)"/></g></g><g id="layer1-1-4-8"><g id="cl-9-8"><path d="M59.17,55.5s6-4.77,6-11.39A10.94,10.94,0,0,0,53.75,33.8,11,11,0,0,0,42.36,44.11c0,6.62,6,11.39,6,11.39-6.63-5.16-18.44-1.64-18.44,8.68A11,11,0,0,0,40.73,75c8,0,11.39-8.68,11.39-8.68s1,9.89-4.88,15.19h13c-5.89-5.29-4.88-15.19-4.88-15.19S58.82,75,66.77,75A11,11,0,0,0,77.62,64.18C77.62,53.86,65.8,50.34,59.17,55.5Z" transform="translate(0 0)"/></g></g><g id="layer1-1-4-8-0"><g id="cl-9-8-6"><path d="M48.37,188.24s-6,4.77-6,11.39a10.94,10.94,0,0,0,11.39,10.31,11,11,0,0,0,11.39-10.31c0-6.62-6-11.39-6-11.39,6.63,5.16,18.44,1.64,18.44-8.68a11,11,0,0,0-10.85-10.85c-8,0-11.39,8.68-11.39,8.68s-1-9.89,4.88-15.19h-13c5.89,5.29,4.88,15.19,4.88,15.19s-3.44-8.68-11.39-8.68a11,11,0,0,0-10.85,10.85C29.92,189.88,41.74,193.41,48.37,188.24Z" transform="translate(0 0)"/></g></g><g id="layer1-1-4-8-2"><g id="cl-9-8-66"><path d="M117.25,55.5s6-4.77,6-11.39a11.45,11.45,0,0,0-22.78,0c0,6.62,6,11.39,6,11.39C99.77,50.34,88,53.86,88,64.18A11,11,0,0,0,98.8,75c8,0,11.39-8.68,11.39-8.68s1,9.89-4.88,15.19h13c-5.89-5.29-4.88-15.19-4.88-15.19S116.89,75,124.85,75a11,11,0,0,0,10.85-10.85C135.69,53.86,123.88,50.34,117.25,55.5Z" transform="translate(0 0)"/></g></g><g id="layer1-1-4-8-0-4"><g id="cl-9-8-6-9"><path d="M106.45,188.24s-6,4.77-6,11.39a11.45,11.45,0,0,0,22.78,0c0-6.62-6-11.39-6-11.39,6.63,5.16,18.44,1.64,18.44-8.68a11,11,0,0,0-10.85-10.85c-8,0-11.39,8.68-11.39,8.68s-1-9.89,4.88-15.19h-13c5.89,5.29,4.88,15.19,4.88,15.19s-3.44-8.68-11.39-8.68A11,11,0,0,0,88,179.56C88,189.88,99.82,193.41,106.45,188.24Z" transform="translate(0 0)"/></g></g><g id="layer1-1-4-8-2-6"><g id="cl-9-8-0"><path d="M88,118.8s6-4.77,6-11.39A10.94,10.94,0,0,0,82.55,97.1a11,11,0,0,0-11.39,10.31c0,6.62,6,11.39,6,11.39-6.63-5.16-18.44-1.64-18.44,8.68a11,11,0,0,0,10.85,10.85c8,0,11.39-8.68,11.39-8.68s1,9.89-4.88,15.19h13c-5.89-5.29-4.88-15.19-4.88-15.19s3.44,8.68,11.39,8.68a11,11,0,0,0,10.85-10.85C106.42,117.16,94.6,113.64,88,118.8Z" transform="translate(0 0)"/></g></g></svg>