<svg id="svg2" xmlns="http://www.w3.org/2000/svg" viewBox="0 0 167.09 242.67"><title>5-Diamonds</title><g id="Layer_1"><g id="path5"><path d="M166.84,235.55a6.89,6.89,0,0,1-6.87,6.87H7.11a6.88,6.88,0,0,1-6.86-6.87V7.12A6.89,6.89,0,0,1,7.11.25H160a6.89,6.89,0,0,1,6.87,6.87Z" transform="translate(0 0)" style="fill:#fff"/><path d="M160,242.67H7.11A7.12,7.12,0,0,1,0,235.55V7.12A7.12,7.12,0,0,1,7.11,0H160a7.13,7.13,0,0,1,7.12,7.12V235.55A7.13,7.13,0,0,1,160,242.67ZM7.11.5A6.62,6.62,0,0,0,.5,7.12V235.55a6.62,6.62,0,0,0,6.61,6.62H160a6.63,6.63,0,0,0,6.62-6.62V7.12A6.63,6.63,0,0,0,160,.5Z" transform="translate(0 0)"/></g></g><g id="text3788" style="isolation:isolate"><g style="isolation:isolate"><path d="M9.17,20.41l3-.25a5.29,5.29,0,0,0,1.52,3.24,4.13,4.13,0,0,0,2.88,1.09A4.49,4.49,0,0,0,20,23a5.77,5.77,0,0,0,1.41-4.06A5.22,5.22,0,0,0,20,15.1a4.72,4.72,0,0,0-3.54-1.39,4.91,4.91,0,0,0-2.45.62,4.76,4.76,0,0,0-1.72,1.6l-2.64-.34L11.89,3.82H23.28V6.51H14.14l-1.23,6.16a7.46,7.46,0,0,1,4.33-1.44A6.86,6.86,0,0,1,22.3,13.3a7.26,7.26,0,0,1,2.06,5.34A8.34,8.34,0,0,1,22.55,24a7.26,7.26,0,0,1-6,2.78,7.41,7.41,0,0,1-5.1-1.75A6.83,6.83,0,0,1,9.17,20.41Z" transform="translate(0 0)" style="fill:#df0000"/></g></g><g id="text3788-4" style="isolation:isolate"><g style="isolation:isolate"><path d="M158.16,222.72l-3,.25a5.29,5.29,0,0,0-1.52-3.24,4.13,4.13,0,0,0-2.88-1.09,4.49,4.49,0,0,0-3.44,1.53,5.77,5.77,0,0,0-1.41,4.06,5.22,5.22,0,0,0,1.35,3.8,4.72,4.72,0,0,0,3.54,1.39,4.91,4.91,0,0,0,2.45-.62,4.76,4.76,0,0,0,1.72-1.6l2.64.34-2.22,11.77H144.05v-2.69h9.14l1.23-6.16a7.46,7.46,0,0,1-4.33,1.44,6.86,6.86,0,0,1-5.06-2.08,7.26,7.26,0,0,1-2.06-5.34,8.34,8.34,0,0,1,1.81-5.37,7.26,7.26,0,0,1,6-2.78,7.41,7.41,0,0,1,5.1,1.75A6.82,6.82,0,0,1,158.16,222.72Z" transform="translate(0 0)" style="fill:#df0000"/></g></g><g id="layer1-2-6"><g id="dl-6"><path d="M21.76,37.26A41.08,41.08,0,0,1,17,28.73a41.08,41.08,0,0,1-4.79,8.53,34.93,34.93,0,0,1-7,7,34.87,34.87,0,0,1,7,7A41.05,41.05,0,0,1,17,59.74a41.05,41.05,0,0,1,4.79-8.53,34.87,34.87,0,0,1,7-7A34.93,34.93,0,0,1,21.76,37.26Z" transform="translate(0 0)" style="fill:#df0000"/></g></g><g id="layer1-2-6-4"><g id="dl-6-9"><path d="M155.41,191.52a41.08,41.08,0,0,1-4.79-8.53,41.08,41.08,0,0,1-4.79,8.53,34.93,34.93,0,0,1-7,7,34.87,34.87,0,0,1,7,7,41.05,41.05,0,0,1,4.79,8.53,41.05,41.05,0,0,1,4.79-8.53,34.87,34.87,0,0,1,7-7A34.93,34.93,0,0,1,155.41,191.52Z" transform="translate(0 0)" style="fill:#df0000"/></g></g><g id="layer1-2-6-8"><g id="dl-6-8"><path d="M120.6,171.79a72,72,0,0,1-8.39-14.95,72,72,0,0,1-8.39,14.95A61.22,61.22,0,0,1,91.5,184a61.11,61.11,0,0,1,12.31,12.23,72,72,0,0,1,8.39,14.94,72,72,0,0,1,8.39-14.94A61.11,61.11,0,0,1,132.91,184,61.22,61.22,0,0,1,120.6,171.79Z" transform="translate(0 0)" style="fill:#df0000"/></g></g><g id="layer1-2-6-8-2"><g id="dl-6-8-6"><path d="M120.6,43.39a72,72,0,0,1-8.39-14.95,72,72,0,0,1-8.39,14.95A61.22,61.22,0,0,1,91.5,55.62a61.11,61.11,0,0,1,12.31,12.23,72,72,0,0,1,8.39,14.94,72,72,0,0,1,8.39-14.94,61.11,61.11,0,0,1,12.31-12.23A61.22,61.22,0,0,1,120.6,43.39Z" transform="translate(0 0)" style="fill:#df0000"/></g></g><g id="layer1-2-6-8-8"><g id="dl-6-8-8"><path d="M62.52,171.79a72,72,0,0,1-8.39-14.95,72,72,0,0,1-8.39,14.95A61.22,61.22,0,0,1,33.42,184a61.11,61.11,0,0,1,12.31,12.23,72,72,0,0,1,8.39,14.94,72,72,0,0,1,8.39-14.94A61.11,61.11,0,0,1,74.84,184,61.22,61.22,0,0,1,62.52,171.79Z" transform="translate(0 0)" style="fill:#df0000"/></g></g><g id="layer1-2-6-8-2-4"><g id="dl-6-8-6-3"><path d="M62.52,43.39a72,72,0,0,1-8.39-14.95,72,72,0,0,1-8.39,14.95A61.22,61.22,0,0,1,33.42,55.62,61.11,61.11,0,0,1,45.73,67.85,72,72,0,0,1,54.13,82.8a72,72,0,0,1,8.39-14.94A61.11,61.11,0,0,1,74.84,55.62,61.22,61.22,0,0,1,62.52,43.39Z" transform="translate(0 0)" style="fill:#df0000"/></g></g><g id="layer1-2-6-8-2-4-6"><g id="dl-6-8-6-3-8"><path d="M90.68,107.24A72,72,0,0,1,82.28,92.3a72,72,0,0,1-8.39,14.95,61.22,61.22,0,0,1-12.31,12.23,61.11,61.11,0,0,1,12.31,12.23,72,72,0,0,1,8.39,14.94,72,72,0,0,1,8.39-14.94A61.11,61.11,0,0,1,103,119.47,61.22,61.22,0,0,1,90.68,107.24Z" transform="translate(0 0)" style="fill:#df0000"/></g></g></svg>