<svg xmlns="http://www.w3.org/2000/svg" viewBox="0 0 166.48 233.07"><defs><style>.cls-1{fill:#fff;}.cls-2{fill:#65a7dd;}.cls-3{fill:#af0f07;}.cls-4{fill:#a43e32;}</style></defs><title>Asset 15</title><g id="Layer_2" data-name="Layer 2"><g id="Objects"><rect class="cls-1" x="0.12" y="0.11" width="166.25" height="232.84" rx="5.94" ry="5.94"/><path class="cls-2" d="M160.43,233.07H6.05A6.06,6.06,0,0,1,0,227V6.05A6.06,6.06,0,0,1,6.05,0H160.43a6.06,6.06,0,0,1,6.05,6.05V227A6.06,6.06,0,0,1,160.43,233.07ZM6.05.23A5.83,5.83,0,0,0,.23,6.05V227a5.83,5.83,0,0,0,5.82,5.82H160.43a5.83,5.83,0,0,0,5.82-5.82V6.05A5.83,5.83,0,0,0,160.43.23Z"/><circle class="cls-1" cx="148.53" cy="18.48" r="0.57"/><circle class="cls-1" cx="121.42" cy="18.48" r="0.57"/><circle class="cls-1" cx="96.48" cy="18.48" r="0.57"/><circle class="cls-1" cx="71.45" cy="18.66" r="0.57"/><circle class="cls-1" cx="148.53" cy="39.61" r="0.57"/><circle class="cls-1" cx="148.53" cy="58.9" r="0.57"/><circle class="cls-1" cx="148.53" cy="79.11" r="0.57"/><circle class="cls-1" cx="148.53" cy="91.89" r="0.57"/><circle class="cls-1" cx="148.53" cy="104.72" r="0.57"/><circle class="cls-1" cx="18.32" cy="19.04" r="0.57"/><circle class="cls-1" cx="45.74" cy="18.66" r="0.57"/><circle class="cls-1" cx="18.32" cy="39.16" r="0.57"/><circle class="cls-1" cx="18.32" cy="59.03" r="0.57"/><circle class="cls-1" cx="18.32" cy="78.97" r="0.57"/><circle class="cls-1" cx="18.32" cy="91.89" r="0.57"/><circle class="cls-1" cx="18.32" cy="105.29" r="0.57"/><circle class="cls-1" cx="18.32" cy="118.21" r="0.57"/><circle class="cls-1" cx="18.32" cy="131.13" r="0.57"/><circle class="cls-1" cx="18.32" cy="144.53" r="0.57"/><circle class="cls-1" cx="18.32" cy="157.95" r="0.57"/><circle class="cls-1" cx="18.32" cy="169.95" r="0.57"/><circle class="cls-1" cx="18.32" cy="183.35" r="0.57"/><circle class="cls-1" cx="18.32" cy="196.39" r="0.57"/><circle class="cls-1" cx="18.55" cy="215.57" r="0.57"/><circle class="cls-1" cx="39.07" cy="216.14" r="0.57"/><circle class="cls-1" cx="65.5" cy="216.14" r="0.57"/><circle class="cls-1" cx="91.89" cy="216.14" r="0.57"/><circle class="cls-1" cx="117.59" cy="216.14" r="0.57"/><circle class="cls-1" cx="148.53" cy="117.9" r="0.57"/><circle class="cls-1" cx="148.53" cy="130.22" r="0.57"/><circle class="cls-1" cx="148.53" cy="143.51" r="0.57"/><circle class="cls-1" cx="148.53" cy="156.61" r="0.57"/><circle class="cls-1" cx="148.53" cy="169.36" r="0.57"/><circle class="cls-1" cx="148.53" cy="181.94" r="0.57"/><circle class="cls-1" cx="148.53" cy="194.77" r="0.57"/><circle class="cls-1" cx="148.53" cy="214.34" r="0.57"/><polygon class="cls-3" points="15.2 29.75 10.47 34.96 14.68 40.69 19.52 35.43 15.2 29.75"/><polygon class="cls-3" points="147.58 193.14 142.85 198.36 147.06 204.08 151.9 198.83 147.58 193.14"/><path class="cls-4" d="M12.94,25.26a2.91,2.91,0,0,1-1.22-1,2.58,2.58,0,0,1-.43-1.45,1.94,1.94,0,0,1,.47-1.4,1.46,1.46,0,0,1,1.09-.48,1.07,1.07,0,0,1,.82.32,1.13,1.13,0,0,1,.3.8,1.05,1.05,0,0,1-.19.61,1.18,1.18,0,0,1-.5.42,2,2,0,0,0-.43.27.47.47,0,0,0-.16.37,1.13,1.13,0,0,0,.48,1,2.91,2.91,0,0,0,1.65.35,2.17,2.17,0,0,0,2.08-1.24,6.83,6.83,0,0,0,.64-3.14,5,5,0,0,0-.62-2.74,2.23,2.23,0,0,0-2-1,2.25,2.25,0,0,0-1.8.76,1.48,1.48,0,0,0-.32.51,1.54,1.54,0,0,0-.13.55.55.55,0,0,1-.11.35.34.34,0,0,1-.28.14q-.31,0-.31-.48V12.07l.43-.33a3.25,3.25,0,0,0,1.19.58,5.18,5.18,0,0,0,1.46.23,7.54,7.54,0,0,0,1.69-.17,5.58,5.58,0,0,0,1.55-.64l.23.27a5.36,5.36,0,0,1-1.72,1.47,4.47,4.47,0,0,1-2.16.55,6,6,0,0,1-1.14-.09,3.15,3.15,0,0,1-.83-.3v3.71l.12,0a3.2,3.2,0,0,1,1.13-.84,3.35,3.35,0,0,1,1.39-.3,4.15,4.15,0,0,1,3.17,1.2,4.45,4.45,0,0,1,1.13,3.18,5.09,5.09,0,0,1-.65,2.56A4.83,4.83,0,0,1,17.2,25a4.57,4.57,0,0,1-2.39.65A4.33,4.33,0,0,1,12.94,25.26Z"/><path class="cls-4" d="M149.71,207.58a2.91,2.91,0,0,1,1.22,1,2.58,2.58,0,0,1,.43,1.45,1.94,1.94,0,0,1-.47,1.4,1.46,1.46,0,0,1-1.09.48,1.07,1.07,0,0,1-.82-.32,1.13,1.13,0,0,1-.3-.8,1.05,1.05,0,0,1,.19-.61,1.18,1.18,0,0,1,.5-.42,2,2,0,0,0,.43-.27.47.47,0,0,0,.16-.37,1.13,1.13,0,0,0-.48-1,2.91,2.91,0,0,0-1.65-.35,2.17,2.17,0,0,0-2.08,1.24,6.83,6.83,0,0,0-.64,3.14,5,5,0,0,0,.62,2.74,2.23,2.23,0,0,0,2,1,2.25,2.25,0,0,0,1.8-.76,1.48,1.48,0,0,0,.32-.51,1.54,1.54,0,0,0,.13-.55.55.55,0,0,1,.11-.35.34.34,0,0,1,.28-.14q.31,0,.31.48v6.69l-.43.33a3.26,3.26,0,0,0-1.19-.58,5.18,5.18,0,0,0-1.46-.23,7.54,7.54,0,0,0-1.69.17,5.58,5.58,0,0,0-1.55.64l-.23-.27a5.36,5.36,0,0,1,1.72-1.47,4.46,4.46,0,0,1,2.16-.55,6,6,0,0,1,1.14.09,3.15,3.15,0,0,1,.83.3v-3.71l-.12,0a3.2,3.2,0,0,1-1.13.84,3.35,3.35,0,0,1-1.39.3,4.15,4.15,0,0,1-3.17-1.2,4.45,4.45,0,0,1-1.13-3.18,5.09,5.09,0,0,1,.65-2.56,4.83,4.83,0,0,1,1.74-1.8,4.57,4.57,0,0,1,2.39-.65A4.33,4.33,0,0,1,149.71,207.58Z"/><polygon class="cls-3" points="52.17 23.55 38.88 39.7 52.17 56.11 65.81 39.83 52.17 23.55"/><polygon class="cls-3" points="52.17 173.12 38.88 189.27 52.17 205.68 65.81 189.4 52.17 173.12"/><polygon class="cls-3" points="110.36 23.55 97.07 39.7 110.36 56.11 124 39.83 110.36 23.55"/><polygon class="cls-3" points="110.36 173.12 97.07 189.27 110.36 205.68 124 189.4 110.36 173.12"/><polygon class="cls-3" points="80.73 98.34 67.44 114.49 80.73 130.89 94.37 114.61 80.73 98.34"/></g></g></svg>