<svg id="svg2" xmlns="http://www.w3.org/2000/svg" viewBox="0 0 167.09 242.67"><title>5-Hearts</title><g id="Layer_1"><g id="path5"><path d="M166.84,235.55a6.89,6.89,0,0,1-6.87,6.87H7.11a6.88,6.88,0,0,1-6.86-6.87V7.12A6.89,6.89,0,0,1,7.11.25H160a6.89,6.89,0,0,1,6.87,6.87Z" transform="translate(0 0)" style="fill:#fff"/><path d="M160,242.67H7.11A7.12,7.12,0,0,1,0,235.55V7.12A7.12,7.12,0,0,1,7.11,0H160a7.13,7.13,0,0,1,7.12,7.12V235.55A7.13,7.13,0,0,1,160,242.67ZM7.11.5A6.62,6.62,0,0,0,.5,7.12V235.55a6.62,6.62,0,0,0,6.61,6.62H160a6.63,6.63,0,0,0,6.62-6.62V7.12A6.63,6.63,0,0,0,160,.5Z" transform="translate(0 0)"/></g></g><g id="text3788" style="isolation:isolate"><g style="isolation:isolate"><path d="M10.1,22l3-.25A5.29,5.29,0,0,0,14.58,25a4.13,4.13,0,0,0,2.88,1.09,4.49,4.49,0,0,0,3.44-1.53,5.77,5.77,0,0,0,1.41-4.06A5.22,5.22,0,0,0,21,16.7a4.72,4.72,0,0,0-3.54-1.39,4.91,4.91,0,0,0-2.45.62,4.76,4.76,0,0,0-1.72,1.6l-2.64-.34L12.82,5.42H24.21V8.11H15.07l-1.23,6.16a7.46,7.46,0,0,1,4.33-1.44,6.86,6.86,0,0,1,5.06,2.08,7.26,7.26,0,0,1,2.06,5.34,8.34,8.34,0,0,1-1.81,5.38,7.26,7.26,0,0,1-6,2.78,7.41,7.41,0,0,1-5.1-1.75A6.83,6.83,0,0,1,10.1,22Z" transform="translate(0 0)" style="fill:#df0000"/></g></g><g id="layer1-9-6"><g id="hl-8"><path d="M23.33,32.28c-5.43,0-6.15,5.45-6.15,5.45s-.72-5.45-6.15-5.45c-3.8,0-7.24,2.44-7.24,7.05,0,6.09,11,12.21,13.39,21.15,2.26-8.93,13.39-15.07,13.39-21.15C30.57,34.73,27.13,32.28,23.33,32.28Z" transform="translate(0 0)" style="fill:#df0000"/></g></g><g id="text3788-4" style="isolation:isolate"><g style="isolation:isolate"><path d="M157.49,219.52l-3,.25a5.29,5.29,0,0,0-1.52-3.24,4.13,4.13,0,0,0-2.88-1.09,4.49,4.49,0,0,0-3.44,1.53,5.77,5.77,0,0,0-1.41,4.06,5.22,5.22,0,0,0,1.35,3.8,4.72,4.72,0,0,0,3.54,1.39,4.91,4.91,0,0,0,2.45-.62,4.77,4.77,0,0,0,1.72-1.6l2.64.34-2.22,11.77H143.38v-2.69h9.14l1.23-6.16a7.46,7.46,0,0,1-4.33,1.44,6.86,6.86,0,0,1-5.06-2.08,7.26,7.26,0,0,1-2.06-5.34,8.34,8.34,0,0,1,1.81-5.37,7.26,7.26,0,0,1,6-2.78,7.41,7.41,0,0,1,5.1,1.75A6.83,6.83,0,0,1,157.49,219.52Z" transform="translate(0 0)" style="fill:#df0000"/></g></g><g id="layer1-9-6-5"><g id="hl-8-1"><path d="M144,209.25c5.43,0,6.15-5.45,6.15-5.45s.72,5.45,6.15,5.45c3.8,0,7.24-2.44,7.24-7.05,0-6.09-11-12.21-13.39-21.15-2.26,8.93-13.39,15.07-13.39,21.15C136.76,206.8,140.2,209.25,144,209.25Z" transform="translate(0 0)" style="fill:#df0000"/></g></g><g id="layer1-9-6-8"><g id="hl-8-8"><path d="M66.33,41.45c-9,0-10.22,9-10.22,9s-1.2-9-10.22-9c-6.31,0-12,4.05-12,11.7,0,10.11,18.28,20.27,22.23,35.11,3.76-14.83,22.23-25,22.23-35.11C78.34,45.51,72.64,41.45,66.33,41.45Z" transform="translate(0 0)" style="fill:#df0000"/></g></g><g id="layer1-9-6-8-9"><g id="hl-8-8-5"><path d="M45.9,200.67c9,0,10.22-9,10.22-9s1.2,9,10.22,9c6.31,0,12-4.05,12-11.7,0-10.11-18.28-20.27-22.23-35.11-3.76,14.83-22.23,25-22.23,35.11C33.88,196.62,39.59,200.67,45.9,200.67Z" transform="translate(0 0)" style="fill:#df0000"/></g></g><g id="layer1-9-6-8-0"><g id="hl-8-8-6"><path d="M120.92,41.72c-9,0-10.22,9-10.22,9s-1.2-9-10.22-9c-6.31,0-12,4.05-12,11.7,0,10.11,18.28,20.27,22.23,35.11,3.76-14.83,22.23-25,22.23-35.11C132.94,45.78,127.23,41.72,120.92,41.72Z" transform="translate(0 0)" style="fill:#df0000"/></g></g><g id="layer1-9-6-8-9-8"><g id="hl-8-8-5-9"><path d="M100.49,200.94c9,0,10.22-9,10.22-9s1.2,9,10.22,9c6.31,0,12-4.05,12-11.7,0-10.11-18.28-20.27-22.23-35.11-3.76,14.83-22.23,25-22.23,35.11C88.47,196.89,94.18,200.94,100.49,200.94Z" transform="translate(0 0)" style="fill:#df0000"/></g></g><g id="layer1-9-6-8-6"><g id="hl-8-8-8"><path d="M93.43,101.64c-9,0-10.22,9-10.22,9s-1.2-9-10.22-9c-6.31,0-12,4.05-12,11.7,0,10.11,18.28,20.27,22.23,35.11,3.76-14.83,22.23-25,22.23-35.11C105.45,105.7,99.74,101.64,93.43,101.64Z" transform="translate(0 0)" style="fill:#df0000"/></g></g></svg>