<svg xmlns="http://www.w3.org/2000/svg" viewBox="0 0 166.59 233.13"><defs><style>.cls-1{fill:#af0f07;}.cls-2{fill:#fff;}.cls-3{fill:#65a7dd;}.cls-4{fill:#a43e32;}</style></defs><title>Asset 25</title><g id="Layer_2" data-name="Layer 2"><g id="Objects"><path class="cls-1" d="M150.63,206.83a2.26,2.26,0,0,1-2.44-2.11,2.26,2.26,0,0,1-2.44,2.11c-2.5-.06-2.83-2.86-2-4.28a13.07,13.07,0,0,1,2.2-2.77,21.08,21.08,0,0,0,2.17-2.4s0-.07,0-.05,0,.05,0,.05a21.08,21.08,0,0,0,2.17,2.4,13.07,13.07,0,0,1,2.2,2.77C153.46,204,153.13,206.77,150.63,206.83Z"/><rect class="cls-2" x="0.12" y="0.12" width="166.36" height="232.9" rx="5.94" ry="5.94"/><path class="cls-3" d="M160.53,233.13H6.06A6.06,6.06,0,0,1,0,227.08V6.06A6.06,6.06,0,0,1,6.06,0H160.53a6.06,6.06,0,0,1,6.06,6.06v221A6.06,6.06,0,0,1,160.53,233.13ZM6.06.23A5.83,5.83,0,0,0,.23,6.06v221a5.83,5.83,0,0,0,5.82,5.82H160.53a5.83,5.83,0,0,0,5.82-5.82V6.06A5.83,5.83,0,0,0,160.53.23Z"/><circle class="cls-2" cx="148.63" cy="18.48" r="0.57"/><circle class="cls-2" cx="121.5" cy="18.48" r="0.57"/><circle class="cls-2" cx="96.54" cy="18.48" r="0.57"/><circle class="cls-2" cx="71.49" cy="18.66" r="0.57"/><circle class="cls-2" cx="148.63" cy="39.62" r="0.57"/><circle class="cls-2" cx="148.63" cy="58.91" r="0.57"/><circle class="cls-2" cx="148.63" cy="79.13" r="0.57"/><circle class="cls-2" cx="148.63" cy="91.91" r="0.57"/><circle class="cls-2" cx="148.63" cy="104.74" r="0.57"/><circle class="cls-2" cx="18.33" cy="19.05" r="0.57"/><circle class="cls-2" cx="45.77" cy="18.66" r="0.57"/><circle class="cls-2" cx="18.33" cy="39.17" r="0.57"/><circle class="cls-2" cx="18.33" cy="59.05" r="0.57"/><circle class="cls-2" cx="18.33" cy="78.99" r="0.57"/><circle class="cls-2" cx="18.33" cy="91.91" r="0.57"/><circle class="cls-2" cx="18.33" cy="105.31" r="0.57"/><circle class="cls-2" cx="18.33" cy="118.24" r="0.57"/><circle class="cls-2" cx="18.33" cy="131.17" r="0.57"/><circle class="cls-2" cx="18.33" cy="144.57" r="0.57"/><circle class="cls-2" cx="18.33" cy="158" r="0.57"/><circle class="cls-2" cx="18.33" cy="170" r="0.57"/><circle class="cls-2" cx="18.33" cy="183.39" r="0.57"/><circle class="cls-2" cx="18.33" cy="196.44" r="0.57"/><circle class="cls-2" cx="18.56" cy="215.63" r="0.57"/><circle class="cls-2" cx="39.09" cy="216.2" r="0.57"/><circle class="cls-2" cx="65.54" cy="216.2" r="0.57"/><circle class="cls-2" cx="91.94" cy="216.2" r="0.57"/><circle class="cls-2" cx="117.67" cy="216.2" r="0.57"/><circle class="cls-2" cx="148.63" cy="117.93" r="0.57"/><circle class="cls-2" cx="148.63" cy="130.26" r="0.57"/><circle class="cls-2" cx="148.63" cy="143.55" r="0.57"/><circle class="cls-2" cx="148.63" cy="156.65" r="0.57"/><circle class="cls-2" cx="148.63" cy="169.41" r="0.57"/><circle class="cls-2" cx="148.63" cy="181.98" r="0.57"/><circle class="cls-2" cx="148.63" cy="194.82" r="0.57"/><circle class="cls-2" cx="148.63" cy="214.39" r="0.57"/><path class="cls-4" d="M13.41,28.76a2.91,2.91,0,0,1-1.22-1,2.58,2.58,0,0,1-.43-1.45,1.94,1.94,0,0,1,.47-1.4,1.46,1.46,0,0,1,1.09-.48,1.08,1.08,0,0,1,.82.32,1.13,1.13,0,0,1,.3.81,1.06,1.06,0,0,1-.19.61,1.17,1.17,0,0,1-.5.42,2,2,0,0,0-.43.27.47.47,0,0,0-.16.37,1.13,1.13,0,0,0,.48,1,2.92,2.92,0,0,0,1.65.35,2.17,2.17,0,0,0,2.08-1.24A6.84,6.84,0,0,0,18,24.13a5,5,0,0,0-.62-2.74,2.23,2.23,0,0,0-2-1,2.26,2.26,0,0,0-1.81.76,1.48,1.48,0,0,0-.32.51,1.56,1.56,0,0,0-.13.55.54.54,0,0,1-.11.35.34.34,0,0,1-.28.14q-.31,0-.31-.48v-6.7l.43-.33a3.25,3.25,0,0,0,1.19.58,5.18,5.18,0,0,0,1.47.23,7.52,7.52,0,0,0,1.69-.17,5.54,5.54,0,0,0,1.55-.64l.23.27A5.37,5.37,0,0,1,17.26,17a4.48,4.48,0,0,1-2.16.55A6,6,0,0,1,14,17.44a3.13,3.13,0,0,1-.83-.3v3.71l.12,0A3.2,3.2,0,0,1,14.37,20a3.35,3.35,0,0,1,1.39-.3,4.15,4.15,0,0,1,3.17,1.2,4.44,4.44,0,0,1,1.14,3.18,5.1,5.1,0,0,1-.65,2.56,4.83,4.83,0,0,1-1.74,1.8,4.57,4.57,0,0,1-2.39.65A4.34,4.34,0,0,1,13.41,28.76Z"/><path class="cls-4" d="M150.27,211.13a2.92,2.92,0,0,1,1.22,1,2.58,2.58,0,0,1,.43,1.45,1.94,1.94,0,0,1-.47,1.4,1.46,1.46,0,0,1-1.09.48,1.08,1.08,0,0,1-.83-.32,1.13,1.13,0,0,1-.3-.81,1.06,1.06,0,0,1,.19-.61,1.18,1.18,0,0,1,.5-.42,2,2,0,0,0,.43-.27.46.46,0,0,0,.16-.37,1.13,1.13,0,0,0-.48-1,2.92,2.92,0,0,0-1.65-.35,2.17,2.17,0,0,0-2.08,1.24,6.83,6.83,0,0,0-.64,3.14,5,5,0,0,0,.62,2.74,2.23,2.23,0,0,0,2,1,2.26,2.26,0,0,0,1.81-.76,1.48,1.48,0,0,0,.32-.51,1.55,1.55,0,0,0,.13-.55.55.55,0,0,1,.11-.35.34.34,0,0,1,.28-.14c.21,0,.31.16.31.49v6.7l-.43.33a3.25,3.25,0,0,0-1.19-.58,5.18,5.18,0,0,0-1.47-.23,7.57,7.57,0,0,0-1.69.17,5.59,5.59,0,0,0-1.55.64l-.23-.27a5.35,5.35,0,0,1,1.72-1.46,4.47,4.47,0,0,1,2.16-.55,5.92,5.92,0,0,1,1.15.09,3.13,3.13,0,0,1,.83.3V219l-.12,0a3.19,3.19,0,0,1-1.14.84,3.35,3.35,0,0,1-1.39.3,4.15,4.15,0,0,1-3.17-1.2,4.45,4.45,0,0,1-1.14-3.18,5.1,5.1,0,0,1,.65-2.56,4.82,4.82,0,0,1,1.74-1.8,4.57,4.57,0,0,1,2.39-.65A4.34,4.34,0,0,1,150.27,211.13Z"/><path class="cls-1" d="M19.39,34.67A2.26,2.26,0,0,0,17,36.78a2.26,2.26,0,0,0-2.44-2.1c-2.5.06-2.83,2.86-2,4.28a13.08,13.08,0,0,0,2.2,2.77,21.07,21.07,0,0,1,2.17,2.4s0,.07,0,.05,0-.05,0-.05a21.07,21.07,0,0,1,2.17-2.4A13.08,13.08,0,0,0,21.35,39C22.23,37.54,21.89,34.73,19.39,34.67Z"/><path class="cls-1" d="M62.33,30.5c-5.48-.13-6.74,4.05-7,6.07-.29-2-1.55-6.2-7-6.07-7.21.17-8.16,8.25-5.65,12.33a37.69,37.69,0,0,0,6.34,8c2.37,2.45,5.21,5.22,6.25,6.91,0,0,.06.2.09.14s.09-.14.09-.14c1-1.69,3.88-4.45,6.25-6.91a37.69,37.69,0,0,0,6.34-8C70.49,38.75,69.54,30.67,62.33,30.5Z"/><path class="cls-1" d="M62.33,204.85c-5.48.13-6.74-4.05-7-6.07-.29,2-1.55,6.2-7,6.07-7.21-.17-8.16-8.25-5.65-12.33a37.69,37.69,0,0,1,6.34-8c2.37-2.45,5.21-5.22,6.25-6.91,0,0,.06-.2.09-.14s.09.14.09.14c1,1.69,3.88,4.45,6.25,6.91a37.69,37.69,0,0,1,6.34,8C70.49,196.6,69.54,204.68,62.33,204.85Z"/><path class="cls-1" d="M115,30.5c-5.48-.13-6.74,4.05-7,6.07-.29-2-1.55-6.2-7-6.07-7.21.17-8.16,8.25-5.65,12.33a37.69,37.69,0,0,0,6.34,8c2.37,2.45,5.21,5.22,6.25,6.91,0,0,.06.2.09.14s.09-.14.09-.14c1-1.69,3.88-4.45,6.25-6.91a37.69,37.69,0,0,0,6.34-8C123.17,38.75,122.22,30.67,115,30.5Z"/><path class="cls-1" d="M115,204.85c-5.48.13-6.74-4.05-7-6.07-.29,2-1.55,6.2-7,6.07-7.21-.17-8.16-8.25-5.65-12.33a37.69,37.69,0,0,1,6.34-8c2.37-2.45,5.21-5.22,6.25-6.91,0,0,.06-.2.09-.14s.09.14.09.14c1,1.69,3.88,4.45,6.25,6.91a37.69,37.69,0,0,1,6.34,8C123.17,196.6,122.22,204.68,115,204.85Z"/><path class="cls-1" d="M88.21,102.59c-5.48-.13-6.74,4.05-7,6.07-.29-2-1.55-6.2-7-6.07-7.21.17-8.16,8.25-5.65,12.33a37.69,37.69,0,0,0,6.34,8c2.37,2.45,5.21,5.22,6.25,6.91,0,0,.06.2.09.14s.09-.14.09-.14c1-1.69,3.88-4.45,6.25-6.91a37.69,37.69,0,0,0,6.34-8C96.37,110.84,95.42,102.76,88.21,102.59Z"/></g></g></svg>