<svg id="svg2" xmlns="http://www.w3.org/2000/svg" viewBox="0 0 167.09 242.67"><title>5-Spades</title><g id="Layer_1"><g id="path5"><path d="M166.84,235.55a6.89,6.89,0,0,1-6.87,6.87H7.11a6.88,6.88,0,0,1-6.86-6.87V7.12A6.89,6.89,0,0,1,7.11.25H160a6.89,6.89,0,0,1,6.87,6.87Z" transform="translate(0 0)" style="fill:#fff"/><path d="M160,242.67H7.11A7.12,7.12,0,0,1,0,235.55V7.12A7.12,7.12,0,0,1,7.11,0H160a7.13,7.13,0,0,1,7.12,7.12V235.55A7.13,7.13,0,0,1,160,242.67ZM7.11.5A6.62,6.62,0,0,0,.5,7.12V235.55a6.62,6.62,0,0,0,6.61,6.62H160a6.63,6.63,0,0,0,6.62-6.62V7.12A6.63,6.63,0,0,0,160,.5Z" transform="translate(0 0)"/></g></g><g id="text3788" style="isolation:isolate"><g style="isolation:isolate"><path d="M9.88,22l3-.25A5.29,5.29,0,0,0,14.35,25a4.13,4.13,0,0,0,2.88,1.09,4.49,4.49,0,0,0,3.44-1.53,5.77,5.77,0,0,0,1.41-4.06,5.22,5.22,0,0,0-1.35-3.8,4.72,4.72,0,0,0-3.54-1.39,4.91,4.91,0,0,0-2.45.62A4.76,4.76,0,0,0,13,17.53l-2.64-.34L12.59,5.42H24V8.11H14.84l-1.23,6.16a7.46,7.46,0,0,1,4.33-1.44A6.86,6.86,0,0,1,23,14.9a7.26,7.26,0,0,1,2.06,5.34,8.34,8.34,0,0,1-1.81,5.38,7.26,7.26,0,0,1-6,2.78,7.41,7.41,0,0,1-5.1-1.75A6.83,6.83,0,0,1,9.88,22Z" transform="translate(0 0)"/></g></g><g id="layer1-7"><g id="sl"><path d="M29,49.35c-.37-5.6-11.69-16.13-12.05-18.76C16.56,33.22,5.24,43.75,4.88,49.35A4.9,4.9,0,0,0,10,54.94c2.77,0,5.06-3.86,5.84-4.61.37,1-2.42,9.22-3.29,9.22h8.77c-.87,0-3.65-8.23-3.29-9.22.69.68,2.71,4.49,5.84,4.61A4.9,4.9,0,0,0,29,49.35Z" transform="translate(0 0)"/></g></g><g id="layer1-7-88"><g id="sl-4"><path d="M77.37,56.88c-.64-9.82-20.52-28.32-21.16-32.94-.64,4.62-20.52,23.12-21.16,32.94-.45,6.95,4.49,9.82,9,9.82,4.86-.05,8.88-6.78,10.26-8.09C54.93,60.35,50,74.8,48.52,74.8H63.91c-1.53,0-6.41-14.45-5.77-16.18,1.21,1.2,4.76,7.89,10.26,8.09C72.88,66.7,77.82,63.83,77.37,56.88Z" transform="translate(0 0)"/></g></g><g id="text3788-7" style="isolation:isolate"><g style="isolation:isolate"><path d="M157.65,221.12l-3,.25a5.29,5.29,0,0,0-1.52-3.24,4.13,4.13,0,0,0-2.88-1.09,4.49,4.49,0,0,0-3.44,1.53,5.77,5.77,0,0,0-1.41,4.06,5.22,5.22,0,0,0,1.35,3.8,4.72,4.72,0,0,0,3.54,1.39,4.91,4.91,0,0,0,2.45-.62,4.77,4.77,0,0,0,1.72-1.6l2.64.34-2.22,11.77H143.54V235h9.14l1.23-6.16a7.46,7.46,0,0,1-4.33,1.44,6.86,6.86,0,0,1-5.06-2.08,7.26,7.26,0,0,1-2.06-5.34,8.34,8.34,0,0,1,1.81-5.37,7.26,7.26,0,0,1,6-2.78,7.41,7.41,0,0,1,5.1,1.75A6.83,6.83,0,0,1,157.65,221.12Z" transform="translate(0 0)"/></g></g><g id="layer1-7-3"><g id="sl-1"><path d="M138.17,193.76c.37,5.6,11.69,16.13,12.05,18.76.37-2.63,11.69-13.17,12.05-18.76a4.9,4.9,0,0,0-5.11-5.6c-2.77,0-5.06,3.86-5.84,4.61-.37-1,2.42-9.22,3.29-9.22h-8.77c.87,0,3.65,8.23,3.29,9.22-.69-.68-2.71-4.49-5.84-4.61A4.9,4.9,0,0,0,138.17,193.76Z" transform="translate(0 0)"/></g></g><g id="layer1-7-88-7"><g id="sl-4-5"><path d="M35.1,186.26c.64,9.82,20.52,28.32,21.16,32.94.64-4.62,20.52-23.12,21.16-32.94.45-6.95-4.49-9.82-9-9.82-4.86.05-8.88,6.78-10.26,8.09-.64-1.73,4.25-16.18,5.77-16.18H48.56c1.53,0,6.41,14.45,5.77,16.18-1.21-1.2-4.76-7.89-10.26-8.09C39.58,176.43,34.65,179.31,35.1,186.26Z" transform="translate(0 0)"/></g></g><g id="layer1-7-88-6"><g id="sl-4-8"><path d="M104.65,126.58c-.64-9.82-20.52-28.32-21.16-32.94-.64,4.62-20.52,23.12-21.16,32.94-.45,6.95,4.49,9.82,9,9.82,4.86-.05,8.88-6.78,10.26-8.09.64,1.73-4.25,16.18-5.77,16.18H91.19c-1.53,0-6.41-14.45-5.77-16.18,1.21,1.2,4.76,7.89,10.26,8.09C100.17,136.4,105.1,133.53,104.65,126.58Z" transform="translate(0 0)"/></g></g><g id="layer1-7-88-8"><g id="sl-4-9"><path d="M131.09,57c-.64-9.82-20.52-28.32-21.16-32.94C109.29,28.69,89.41,47.18,88.77,57c-.45,6.95,4.49,9.82,9,9.82,4.86-.05,8.88-6.78,10.26-8.09.64,1.73-4.25,16.18-5.77,16.18h15.39c-1.53,0-6.41-14.45-5.77-16.18,1.21,1.2,4.76,7.89,10.26,8.09C126.6,66.83,131.54,64,131.09,57Z" transform="translate(0 0)"/></g></g><g id="layer1-7-88-7-2"><g id="sl-4-5-6"><path d="M88.82,186.39c.64,9.82,20.52,28.32,21.16,32.94.64-4.62,20.52-23.12,21.16-32.94.45-6.95-4.49-9.82-9-9.82-4.86.05-8.88,6.78-10.26,8.09-.64-1.73,4.25-16.18,5.77-16.18H102.28c1.53,0,6.41,14.45,5.77,16.18-1.21-1.2-4.76-7.89-10.26-8.09C93.3,176.56,88.37,179.44,88.82,186.39Z" transform="translate(0 0)"/></g></g></svg>