<svg xmlns="http://www.w3.org/2000/svg" viewBox="0 0 166.59 233.13"><defs><style>.cls-1{fill:#fff;}.cls-2{fill:#65a7dd;}.cls-3{fill:#151515;}</style></defs><title>Asset 38</title><g id="Layer_2" data-name="Layer 2"><g id="Objects"><rect class="cls-1" x="0.12" y="0.12" width="166.36" height="232.9" rx="5.94" ry="5.94"/><path class="cls-2" d="M160.53,233.13H6.06A6.06,6.06,0,0,1,0,227.08V6.06A6.06,6.06,0,0,1,6.06,0H160.53a6.06,6.06,0,0,1,6.06,6.06v221A6.06,6.06,0,0,1,160.53,233.13ZM6.06.23A5.83,5.83,0,0,0,.23,6.06v221a5.83,5.83,0,0,0,5.82,5.82H160.53a5.83,5.83,0,0,0,5.82-5.82V6.06A5.83,5.83,0,0,0,160.53.23Z"/><circle class="cls-1" cx="148.63" cy="18.48" r="0.57"/><circle class="cls-1" cx="121.5" cy="18.48" r="0.57"/><circle class="cls-1" cx="96.54" cy="18.48" r="0.57"/><circle class="cls-1" cx="71.49" cy="18.66" r="0.57"/><circle class="cls-1" cx="148.63" cy="39.62" r="0.57"/><circle class="cls-1" cx="148.63" cy="58.91" r="0.57"/><circle class="cls-1" cx="148.63" cy="79.13" r="0.57"/><circle class="cls-1" cx="148.63" cy="91.91" r="0.57"/><circle class="cls-1" cx="148.63" cy="104.74" r="0.57"/><circle class="cls-1" cx="18.33" cy="19.05" r="0.57"/><circle class="cls-1" cx="45.77" cy="18.66" r="0.57"/><circle class="cls-1" cx="18.33" cy="39.17" r="0.57"/><circle class="cls-1" cx="18.33" cy="59.05" r="0.57"/><circle class="cls-1" cx="18.33" cy="78.99" r="0.57"/><circle class="cls-1" cx="18.33" cy="91.91" r="0.57"/><circle class="cls-1" cx="18.33" cy="105.31" r="0.57"/><circle class="cls-1" cx="18.33" cy="118.24" r="0.57"/><circle class="cls-1" cx="18.33" cy="131.17" r="0.57"/><circle class="cls-1" cx="18.33" cy="144.57" r="0.57"/><circle class="cls-1" cx="18.33" cy="158" r="0.57"/><circle class="cls-1" cx="18.33" cy="170" r="0.57"/><circle class="cls-1" cx="18.33" cy="183.39" r="0.57"/><circle class="cls-1" cx="18.33" cy="196.44" r="0.57"/><circle class="cls-1" cx="18.56" cy="215.63" r="0.57"/><circle class="cls-1" cx="39.09" cy="216.19" r="0.57"/><circle class="cls-1" cx="65.54" cy="216.19" r="0.57"/><circle class="cls-1" cx="91.94" cy="216.19" r="0.57"/><circle class="cls-1" cx="117.67" cy="216.19" r="0.57"/><circle class="cls-1" cx="148.63" cy="117.93" r="0.57"/><circle class="cls-1" cx="148.63" cy="130.26" r="0.57"/><circle class="cls-1" cx="148.63" cy="143.55" r="0.57"/><circle class="cls-1" cx="148.63" cy="156.65" r="0.57"/><circle class="cls-1" cx="148.63" cy="169.41" r="0.57"/><circle class="cls-1" cx="148.63" cy="181.98" r="0.57"/><circle class="cls-1" cx="148.63" cy="194.82" r="0.57"/><circle class="cls-1" cx="148.63" cy="214.39" r="0.57"/><path d="M13.78,22.87a2.92,2.92,0,0,1-1.22-1,2.58,2.58,0,0,1-.43-1.45A1.94,1.94,0,0,1,12.6,19a1.47,1.47,0,0,1,1.09-.49,1.08,1.08,0,0,1,.82.32,1.13,1.13,0,0,1,.3.81,1.06,1.06,0,0,1-.19.61,1.18,1.18,0,0,1-.5.42,2,2,0,0,0-.43.27.47.47,0,0,0-.16.37,1.13,1.13,0,0,0,.48,1,2.92,2.92,0,0,0,1.65.35,2.17,2.17,0,0,0,2.08-1.24,6.83,6.83,0,0,0,.64-3.14,5,5,0,0,0-.62-2.74,2.23,2.23,0,0,0-2-1,2.25,2.25,0,0,0-1.81.76,1.49,1.49,0,0,0-.32.51,1.55,1.55,0,0,0-.13.55.55.55,0,0,1-.11.35.34.34,0,0,1-.28.14q-.31,0-.31-.48V9.69l.43-.33a3.25,3.25,0,0,0,1.19.58,5.18,5.18,0,0,0,1.47.23A7.52,7.52,0,0,0,17.57,10a5.54,5.54,0,0,0,1.55-.64l.23.27a5.37,5.37,0,0,1-1.72,1.46,4.47,4.47,0,0,1-2.16.55,5.92,5.92,0,0,1-1.15-.09,3.13,3.13,0,0,1-.83-.3V15l.12,0a3.2,3.2,0,0,1,1.14-.84,3.35,3.35,0,0,1,1.39-.3,4.15,4.15,0,0,1,3.17,1.2,4.45,4.45,0,0,1,1.14,3.18,5.1,5.1,0,0,1-.65,2.56,4.83,4.83,0,0,1-1.74,1.8,4.57,4.57,0,0,1-2.39.65A4.34,4.34,0,0,1,13.78,22.87Z"/><path d="M150.64,205.25a2.92,2.92,0,0,1,1.22,1,2.58,2.58,0,0,1,.43,1.45,1.94,1.94,0,0,1-.47,1.4,1.46,1.46,0,0,1-1.09.48,1.08,1.08,0,0,1-.83-.32,1.13,1.13,0,0,1-.3-.81,1.06,1.06,0,0,1,.19-.61,1.18,1.18,0,0,1,.5-.42,2,2,0,0,0,.43-.27.46.46,0,0,0,.16-.37,1.13,1.13,0,0,0-.48-1,2.92,2.92,0,0,0-1.65-.35,2.17,2.17,0,0,0-2.08,1.24,6.83,6.83,0,0,0-.64,3.14,5,5,0,0,0,.62,2.74,2.23,2.23,0,0,0,2,1,2.26,2.26,0,0,0,1.81-.76,1.48,1.48,0,0,0,.32-.51,1.55,1.55,0,0,0,.13-.55.55.55,0,0,1,.11-.35.34.34,0,0,1,.28-.14c.21,0,.31.16.31.49v6.7l-.43.33a3.25,3.25,0,0,0-1.19-.58,5.18,5.18,0,0,0-1.47-.23,7.57,7.57,0,0,0-1.69.17,5.6,5.6,0,0,0-1.55.64l-.23-.27a5.35,5.35,0,0,1,1.72-1.46,4.47,4.47,0,0,1,2.16-.55,5.92,5.92,0,0,1,1.15.09,3.13,3.13,0,0,1,.83.3v-3.71l-.12,0a3.19,3.19,0,0,1-1.14.84,3.35,3.35,0,0,1-1.39.3,4.15,4.15,0,0,1-3.17-1.2,4.45,4.45,0,0,1-1.14-3.18,5.1,5.1,0,0,1,.65-2.56,4.82,4.82,0,0,1,1.74-1.8,4.57,4.57,0,0,1,2.39-.65A4.34,4.34,0,0,1,150.64,205.25Z"/><path class="cls-3" d="M67.6,34.84c-3.68-4-7.95-7.92-9.73-10-1.34-1.54-2.29-2.71-2.68-3.2v-.25l-.1.13-.1-.13v.25c-.39.49-1.34,1.66-2.68,3.2-1.79,2.05-6.06,6-9.73,10a12.19,12.19,0,0,0-3.28,11.34c.7,3.32,4.17,6.45,9.64,5.77a6.09,6.09,0,0,0,3.88-2.06A12.7,12.7,0,0,1,49.66,57h10.6a13.56,13.56,0,0,1-2.87-7.13,6.09,6.09,0,0,0,3.86,2c5.46.68,8.94-2.44,9.64-5.77A12.19,12.19,0,0,0,67.6,34.84Z"/><path class="cls-3" d="M67.6,194.26c-3.68,4-7.95,7.92-9.73,10-1.34,1.54-2.29,2.71-2.68,3.2v.25l-.1-.13-.1.13v-.25c-.39-.49-1.34-1.66-2.68-3.2-1.79-2.05-6.06-6-9.73-10a12.19,12.19,0,0,1-3.28-11.34c.7-3.32,4.17-6.45,9.64-5.77a6.09,6.09,0,0,1,3.88,2.06,12.7,12.7,0,0,0-3.16-7.15h10.6a13.56,13.56,0,0,0-2.87,7.13,6.09,6.09,0,0,1,3.86-2c5.46-.68,8.94,2.44,9.64,5.77A12.19,12.19,0,0,1,67.6,194.26Z"/><path class="cls-3" d="M122.13,34.84c-3.68-4-7.95-7.92-9.73-10-1.34-1.54-2.29-2.71-2.68-3.2v-.25l-.1.13-.1-.13v.25c-.39.49-1.34,1.66-2.68,3.2-1.79,2.05-6.06,6-9.73,10a12.19,12.19,0,0,0-3.28,11.34c.7,3.32,4.17,6.45,9.64,5.77a6.09,6.09,0,0,0,3.88-2.06A12.7,12.7,0,0,1,104.18,57h10.6a13.56,13.56,0,0,1-2.87-7.13,6.09,6.09,0,0,0,3.86,2c5.46.68,8.94-2.44,9.64-5.77A12.19,12.19,0,0,0,122.13,34.84Z"/><path class="cls-3" d="M122.13,194.26c-3.68,4-7.95,7.92-9.73,10-1.34,1.54-2.29,2.71-2.68,3.2v.25l-.1-.13-.1.13v-.25c-.39-.49-1.34-1.66-2.68-3.2-1.79-2.05-6.06-6-9.73-10a12.19,12.19,0,0,1-3.28-11.34c.7-3.32,4.17-6.45,9.64-5.77a6.09,6.09,0,0,1,3.88,2.06,12.7,12.7,0,0,0-3.16-7.15h10.6a13.56,13.56,0,0,0-2.87,7.13,6.09,6.09,0,0,1,3.86-2c5.46-.68,8.94,2.44,9.64,5.77A12.19,12.19,0,0,1,122.13,194.26Z"/><path class="cls-3" d="M94.41,111.42c-3.68-4-7.95-7.92-9.73-10-1.34-1.54-2.29-2.71-2.68-3.2V98l-.1.13-.1-.13v.25c-.39.49-1.34,1.66-2.68,3.2-1.79,2.05-6.06,6-9.73,10a12.19,12.19,0,0,0-3.28,11.34c.7,3.32,4.17,6.45,9.64,5.77a6.09,6.09,0,0,0,3.88-2.06,12.7,12.7,0,0,1-3.16,7.15h10.6a13.56,13.56,0,0,1-2.87-7.13,6.09,6.09,0,0,0,3.86,2c5.46.68,8.94-2.44,9.64-5.77A12.19,12.19,0,0,0,94.41,111.42Z"/><path class="cls-3" d="M152.08,197c-1.07,1.17-2.32,2.31-2.84,2.91s-.67.79-.78.93v.07l0,0,0,0v-.07c-.11-.14-.39-.48-.78-.93s-1.77-1.74-2.84-2.91a3.56,3.56,0,0,1-1-3.31,2.38,2.38,0,0,1,2.81-1.68,1.78,1.78,0,0,1,1.13.6,3.7,3.7,0,0,0-.92-2.09h3.09a4,4,0,0,0-.84,2.08,1.78,1.78,0,0,1,1.13-.59,2.38,2.38,0,0,1,2.81,1.68A3.56,3.56,0,0,1,152.08,197Z"/><path class="cls-3" d="M21.77,30.87C20.7,29.7,19.45,28.56,18.93,28s-.67-.79-.78-.93V27l0,0,0,0V27c-.11.14-.39.48-.78.93s-1.77,1.74-2.84,2.91a3.56,3.56,0,0,0-1,3.31,2.38,2.38,0,0,0,2.81,1.68,1.78,1.78,0,0,0,1.13-.6,3.7,3.7,0,0,1-.92,2.09h3.09a4,4,0,0,1-.84-2.08,1.78,1.78,0,0,0,1.13.59,2.38,2.38,0,0,0,2.81-1.68A3.56,3.56,0,0,0,21.77,30.87Z"/></g></g></svg>