<svg xmlns="http://www.w3.org/2000/svg" viewBox="0 0 166.59 233.13"><defs><style>.cls-1{fill:#fff;}.cls-2{fill:#65a7dd;}.cls-3{fill:#151515;}</style></defs><title>Asset 50</title><g id="Layer_2" data-name="Layer 2"><g id="Objects"><rect class="cls-1" x="0.12" y="0.12" width="166.36" height="232.9" rx="5.94" ry="5.94"/><path class="cls-2" d="M160.53,233.13H6.06A6.06,6.06,0,0,1,0,227.08V6.06A6.06,6.06,0,0,1,6.06,0H160.53a6.06,6.06,0,0,1,6.06,6.06v221A6.06,6.06,0,0,1,160.53,233.13ZM6.06.23A5.83,5.83,0,0,0,.23,6.06v221a5.83,5.83,0,0,0,5.82,5.82H160.53a5.83,5.83,0,0,0,5.82-5.82V6.06A5.83,5.83,0,0,0,160.53.23Z"/><circle class="cls-1" cx="148.63" cy="18.48" r="0.57"/><circle class="cls-1" cx="121.5" cy="18.48" r="0.57"/><circle class="cls-1" cx="96.54" cy="18.48" r="0.57"/><circle class="cls-1" cx="71.49" cy="18.66" r="0.57"/><circle class="cls-1" cx="148.63" cy="39.62" r="0.57"/><circle class="cls-1" cx="148.63" cy="58.91" r="0.57"/><circle class="cls-1" cx="148.63" cy="79.13" r="0.57"/><circle class="cls-1" cx="148.63" cy="91.91" r="0.57"/><circle class="cls-1" cx="148.63" cy="104.74" r="0.57"/><circle class="cls-1" cx="18.33" cy="19.05" r="0.57"/><circle class="cls-1" cx="45.77" cy="18.66" r="0.57"/><circle class="cls-1" cx="18.33" cy="39.17" r="0.57"/><circle class="cls-1" cx="18.33" cy="59.05" r="0.57"/><circle class="cls-1" cx="18.33" cy="78.99" r="0.57"/><circle class="cls-1" cx="18.33" cy="91.91" r="0.57"/><circle class="cls-1" cx="18.33" cy="105.31" r="0.57"/><circle class="cls-1" cx="18.33" cy="118.24" r="0.57"/><circle class="cls-1" cx="18.33" cy="131.17" r="0.57"/><circle class="cls-1" cx="18.33" cy="144.57" r="0.57"/><circle class="cls-1" cx="18.33" cy="158" r="0.57"/><circle class="cls-1" cx="18.33" cy="170" r="0.57"/><circle class="cls-1" cx="18.33" cy="183.39" r="0.57"/><circle class="cls-1" cx="18.33" cy="196.44" r="0.57"/><circle class="cls-1" cx="18.56" cy="215.63" r="0.57"/><circle class="cls-1" cx="39.09" cy="216.19" r="0.57"/><circle class="cls-1" cx="65.54" cy="216.19" r="0.57"/><circle class="cls-1" cx="91.94" cy="216.19" r="0.57"/><circle class="cls-1" cx="117.67" cy="216.19" r="0.57"/><circle class="cls-1" cx="148.63" cy="117.93" r="0.57"/><circle class="cls-1" cx="148.63" cy="130.26" r="0.57"/><circle class="cls-1" cx="148.63" cy="143.55" r="0.57"/><circle class="cls-1" cx="148.63" cy="156.65" r="0.57"/><circle class="cls-1" cx="148.63" cy="169.41" r="0.57"/><circle class="cls-1" cx="148.63" cy="181.98" r="0.57"/><circle class="cls-1" cx="148.63" cy="194.82" r="0.57"/><circle class="cls-1" cx="148.63" cy="214.39" r="0.57"/><path class="cls-3" d="M70,45c-3.58-3.91-9.07-1.59-9.07-1.59,1.54-1.64,2.56-2.95,2.37-5.64,0-.09,0-.18,0-.27A7.75,7.75,0,1,0,48,39.11c.18,1.86,1.1,3,2.36,4.34,0,0-5.5-2.32-9.07,1.59a8.09,8.09,0,0,0-.66,10.07c1.13,1.52,2.81,4.08,6.79,3.79,3.52-.26,4-.86,6.46-2.79A16,16,0,0,1,50.34,65h10.6c-1.95-2-3.67-6.75-3.45-8.89,2.37,1.89,2.91,2.48,6.39,2.74,4,.3,5.66-2.26,6.79-3.79A8.09,8.09,0,0,0,70,45Z"/><path class="cls-3" d="M70,115.07c-3.58-3.91-9.07-1.59-9.07-1.59,1.54-1.64,2.56-2.95,2.37-5.64,0-.09,0-.18,0-.27A7.75,7.75,0,1,0,48,109.15c.18,1.86,1.1,3,2.36,4.34,0,0-5.5-2.32-9.07,1.59a8.09,8.09,0,0,0-.66,10.07c1.13,1.52,2.81,4.08,6.79,3.79,3.52-.26,4-.86,6.46-2.79a16,16,0,0,1-3.51,8.94h10.6c-1.95-2-3.67-6.75-3.45-8.89,2.37,1.89,2.91,2.48,6.39,2.74,4,.3,5.66-2.26,6.79-3.79A8.09,8.09,0,0,0,70,115.07Z"/><path class="cls-3" d="M70,189.19c-3.58,3.91-9.07,1.59-9.07,1.59,1.54,1.64,2.56,2.95,2.37,5.64,0,.09,0,.18,0,.27A7.75,7.75,0,1,1,48,195.12c.18-1.86,1.1-3,2.36-4.34,0,0-5.5,2.32-9.07-1.59a8.09,8.09,0,0,1-.66-10.07c1.13-1.52,2.81-4.08,6.79-3.79,3.52.26,4,.86,6.46,2.79a16,16,0,0,0-3.51-8.94h10.6c-1.95,2-3.67,6.75-3.45,8.89,2.37-1.89,2.91-2.48,6.39-2.74,4-.3,5.66,2.26,6.79,3.79A8.09,8.09,0,0,1,70,189.19Z"/><path class="cls-3" d="M129.78,45c-3.58-3.91-9.07-1.59-9.07-1.59,1.54-1.64,2.56-2.95,2.37-5.64,0-.09,0-.18,0-.27a7.75,7.75,0,1,0-15.34,1.57c.18,1.86,1.1,3,2.36,4.34,0,0-5.5-2.32-9.07,1.59a8.09,8.09,0,0,0-.66,10.07c1.13,1.52,2.81,4.08,6.79,3.79,3.52-.26,4-.86,6.46-2.79A16,16,0,0,1,110.11,65h10.6c-1.95-2-3.67-6.75-3.45-8.89,2.37,1.89,2.91,2.48,6.39,2.74,4,.3,5.66-2.26,6.79-3.79A8.09,8.09,0,0,0,129.78,45Z"/><path class="cls-3" d="M129.78,115.07c-3.58-3.91-9.07-1.59-9.07-1.59,1.54-1.64,2.56-2.95,2.37-5.64,0-.09,0-.18,0-.27a7.75,7.75,0,1,0-15.34,1.57c.18,1.86,1.1,3,2.36,4.34,0,0-5.5-2.32-9.07,1.59a8.09,8.09,0,0,0-.66,10.07c1.13,1.52,2.81,4.08,6.79,3.79,3.52-.26,4-.86,6.46-2.79a16,16,0,0,1-3.51,8.94h10.6c-1.95-2-3.67-6.75-3.45-8.89,2.37,1.89,2.91,2.48,6.39,2.74,4,.3,5.66-2.26,6.79-3.79A8.09,8.09,0,0,0,129.78,115.07Z"/><path class="cls-3" d="M129.78,189.19c-3.58,3.91-9.07,1.59-9.07,1.59,1.54,1.64,2.56,2.95,2.37,5.64,0,.09,0,.18,0,.27a7.75,7.75,0,1,1-15.34-1.57c.18-1.86,1.1-3,2.36-4.34,0,0-5.5,2.32-9.07-1.59a8.09,8.09,0,0,1-.66-10.07c1.13-1.52,2.81-4.08,6.79-3.79,3.52.26,4,.86,6.46,2.79a16,16,0,0,0-3.51-8.94h10.6c-1.95,2-3.67,6.75-3.45,8.89,2.37-1.89,2.91-2.48,6.39-2.74,4-.3,5.66,2.26,6.79,3.79A8.09,8.09,0,0,1,129.78,189.19Z"/><path class="cls-3" d="M24.82,34.09a2.45,2.45,0,0,0-2.62-.46A1.91,1.91,0,0,0,22.88,32s0-.05,0-.08a2.24,2.24,0,1,0-4.43.45,2,2,0,0,0,.68,1.25,2.45,2.45,0,0,0-2.62.46A2.34,2.34,0,0,0,16.32,37a2.08,2.08,0,0,0,2,1.09,2.52,2.52,0,0,0,1.87-.81,4.61,4.61,0,0,1-1,2.58H22.2a4.35,4.35,0,0,1-1-2.57A2.5,2.5,0,0,0,23,38.1,2.08,2.08,0,0,0,25,37,2.34,2.34,0,0,0,24.82,34.09Z"/><path d="M17.66,25.37a4.93,4.93,0,0,1-1.48-2.22,10,10,0,0,1-.52-3.41,12.12,12.12,0,0,1,.41-3.12,7.13,7.13,0,0,1,1.18-2.54,4.13,4.13,0,0,1,3.32-1.83,2.89,2.89,0,0,1,2.23.93,2.15,2.15,0,0,1,.42.78,2.72,2.72,0,0,1,.13.76,1.41,1.41,0,0,1-.49,1.11,1.16,1.16,0,0,1-.8.29.82.82,0,0,1-.7-.35.76.76,0,0,1-.13-.25,1.3,1.3,0,0,1,0-.31.9.9,0,0,1,.25-.58,2.2,2.2,0,0,1,.37-.33.72.72,0,0,0,.24-.24.63.63,0,0,0,.07-.3.74.74,0,0,0-.4-.61,2.24,2.24,0,0,0-1.21-.26,2.42,2.42,0,0,0-1.33.41,3,3,0,0,0-1.06,1.36,7,7,0,0,0-.5,1.81,11.83,11.83,0,0,0-.18,1.82v.87l.14.06A2.93,2.93,0,0,1,18.67,18a2.58,2.58,0,0,1,1.41-.48,3.66,3.66,0,0,1,2.19.64,3.5,3.5,0,0,1,1.16,1.47,4.81,4.81,0,0,1,.41,2,5.2,5.2,0,0,1-.47,2.11A4.45,4.45,0,0,1,22,25.45a3.37,3.37,0,0,1-2.13.7A3.44,3.44,0,0,1,17.66,25.37Zm3.94-1a5.91,5.91,0,0,0,.53-2.56,6.27,6.27,0,0,0-.47-2.58,1.6,1.6,0,0,0-1.55-1,1.88,1.88,0,0,0-1.22.45A3,3,0,0,0,18,19.95a5.2,5.2,0,0,0-.32,1.89,6.06,6.06,0,0,0,.5,2.65,1.72,1.72,0,0,0,1.67,1A1.79,1.79,0,0,0,21.6,24.4Z"/><path class="cls-3" d="M146.87,199.82a2.45,2.45,0,0,0,2.62.46,1.91,1.91,0,0,0-.68,1.63s0,.05,0,.08a2.24,2.24,0,1,0,4.43-.45,2,2,0,0,0-.68-1.25,2.45,2.45,0,0,0,2.62-.46,2.34,2.34,0,0,0,.19-2.91,2.08,2.08,0,0,0-2-1.09,2.53,2.53,0,0,0-1.87.81,4.61,4.61,0,0,1,1-2.58h-3.06a4.35,4.35,0,0,1,1,2.57,2.5,2.5,0,0,0-1.85-.79,2.08,2.08,0,0,0-2,1.09A2.34,2.34,0,0,0,146.87,199.82Z"/><path d="M154,208.55a4.93,4.93,0,0,1,1.48,2.22,10,10,0,0,1,.52,3.41,12.12,12.12,0,0,1-.41,3.12,7.12,7.12,0,0,1-1.18,2.54,4.13,4.13,0,0,1-3.32,1.82,2.89,2.89,0,0,1-2.23-.93,2.16,2.16,0,0,1-.42-.78,2.72,2.72,0,0,1-.13-.76,1.4,1.4,0,0,1,.49-1.11,1.16,1.16,0,0,1,.8-.29.82.82,0,0,1,.7.35.76.76,0,0,1,.13.25,1.29,1.29,0,0,1,0,.31.9.9,0,0,1-.25.58,2.15,2.15,0,0,1-.37.33.71.71,0,0,0-.24.24.63.63,0,0,0-.07.3.74.74,0,0,0,.4.61,2.23,2.23,0,0,0,1.21.26,2.4,2.4,0,0,0,1.33-.41,3,3,0,0,0,1.06-1.36,7,7,0,0,0,.5-1.81,11.89,11.89,0,0,0,.18-1.83v-.87l-.14-.06a3,3,0,0,1-1.08,1.21,2.58,2.58,0,0,1-1.41.47,3.66,3.66,0,0,1-2.19-.64,3.51,3.51,0,0,1-1.16-1.46,4.82,4.82,0,0,1-.41-2,5.19,5.19,0,0,1,.47-2.11,4.45,4.45,0,0,1,1.37-1.76,3.37,3.37,0,0,1,2.13-.7A3.43,3.43,0,0,1,154,208.55Zm-3.94,1a5.91,5.91,0,0,0-.53,2.56,6.27,6.27,0,0,0,.47,2.58,1.6,1.6,0,0,0,1.55,1,1.88,1.88,0,0,0,1.22-.45,3,3,0,0,0,.86-1.27,5.19,5.19,0,0,0,.32-1.89,6.06,6.06,0,0,0-.5-2.65,1.72,1.72,0,0,0-1.67-1A1.79,1.79,0,0,0,150.09,209.52Z"/></g></g></svg>