<svg id="svg2" xmlns="http://www.w3.org/2000/svg" viewBox="0 0 167.09 242.67"><title>6-Clubs</title><g id="Layer_1"><g id="path5"><path d="M166.84,235.55a6.89,6.89,0,0,1-6.87,6.87H7.11a6.88,6.88,0,0,1-6.86-6.87V7.12A6.89,6.89,0,0,1,7.11.25H160a6.89,6.89,0,0,1,6.87,6.87Z" transform="translate(0 0)" style="fill:#fff"/><path d="M160,242.67H7.11A7.12,7.12,0,0,1,0,235.55V7.12A7.12,7.12,0,0,1,7.11,0H160a7.13,7.13,0,0,1,7.12,7.12V235.55A7.13,7.13,0,0,1,160,242.67ZM7.11.5A6.62,6.62,0,0,0,.5,7.12V235.55a6.62,6.62,0,0,0,6.61,6.62H160a6.63,6.63,0,0,0,6.62-6.62V7.12A6.63,6.63,0,0,0,160,.5Z" transform="translate(0 0)"/></g></g><g id="text3788" style="isolation:isolate"><g style="isolation:isolate"><path d="M24.23,10.25l-2.8.22a5.3,5.3,0,0,0-1.06-2.41,3.72,3.72,0,0,0-2.81-1.2,3.86,3.86,0,0,0-2.36.75,6.41,6.41,0,0,0-2.09,2.83,14.77,14.77,0,0,0-.8,5.3,6.51,6.51,0,0,1,2.48-2.3,6.68,6.68,0,0,1,3.08-.75,6.38,6.38,0,0,1,4.79,2.07,7.43,7.43,0,0,1,2,5.35,8.81,8.81,0,0,1-.93,4A6.78,6.78,0,0,1,21.15,27a7,7,0,0,1-3.69,1,7.2,7.2,0,0,1-5.73-2.59q-2.22-2.59-2.22-8.52,0-6.64,2.45-9.66a7.05,7.05,0,0,1,5.77-2.62,6.47,6.47,0,0,1,4.43,1.52A6.44,6.44,0,0,1,24.23,10.25ZM12.75,20.13a6.52,6.52,0,0,0,.62,2.78,4.59,4.59,0,0,0,1.73,2,4.31,4.31,0,0,0,2.33.7,4,4,0,0,0,3.06-1.44,5.66,5.66,0,0,0,1.28-3.91,5.3,5.3,0,0,0-1.27-3.74,4.16,4.16,0,0,0-3.19-1.37,4.34,4.34,0,0,0-3.23,1.37A4.93,4.93,0,0,0,12.75,20.13Z" transform="translate(0 0)"/></g></g><g id="layer1-1-4"><g id="cl-9"><path d="M20.69,43.74s3.53-2.82,3.53-6.74a6.47,6.47,0,0,0-6.74-6.09A6.47,6.47,0,0,0,10.75,37c0,3.91,3.53,6.74,3.53,6.74-3.92-3.05-10.91-1-10.91,5.13a6.48,6.48,0,0,0,6.42,6.42c4.7,0,6.74-5.13,6.74-5.13s.6,5.85-2.89,9h7.7c-3.48-3.13-2.89-9-2.89-9s2,5.13,6.74,5.13a6.48,6.48,0,0,0,6.42-6.42C31.6,42.77,24.61,40.69,20.69,43.74Z" transform="translate(0 0)"/></g></g><g id="text3788-8" style="isolation:isolate"><g style="isolation:isolate"><path d="M142.94,231.76l2.8-.22A5.3,5.3,0,0,0,146.8,234a3.72,3.72,0,0,0,2.81,1.2,3.86,3.86,0,0,0,2.36-.75,6.41,6.41,0,0,0,2.09-2.83,14.77,14.77,0,0,0,.8-5.3,6.51,6.51,0,0,1-2.48,2.3,6.68,6.68,0,0,1-3.08.75,6.38,6.38,0,0,1-4.79-2.07,7.43,7.43,0,0,1-2-5.35,8.8,8.8,0,0,1,.93-4,6.78,6.78,0,0,1,2.55-2.84,7,7,0,0,1,3.69-1,7.2,7.2,0,0,1,5.73,2.59q2.22,2.59,2.22,8.52,0,6.64-2.45,9.66a7.05,7.05,0,0,1-5.77,2.63,6.14,6.14,0,0,1-6.5-5.7Zm11.48-9.87a6.53,6.53,0,0,0-.62-2.78,4.59,4.59,0,0,0-1.73-2,4.31,4.31,0,0,0-2.33-.7,4,4,0,0,0-3.06,1.44,5.65,5.65,0,0,0-1.28,3.91,5.3,5.3,0,0,0,1.27,3.74,4.16,4.16,0,0,0,3.19,1.37,4.34,4.34,0,0,0,3.23-1.37A4.93,4.93,0,0,0,154.43,221.89Z" transform="translate(0 0)"/></g></g><g id="layer1-1-4-1"><g id="cl-9-7"><path d="M146.48,198.74s-3.53,2.82-3.53,6.74a6.77,6.77,0,0,0,13.47,0c0-3.91-3.53-6.74-3.53-6.74,3.92,3.05,10.91,1,10.91-5.13a6.48,6.48,0,0,0-6.42-6.42c-4.7,0-6.74,5.13-6.74,5.13s-.6-5.85,2.89-9h-7.7c3.48,3.13,2.89,9,2.89,9s-2-5.13-6.74-5.13a6.48,6.48,0,0,0-6.42,6.42C135.58,199.71,142.56,201.79,146.48,198.74Z" transform="translate(0 0)"/></g></g><g id="layer1-1-4-8"><g id="cl-9-8"><path d="M62.37,47.5s6-4.77,6-11.39A10.94,10.94,0,0,0,56.95,25.8,11,11,0,0,0,45.56,36.11c0,6.62,6,11.39,6,11.39-6.63-5.16-18.44-1.64-18.44,8.68A11,11,0,0,0,43.93,67c8,0,11.39-8.68,11.39-8.68s1,9.89-4.88,15.19h13c-5.89-5.29-4.88-15.19-4.88-15.19S62,67,70,67A11,11,0,0,0,80.82,56.18C80.82,45.86,69,42.34,62.37,47.5Z" transform="translate(0 0)"/></g></g><g id="layer1-1-4-8-0"><g id="cl-9-8-6"><path d="M51.57,196.24s-6,4.77-6,11.39A10.94,10.94,0,0,0,57,217.94a11,11,0,0,0,11.39-10.31c0-6.62-6-11.39-6-11.39,6.63,5.16,18.44,1.64,18.44-8.68A11,11,0,0,0,70,176.71c-8,0-11.39,8.68-11.39,8.68s-1-9.89,4.88-15.19h-13c5.89,5.29,4.88,15.19,4.88,15.19s-3.44-8.68-11.39-8.68a11,11,0,0,0-10.85,10.85C33.12,197.88,44.94,201.41,51.57,196.24Z" transform="translate(0 0)"/></g></g><g id="layer1-1-4-8-2"><g id="cl-9-8-0"><path d="M62.37,117.2s6-4.77,6-11.39A10.94,10.94,0,0,0,56.95,95.5a11,11,0,0,0-11.39,10.31c0,6.62,6,11.39,6,11.39-6.63-5.16-18.44-1.64-18.44,8.68a11,11,0,0,0,10.85,10.85c8,0,11.39-8.68,11.39-8.68s1,9.89-4.88,15.19h13c-5.89-5.29-4.88-15.19-4.88-15.19S62,136.73,70,136.73a11,11,0,0,0,10.85-10.85C80.82,115.56,69,112,62.37,117.2Z" transform="translate(0 0)"/></g></g><g id="layer1-1-4-8-8"><g id="cl-9-8-9"><path d="M115.16,47.33s6-4.77,6-11.39a11.45,11.45,0,0,0-22.78,0c0,6.62,6,11.39,6,11.39C97.68,42.16,85.86,45.69,85.86,56A11,11,0,0,0,96.71,66.86c8,0,11.39-8.68,11.39-8.68s1,9.89-4.88,15.19h13c-5.89-5.29-4.88-15.19-4.88-15.19s3.44,8.68,11.39,8.68A11,11,0,0,0,133.6,56C133.6,45.69,121.79,42.16,115.16,47.33Z" transform="translate(0 0)"/></g></g><g id="layer1-1-4-8-0-2"><g id="cl-9-8-6-6"><path d="M104.35,196.07s-6,4.77-6,11.39a11.45,11.45,0,0,0,22.78,0c0-6.62-6-11.39-6-11.39,6.63,5.16,18.44,1.64,18.44-8.68a11,11,0,0,0-10.85-10.85c-8,0-11.39,8.68-11.39,8.68s-1-9.89,4.88-15.19h-13c5.89,5.29,4.88,15.19,4.88,15.19s-3.44-8.68-11.39-8.68a11,11,0,0,0-10.85,10.85C85.91,197.71,97.73,201.23,104.35,196.07Z" transform="translate(0 0)"/></g></g><g id="layer1-1-4-8-2-6"><g id="cl-9-8-0-4"><path d="M115.16,117s6-4.77,6-11.39a11.45,11.45,0,0,0-22.78,0c0,6.62,6,11.39,6,11.39-6.63-5.16-18.44-1.64-18.44,8.68a11,11,0,0,0,10.85,10.85c8,0,11.39-8.68,11.39-8.68s1,9.89-4.88,15.19h13c-5.89-5.29-4.88-15.19-4.88-15.19s3.44,8.68,11.39,8.68a11,11,0,0,0,10.85-10.85C133.6,115.39,121.79,111.86,115.16,117Z" transform="translate(0 0)"/></g></g></svg>