<svg xmlns="http://www.w3.org/2000/svg" viewBox="0 0 166.48 233.07"><defs><style>.cls-1{fill:#fff;}.cls-2{fill:#65a7dd;}.cls-3{fill:#af0f07;}.cls-4{fill:#a43e32;}</style></defs><title>Asset 14</title><g id="Layer_2" data-name="Layer 2"><g id="Objects"><rect class="cls-1" x="0.12" y="0.11" width="166.25" height="232.84" rx="5.94" ry="5.94"/><path class="cls-2" d="M160.43,233.07H6.05A6.06,6.06,0,0,1,0,227V6.05A6.06,6.06,0,0,1,6.05,0H160.43a6.06,6.06,0,0,1,6.05,6.05V227A6.06,6.06,0,0,1,160.43,233.07ZM6.05.23A5.83,5.83,0,0,0,.23,6.05V227a5.83,5.83,0,0,0,5.82,5.82H160.43a5.83,5.83,0,0,0,5.82-5.82V6.05A5.83,5.83,0,0,0,160.43.23Z"/><circle class="cls-1" cx="148.53" cy="18.48" r="0.57"/><circle class="cls-1" cx="121.42" cy="18.48" r="0.57"/><circle class="cls-1" cx="96.48" cy="18.48" r="0.57"/><circle class="cls-1" cx="71.45" cy="18.66" r="0.57"/><circle class="cls-1" cx="148.53" cy="39.61" r="0.57"/><circle class="cls-1" cx="148.53" cy="58.9" r="0.57"/><circle class="cls-1" cx="148.53" cy="79.11" r="0.57"/><circle class="cls-1" cx="148.53" cy="91.89" r="0.57"/><circle class="cls-1" cx="148.53" cy="104.72" r="0.57"/><circle class="cls-1" cx="18.32" cy="19.04" r="0.57"/><circle class="cls-1" cx="45.74" cy="18.66" r="0.57"/><circle class="cls-1" cx="18.32" cy="39.16" r="0.57"/><circle class="cls-1" cx="18.32" cy="59.03" r="0.57"/><circle class="cls-1" cx="18.32" cy="78.97" r="0.57"/><circle class="cls-1" cx="18.32" cy="91.89" r="0.57"/><circle class="cls-1" cx="18.32" cy="105.29" r="0.57"/><circle class="cls-1" cx="18.32" cy="118.21" r="0.57"/><circle class="cls-1" cx="18.32" cy="131.13" r="0.57"/><circle class="cls-1" cx="18.32" cy="144.53" r="0.57"/><circle class="cls-1" cx="18.32" cy="157.95" r="0.57"/><circle class="cls-1" cx="18.32" cy="169.95" r="0.57"/><circle class="cls-1" cx="18.32" cy="183.35" r="0.57"/><circle class="cls-1" cx="18.32" cy="196.39" r="0.57"/><circle class="cls-1" cx="18.55" cy="215.57" r="0.57"/><circle class="cls-1" cx="39.07" cy="216.14" r="0.57"/><circle class="cls-1" cx="65.5" cy="216.14" r="0.57"/><circle class="cls-1" cx="91.89" cy="216.14" r="0.57"/><circle class="cls-1" cx="117.59" cy="216.14" r="0.57"/><circle class="cls-1" cx="148.53" cy="117.9" r="0.57"/><circle class="cls-1" cx="148.53" cy="130.22" r="0.57"/><circle class="cls-1" cx="148.53" cy="143.51" r="0.57"/><circle class="cls-1" cx="148.53" cy="156.61" r="0.57"/><circle class="cls-1" cx="148.53" cy="169.36" r="0.57"/><circle class="cls-1" cx="148.53" cy="181.94" r="0.57"/><circle class="cls-1" cx="148.53" cy="194.77" r="0.57"/><circle class="cls-1" cx="148.53" cy="214.34" r="0.57"/><polygon class="cls-3" points="15.73 28.37 11 33.58 15.21 39.31 20.05 34.05 15.73 28.37"/><polygon class="cls-3" points="148.16 193.14 143.44 198.36 147.65 204.08 152.49 198.83 148.16 193.14"/><path class="cls-4" d="M13.71,24.86a4.93,4.93,0,0,1-1.48-2.22,10,10,0,0,1-.52-3.4,12.12,12.12,0,0,1,.41-3.12,7.12,7.12,0,0,1,1.18-2.54,4.13,4.13,0,0,1,3.32-1.82,2.89,2.89,0,0,1,2.23.93,2.16,2.16,0,0,1,.42.78,2.73,2.73,0,0,1,.13.76,1.41,1.41,0,0,1-.48,1.11,1.16,1.16,0,0,1-.8.29.81.81,0,0,1-.7-.35.75.75,0,0,1-.13-.25,1.33,1.33,0,0,1,0-.31.89.89,0,0,1,.25-.58,2.18,2.18,0,0,1,.37-.33.71.71,0,0,0,.24-.24.63.63,0,0,0,.07-.3.74.74,0,0,0-.4-.61,2.23,2.23,0,0,0-1.21-.26,2.4,2.4,0,0,0-1.33.41,3,3,0,0,0-1.06,1.36,7.05,7.05,0,0,0-.5,1.8,11.89,11.89,0,0,0-.17,1.82v.87l.14.06a2.94,2.94,0,0,1,1.08-1.21A2.58,2.58,0,0,1,16.13,17a3.66,3.66,0,0,1,2.19.64,3.5,3.5,0,0,1,1.16,1.47,4.82,4.82,0,0,1,.41,2,5.18,5.18,0,0,1-.47,2.1,4.45,4.45,0,0,1-1.37,1.76,3.37,3.37,0,0,1-2.12.7A3.43,3.43,0,0,1,13.71,24.86Zm3.94-1a5.91,5.91,0,0,0,.53-2.56,6.27,6.27,0,0,0-.46-2.58,1.59,1.59,0,0,0-1.55-1,1.88,1.88,0,0,0-1.22.45,3,3,0,0,0-.86,1.27,5.2,5.2,0,0,0-.32,1.89,6.05,6.05,0,0,0,.5,2.65,1.72,1.72,0,0,0,1.67,1A1.78,1.78,0,0,0,17.65,23.89Z"/><path class="cls-4" d="M150,208a4.93,4.93,0,0,1,1.48,2.22,10,10,0,0,1,.52,3.4,12.12,12.12,0,0,1-.41,3.12,7.12,7.12,0,0,1-1.18,2.54,4.13,4.13,0,0,1-3.32,1.82,2.89,2.89,0,0,1-2.23-.93,2.16,2.16,0,0,1-.42-.78,2.73,2.73,0,0,1-.13-.76,1.41,1.41,0,0,1,.48-1.11,1.16,1.16,0,0,1,.8-.29.81.81,0,0,1,.7.35.75.75,0,0,1,.13.25,1.33,1.33,0,0,1,0,.31.89.89,0,0,1-.25.58,2.17,2.17,0,0,1-.37.33.72.72,0,0,0-.24.24.63.63,0,0,0-.07.3.74.74,0,0,0,.4.61,2.23,2.23,0,0,0,1.21.26,2.4,2.4,0,0,0,1.33-.41,3,3,0,0,0,1.06-1.36,7.06,7.06,0,0,0,.5-1.8,11.89,11.89,0,0,0,.17-1.82v-.87l-.14-.06a2.94,2.94,0,0,1-1.08,1.21,2.58,2.58,0,0,1-1.41.47,3.66,3.66,0,0,1-2.19-.64,3.5,3.5,0,0,1-1.16-1.47,4.82,4.82,0,0,1-.41-2,5.18,5.18,0,0,1,.47-2.1,4.45,4.45,0,0,1,1.37-1.76,3.37,3.37,0,0,1,2.12-.7A3.43,3.43,0,0,1,150,208Zm-3.94,1a5.91,5.91,0,0,0-.53,2.56,6.27,6.27,0,0,0,.47,2.58,1.59,1.59,0,0,0,1.55,1,1.88,1.88,0,0,0,1.22-.45,3,3,0,0,0,.86-1.27,5.2,5.2,0,0,0,.32-1.89,6.06,6.06,0,0,0-.5-2.65,1.72,1.72,0,0,0-1.67-1A1.78,1.78,0,0,0,146.06,208.95Z"/><polygon class="cls-3" points="49.79 23.55 36.5 39.7 49.79 56.11 63.43 39.83 49.79 23.55"/><polygon class="cls-3" points="49.79 173.12 36.5 189.27 49.79 205.68 63.43 189.4 49.79 173.12"/><polygon class="cls-3" points="49.79 98.34 36.5 114.49 49.79 130.89 63.43 114.61 49.79 98.34"/><polygon class="cls-3" points="114.44 23.55 101.15 39.7 114.44 56.11 128.08 39.83 114.44 23.55"/><polygon class="cls-3" points="114.44 173.12 101.15 189.27 114.44 205.68 128.08 189.4 114.44 173.12"/><polygon class="cls-3" points="114.44 98.34 101.15 114.49 114.44 130.89 128.08 114.61 114.44 98.34"/></g></g></svg>