<svg id="svg2" xmlns="http://www.w3.org/2000/svg" viewBox="0 0 167.09 242.67"><title>6-Diamonds</title><g id="Layer_1"><g id="path5"><path d="M166.84,235.55a6.89,6.89,0,0,1-6.87,6.87H7.11a6.88,6.88,0,0,1-6.86-6.87V7.12A6.89,6.89,0,0,1,7.11.25H160a6.89,6.89,0,0,1,6.87,6.87Z" transform="translate(0 0)" style="fill:#fff"/><path d="M160,242.67H7.11A7.12,7.12,0,0,1,0,235.55V7.12A7.12,7.12,0,0,1,7.11,0H160a7.13,7.13,0,0,1,7.12,7.12V235.55A7.13,7.13,0,0,1,160,242.67ZM7.11.5A6.62,6.62,0,0,0,.5,7.12V235.55a6.62,6.62,0,0,0,6.61,6.62H160a6.63,6.63,0,0,0,6.62-6.62V7.12A6.63,6.63,0,0,0,160,.5Z" transform="translate(0 0)"/></g></g><g id="text3788" style="isolation:isolate"><g style="isolation:isolate"><path d="M23.77,9.12,21,9.34a5.3,5.3,0,0,0-1.06-2.41,3.72,3.72,0,0,0-2.81-1.2,3.86,3.86,0,0,0-2.36.75A6.41,6.41,0,0,0,12.64,9.3a14.77,14.77,0,0,0-.8,5.3,6.51,6.51,0,0,1,2.48-2.3,6.68,6.68,0,0,1,3.08-.75,6.38,6.38,0,0,1,4.79,2.07,7.43,7.43,0,0,1,2,5.35,8.81,8.81,0,0,1-.93,4,6.78,6.78,0,0,1-2.55,2.84,7,7,0,0,1-3.69,1,7.2,7.2,0,0,1-5.73-2.59Q9,21.63,9,15.69,9,9.05,11.5,6a7.05,7.05,0,0,1,5.77-2.62A6.47,6.47,0,0,1,21.7,4.93,6.44,6.44,0,0,1,23.77,9.12ZM12.28,19a6.52,6.52,0,0,0,.62,2.78,4.59,4.59,0,0,0,1.73,2,4.31,4.31,0,0,0,2.33.7A4,4,0,0,0,20,23.05a5.66,5.66,0,0,0,1.28-3.91A5.3,5.3,0,0,0,20,15.41,4.16,4.16,0,0,0,16.85,14a4.34,4.34,0,0,0-3.23,1.37A4.93,4.93,0,0,0,12.28,19Z" transform="translate(0 0)" style="fill:#df0000"/></g></g><g id="text3788-4" style="isolation:isolate"><g style="isolation:isolate"><path d="M143.57,234l2.8-.22a5.3,5.3,0,0,0,1.06,2.41,3.72,3.72,0,0,0,2.81,1.2,3.86,3.86,0,0,0,2.36-.75,6.41,6.41,0,0,0,2.09-2.83,14.77,14.77,0,0,0,.8-5.3,6.51,6.51,0,0,1-2.48,2.3,6.68,6.68,0,0,1-3.08.75,6.38,6.38,0,0,1-4.79-2.07,7.43,7.43,0,0,1-2-5.35,8.81,8.81,0,0,1,.93-4,6.78,6.78,0,0,1,2.55-2.84,7,7,0,0,1,3.69-1,7.2,7.2,0,0,1,5.73,2.59q2.22,2.59,2.22,8.52,0,6.64-2.45,9.66a7.05,7.05,0,0,1-5.77,2.63,6.14,6.14,0,0,1-6.5-5.7Zm11.48-9.87a6.51,6.51,0,0,0-.62-2.78,4.59,4.59,0,0,0-1.73-2,4.31,4.31,0,0,0-2.33-.7,4,4,0,0,0-3.06,1.44A5.66,5.66,0,0,0,146,224a5.3,5.3,0,0,0,1.27,3.74,4.16,4.16,0,0,0,3.19,1.37,4.34,4.34,0,0,0,3.23-1.37A4.93,4.93,0,0,0,155.05,224.14Z" transform="translate(0 0)" style="fill:#df0000"/></g></g><g id="layer1-2-6"><g id="dl-6"><path d="M21.76,37.26A41.08,41.08,0,0,1,17,28.73a41.08,41.08,0,0,1-4.79,8.53,34.93,34.93,0,0,1-7,7,34.87,34.87,0,0,1,7,7A41.05,41.05,0,0,1,17,59.74a41.05,41.05,0,0,1,4.79-8.53,34.87,34.87,0,0,1,7-7A34.93,34.93,0,0,1,21.76,37.26Z" transform="translate(0 0)" style="fill:#df0000"/></g></g><g id="layer1-2-6-4"><g id="dl-6-9"><path d="M155.41,191.52a41.08,41.08,0,0,1-4.79-8.53,41.08,41.08,0,0,1-4.79,8.53,34.93,34.93,0,0,1-7,7,34.87,34.87,0,0,1,7,7,41.05,41.05,0,0,1,4.79,8.53,41.05,41.05,0,0,1,4.79-8.53,34.87,34.87,0,0,1,7-7A34.93,34.93,0,0,1,155.41,191.52Z" transform="translate(0 0)" style="fill:#df0000"/></g></g><g id="layer1-2-6-8"><g id="dl-6-8"><path d="M118.52,179.79a72,72,0,0,1-8.39-14.95,72,72,0,0,1-8.39,14.95A61.22,61.22,0,0,1,89.42,192a61.11,61.11,0,0,1,12.31,12.23,72,72,0,0,1,8.39,14.94,72,72,0,0,1,8.39-14.94A61.11,61.11,0,0,1,130.84,192,61.22,61.22,0,0,1,118.52,179.79Z" transform="translate(0 0)" style="fill:#df0000"/></g></g><g id="layer1-2-6-8-2"><g id="dl-6-8-6"><path d="M118.52,38.59a72,72,0,0,1-8.39-14.95,72,72,0,0,1-8.39,14.95A61.22,61.22,0,0,1,89.42,50.82a61.11,61.11,0,0,1,12.31,12.23A72,72,0,0,1,110.13,78a72,72,0,0,1,8.39-14.94,61.11,61.11,0,0,1,12.31-12.23A61.22,61.22,0,0,1,118.52,38.59Z" transform="translate(0 0)" style="fill:#df0000"/></g></g><g id="layer1-2-6-8-2-8"><g id="dl-6-8-6-8"><path d="M118.52,108.29a72,72,0,0,1-8.39-14.95,72,72,0,0,1-8.39,14.95,61.22,61.22,0,0,1-12.31,12.23,61.11,61.11,0,0,1,12.31,12.23,72,72,0,0,1,8.39,14.94,72,72,0,0,1,8.39-14.94,61.11,61.11,0,0,1,12.31-12.23A61.22,61.22,0,0,1,118.52,108.29Z" transform="translate(0 0)" style="fill:#df0000"/></g></g><g id="layer1-2-6-8-8"><g id="dl-6-8-8"><path d="M64.41,179.91A72,72,0,0,1,56,165a72,72,0,0,1-8.39,14.95,61.22,61.22,0,0,1-12.31,12.23,61.11,61.11,0,0,1,12.31,12.23A72,72,0,0,1,56,219.32a72,72,0,0,1,8.39-14.94,61.11,61.11,0,0,1,12.31-12.23A61.22,61.22,0,0,1,64.41,179.91Z" transform="translate(0 0)" style="fill:#df0000"/></g></g><g id="layer1-2-6-8-2-4"><g id="dl-6-8-6-3"><path d="M64.41,38.71A72,72,0,0,1,56,23.76a72,72,0,0,1-8.39,14.95A61.22,61.22,0,0,1,35.31,50.94,61.11,61.11,0,0,1,47.62,63.17,72,72,0,0,1,56,78.11a72,72,0,0,1,8.39-14.94A61.11,61.11,0,0,1,76.72,50.94,61.22,61.22,0,0,1,64.41,38.71Z" transform="translate(0 0)" style="fill:#df0000"/></g></g><g id="layer1-2-6-8-2-8-1"><g id="dl-6-8-6-8-4"><path d="M64.41,108.41A72,72,0,0,1,56,93.46a72,72,0,0,1-8.39,14.95,61.22,61.22,0,0,1-12.31,12.23,61.11,61.11,0,0,1,12.31,12.23A72,72,0,0,1,56,147.82a72,72,0,0,1,8.39-14.94,61.11,61.11,0,0,1,12.31-12.23A61.22,61.22,0,0,1,64.41,108.41Z" transform="translate(0 0)" style="fill:#df0000"/></g></g></svg>