<svg id="svg2" xmlns="http://www.w3.org/2000/svg" viewBox="0 0 167.09 242.67"><title>6-Hearts</title><g id="Layer_1"><g id="path5"><path d="M166.84,235.55a6.89,6.89,0,0,1-6.87,6.87H7.11a6.88,6.88,0,0,1-6.86-6.87V7.12A6.89,6.89,0,0,1,7.11.25H160a6.89,6.89,0,0,1,6.87,6.87Z" transform="translate(0 0)" style="fill:#fff"/><path d="M160,242.67H7.11A7.12,7.12,0,0,1,0,235.55V7.12A7.12,7.12,0,0,1,7.11,0H160a7.13,7.13,0,0,1,7.12,7.12V235.55A7.13,7.13,0,0,1,160,242.67ZM7.11.5A6.62,6.62,0,0,0,.5,7.12V235.55a6.62,6.62,0,0,0,6.61,6.62H160a6.63,6.63,0,0,0,6.62-6.62V7.12A6.63,6.63,0,0,0,160,.5Z" transform="translate(0 0)"/></g></g><g id="text3788" style="isolation:isolate"><g style="isolation:isolate"><path d="M24.7,10.72l-2.8.22a5.3,5.3,0,0,0-1.06-2.41A3.72,3.72,0,0,0,18,7.33a3.86,3.86,0,0,0-2.36.75,6.41,6.41,0,0,0-2.09,2.83,14.77,14.77,0,0,0-.8,5.3,6.51,6.51,0,0,1,2.48-2.3,6.68,6.68,0,0,1,3.08-.75,6.38,6.38,0,0,1,4.79,2.07,7.43,7.43,0,0,1,2,5.35,8.81,8.81,0,0,1-.93,4,6.78,6.78,0,0,1-2.55,2.84,7,7,0,0,1-3.69,1,7.2,7.2,0,0,1-5.73-2.59Q10,23.23,10,17.29q0-6.64,2.45-9.66A7.05,7.05,0,0,1,18.2,5a6.47,6.47,0,0,1,4.43,1.52A6.44,6.44,0,0,1,24.7,10.72ZM13.21,20.59a6.52,6.52,0,0,0,.62,2.78,4.59,4.59,0,0,0,1.73,2,4.31,4.31,0,0,0,2.33.7,4,4,0,0,0,3.06-1.44,5.66,5.66,0,0,0,1.28-3.91A5.3,5.3,0,0,0,21,17a4.16,4.16,0,0,0-3.19-1.37A4.34,4.34,0,0,0,14.54,17,4.93,4.93,0,0,0,13.21,20.59Z" transform="translate(0 0)" style="fill:#df0000"/></g></g><g id="layer1-9-6"><g id="hl-8"><path d="M23.33,32.28c-5.43,0-6.15,5.45-6.15,5.45s-.72-5.45-6.15-5.45c-3.8,0-7.24,2.44-7.24,7.05,0,6.09,11,12.21,13.39,21.15,2.26-8.93,13.39-15.07,13.39-21.15C30.57,34.73,27.13,32.28,23.33,32.28Z" transform="translate(0 0)" style="fill:#df0000"/></g></g><g id="text3788-4" style="isolation:isolate"><g style="isolation:isolate"><path d="M142.9,230.81l2.8-.22a5.3,5.3,0,0,0,1.06,2.41,3.72,3.72,0,0,0,2.81,1.2,3.86,3.86,0,0,0,2.36-.75,6.41,6.41,0,0,0,2.09-2.83,14.77,14.77,0,0,0,.8-5.3,6.51,6.51,0,0,1-2.48,2.3,6.68,6.68,0,0,1-3.08.75,6.38,6.38,0,0,1-4.79-2.07,7.43,7.43,0,0,1-2-5.35,8.8,8.8,0,0,1,.93-4,6.78,6.78,0,0,1,2.55-2.84,7,7,0,0,1,3.69-1,7.2,7.2,0,0,1,5.73,2.59q2.22,2.59,2.22,8.52,0,6.64-2.45,9.66a7.05,7.05,0,0,1-5.77,2.63,6.14,6.14,0,0,1-6.5-5.7Zm11.48-9.87a6.53,6.53,0,0,0-.62-2.78,4.59,4.59,0,0,0-1.73-2,4.31,4.31,0,0,0-2.33-.7,4,4,0,0,0-3.06,1.44,5.65,5.65,0,0,0-1.28,3.91,5.3,5.3,0,0,0,1.27,3.74,4.16,4.16,0,0,0,3.19,1.37,4.34,4.34,0,0,0,3.23-1.37A4.93,4.93,0,0,0,154.38,220.94Z" transform="translate(0 0)" style="fill:#df0000"/></g></g><g id="layer1-9-6-5"><g id="hl-8-1"><path d="M144,209.25c5.43,0,6.15-5.45,6.15-5.45s.72,5.45,6.15,5.45c3.8,0,7.24-2.44,7.24-7.05,0-6.09-11-12.21-13.39-21.15-2.26,8.93-13.39,15.07-13.39,21.15C136.76,206.8,140.2,209.25,144,209.25Z" transform="translate(0 0)" style="fill:#df0000"/></g></g><g id="layer1-9-6-8"><g id="hl-8-8"><path d="M67.93,24.2c-9,0-10.22,9-10.22,9s-1.2-9-10.22-9c-6.31,0-12,4.05-12,11.7C35.48,46,53.76,56.17,57.71,71,61.47,56.18,79.94,46,79.94,35.9,79.94,28.25,74.24,24.2,67.93,24.2Z" transform="translate(0 0)" style="fill:#df0000"/></g></g><g id="layer1-9-6-8-9"><g id="hl-8-8-5"><path d="M47.5,215.41c9,0,10.22-9,10.22-9s1.2,9,10.22,9c6.31,0,12-4.05,12-11.7,0-10.11-18.28-20.27-22.23-35.11-3.76,14.83-22.23,25-22.23,35.11C35.48,211.36,41.19,215.41,47.5,215.41Z" transform="translate(0 0)" style="fill:#df0000"/></g></g><g id="layer1-9-6-8-8"><g id="hl-8-8-8"><path d="M67.93,95.5c-9,0-10.22,9-10.22,9s-1.2-9-10.22-9c-6.31,0-12,4.05-12,11.7,0,10.11,18.28,20.27,22.23,35.11,3.76-14.83,22.23-25,22.23-35.11C79.94,99.55,74.24,95.5,67.93,95.5Z" transform="translate(0 0)" style="fill:#df0000"/></g></g><g id="layer1-9-6-8-88"><g id="hl-8-8-4"><path d="M119.27,23.86c-9,0-10.22,9-10.22,9s-1.2-9-10.22-9c-6.31,0-12,4.05-12,11.7,0,10.11,18.28,20.27,22.23,35.11,3.76-14.83,22.23-25,22.23-35.11C131.28,27.92,125.57,23.86,119.27,23.86Z" transform="translate(0 0)" style="fill:#df0000"/></g></g><g id="layer1-9-6-8-9-3"><g id="hl-8-8-5-1"><path d="M98.83,215.08c9,0,10.22-9,10.22-9s1.2,9,10.22,9c6.31,0,12-4.05,12-11.7,0-10.11-18.28-20.27-22.23-35.11-3.76,14.83-22.23,25-22.23,35.11C86.82,211,92.53,215.08,98.83,215.08Z" transform="translate(0 0)" style="fill:#df0000"/></g></g><g id="layer1-9-6-8-8-4"><g id="hl-8-8-8-9"><path d="M119.27,95.17c-9,0-10.22,9-10.22,9s-1.2-9-10.22-9c-6.31,0-12,4.05-12,11.7,0,10.11,18.28,20.27,22.23,35.11,3.76-14.83,22.23-25,22.23-35.11C131.28,99.22,125.57,95.17,119.27,95.17Z" transform="translate(0 0)" style="fill:#df0000"/></g></g></svg>