<svg xmlns="http://www.w3.org/2000/svg" viewBox="0 0 166.59 233.13"><defs><style>.cls-1{fill:#fff;}.cls-2{fill:#65a7dd;}.cls-3{fill:#af0f07;}.cls-4{fill:#a43e32;}</style></defs><title>Asset 24</title><g id="Layer_2" data-name="Layer 2"><g id="Objects"><rect class="cls-1" x="0.12" y="0.12" width="166.36" height="232.9" rx="5.94" ry="5.94"/><path class="cls-2" d="M160.53,233.13H6.06A6.06,6.06,0,0,1,0,227.08V6.06A6.06,6.06,0,0,1,6.06,0H160.53a6.06,6.06,0,0,1,6.06,6.06v221A6.06,6.06,0,0,1,160.53,233.13ZM6.06.23A5.83,5.83,0,0,0,.23,6.06v221a5.83,5.83,0,0,0,5.82,5.82H160.53a5.83,5.83,0,0,0,5.82-5.82V6.06A5.83,5.83,0,0,0,160.53.23Z"/><circle class="cls-1" cx="148.63" cy="18.48" r="0.57"/><circle class="cls-1" cx="121.5" cy="18.48" r="0.57"/><circle class="cls-1" cx="96.54" cy="18.48" r="0.57"/><circle class="cls-1" cx="71.49" cy="18.66" r="0.57"/><circle class="cls-1" cx="148.63" cy="39.62" r="0.57"/><circle class="cls-1" cx="148.63" cy="58.91" r="0.57"/><circle class="cls-1" cx="148.63" cy="79.13" r="0.57"/><circle class="cls-1" cx="148.63" cy="91.91" r="0.57"/><circle class="cls-1" cx="148.63" cy="104.74" r="0.57"/><circle class="cls-1" cx="18.33" cy="19.05" r="0.57"/><circle class="cls-1" cx="45.77" cy="18.66" r="0.57"/><circle class="cls-1" cx="18.33" cy="39.17" r="0.57"/><circle class="cls-1" cx="18.33" cy="59.05" r="0.57"/><circle class="cls-1" cx="18.33" cy="78.99" r="0.57"/><circle class="cls-1" cx="18.33" cy="91.91" r="0.57"/><circle class="cls-1" cx="18.33" cy="105.31" r="0.57"/><circle class="cls-1" cx="18.33" cy="118.24" r="0.57"/><circle class="cls-1" cx="18.33" cy="131.17" r="0.57"/><circle class="cls-1" cx="18.33" cy="144.57" r="0.57"/><circle class="cls-1" cx="18.33" cy="158" r="0.57"/><circle class="cls-1" cx="18.33" cy="170" r="0.57"/><circle class="cls-1" cx="18.33" cy="183.39" r="0.57"/><circle class="cls-1" cx="18.33" cy="196.44" r="0.57"/><circle class="cls-1" cx="18.56" cy="215.63" r="0.57"/><circle class="cls-1" cx="39.09" cy="216.2" r="0.57"/><circle class="cls-1" cx="65.54" cy="216.2" r="0.57"/><circle class="cls-1" cx="91.94" cy="216.2" r="0.57"/><circle class="cls-1" cx="117.67" cy="216.2" r="0.57"/><circle class="cls-1" cx="148.63" cy="117.93" r="0.57"/><circle class="cls-1" cx="148.63" cy="130.26" r="0.57"/><circle class="cls-1" cx="148.63" cy="143.55" r="0.57"/><circle class="cls-1" cx="148.63" cy="156.65" r="0.57"/><circle class="cls-1" cx="148.63" cy="169.41" r="0.57"/><circle class="cls-1" cx="148.63" cy="181.98" r="0.57"/><circle class="cls-1" cx="148.63" cy="194.82" r="0.57"/><circle class="cls-1" cx="148.63" cy="214.39" r="0.57"/><path class="cls-3" d="M64.64,28.65c-5.48-.13-6.74,4.05-7,6.07-.29-2-1.55-6.2-7-6.07-7.21.17-8.16,8.25-5.65,12.33a37.69,37.69,0,0,0,6.34,8c2.37,2.45,5.21,5.22,6.25,6.91,0,0,.06.2.09.14s.09-.14.09-.14c1-1.69,3.88-4.45,6.25-6.91a37.69,37.69,0,0,0,6.34-8C72.8,36.9,71.85,28.83,64.64,28.65Z"/><path class="cls-3" d="M64.64,104.45c-5.48-.13-6.74,4.05-7,6.07-.29-2-1.55-6.2-7-6.07-7.21.17-8.16,8.25-5.65,12.33a37.7,37.7,0,0,0,6.34,8c2.37,2.45,5.21,5.22,6.25,6.91,0,0,.06.2.09.14s.09-.14.09-.14c1-1.69,3.88-4.45,6.25-6.91a37.69,37.69,0,0,0,6.34-8C72.8,112.7,71.85,104.62,64.64,104.45Z"/><path class="cls-3" d="M64.64,207.63c-5.48.13-6.74-4.05-7-6.07-.29,2-1.55,6.2-7,6.07-7.21-.17-8.16-8.25-5.65-12.33a37.7,37.7,0,0,1,6.34-8c2.37-2.45,5.21-5.22,6.25-6.91,0,0,.06-.2.09-.14s.09.14.09.14c1,1.69,3.88,4.45,6.25,6.91a37.69,37.69,0,0,1,6.34,8C72.8,199.37,71.85,207.45,64.64,207.63Z"/><path class="cls-3" d="M116.4,28.65c-5.48-.13-6.74,4.05-7,6.07-.29-2-1.55-6.2-7-6.07-7.21.17-8.16,8.25-5.65,12.33A37.69,37.69,0,0,0,103,49c2.37,2.45,5.21,5.22,6.25,6.91,0,0,.06.2.09.14s.09-.14.09-.14c1-1.69,3.88-4.45,6.25-6.91A37.69,37.69,0,0,0,122,41C124.56,36.9,123.61,28.83,116.4,28.65Z"/><path class="cls-3" d="M116.4,104.45c-5.48-.13-6.74,4.05-7,6.07-.29-2-1.55-6.2-7-6.07-7.21.17-8.16,8.25-5.65,12.33a37.69,37.69,0,0,0,6.34,8c2.37,2.45,5.21,5.22,6.25,6.91,0,0,.06.2.09.14s.09-.14.09-.14c1-1.69,3.88-4.45,6.25-6.91a37.7,37.7,0,0,0,6.34-8C124.56,112.7,123.61,104.62,116.4,104.45Z"/><path class="cls-3" d="M116.4,207.63c-5.48.13-6.74-4.05-7-6.07-.29,2-1.55,6.2-7,6.07-7.21-.17-8.16-8.25-5.65-12.33a37.69,37.69,0,0,1,6.34-8c2.37-2.45,5.21-5.22,6.25-6.91,0,0,.06-.2.09-.14s.09.14.09.14c1,1.69,3.88,4.45,6.25,6.91a37.7,37.7,0,0,1,6.34,8C124.56,199.37,123.61,207.45,116.4,207.63Z"/><path class="cls-4" d="M14.19,28.36a4.93,4.93,0,0,1-1.48-2.22,10,10,0,0,1-.52-3.41,12.11,12.11,0,0,1,.41-3.12,7.13,7.13,0,0,1,1.18-2.54,4.13,4.13,0,0,1,3.32-1.82,2.89,2.89,0,0,1,2.23.93,2.15,2.15,0,0,1,.42.78,2.71,2.71,0,0,1,.13.76,1.41,1.41,0,0,1-.49,1.11,1.16,1.16,0,0,1-.8.29.82.82,0,0,1-.7-.35.76.76,0,0,1-.13-.25,1.29,1.29,0,0,1,0-.31.9.9,0,0,1,.25-.58,2.24,2.24,0,0,1,.37-.33.71.71,0,0,0,.24-.24.63.63,0,0,0,.07-.3.74.74,0,0,0-.4-.61A2.23,2.23,0,0,0,17,15.86a2.41,2.41,0,0,0-1.33.41,3,3,0,0,0-1.06,1.36,7,7,0,0,0-.5,1.81A11.86,11.86,0,0,0,14,21.25v.87l.14.06A2.94,2.94,0,0,1,15.19,21a2.57,2.57,0,0,1,1.41-.48,3.67,3.67,0,0,1,2.19.64A3.51,3.51,0,0,1,20,22.6a4.82,4.82,0,0,1,.41,2,5.19,5.19,0,0,1-.47,2.11,4.45,4.45,0,0,1-1.37,1.76,3.37,3.37,0,0,1-2.13.7A3.44,3.44,0,0,1,14.19,28.36Zm3.94-1a5.9,5.9,0,0,0,.53-2.56,6.27,6.27,0,0,0-.47-2.58,1.6,1.6,0,0,0-1.55-1,1.88,1.88,0,0,0-1.22.45,3,3,0,0,0-.86,1.27,5.19,5.19,0,0,0-.32,1.89,6.07,6.07,0,0,0,.5,2.65,1.72,1.72,0,0,0,1.67,1A1.79,1.79,0,0,0,18.12,27.39Z"/><path class="cls-4" d="M150.56,211.53a4.93,4.93,0,0,1,1.48,2.22,10,10,0,0,1,.52,3.41,12.12,12.12,0,0,1-.41,3.12,7.12,7.12,0,0,1-1.18,2.54,4.13,4.13,0,0,1-3.32,1.82,2.89,2.89,0,0,1-2.23-.93,2.16,2.16,0,0,1-.42-.78,2.72,2.72,0,0,1-.13-.76,1.4,1.4,0,0,1,.49-1.11,1.16,1.16,0,0,1,.8-.29.82.82,0,0,1,.7.35.76.76,0,0,1,.13.25,1.29,1.29,0,0,1,0,.31.9.9,0,0,1-.25.58,2.16,2.16,0,0,1-.37.33.71.71,0,0,0-.24.24.63.63,0,0,0-.07.3.74.74,0,0,0,.4.61,2.23,2.23,0,0,0,1.21.26,2.4,2.4,0,0,0,1.33-.41,3,3,0,0,0,1.06-1.36,7.05,7.05,0,0,0,.5-1.81,11.89,11.89,0,0,0,.18-1.83v-.87l-.14-.06a3,3,0,0,1-1.08,1.21,2.58,2.58,0,0,1-1.41.47,3.66,3.66,0,0,1-2.19-.64,3.51,3.51,0,0,1-1.16-1.46,4.82,4.82,0,0,1-.41-2,5.19,5.19,0,0,1,.47-2.11,4.45,4.45,0,0,1,1.37-1.76,3.37,3.37,0,0,1,2.13-.7A3.43,3.43,0,0,1,150.56,211.53Zm-3.94,1a5.91,5.91,0,0,0-.53,2.56,6.27,6.27,0,0,0,.47,2.58,1.6,1.6,0,0,0,1.55,1,1.88,1.88,0,0,0,1.22-.45,3,3,0,0,0,.86-1.27,5.19,5.19,0,0,0,.32-1.89,6.06,6.06,0,0,0-.5-2.65,1.72,1.72,0,0,0-1.67-1A1.79,1.79,0,0,0,146.62,212.5Z"/><path class="cls-3" d="M19.55,34.67a2.26,2.26,0,0,0-2.44,2.1,2.26,2.26,0,0,0-2.44-2.1c-2.5.06-2.83,2.86-2,4.28a13.08,13.08,0,0,0,2.2,2.77,21.07,21.07,0,0,1,2.17,2.4s0,.07,0,.05,0-.05,0-.05a21.06,21.06,0,0,1,2.17-2.4A13.07,13.07,0,0,0,21.5,39C22.38,37.54,22,34.73,19.55,34.67Z"/><path class="cls-3" d="M150.78,206.83a2.26,2.26,0,0,1-2.44-2.11,2.26,2.26,0,0,1-2.44,2.11c-2.5-.06-2.83-2.86-2-4.28a13.07,13.07,0,0,1,2.2-2.77,21.08,21.08,0,0,0,2.17-2.4s0-.07,0-.05,0,.05,0,.05a21.07,21.07,0,0,0,2.17,2.4,13.07,13.07,0,0,1,2.2,2.77C153.62,204,153.28,206.77,150.78,206.83Z"/></g></g></svg>