<svg id="svg2" xmlns="http://www.w3.org/2000/svg" viewBox="0 0 167.09 242.67"><title>6-Spades</title><g id="Layer_1"><g id="path5"><path d="M166.84,235.55a6.89,6.89,0,0,1-6.87,6.87H7.11a6.88,6.88,0,0,1-6.86-6.87V7.12A6.89,6.89,0,0,1,7.11.25H160a6.89,6.89,0,0,1,6.87,6.87Z" transform="translate(0 0)" style="fill:#fff"/><path d="M160,242.67H7.11A7.12,7.12,0,0,1,0,235.55V7.12A7.12,7.12,0,0,1,7.11,0H160a7.13,7.13,0,0,1,7.12,7.12V235.55A7.13,7.13,0,0,1,160,242.67ZM7.11.5A6.62,6.62,0,0,0,.5,7.12V235.55a6.62,6.62,0,0,0,6.61,6.62H160a6.63,6.63,0,0,0,6.62-6.62V7.12A6.63,6.63,0,0,0,160,.5Z" transform="translate(0 0)"/></g></g><g id="text3788" style="isolation:isolate"><g style="isolation:isolate"><path d="M24.47,10.72l-2.8.22a5.3,5.3,0,0,0-1.06-2.41,3.72,3.72,0,0,0-2.81-1.2,3.86,3.86,0,0,0-2.36.75,6.41,6.41,0,0,0-2.09,2.83,14.77,14.77,0,0,0-.8,5.3A6.51,6.51,0,0,1,15,13.9a6.68,6.68,0,0,1,3.08-.75,6.38,6.38,0,0,1,4.79,2.07,7.43,7.43,0,0,1,2,5.35,8.81,8.81,0,0,1-.93,4,6.78,6.78,0,0,1-2.55,2.84,7,7,0,0,1-3.69,1A7.2,7.2,0,0,1,12,25.82q-2.22-2.59-2.22-8.52,0-6.64,2.45-9.66A7.05,7.05,0,0,1,18,5,6.47,6.47,0,0,1,22.4,6.53,6.44,6.44,0,0,1,24.47,10.72ZM13,20.59a6.52,6.52,0,0,0,.62,2.78,4.59,4.59,0,0,0,1.73,2,4.31,4.31,0,0,0,2.33.7,4,4,0,0,0,3.06-1.44A5.66,5.66,0,0,0,22,20.75,5.3,5.3,0,0,0,20.73,17a4.16,4.16,0,0,0-3.19-1.37A4.34,4.34,0,0,0,14.31,17,4.93,4.93,0,0,0,13,20.59Z" transform="translate(0 0)"/></g></g><g id="layer1-7"><g id="sl"><path d="M29,49.35c-.37-5.6-11.69-16.13-12.05-18.76C16.56,33.22,5.24,43.75,4.88,49.35A4.9,4.9,0,0,0,10,54.94c2.77,0,5.06-3.86,5.84-4.61.37,1-2.42,9.22-3.29,9.22h8.77c-.87,0-3.65-8.23-3.29-9.22.69.68,2.71,4.49,5.84,4.61A4.9,4.9,0,0,0,29,49.35Z" transform="translate(0 0)"/></g></g><g id="layer1-7-88"><g id="sl-4"><path d="M77.37,56.88c-.64-9.82-20.52-28.32-21.16-32.94-.64,4.62-20.52,23.12-21.16,32.94-.45,6.95,4.49,9.82,9,9.82,4.86-.05,8.88-6.78,10.26-8.09C54.93,60.35,50,74.8,48.52,74.8H63.91c-1.53,0-6.41-14.45-5.77-16.18,1.21,1.2,4.76,7.89,10.26,8.09C72.88,66.7,77.82,63.83,77.37,56.88Z" transform="translate(0 0)"/></g></g><g id="text3788-7" style="isolation:isolate"><g style="isolation:isolate"><path d="M143.06,232.42l2.8-.22a5.3,5.3,0,0,0,1.06,2.41,3.72,3.72,0,0,0,2.81,1.2,3.86,3.86,0,0,0,2.36-.75,6.41,6.41,0,0,0,2.09-2.83,14.77,14.77,0,0,0,.8-5.3,6.51,6.51,0,0,1-2.48,2.3,6.68,6.68,0,0,1-3.08.75,6.38,6.38,0,0,1-4.79-2.07,7.43,7.43,0,0,1-2-5.35,8.8,8.8,0,0,1,.93-4,6.78,6.78,0,0,1,2.55-2.84,7,7,0,0,1,3.69-1,7.2,7.2,0,0,1,5.73,2.59q2.22,2.59,2.22,8.52,0,6.64-2.45,9.66a7.05,7.05,0,0,1-5.77,2.63,6.14,6.14,0,0,1-6.5-5.7Zm11.48-9.87a6.53,6.53,0,0,0-.62-2.78,4.59,4.59,0,0,0-1.73-2,4.31,4.31,0,0,0-2.33-.7,4,4,0,0,0-3.06,1.44,5.65,5.65,0,0,0-1.28,3.91,5.3,5.3,0,0,0,1.27,3.74A4.16,4.16,0,0,0,150,227.5a4.34,4.34,0,0,0,3.23-1.37A4.93,4.93,0,0,0,154.54,222.55Z" transform="translate(0 0)"/></g></g><g id="layer1-7-3"><g id="sl-1"><path d="M138.17,193.76c.37,5.6,11.69,16.13,12.05,18.76.37-2.63,11.69-13.17,12.05-18.76a4.9,4.9,0,0,0-5.11-5.6c-2.77,0-5.06,3.86-5.84,4.61-.37-1,2.42-9.22,3.29-9.22h-8.77c.87,0,3.65,8.23,3.29,9.22-.69-.68-2.71-4.49-5.84-4.61A4.9,4.9,0,0,0,138.17,193.76Z" transform="translate(0 0)"/></g></g><g id="layer1-7-88-7"><g id="sl-4-5"><path d="M35.1,186.26c.64,9.82,20.52,28.32,21.16,32.94.64-4.62,20.52-23.12,21.16-32.94.45-6.95-4.49-9.82-9-9.82-4.86.05-8.88,6.78-10.26,8.09-.64-1.73,4.25-16.18,5.77-16.18H48.56c1.53,0,6.41,14.45,5.77,16.18-1.21-1.2-4.76-7.89-10.26-8.09C39.58,176.43,34.65,179.31,35.1,186.26Z" transform="translate(0 0)"/></g></g><g id="layer1-7-88-6"><g id="sl-4-8"><path d="M77.45,126.58c-.64-9.82-20.52-28.32-21.16-32.94-.64,4.62-20.52,23.12-21.16,32.94-.45,6.95,4.49,9.82,9,9.82,4.86-.05,8.88-6.78,10.26-8.09C55,130,50.13,144.5,48.6,144.5H64c-1.53,0-6.41-14.45-5.77-16.18,1.21,1.2,4.76,7.89,10.26,8.09C73,136.4,77.9,133.53,77.45,126.58Z" transform="translate(0 0)"/></g></g><g id="layer1-7-88-68"><g id="sl-4-84"><path d="M132.06,56.68c-.64-9.82-20.52-28.32-21.16-32.94-.64,4.62-20.52,23.12-21.16,32.94-.45,6.95,4.49,9.82,9,9.82,4.86-.05,8.88-6.78,10.26-8.09.64,1.73-4.25,16.18-5.77,16.18h15.39c-1.53,0-6.41-14.45-5.77-16.18,1.21,1.2,4.76,7.89,10.26,8.09C127.57,66.5,132.51,63.63,132.06,56.68Z" transform="translate(0 0)"/></g></g><g id="layer1-7-88-7-3"><g id="sl-4-5-1"><path d="M89.78,186.06c.64,9.82,20.52,28.32,21.16,32.94.64-4.62,20.52-23.12,21.16-32.94.45-6.95-4.49-9.82-9-9.82-4.86.05-8.88,6.78-10.26,8.09-.64-1.73,4.25-16.18,5.77-16.18H103.25c1.53,0,6.41,14.45,5.77,16.18-1.21-1.2-4.76-7.89-10.26-8.09C94.27,176.24,89.34,179.11,89.78,186.06Z" transform="translate(0 0)"/></g></g><g id="layer1-7-88-6-4"><g id="sl-4-8-9"><path d="M132.14,126.38c-.64-9.82-20.52-28.32-21.16-32.94-.64,4.62-20.52,23.12-21.16,32.94-.45,6.95,4.49,9.82,9,9.82,4.86-.05,8.88-6.78,10.26-8.09.64,1.73-4.25,16.18-5.77,16.18h15.39c-1.53,0-6.41-14.45-5.77-16.18,1.21,1.2,4.76,7.89,10.26,8.09C127.66,136.21,132.59,133.33,132.14,126.38Z" transform="translate(0 0)"/></g></g></svg>