<svg xmlns="http://www.w3.org/2000/svg" viewBox="0 0 166.59 233.13"><defs><style>.cls-1{fill:#fff;}.cls-2{fill:#65a7dd;}.cls-3{fill:#151515;}</style></defs><title>Asset 37</title><g id="Layer_2" data-name="Layer 2"><g id="Objects"><rect class="cls-1" x="0.12" y="0.12" width="166.36" height="232.9" rx="5.94" ry="5.94"/><path class="cls-2" d="M160.53,233.13H6.06A6.06,6.06,0,0,1,0,227.08V6.06A6.06,6.06,0,0,1,6.06,0H160.53a6.06,6.06,0,0,1,6.06,6.06v221A6.06,6.06,0,0,1,160.53,233.13ZM6.06.23A5.83,5.83,0,0,0,.23,6.06v221a5.83,5.83,0,0,0,5.82,5.82H160.53a5.83,5.83,0,0,0,5.82-5.82V6.06A5.83,5.83,0,0,0,160.53.23Z"/><circle class="cls-1" cx="148.63" cy="18.48" r="0.57"/><circle class="cls-1" cx="121.5" cy="18.48" r="0.57"/><circle class="cls-1" cx="96.54" cy="18.48" r="0.57"/><circle class="cls-1" cx="71.49" cy="18.66" r="0.57"/><circle class="cls-1" cx="148.63" cy="39.62" r="0.57"/><circle class="cls-1" cx="148.63" cy="58.91" r="0.57"/><circle class="cls-1" cx="148.63" cy="79.13" r="0.57"/><circle class="cls-1" cx="148.63" cy="91.91" r="0.57"/><circle class="cls-1" cx="148.63" cy="104.74" r="0.57"/><circle class="cls-1" cx="18.33" cy="19.05" r="0.57"/><circle class="cls-1" cx="45.77" cy="18.66" r="0.57"/><circle class="cls-1" cx="18.33" cy="39.17" r="0.57"/><circle class="cls-1" cx="18.33" cy="59.05" r="0.57"/><circle class="cls-1" cx="18.33" cy="78.99" r="0.57"/><circle class="cls-1" cx="18.33" cy="91.91" r="0.57"/><circle class="cls-1" cx="18.33" cy="105.31" r="0.57"/><circle class="cls-1" cx="18.33" cy="118.24" r="0.57"/><circle class="cls-1" cx="18.33" cy="131.17" r="0.57"/><circle class="cls-1" cx="18.33" cy="144.57" r="0.57"/><circle class="cls-1" cx="18.33" cy="158" r="0.57"/><circle class="cls-1" cx="18.33" cy="170" r="0.57"/><circle class="cls-1" cx="18.33" cy="183.39" r="0.57"/><circle class="cls-1" cx="18.33" cy="196.44" r="0.57"/><circle class="cls-1" cx="18.56" cy="215.63" r="0.57"/><circle class="cls-1" cx="39.09" cy="216.19" r="0.57"/><circle class="cls-1" cx="65.54" cy="216.19" r="0.57"/><circle class="cls-1" cx="91.94" cy="216.19" r="0.57"/><circle class="cls-1" cx="117.67" cy="216.19" r="0.57"/><circle class="cls-1" cx="148.63" cy="117.93" r="0.57"/><circle class="cls-1" cx="148.63" cy="130.26" r="0.57"/><circle class="cls-1" cx="148.63" cy="143.55" r="0.57"/><circle class="cls-1" cx="148.63" cy="156.65" r="0.57"/><circle class="cls-1" cx="148.63" cy="169.41" r="0.57"/><circle class="cls-1" cx="148.63" cy="181.98" r="0.57"/><circle class="cls-1" cx="148.63" cy="194.82" r="0.57"/><circle class="cls-1" cx="148.63" cy="214.39" r="0.57"/><path d="M14.56,22.48a4.93,4.93,0,0,1-1.48-2.22,10,10,0,0,1-.52-3.41A12.12,12.12,0,0,1,13,13.72a7.12,7.12,0,0,1,1.18-2.54,4.13,4.13,0,0,1,3.32-1.82,2.89,2.89,0,0,1,2.23.93,2.16,2.16,0,0,1,.42.78,2.72,2.72,0,0,1,.13.76,1.41,1.41,0,0,1-.49,1.11,1.16,1.16,0,0,1-.8.29.82.82,0,0,1-.7-.35.76.76,0,0,1-.13-.25,1.29,1.29,0,0,1,0-.31.9.9,0,0,1,.25-.58,2.2,2.2,0,0,1,.37-.33.71.71,0,0,0,.24-.24.63.63,0,0,0,.07-.3.74.74,0,0,0-.4-.61A2.23,2.23,0,0,0,17.42,10a2.41,2.41,0,0,0-1.33.41A3,3,0,0,0,15,11.74a7,7,0,0,0-.5,1.81,11.87,11.87,0,0,0-.18,1.82v.87l.14.06a2.94,2.94,0,0,1,1.08-1.21A2.58,2.58,0,0,1,17,14.62a3.66,3.66,0,0,1,2.19.64,3.5,3.5,0,0,1,1.16,1.46,4.82,4.82,0,0,1,.41,2,5.19,5.19,0,0,1-.47,2.11,4.45,4.45,0,0,1-1.37,1.76,3.37,3.37,0,0,1-2.13.7A3.44,3.44,0,0,1,14.56,22.48Zm3.94-1A5.91,5.91,0,0,0,19,18.94a6.27,6.27,0,0,0-.47-2.58,1.6,1.6,0,0,0-1.55-1,1.88,1.88,0,0,0-1.22.45,3,3,0,0,0-.86,1.27,5.19,5.19,0,0,0-.32,1.89,6.06,6.06,0,0,0,.5,2.65,1.72,1.72,0,0,0,1.67,1A1.79,1.79,0,0,0,18.5,21.51Z"/><path d="M150.93,205.64a4.93,4.93,0,0,1,1.48,2.22,10,10,0,0,1,.52,3.41,12.12,12.12,0,0,1-.41,3.12,7.12,7.12,0,0,1-1.18,2.54,4.13,4.13,0,0,1-3.32,1.82,2.89,2.89,0,0,1-2.23-.93,2.16,2.16,0,0,1-.42-.78,2.72,2.72,0,0,1-.13-.76,1.4,1.4,0,0,1,.49-1.11,1.16,1.16,0,0,1,.8-.29.82.82,0,0,1,.7.35.76.76,0,0,1,.13.25,1.29,1.29,0,0,1,0,.31.9.9,0,0,1-.25.58,2.16,2.16,0,0,1-.37.33.71.71,0,0,0-.24.24.63.63,0,0,0-.07.3.74.74,0,0,0,.4.61,2.23,2.23,0,0,0,1.21.26,2.4,2.4,0,0,0,1.33-.41,3,3,0,0,0,1.06-1.36,7,7,0,0,0,.5-1.81,11.88,11.88,0,0,0,.18-1.82v-.87l-.14-.06a3,3,0,0,1-1.08,1.21,2.58,2.58,0,0,1-1.41.47,3.66,3.66,0,0,1-2.19-.64,3.51,3.51,0,0,1-1.16-1.46,4.82,4.82,0,0,1-.41-2,5.19,5.19,0,0,1,.47-2.11,4.45,4.45,0,0,1,1.37-1.76,3.37,3.37,0,0,1,2.13-.7A3.43,3.43,0,0,1,150.93,205.64Zm-3.94,1a5.91,5.91,0,0,0-.53,2.56,6.27,6.27,0,0,0,.47,2.58,1.6,1.6,0,0,0,1.55,1,1.88,1.88,0,0,0,1.22-.45,3,3,0,0,0,.86-1.27,5.19,5.19,0,0,0,.32-1.89,6.06,6.06,0,0,0-.5-2.65,1.72,1.72,0,0,0-1.67-1A1.79,1.79,0,0,0,147,206.62Z"/><path class="cls-3" d="M66.22,35.17c-3.68-4-7.95-7.92-9.73-10-1.34-1.54-2.29-2.71-2.68-3.2v-.25l-.1.13-.1-.13V22c-.39.49-1.34,1.66-2.68,3.2-1.79,2.05-6.06,6-9.73,10a12.19,12.19,0,0,0-3.28,11.34c.7,3.32,4.17,6.45,9.64,5.77a6.09,6.09,0,0,0,3.88-2.06,12.7,12.7,0,0,1-3.16,7.15h10.6A13.56,13.56,0,0,1,56,50.24a6.09,6.09,0,0,0,3.86,2c5.46.68,8.94-2.44,9.64-5.77A12.19,12.19,0,0,0,66.22,35.17Z"/><path class="cls-3" d="M66.22,111.75c-3.68-4-7.95-7.92-9.73-10-1.34-1.54-2.29-2.71-2.68-3.2v-.25l-.1.13-.1-.13v.25c-.39.49-1.34,1.66-2.68,3.2-1.79,2.05-6.06,6-9.73,10a12.19,12.19,0,0,0-3.28,11.34c.7,3.32,4.17,6.45,9.64,5.77a6.09,6.09,0,0,0,3.88-2.06,12.7,12.7,0,0,1-3.16,7.15h10.6A13.56,13.56,0,0,1,56,126.82a6.09,6.09,0,0,0,3.86,2c5.46.68,8.94-2.44,9.64-5.77A12.19,12.19,0,0,0,66.22,111.75Z"/><path class="cls-3" d="M66.22,194.59c-3.68,4-7.95,7.92-9.73,10-1.34,1.54-2.29,2.71-2.68,3.2V208l-.1-.13-.1.13v-.25c-.39-.49-1.34-1.66-2.68-3.2-1.79-2.05-6.06-6-9.73-10a12.19,12.19,0,0,1-3.28-11.34c.7-3.32,4.17-6.45,9.64-5.77a6.09,6.09,0,0,1,3.88,2.06,12.7,12.7,0,0,0-3.16-7.15h10.6A13.56,13.56,0,0,0,56,179.52a6.09,6.09,0,0,1,3.86-2c5.46-.68,8.94,2.44,9.64,5.77A12.19,12.19,0,0,1,66.22,194.59Z"/><path class="cls-3" d="M126.29,35.17c-3.68-4-7.95-7.92-9.73-10-1.34-1.54-2.29-2.71-2.68-3.2v-.25l-.1.13-.1-.13V22c-.39.49-1.34,1.66-2.68,3.2-1.79,2.05-6.06,6-9.73,10A12.19,12.19,0,0,0,98,46.51c.7,3.32,4.17,6.45,9.64,5.77a6.09,6.09,0,0,0,3.88-2.06,12.7,12.7,0,0,1-3.16,7.15h10.6a13.56,13.56,0,0,1-2.87-7.13,6.09,6.09,0,0,0,3.86,2c5.46.68,8.94-2.44,9.64-5.77A12.19,12.19,0,0,0,126.29,35.17Z"/><path class="cls-3" d="M126.29,111.75c-3.68-4-7.95-7.92-9.73-10-1.34-1.54-2.29-2.71-2.68-3.2v-.25l-.1.13-.1-.13v.25c-.39.49-1.34,1.66-2.68,3.2-1.79,2.05-6.06,6-9.73,10A12.19,12.19,0,0,0,98,123.09c.7,3.32,4.17,6.45,9.64,5.77a6.09,6.09,0,0,0,3.88-2.06,12.7,12.7,0,0,1-3.16,7.15h10.6a13.56,13.56,0,0,1-2.87-7.13,6.09,6.09,0,0,0,3.86,2c5.46.68,8.94-2.44,9.64-5.77A12.19,12.19,0,0,0,126.29,111.75Z"/><path class="cls-3" d="M126.29,194.59c-3.68,4-7.95,7.92-9.73,10-1.34,1.54-2.29,2.71-2.68,3.2V208l-.1-.13-.1.13v-.25c-.39-.49-1.34-1.66-2.68-3.2-1.79-2.05-6.06-6-9.73-10A12.19,12.19,0,0,1,98,183.25c.7-3.32,4.17-6.45,9.64-5.77a6.09,6.09,0,0,1,3.88,2.06,12.7,12.7,0,0,0-3.16-7.15h10.6a13.56,13.56,0,0,0-2.87,7.13,6.09,6.09,0,0,1,3.86-2c5.46-.68,8.94,2.44,9.64,5.77A12.19,12.19,0,0,1,126.29,194.59Z"/><path class="cls-3" d="M151.56,197c-1.07,1.17-2.32,2.31-2.84,2.91s-.67.79-.78.93v.07l0,0,0,0v-.07c-.11-.14-.39-.48-.78-.93s-1.77-1.74-2.84-2.91a3.56,3.56,0,0,1-1-3.31,2.38,2.38,0,0,1,2.81-1.68,1.78,1.78,0,0,1,1.13.6,3.7,3.7,0,0,0-.92-2.09h3.09a4,4,0,0,0-.84,2.08,1.78,1.78,0,0,1,1.13-.59,2.38,2.38,0,0,1,2.81,1.68A3.56,3.56,0,0,1,151.56,197Z"/><path class="cls-3" d="M21.25,30.87c-1.07-1.17-2.32-2.31-2.84-2.91s-.67-.79-.78-.93V27l0,0,0,0V27c-.11.14-.39.48-.78.93S15,29.7,13.94,30.87a3.56,3.56,0,0,0-1,3.31,2.38,2.38,0,0,0,2.81,1.68,1.78,1.78,0,0,0,1.13-.6A3.7,3.7,0,0,1,16,37.34H19.1a4,4,0,0,1-.84-2.08,1.78,1.78,0,0,0,1.13.59,2.38,2.38,0,0,0,2.81-1.68A3.56,3.56,0,0,0,21.25,30.87Z"/></g></g></svg>