<svg id="svg2" xmlns="http://www.w3.org/2000/svg" viewBox="0 0 167.09 242.67"><title>7-Clubs</title><g id="Layer_1"><g id="path5"><path d="M166.84,235.55a6.89,6.89,0,0,1-6.87,6.87H7.11a6.88,6.88,0,0,1-6.86-6.87V7.12A6.89,6.89,0,0,1,7.11.25H160a6.89,6.89,0,0,1,6.87,6.87Z" transform="translate(0 0)" style="fill:#fff"/><path d="M160,242.67H7.11A7.12,7.12,0,0,1,0,235.55V7.12A7.12,7.12,0,0,1,7.11,0H160a7.13,7.13,0,0,1,7.12,7.12V235.55A7.13,7.13,0,0,1,160,242.67ZM7.11.5A6.62,6.62,0,0,0,.5,7.12V235.55a6.62,6.62,0,0,0,6.61,6.62H160a6.63,6.63,0,0,0,6.62-6.62V7.12A6.63,6.63,0,0,0,160,.5Z" transform="translate(0 0)"/></g></g><g id="text3788" style="isolation:isolate"><g style="isolation:isolate"><path d="M9.83,7.64V4.94H24.65V7.13a31.27,31.27,0,0,0-4.34,6.19A37.67,37.67,0,0,0,17,21.25a29.51,29.51,0,0,0-1.08,6.3H13A28.07,28.07,0,0,1,14.09,21,34.29,34.29,0,0,1,17,13.63a31.66,31.66,0,0,1,4-6Z" transform="translate(0 0)"/></g></g><g id="layer1-1-4"><g id="cl-9"><path d="M20.69,43.74s3.53-2.82,3.53-6.74a6.47,6.47,0,0,0-6.74-6.09A6.47,6.47,0,0,0,10.75,37c0,3.91,3.53,6.74,3.53,6.74-3.92-3.05-10.91-1-10.91,5.13a6.48,6.48,0,0,0,6.42,6.42c4.7,0,6.74-5.13,6.74-5.13s.6,5.85-2.89,9h7.7c-3.48-3.13-2.89-9-2.89-9s2,5.13,6.74,5.13a6.48,6.48,0,0,0,6.42-6.42C31.6,42.77,24.61,40.69,20.69,43.74Z" transform="translate(0 0)"/></g></g><g id="text3788-8" style="isolation:isolate"><g style="isolation:isolate"><path d="M157.35,234.37v2.7H142.52v-2.19a31.31,31.31,0,0,0,4.34-6.19,37.67,37.67,0,0,0,3.32-7.94,29.51,29.51,0,0,0,1.08-6.3h2.89a28.1,28.1,0,0,1-1.06,6.53,34.29,34.29,0,0,1-2.91,7.38,31.68,31.68,0,0,1-4,6Z" transform="translate(0 0)"/></g></g><g id="layer1-1-4-1"><g id="cl-9-7"><path d="M146.48,198.74s-3.53,2.82-3.53,6.74a6.77,6.77,0,0,0,13.47,0c0-3.91-3.53-6.74-3.53-6.74,3.92,3.05,10.91,1,10.91-5.13a6.48,6.48,0,0,0-6.42-6.42c-4.7,0-6.74,5.13-6.74,5.13s-.6-5.85,2.89-9h-7.7c3.48,3.13,2.89,9,2.89,9s-2-5.13-6.74-5.13a6.48,6.48,0,0,0-6.42,6.42C135.58,199.71,142.56,201.79,146.48,198.74Z" transform="translate(0 0)"/></g></g><g id="layer1-1-4-8"><g id="cl-9-8"><path d="M62.37,29.9s6-4.77,6-11.39A10.94,10.94,0,0,0,56.95,8.2,11,11,0,0,0,45.56,18.51c0,6.62,6,11.39,6,11.39-6.63-5.16-18.44-1.64-18.44,8.68A11,11,0,0,0,43.93,49.43c8,0,11.39-8.68,11.39-8.68s1,9.89-4.88,15.19h13c-5.89-5.29-4.88-15.19-4.88-15.19S62,49.43,70,49.43A11,11,0,0,0,80.82,38.58C80.82,28.26,69,24.74,62.37,29.9Z" transform="translate(0 0)"/></g></g><g id="layer1-1-4-8-0"><g id="cl-9-8-6"><path d="M51.57,212.24s-6,4.77-6,11.39A10.94,10.94,0,0,0,57,233.94a11,11,0,0,0,11.39-10.31c0-6.62-6-11.39-6-11.39,6.63,5.16,18.44,1.64,18.44-8.68A11,11,0,0,0,70,192.71c-8,0-11.39,8.68-11.39,8.68s-1-9.89,4.88-15.19h-13c5.89,5.29,4.88,15.19,4.88,15.19s-3.44-8.68-11.39-8.68a11,11,0,0,0-10.85,10.85C33.12,213.88,44.94,217.41,51.57,212.24Z" transform="translate(0 0)"/></g></g><g id="layer1-1-4-8-2"><g id="cl-9-8-0"><path d="M62.37,120.4s6-4.77,6-11.39A10.94,10.94,0,0,0,56.95,98.7,11,11,0,0,0,45.56,109c0,6.62,6,11.39,6,11.39-6.63-5.16-18.44-1.64-18.44,8.68a11,11,0,0,0,10.85,10.85c8,0,11.39-8.68,11.39-8.68s1,9.89-4.88,15.19h13c-5.89-5.29-4.88-15.19-4.88-15.19S62,139.93,70,139.93a11,11,0,0,0,10.85-10.85C80.82,118.76,69,115.24,62.37,120.4Z" transform="translate(0 0)"/></g></g><g id="layer1-1-4-8-8"><g id="cl-9-8-9"><path d="M115.16,29.73s6-4.77,6-11.39a11.45,11.45,0,0,0-22.78,0c0,6.62,6,11.39,6,11.39-6.63-5.16-18.44-1.64-18.44,8.68A11,11,0,0,0,96.71,49.26c8,0,11.39-8.68,11.39-8.68s1,9.89-4.88,15.19h13c-5.89-5.29-4.88-15.19-4.88-15.19s3.44,8.68,11.39,8.68A11,11,0,0,0,133.6,38.41C133.6,28.09,121.79,24.56,115.16,29.73Z" transform="translate(0 0)"/></g></g><g id="layer1-1-4-8-0-2"><g id="cl-9-8-6-6"><path d="M104.35,212.07s-6,4.77-6,11.39a11.45,11.45,0,0,0,22.78,0c0-6.62-6-11.39-6-11.39,6.63,5.16,18.44,1.64,18.44-8.68a11,11,0,0,0-10.85-10.85c-8,0-11.39,8.68-11.39,8.68s-1-9.89,4.88-15.19h-13c5.89,5.29,4.88,15.19,4.88,15.19s-3.44-8.68-11.39-8.68a11,11,0,0,0-10.85,10.85C85.91,213.71,97.73,217.23,104.35,212.07Z" transform="translate(0 0)"/></g></g><g id="layer1-1-4-8-2-6"><g id="cl-9-8-0-4"><path d="M115.16,120.23s6-4.77,6-11.39a11.45,11.45,0,0,0-22.78,0c0,6.62,6,11.39,6,11.39-6.63-5.16-18.44-1.64-18.44,8.68a11,11,0,0,0,10.85,10.85c8,0,11.39-8.68,11.39-8.68s1,9.89-4.88,15.19h13c-5.89-5.29-4.88-15.19-4.88-15.19s3.44,8.68,11.39,8.68a11,11,0,0,0,10.85-10.85C133.6,118.59,121.79,115.06,115.16,120.23Z" transform="translate(0 0)"/></g></g><g id="layer1-1-4-8-6"><g id="cl-9-8-8"><path d="M88.31,75.65s6-4.77,6-11.39A10.94,10.94,0,0,0,82.88,54,11,11,0,0,0,71.49,64.26c0,6.62,6,11.39,6,11.39C70.83,70.49,59,74,59,84.33A11,11,0,0,0,69.86,95.18c8,0,11.39-8.68,11.39-8.68s1,9.89-4.88,15.19h13C83.5,96.4,84.51,86.5,84.51,86.5s3.44,8.68,11.39,8.68a11,11,0,0,0,10.85-10.85C106.75,74,94.93,70.49,88.31,75.65Z" transform="translate(0 0)"/></g></g></svg>