<svg xmlns="http://www.w3.org/2000/svg" viewBox="0 0 166.48 233.07"><defs><style>.cls-1{fill:#fff;}.cls-2{fill:#65a7dd;}.cls-3{fill:#af0f07;}.cls-4{fill:#a43e32;}</style></defs><title>Asset 13</title><g id="Layer_2" data-name="Layer 2"><g id="Objects"><rect class="cls-1" x="0.12" y="0.11" width="166.25" height="232.84" rx="5.94" ry="5.94"/><path class="cls-2" d="M160.43,233.07H6.05A6.06,6.06,0,0,1,0,227V6.05A6.06,6.06,0,0,1,6.05,0H160.43a6.06,6.06,0,0,1,6.05,6.05V227A6.06,6.06,0,0,1,160.43,233.07ZM6.05.23A5.83,5.83,0,0,0,.23,6.05V227a5.83,5.83,0,0,0,5.82,5.82H160.43a5.83,5.83,0,0,0,5.82-5.82V6.05A5.83,5.83,0,0,0,160.43.23Z"/><circle class="cls-1" cx="148.53" cy="18.48" r="0.57"/><circle class="cls-1" cx="121.42" cy="18.48" r="0.57"/><circle class="cls-1" cx="96.48" cy="18.48" r="0.57"/><circle class="cls-1" cx="71.45" cy="18.66" r="0.57"/><circle class="cls-1" cx="148.53" cy="39.61" r="0.57"/><circle class="cls-1" cx="148.53" cy="58.9" r="0.57"/><circle class="cls-1" cx="148.53" cy="79.11" r="0.57"/><circle class="cls-1" cx="148.53" cy="91.89" r="0.57"/><circle class="cls-1" cx="148.53" cy="104.72" r="0.57"/><circle class="cls-1" cx="18.32" cy="19.04" r="0.57"/><circle class="cls-1" cx="45.74" cy="18.66" r="0.57"/><circle class="cls-1" cx="18.32" cy="39.16" r="0.57"/><circle class="cls-1" cx="18.32" cy="59.03" r="0.57"/><circle class="cls-1" cx="18.32" cy="78.97" r="0.57"/><circle class="cls-1" cx="18.32" cy="91.89" r="0.57"/><circle class="cls-1" cx="18.32" cy="105.29" r="0.57"/><circle class="cls-1" cx="18.32" cy="118.21" r="0.57"/><circle class="cls-1" cx="18.32" cy="131.13" r="0.57"/><circle class="cls-1" cx="18.32" cy="144.53" r="0.57"/><circle class="cls-1" cx="18.32" cy="157.95" r="0.57"/><circle class="cls-1" cx="18.32" cy="169.95" r="0.57"/><circle class="cls-1" cx="18.32" cy="183.35" r="0.57"/><circle class="cls-1" cx="18.32" cy="196.39" r="0.57"/><circle class="cls-1" cx="18.55" cy="215.57" r="0.57"/><circle class="cls-1" cx="39.07" cy="216.14" r="0.57"/><circle class="cls-1" cx="65.5" cy="216.14" r="0.57"/><circle class="cls-1" cx="91.89" cy="216.14" r="0.57"/><circle class="cls-1" cx="117.59" cy="216.14" r="0.57"/><circle class="cls-1" cx="148.53" cy="117.9" r="0.57"/><circle class="cls-1" cx="148.53" cy="130.22" r="0.57"/><circle class="cls-1" cx="148.53" cy="143.51" r="0.57"/><circle class="cls-1" cx="148.53" cy="156.61" r="0.57"/><circle class="cls-1" cx="148.53" cy="169.36" r="0.57"/><circle class="cls-1" cx="148.53" cy="181.94" r="0.57"/><circle class="cls-1" cx="148.53" cy="194.77" r="0.57"/><circle class="cls-1" cx="148.53" cy="214.34" r="0.57"/><polygon class="cls-3" points="16.26 28.37 11.54 33.58 15.74 39.31 20.59 34.05 16.26 28.37"/><polygon class="cls-3" points="148.63 193.14 143.9 198.36 148.11 204.08 152.95 198.83 148.63 193.14"/><path class="cls-4" d="M15.06,25.13a2.07,2.07,0,0,1-.42-1.36,5.67,5.67,0,0,1,.57-2.4,16.81,16.81,0,0,1,1.46-2.51l1.55-2.23a6.37,6.37,0,0,0,.71-1.29,3.24,3.24,0,0,0,.28-1.19.47.47,0,0,0-.15-.4.78.78,0,0,0-.46-.11h-4a1.46,1.46,0,0,0-1.1.34,1.87,1.87,0,0,0-.44,1l-.21,1.14h-.43l.27-4h7.45a10.38,10.38,0,0,1-.3,2.31,7.06,7.06,0,0,1-1,2.37L17.73,18.4a4.38,4.38,0,0,0-.8,2.52A7.94,7.94,0,0,0,17,22.37l.12.68a7,7,0,0,1,.16,1.36q0,1.22-1.14,1.22A1.37,1.37,0,0,1,15.06,25.13Z"/><path class="cls-4" d="M149.72,207.71a2.07,2.07,0,0,1,.42,1.36,5.66,5.66,0,0,1-.57,2.4A16.74,16.74,0,0,1,148.1,214l-1.55,2.23a6.4,6.4,0,0,0-.71,1.29,3.23,3.23,0,0,0-.28,1.19.46.46,0,0,0,.15.4.78.78,0,0,0,.46.11h4a1.46,1.46,0,0,0,1.1-.34,1.87,1.87,0,0,0,.44-1l.21-1.14h.43l-.27,4h-7.45a10.38,10.38,0,0,1,.3-2.31,7,7,0,0,1,1-2.37l1.11-1.67a4.38,4.38,0,0,0,.79-2.52,8,8,0,0,0-.12-1.45l-.12-.68a7,7,0,0,1-.15-1.36q0-1.22,1.14-1.22A1.37,1.37,0,0,1,149.72,207.71Z"/><polygon class="cls-3" points="50.25 23.55 36.96 39.7 50.25 56.11 63.89 39.83 50.25 23.55"/><polygon class="cls-3" points="82.58 56 69.29 72.14 82.58 88.55 96.22 72.27 82.58 56"/><polygon class="cls-3" points="50.25 173.12 36.96 189.27 50.25 205.68 63.89 189.4 50.25 173.12"/><polygon class="cls-3" points="50.25 98.34 36.96 114.49 50.25 130.89 63.89 114.61 50.25 98.34"/><polygon class="cls-3" points="114.91 23.55 101.61 39.7 114.91 56.11 128.54 39.83 114.91 23.55"/><polygon class="cls-3" points="114.91 173.12 101.61 189.27 114.91 205.68 128.54 189.4 114.91 173.12"/><polygon class="cls-3" points="114.91 98.34 101.61 114.49 114.91 130.89 128.54 114.61 114.91 98.34"/></g></g></svg>