<svg id="svg2" xmlns="http://www.w3.org/2000/svg" viewBox="0 0 167.09 242.67"><title>7-Diamonds</title><g id="Layer_1"><g id="path5"><path d="M166.84,235.55a6.89,6.89,0,0,1-6.87,6.87H7.11a6.88,6.88,0,0,1-6.86-6.87V7.12A6.89,6.89,0,0,1,7.11.25H160a6.89,6.89,0,0,1,6.87,6.87Z" transform="translate(0 0)" style="fill:#fff"/><path d="M160,242.67H7.11A7.12,7.12,0,0,1,0,235.55V7.12A7.12,7.12,0,0,1,7.11,0H160a7.13,7.13,0,0,1,7.12,7.12V235.55A7.13,7.13,0,0,1,160,242.67ZM7.11.5A6.62,6.62,0,0,0,.5,7.12V235.55a6.62,6.62,0,0,0,6.61,6.62H160a6.63,6.63,0,0,0,6.62-6.62V7.12A6.63,6.63,0,0,0,160,.5Z" transform="translate(0 0)"/></g></g><g id="text3788" style="isolation:isolate"><g style="isolation:isolate"><path d="M9.36,6.51V3.8H24.19V6a31.27,31.27,0,0,0-4.34,6.19,37.67,37.67,0,0,0-3.32,7.94,29.51,29.51,0,0,0-1.08,6.3H12.56a28.07,28.07,0,0,1,1.06-6.53,34.29,34.29,0,0,1,2.91-7.38,31.66,31.66,0,0,1,4-6Z" transform="translate(0 0)" style="fill:#df0000"/></g></g><g id="text3788-4" style="isolation:isolate"><g style="isolation:isolate"><path d="M158,236.62v2.7H143.14v-2.19a31.23,31.23,0,0,0,4.34-6.19A37.67,37.67,0,0,0,150.8,223a29.51,29.51,0,0,0,1.08-6.3h2.89a28,28,0,0,1-1.06,6.53,34.29,34.29,0,0,1-2.91,7.38,31.64,31.64,0,0,1-4,6Z" transform="translate(0 0)" style="fill:#df0000"/></g></g><g id="layer1-2-6"><g id="dl-6"><path d="M21.76,37.26A41.08,41.08,0,0,1,17,28.73a41.08,41.08,0,0,1-4.79,8.53,34.93,34.93,0,0,1-7,7,34.87,34.87,0,0,1,7,7A41.05,41.05,0,0,1,17,59.74a41.05,41.05,0,0,1,4.79-8.53,34.87,34.87,0,0,1,7-7A34.93,34.93,0,0,1,21.76,37.26Z" transform="translate(0 0)" style="fill:#df0000"/></g></g><g id="layer1-2-6-4"><g id="dl-6-9"><path d="M155.41,191.52a41.08,41.08,0,0,1-4.79-8.53,41.08,41.08,0,0,1-4.79,8.53,34.93,34.93,0,0,1-7,7,34.87,34.87,0,0,1,7,7,41.05,41.05,0,0,1,4.79,8.53,41.05,41.05,0,0,1,4.79-8.53,34.87,34.87,0,0,1,7-7A34.93,34.93,0,0,1,155.41,191.52Z" transform="translate(0 0)" style="fill:#df0000"/></g></g><g id="layer1-2-6-8"><g id="dl-6-8"><path d="M120.12,181.39a72,72,0,0,1-8.39-14.95,72,72,0,0,1-8.39,14.95A61.22,61.22,0,0,1,91,193.62a61.11,61.11,0,0,1,12.31,12.23,72,72,0,0,1,8.39,14.94,72,72,0,0,1,8.39-14.94,61.11,61.11,0,0,1,12.31-12.23A61.22,61.22,0,0,1,120.12,181.39Z" transform="translate(0 0)" style="fill:#df0000"/></g></g><g id="layer1-2-6-8-2"><g id="dl-6-8-6"><path d="M120.12,37A72,72,0,0,1,111.73,22,72,72,0,0,1,103.33,37,61.22,61.22,0,0,1,91,49.22a61.11,61.11,0,0,1,12.31,12.23,72,72,0,0,1,8.39,14.94,72,72,0,0,1,8.39-14.94,61.11,61.11,0,0,1,12.31-12.23A61.22,61.22,0,0,1,120.12,37Z" transform="translate(0 0)" style="fill:#df0000"/></g></g><g id="layer1-2-6-8-2-8"><g id="dl-6-8-6-8"><path d="M120.12,108.29a72,72,0,0,1-8.39-14.95,72,72,0,0,1-8.39,14.95A61.22,61.22,0,0,1,91,120.52a61.11,61.11,0,0,1,12.31,12.23,72,72,0,0,1,8.39,14.94,72,72,0,0,1,8.39-14.94,61.11,61.11,0,0,1,12.31-12.23A61.22,61.22,0,0,1,120.12,108.29Z" transform="translate(0 0)" style="fill:#df0000"/></g></g><g id="layer1-2-6-8-8"><g id="dl-6-8-8"><path d="M62.81,181.51a72,72,0,0,1-8.39-14.95A72,72,0,0,1,46,181.51a61.22,61.22,0,0,1-12.31,12.23A61.11,61.11,0,0,1,46,206a72,72,0,0,1,8.39,14.94A72,72,0,0,1,62.81,206a61.11,61.11,0,0,1,12.31-12.23A61.22,61.22,0,0,1,62.81,181.51Z" transform="translate(0 0)" style="fill:#df0000"/></g></g><g id="layer1-2-6-8-2-4"><g id="dl-6-8-6-3"><path d="M62.81,37.11a72,72,0,0,1-8.39-14.95A72,72,0,0,1,46,37.11,61.22,61.22,0,0,1,33.71,49.34,61.11,61.11,0,0,1,46,61.57a72,72,0,0,1,8.39,14.94,72,72,0,0,1,8.39-14.94A61.11,61.11,0,0,1,75.12,49.34,61.22,61.22,0,0,1,62.81,37.11Z" transform="translate(0 0)" style="fill:#df0000"/></g></g><g id="layer1-2-6-8-2-8-1"><g id="dl-6-8-6-8-4"><path d="M62.81,108.41a72,72,0,0,1-8.39-14.95A72,72,0,0,1,46,108.41a61.22,61.22,0,0,1-12.31,12.23A61.11,61.11,0,0,1,46,132.87a72,72,0,0,1,8.39,14.94,72,72,0,0,1,8.39-14.94,61.11,61.11,0,0,1,12.31-12.23A61.22,61.22,0,0,1,62.81,108.41Z" transform="translate(0 0)" style="fill:#df0000"/></g></g><g id="layer1-2-6-8-2-4-8"><g id="dl-6-8-6-3-8"><path d="M91.61,73.31a72,72,0,0,1-8.39-14.95,72,72,0,0,1-8.39,14.95A61.22,61.22,0,0,1,62.51,85.54,61.11,61.11,0,0,1,74.82,97.77a72,72,0,0,1,8.39,14.94,72,72,0,0,1,8.39-14.94,61.11,61.11,0,0,1,12.31-12.23A61.22,61.22,0,0,1,91.61,73.31Z" transform="translate(0 0)" style="fill:#df0000"/></g></g></svg>