<svg id="svg2" xmlns="http://www.w3.org/2000/svg" viewBox="0 0 167.2 242.7"><title>7-Hearts</title><g id="Layer_1"><g id="path5"><path d="M166.8,235.5a6.91,6.91,0,0,1-6.9,6.9H7.1a6.91,6.91,0,0,1-6.9-6.9V7.1A6.91,6.91,0,0,1,7.1.2H160a6.91,6.91,0,0,1,6.9,6.9V235.5Z" transform="translate(0.05 0.05)" style="fill:#fff;stroke:#000;stroke-width:0.5px"/></g></g><g style="isolation:isolate"><path d="M10.3,8.1V5.4H25.1V7.6a29.06,29.06,0,0,0-4.3,6.2,41.36,41.36,0,0,0-3.3,7.9A29.5,29.5,0,0,0,16.4,28H13.5a25.16,25.16,0,0,1,1.1-6.5,33.46,33.46,0,0,1,2.9-7.4,32.86,32.86,0,0,1,4-6Z" transform="translate(0.05 0.05)" style="fill:#df0000"/></g><g id="layer1-9-6"><g id="hl-8"><path d="M23.37,32.28c-5.53,0-6.19,5.48-6.19,5.48s-.67-5.48-6.19-5.48a6.9,6.9,0,0,0-7.2,7.05c0,6.11,11.05,12.22,13.39,21.15,2.34-8.93,13.39-15,13.39-21.15A6.9,6.9,0,0,0,23.37,32.28Z" transform="translate(0.05 0.05)" style="fill:#df0000"/></g></g><g style="isolation:isolate"><path d="M157.3,233.4v2.7H142.5v-2.2a29.06,29.06,0,0,0,4.3-6.2,41.37,41.37,0,0,0,3.3-7.9,29.5,29.5,0,0,0,1.1-6.3h2.9A25.16,25.16,0,0,1,153,220a33.46,33.46,0,0,1-2.9,7.4,32.86,32.86,0,0,1-4,6Z" transform="translate(0.05 0.05)" style="fill:#df0000"/></g><g id="layer1-9-6-5"><g id="hl-8-1"><path d="M144,209.25c5.53,0,6.19-5.48,6.19-5.48s.67,5.48,6.19,5.48a6.9,6.9,0,0,0,7.2-7.05c0-6.11-11.05-12.22-13.39-21.15-2.34,8.93-13.39,15-13.39,21.15A6.9,6.9,0,0,0,144,209.25Z" transform="translate(0.05 0.05)" style="fill:#df0000"/></g></g><g id="layer1-9-6-8"><g id="hl-8-8"><path d="M64.79,8.2c-9.17,0-10.28,9.1-10.28,9.1S53.4,8.2,44.23,8.2c-6.11,0-11.95,4.16-11.95,11.7C32.28,30,50.62,40.19,54.51,55,58.4,40.19,76.74,30,76.74,19.9,76.74,12.36,70.91,8.2,64.79,8.2Z" transform="translate(0.05 0.05)" style="fill:#df0000"/></g></g><g id="layer1-9-6-8-9"><g id="hl-8-8-5"><path d="M44.23,231.41c9.17,0,10.28-9.1,10.28-9.1s1.11,9.1,10.28,9.1c6.11,0,11.95-4.16,11.95-11.7,0-10.14-18.34-20.29-22.23-35.11-3.89,14.83-22.23,25-22.23,35.11C32.28,227.25,38.12,231.41,44.23,231.41Z" transform="translate(0.05 0.05)" style="fill:#df0000"/></g></g><g id="layer1-9-6-8-8"><g id="hl-8-8-8"><path d="M64.79,101.9c-9.17,0-10.28,9.1-10.28,9.1s-1.11-9.1-10.28-9.1c-6.11,0-11.95,4.16-11.95,11.7,0,10.14,18.34,20.29,22.23,35.11,3.89-14.83,22.23-25,22.23-35.11C76.74,106.06,70.91,101.9,64.79,101.9Z" transform="translate(0.05 0.05)" style="fill:#df0000"/></g></g><g id="layer1-9-6-8-88"><g id="hl-8-8-4"><path d="M122.53,7.86c-9.17,0-10.28,9.1-10.28,9.1s-1.11-9.1-10.28-9.1C95.85,7.86,90,12,90,19.57c0,10.14,18.34,20.29,22.23,35.11,3.89-14.83,22.23-25,22.23-35.11C134.48,12,128.65,7.86,122.53,7.86Z" transform="translate(0.05 0.05)" style="fill:#df0000"/></g></g><g id="layer1-9-6-8-9-3"><g id="hl-8-8-5-1"><path d="M102,232.68c9.17,0,10.28-9.1,10.28-9.1s1.11,9.1,10.28,9.1c6.11,0,11.95-4.16,11.95-11.7,0-10.14-18.34-20.29-22.23-35.11C108.36,200.69,90,210.84,90,221,90,228.52,95.85,232.68,102,232.68Z" transform="translate(0.05 0.05)" style="fill:#df0000"/></g></g><g id="layer1-9-6-8-8-4"><g id="hl-8-8-8-9"><path d="M122.53,101.57c-9.17,0-10.28,9.1-10.28,9.1s-1.11-9.1-10.28-9.1c-6.11,0-11.95,4.16-11.95,11.7,0,10.14,18.34,20.29,22.23,35.11,3.89-14.83,22.23-25,22.23-35.11C134.48,105.73,128.65,101.57,122.53,101.57Z" transform="translate(0.05 0.05)" style="fill:#df0000"/></g></g><g id="layer1-9-6-8-884"><g id="hl-8-8-3"><path d="M94,53.3c-9.17,0-10.28,9.1-10.28,9.1s-1.11-9.1-10.28-9.1c-6.11,0-11.95,4.16-11.95,11.7,0,10.14,18.34,20.29,22.23,35.11,3.89-14.83,22.23-25,22.23-35.11C105.91,57.46,100.07,53.3,94,53.3Z" transform="translate(0.05 0.05)" style="fill:#df0000"/></g></g></svg>