<svg xmlns="http://www.w3.org/2000/svg" viewBox="0 0 166.59 233.13"><defs><style>.cls-1{fill:#fff;}.cls-2{fill:#65a7dd;}.cls-3{fill:#a43e32;}.cls-4{fill:#af0f07;}</style></defs><title>Asset 57</title><g id="Layer_2" data-name="Layer 2"><g id="Objects"><rect class="cls-1" x="0.12" y="0.12" width="166.36" height="232.9" rx="5.94" ry="5.94"/><path class="cls-2" d="M160.53,233.13H6.06A6.06,6.06,0,0,1,0,227.08V6.06A6.06,6.06,0,0,1,6.06,0H160.53a6.06,6.06,0,0,1,6.06,6.06v221A6.06,6.06,0,0,1,160.53,233.13ZM6.06.23A5.83,5.83,0,0,0,.23,6.06v221a5.83,5.83,0,0,0,5.82,5.82H160.53a5.83,5.83,0,0,0,5.82-5.82V6.06A5.83,5.83,0,0,0,160.53.23Z"/><circle class="cls-1" cx="148.63" cy="18.48" r="0.57"/><circle class="cls-1" cx="121.5" cy="18.48" r="0.57"/><circle class="cls-1" cx="96.54" cy="18.48" r="0.57"/><circle class="cls-1" cx="71.49" cy="18.66" r="0.57"/><circle class="cls-1" cx="148.63" cy="39.62" r="0.57"/><circle class="cls-1" cx="148.63" cy="58.91" r="0.57"/><circle class="cls-1" cx="148.63" cy="79.13" r="0.57"/><circle class="cls-1" cx="148.63" cy="91.91" r="0.57"/><circle class="cls-1" cx="148.63" cy="104.74" r="0.57"/><circle class="cls-1" cx="18.33" cy="19.05" r="0.57"/><circle class="cls-1" cx="45.77" cy="18.66" r="0.57"/><circle class="cls-1" cx="18.33" cy="39.17" r="0.57"/><circle class="cls-1" cx="18.33" cy="59.05" r="0.57"/><circle class="cls-1" cx="18.33" cy="78.99" r="0.57"/><circle class="cls-1" cx="18.33" cy="91.91" r="0.57"/><circle class="cls-1" cx="18.33" cy="105.31" r="0.57"/><circle class="cls-1" cx="18.33" cy="118.24" r="0.57"/><circle class="cls-1" cx="18.33" cy="131.17" r="0.57"/><circle class="cls-1" cx="18.33" cy="144.57" r="0.57"/><circle class="cls-1" cx="18.33" cy="158" r="0.57"/><circle class="cls-1" cx="18.33" cy="170" r="0.57"/><circle class="cls-1" cx="18.33" cy="183.39" r="0.57"/><circle class="cls-1" cx="18.33" cy="196.44" r="0.57"/><circle class="cls-1" cx="18.56" cy="215.63" r="0.57"/><circle class="cls-1" cx="39.09" cy="216.2" r="0.57"/><circle class="cls-1" cx="65.54" cy="216.2" r="0.57"/><circle class="cls-1" cx="91.94" cy="216.2" r="0.57"/><circle class="cls-1" cx="117.67" cy="216.2" r="0.57"/><circle class="cls-1" cx="148.63" cy="117.93" r="0.57"/><circle class="cls-1" cx="148.63" cy="130.26" r="0.57"/><circle class="cls-1" cx="148.63" cy="143.55" r="0.57"/><circle class="cls-1" cx="148.63" cy="156.65" r="0.57"/><circle class="cls-1" cx="148.63" cy="169.41" r="0.57"/><circle class="cls-1" cx="148.63" cy="181.98" r="0.57"/><circle class="cls-1" cx="148.63" cy="194.82" r="0.57"/><circle class="cls-1" cx="148.63" cy="214.39" r="0.57"/><path class="cls-3" d="M15.53,28.63a2.07,2.07,0,0,1-.42-1.36,5.67,5.67,0,0,1,.57-2.4,16.72,16.72,0,0,1,1.47-2.51l1.55-2.23a6.42,6.42,0,0,0,.71-1.29,3.24,3.24,0,0,0,.28-1.19.46.46,0,0,0-.15-.4.77.77,0,0,0-.46-.11h-4a1.46,1.46,0,0,0-1.1.34,1.87,1.87,0,0,0-.44,1l-.21,1.15H12.9l.27-4h7.45a10.39,10.39,0,0,1-.3,2.31,7.06,7.06,0,0,1-1,2.37L18.2,21.89a4.38,4.38,0,0,0-.8,2.52,8,8,0,0,0,.12,1.46l.12.68a7,7,0,0,1,.16,1.36q0,1.22-1.14,1.22A1.38,1.38,0,0,1,15.53,28.63Z"/><path class="cls-3" d="M150.28,211.25a2.07,2.07,0,0,1,.42,1.36,5.67,5.67,0,0,1-.57,2.4,16.77,16.77,0,0,1-1.47,2.51l-1.55,2.23a6.4,6.4,0,0,0-.71,1.29,3.24,3.24,0,0,0-.28,1.19.46.46,0,0,0,.15.4.77.77,0,0,0,.46.11h4a1.46,1.46,0,0,0,1.1-.34,1.86,1.86,0,0,0,.44-1l.21-1.14h.43l-.27,4h-7.45a10.38,10.38,0,0,1,.3-2.31,7.06,7.06,0,0,1,1-2.37l1.11-1.67a4.38,4.38,0,0,0,.8-2.52,8,8,0,0,0-.12-1.46l-.12-.68A7,7,0,0,1,148,212q0-1.22,1.14-1.22A1.38,1.38,0,0,1,150.28,211.25Z"/><path class="cls-4" d="M19.7,34.67a2.26,2.26,0,0,0-2.44,2.1,2.26,2.26,0,0,0-2.44-2.1c-2.5.06-2.83,2.86-2,4.28a13.08,13.08,0,0,0,2.2,2.77,21.07,21.07,0,0,1,2.17,2.4s0,.07,0,.05,0-.05,0-.05a21.07,21.07,0,0,1,2.17-2.4A13.08,13.08,0,0,0,21.65,39C22.53,37.54,22.2,34.73,19.7,34.67Z"/><path class="cls-4" d="M150.93,206.83a2.26,2.26,0,0,1-2.44-2.11,2.26,2.26,0,0,1-2.44,2.11c-2.5-.06-2.83-2.86-2-4.28a13.07,13.07,0,0,1,2.2-2.77,21.08,21.08,0,0,0,2.17-2.4s0-.07,0-.05,0,.05,0,.05a21.08,21.08,0,0,0,2.17,2.4,13.07,13.07,0,0,1,2.2,2.77C153.77,204,153.43,206.77,150.93,206.83Z"/><path class="cls-4" d="M64.18,28.65c-5.48-.13-6.74,4.05-7,6.07-.29-2-1.55-6.2-7-6.07-7.21.17-8.16,8.25-5.65,12.33a37.69,37.69,0,0,0,6.34,8c2.37,2.45,5.21,5.22,6.25,6.91,0,0,.06.2.09.14s.09-.14.09-.14c1-1.69,3.88-4.45,6.25-6.91a37.69,37.69,0,0,0,6.34-8C72.34,36.9,71.39,28.83,64.18,28.65Z"/><path class="cls-4" d="M64.18,104.45c-5.48-.13-6.74,4.05-7,6.07-.29-2-1.55-6.2-7-6.07-7.21.17-8.16,8.25-5.65,12.33a37.7,37.7,0,0,0,6.34,8c2.37,2.45,5.21,5.22,6.25,6.91,0,0,.06.2.09.14s.09-.14.09-.14c1-1.69,3.88-4.45,6.25-6.91a37.7,37.7,0,0,0,6.34-8C72.34,112.7,71.39,104.62,64.18,104.45Z"/><path class="cls-4" d="M64.18,207.63c-5.48.13-6.74-4.05-7-6.07-.29,2-1.55,6.2-7,6.07-7.21-.17-8.16-8.25-5.65-12.33a37.7,37.7,0,0,1,6.34-8c2.37-2.45,5.21-5.22,6.25-6.91,0,0,.06-.2.09-.14s.09.14.09.14c1,1.69,3.88,4.45,6.25,6.91a37.7,37.7,0,0,1,6.34,8C72.34,199.37,71.39,207.45,64.18,207.63Z"/><path class="cls-4" d="M116.86,28.65c-5.48-.13-6.74,4.05-7,6.07-.29-2-1.55-6.2-7-6.07-7.21.17-8.16,8.25-5.65,12.33a37.69,37.69,0,0,0,6.34,8c2.37,2.45,5.21,5.22,6.25,6.91,0,0,.06.2.09.14s.09-.14.09-.14c1-1.69,3.88-4.45,6.25-6.91a37.69,37.69,0,0,0,6.34-8C125,36.9,124.07,28.83,116.86,28.65Z"/><path class="cls-4" d="M116.86,104.45c-5.48-.13-6.74,4.05-7,6.07-.29-2-1.55-6.2-7-6.07-7.21.17-8.16,8.25-5.65,12.33a37.7,37.7,0,0,0,6.34,8c2.37,2.45,5.21,5.22,6.25,6.91,0,0,.06.2.09.14s.09-.14.09-.14c1-1.69,3.88-4.45,6.25-6.91a37.69,37.69,0,0,0,6.34-8C125,112.7,124.07,104.62,116.86,104.45Z"/><path class="cls-4" d="M116.86,207.63c-5.48.13-6.74-4.05-7-6.07-.29,2-1.55,6.2-7,6.07-7.21-.17-8.16-8.25-5.65-12.33a37.7,37.7,0,0,1,6.34-8c2.37-2.45,5.21-5.22,6.25-6.91,0,0,.06-.2.09-.14s.09.14.09.14c1,1.69,3.88,4.45,6.25,6.91a37.69,37.69,0,0,1,6.34,8C125,199.37,124.07,207.45,116.86,207.63Z"/><path class="cls-4" d="M90.06,67.47c-5.48-.13-6.74,4.05-7,6.07-.29-2-1.55-6.2-7-6.07-7.21.17-8.16,8.25-5.65,12.33a37.69,37.69,0,0,0,6.34,8c2.37,2.45,5.21,5.22,6.25,6.91,0,0,.06.2.09.14s.09-.14.09-.14c1-1.69,3.88-4.45,6.25-6.91a37.69,37.69,0,0,0,6.34-8C98.22,75.73,97.27,67.65,90.06,67.47Z"/></g></g></svg>