<svg xmlns="http://www.w3.org/2000/svg" viewBox="0 0 166.59 233.13"><defs><style>.cls-1{fill:#fff;}.cls-2{fill:#65a7dd;}.cls-3{fill:#151515;}</style></defs><title>Asset 36</title><g id="Layer_2" data-name="Layer 2"><g id="Objects"><rect class="cls-1" x="0.12" y="0.12" width="166.36" height="232.9" rx="5.94" ry="5.94"/><path class="cls-2" d="M160.53,233.13H6.06A6.06,6.06,0,0,1,0,227.08V6.06A6.06,6.06,0,0,1,6.06,0H160.53a6.06,6.06,0,0,1,6.06,6.06v221A6.06,6.06,0,0,1,160.53,233.13ZM6.06.23A5.83,5.83,0,0,0,.23,6.06v221a5.83,5.83,0,0,0,5.82,5.82H160.53a5.83,5.83,0,0,0,5.82-5.82V6.06A5.83,5.83,0,0,0,160.53.23Z"/><circle class="cls-1" cx="148.63" cy="18.48" r="0.57"/><circle class="cls-1" cx="121.5" cy="18.48" r="0.57"/><circle class="cls-1" cx="96.54" cy="18.48" r="0.57"/><circle class="cls-1" cx="71.49" cy="18.66" r="0.57"/><circle class="cls-1" cx="148.63" cy="39.62" r="0.57"/><circle class="cls-1" cx="148.63" cy="58.91" r="0.57"/><circle class="cls-1" cx="148.63" cy="79.13" r="0.57"/><circle class="cls-1" cx="148.63" cy="91.91" r="0.57"/><circle class="cls-1" cx="148.63" cy="104.74" r="0.57"/><circle class="cls-1" cx="18.33" cy="19.05" r="0.57"/><circle class="cls-1" cx="45.77" cy="18.66" r="0.57"/><circle class="cls-1" cx="18.33" cy="39.17" r="0.57"/><circle class="cls-1" cx="18.33" cy="59.05" r="0.57"/><circle class="cls-1" cx="18.33" cy="78.99" r="0.57"/><circle class="cls-1" cx="18.33" cy="91.91" r="0.57"/><circle class="cls-1" cx="18.33" cy="105.31" r="0.57"/><circle class="cls-1" cx="18.33" cy="118.24" r="0.57"/><circle class="cls-1" cx="18.33" cy="131.17" r="0.57"/><circle class="cls-1" cx="18.33" cy="144.57" r="0.57"/><circle class="cls-1" cx="18.33" cy="158" r="0.57"/><circle class="cls-1" cx="18.33" cy="170" r="0.57"/><circle class="cls-1" cx="18.33" cy="183.39" r="0.57"/><circle class="cls-1" cx="18.33" cy="196.44" r="0.57"/><circle class="cls-1" cx="18.56" cy="215.63" r="0.57"/><circle class="cls-1" cx="39.09" cy="216.19" r="0.57"/><circle class="cls-1" cx="65.54" cy="216.19" r="0.57"/><circle class="cls-1" cx="91.94" cy="216.19" r="0.57"/><circle class="cls-1" cx="117.67" cy="216.19" r="0.57"/><circle class="cls-1" cx="148.63" cy="117.93" r="0.57"/><circle class="cls-1" cx="148.63" cy="130.26" r="0.57"/><circle class="cls-1" cx="148.63" cy="143.55" r="0.57"/><circle class="cls-1" cx="148.63" cy="156.65" r="0.57"/><circle class="cls-1" cx="148.63" cy="169.41" r="0.57"/><circle class="cls-1" cx="148.63" cy="181.98" r="0.57"/><circle class="cls-1" cx="148.63" cy="194.82" r="0.57"/><circle class="cls-1" cx="148.63" cy="214.39" r="0.57"/><path d="M15.91,22.75a2.06,2.06,0,0,1-.42-1.36,5.67,5.67,0,0,1,.57-2.4,16.81,16.81,0,0,1,1.47-2.51l1.55-2.23A6.42,6.42,0,0,0,19.79,13a3.24,3.24,0,0,0,.28-1.19.46.46,0,0,0-.15-.4.77.77,0,0,0-.46-.11h-4a1.47,1.47,0,0,0-1.1.34,1.87,1.87,0,0,0-.44,1L13.7,13.7h-.43l.27-4H21A10.39,10.39,0,0,1,20.7,12a7.07,7.07,0,0,1-1,2.37L18.58,16a4.38,4.38,0,0,0-.8,2.52A8,8,0,0,0,17.9,20l.12.68A7,7,0,0,1,18.17,22q0,1.22-1.14,1.22A1.37,1.37,0,0,1,15.91,22.75Z"/><path d="M150.65,205.37a2.07,2.07,0,0,1,.42,1.36,5.67,5.67,0,0,1-.57,2.4,16.77,16.77,0,0,1-1.47,2.51l-1.55,2.23a6.4,6.4,0,0,0-.71,1.29,3.24,3.24,0,0,0-.28,1.19.46.46,0,0,0,.15.4.77.77,0,0,0,.46.11h4a1.46,1.46,0,0,0,1.1-.34,1.86,1.86,0,0,0,.44-1l.21-1.14h.43l-.27,4h-7.45a10.39,10.39,0,0,1,.3-2.31,7.06,7.06,0,0,1,1-2.37l1.11-1.67a4.38,4.38,0,0,0,.8-2.52,8,8,0,0,0-.12-1.46l-.12-.68a7,7,0,0,1-.16-1.36q0-1.22,1.14-1.22A1.38,1.38,0,0,1,150.65,205.37Z"/><path class="cls-3" d="M96.26,73.22c-3.68-4-7.95-7.92-9.73-10-1.34-1.54-2.29-2.71-2.68-3.2V59.8l-.1.13-.1-.13v.25c-.39.49-1.34,1.66-2.68,3.2-1.79,2.05-6.06,6-9.73,10a12.19,12.19,0,0,0-3.28,11.34c.7,3.32,4.17,6.45,9.64,5.77a6.09,6.09,0,0,0,3.88-2.06,12.7,12.7,0,0,1-3.16,7.15H88.9A13.56,13.56,0,0,1,86,88.29a6.09,6.09,0,0,0,3.86,2c5.46.68,8.94-2.44,9.64-5.77A12.19,12.19,0,0,0,96.26,73.22Z"/><path class="cls-3" d="M66.68,35.17c-3.68-4-7.95-7.92-9.73-10-1.34-1.54-2.29-2.71-2.68-3.2v-.25l-.1.13-.1-.13V22c-.39.49-1.34,1.66-2.68,3.2-1.79,2.05-6.06,6-9.73,10a12.19,12.19,0,0,0-3.28,11.34c.7,3.32,4.17,6.45,9.64,5.77a6.09,6.09,0,0,0,3.88-2.06,12.7,12.7,0,0,1-3.16,7.15h10.6a13.56,13.56,0,0,1-2.87-7.13,6.09,6.09,0,0,0,3.86,2c5.46.68,8.94-2.44,9.64-5.77A12.19,12.19,0,0,0,66.68,35.17Z"/><path class="cls-3" d="M66.68,111.75c-3.68-4-7.95-7.92-9.73-10-1.34-1.54-2.29-2.71-2.68-3.2v-.25l-.1.13-.1-.13v.25c-.39.49-1.34,1.66-2.68,3.2-1.79,2.05-6.06,6-9.73,10a12.19,12.19,0,0,0-3.28,11.34c.7,3.32,4.17,6.45,9.64,5.77a6.09,6.09,0,0,0,3.88-2.06,12.7,12.7,0,0,1-3.16,7.15h10.6a13.56,13.56,0,0,1-2.87-7.13,6.09,6.09,0,0,0,3.86,2c5.46.68,8.94-2.44,9.64-5.77A12.19,12.19,0,0,0,66.68,111.75Z"/><path class="cls-3" d="M66.68,194.59c-3.68,4-7.95,7.92-9.73,10-1.34,1.54-2.29,2.71-2.68,3.2V208l-.1-.13-.1.13v-.25c-.39-.49-1.34-1.66-2.68-3.2-1.79-2.05-6.06-6-9.73-10a12.19,12.19,0,0,1-3.28-11.34c.7-3.32,4.17-6.45,9.64-5.77a6.09,6.09,0,0,1,3.88,2.06,12.7,12.7,0,0,0-3.16-7.15h10.6a13.56,13.56,0,0,0-2.87,7.13,6.09,6.09,0,0,1,3.86-2c5.46-.68,8.94,2.44,9.64,5.77A12.19,12.19,0,0,1,66.68,194.59Z"/><path class="cls-3" d="M126.75,35.17c-3.68-4-7.95-7.92-9.73-10-1.34-1.54-2.29-2.71-2.68-3.2v-.25l-.1.13-.1-.13V22c-.39.49-1.34,1.66-2.68,3.2-1.79,2.05-6.06,6-9.73,10a12.19,12.19,0,0,0-3.28,11.34c.7,3.32,4.17,6.45,9.64,5.77A6.09,6.09,0,0,0,112,50.21a12.7,12.7,0,0,1-3.16,7.15h10.6a13.56,13.56,0,0,1-2.87-7.13,6.09,6.09,0,0,0,3.86,2c5.46.68,8.94-2.44,9.64-5.77A12.19,12.19,0,0,0,126.75,35.17Z"/><path class="cls-3" d="M126.75,111.75c-3.68-4-7.95-7.92-9.73-10-1.34-1.54-2.29-2.71-2.68-3.2v-.25l-.1.13-.1-.13v.25c-.39.49-1.34,1.66-2.68,3.2-1.79,2.05-6.06,6-9.73,10a12.19,12.19,0,0,0-3.28,11.34c.7,3.32,4.17,6.45,9.64,5.77a6.09,6.09,0,0,0,3.88-2.06,12.7,12.7,0,0,1-3.16,7.15h10.6a13.56,13.56,0,0,1-2.87-7.13,6.09,6.09,0,0,0,3.86,2c5.46.68,8.94-2.44,9.64-5.77A12.19,12.19,0,0,0,126.75,111.75Z"/><path class="cls-3" d="M126.75,194.59c-3.68,4-7.95,7.92-9.73,10-1.34,1.54-2.29,2.71-2.68,3.2V208l-.1-.13-.1.13v-.25c-.39-.49-1.34-1.66-2.68-3.2-1.79-2.05-6.06-6-9.73-10a12.19,12.19,0,0,1-3.28-11.34c.7-3.32,4.17-6.45,9.64-5.77a6.09,6.09,0,0,1,3.88,2.06,12.7,12.7,0,0,0-3.16-7.15h10.6a13.56,13.56,0,0,0-2.87,7.13,6.09,6.09,0,0,1,3.86-2c5.46-.68,8.94,2.44,9.64,5.77A12.19,12.19,0,0,1,126.75,194.59Z"/><path class="cls-3" d="M152.11,197c-1.07,1.17-2.32,2.31-2.84,2.91s-.67.79-.78.93v.07l0,0,0,0v-.07c-.11-.14-.39-.48-.78-.93s-1.77-1.74-2.84-2.91a3.56,3.56,0,0,1-1-3.31,2.38,2.38,0,0,1,2.81-1.68,1.78,1.78,0,0,1,1.13.6,3.7,3.7,0,0,0-.92-2.09H150a4,4,0,0,0-.84,2.08,1.78,1.78,0,0,1,1.13-.59,2.38,2.38,0,0,1,2.81,1.68A3.56,3.56,0,0,1,152.11,197Z"/><path class="cls-3" d="M21.8,30.87C20.73,29.7,19.48,28.56,19,28s-.67-.79-.78-.93V27l0,0,0,0V27c-.11.14-.39.48-.78.93s-1.77,1.74-2.84,2.91a3.56,3.56,0,0,0-1,3.31,2.38,2.38,0,0,0,2.81,1.68,1.78,1.78,0,0,0,1.13-.6,3.7,3.7,0,0,1-.92,2.09h3.09a4,4,0,0,1-.84-2.08,1.78,1.78,0,0,0,1.13.59,2.38,2.38,0,0,0,2.81-1.68A3.56,3.56,0,0,0,21.8,30.87Z"/></g></g></svg>