<svg xmlns="http://www.w3.org/2000/svg" viewBox="0 0 166.59 233.13"><defs><style>.cls-1{fill:#fff;}.cls-2{fill:#65a7dd;}.cls-3{fill:#151515;}</style></defs><title>Asset 48</title><g id="Layer_2" data-name="Layer 2"><g id="Objects"><rect class="cls-1" x="0.12" y="0.12" width="166.36" height="232.9" rx="5.94" ry="5.94"/><path class="cls-2" d="M160.53,233.13H6.06A6.06,6.06,0,0,1,0,227.08V6.06A6.06,6.06,0,0,1,6.06,0H160.53a6.06,6.06,0,0,1,6.06,6.06v221A6.06,6.06,0,0,1,160.53,233.13ZM6.06.23A5.83,5.83,0,0,0,.23,6.06v221a5.83,5.83,0,0,0,5.83,5.82H160.53a5.83,5.83,0,0,0,5.82-5.82V6.06A5.83,5.83,0,0,0,160.53.23Z"/><circle class="cls-1" cx="148.63" cy="18.48" r="0.57"/><circle class="cls-1" cx="121.5" cy="18.48" r="0.57"/><circle class="cls-1" cx="96.54" cy="18.48" r="0.57"/><circle class="cls-1" cx="71.49" cy="18.66" r="0.57"/><circle class="cls-1" cx="148.63" cy="39.62" r="0.57"/><circle class="cls-1" cx="148.63" cy="58.91" r="0.57"/><circle class="cls-1" cx="148.63" cy="79.13" r="0.57"/><circle class="cls-1" cx="148.63" cy="91.91" r="0.57"/><circle class="cls-1" cx="148.63" cy="104.74" r="0.57"/><circle class="cls-1" cx="18.33" cy="19.05" r="0.57"/><circle class="cls-1" cx="45.77" cy="18.66" r="0.57"/><circle class="cls-1" cx="18.33" cy="39.17" r="0.57"/><circle class="cls-1" cx="18.33" cy="59.05" r="0.57"/><circle class="cls-1" cx="18.33" cy="78.99" r="0.57"/><circle class="cls-1" cx="18.33" cy="91.91" r="0.57"/><circle class="cls-1" cx="18.33" cy="105.31" r="0.57"/><circle class="cls-1" cx="18.33" cy="118.24" r="0.57"/><circle class="cls-1" cx="18.33" cy="131.17" r="0.57"/><circle class="cls-1" cx="18.33" cy="144.57" r="0.57"/><circle class="cls-1" cx="18.33" cy="158" r="0.57"/><circle class="cls-1" cx="18.33" cy="170" r="0.57"/><circle class="cls-1" cx="18.33" cy="183.39" r="0.57"/><circle class="cls-1" cx="18.33" cy="196.44" r="0.57"/><circle class="cls-1" cx="18.56" cy="215.63" r="0.57"/><circle class="cls-1" cx="39.09" cy="216.19" r="0.57"/><circle class="cls-1" cx="65.54" cy="216.19" r="0.57"/><circle class="cls-1" cx="91.94" cy="216.19" r="0.57"/><circle class="cls-1" cx="117.67" cy="216.19" r="0.57"/><circle class="cls-1" cx="148.63" cy="117.93" r="0.57"/><circle class="cls-1" cx="148.63" cy="130.26" r="0.57"/><circle class="cls-1" cx="148.63" cy="143.55" r="0.57"/><circle class="cls-1" cx="148.63" cy="156.65" r="0.57"/><circle class="cls-1" cx="148.63" cy="169.41" r="0.57"/><circle class="cls-1" cx="148.63" cy="181.98" r="0.57"/><circle class="cls-1" cx="148.63" cy="194.82" r="0.57"/><circle class="cls-1" cx="148.63" cy="214.39" r="0.57"/><path class="cls-3" d="M24.12,34.09a2.45,2.45,0,0,0-2.62-.46A1.91,1.91,0,0,0,22.18,32s0-.05,0-.08a2.24,2.24,0,1,0-4.43.45,2,2,0,0,0,.68,1.25,2.45,2.45,0,0,0-2.62.46A2.34,2.34,0,0,0,15.62,37a2.08,2.08,0,0,0,2,1.09,2.52,2.52,0,0,0,1.87-.81,4.61,4.61,0,0,1-1,2.58H21.5a4.35,4.35,0,0,1-1-2.57,2.5,2.5,0,0,0,1.85.79,2.08,2.08,0,0,0,2-1.09A2.34,2.34,0,0,0,24.12,34.09Z"/><path d="M16.72,25.7a3.82,3.82,0,0,1-1.57-1.28,3.3,3.3,0,0,1-.59-2,3,3,0,0,1,.8-2.21,3.91,3.91,0,0,1,1.69-1v-.08l-.21-.1a3.34,3.34,0,0,1-1.57-1.26,3.48,3.48,0,0,1-.54-1.94A3,3,0,0,1,15.34,14a4.15,4.15,0,0,1,1.61-1.28,5.19,5.19,0,0,1,4.3,0A3.39,3.39,0,0,1,22.63,14a3.07,3.07,0,0,1,.47,1.62,2.67,2.67,0,0,1-.67,1.81,4.58,4.58,0,0,1-1.56,1.17v.08l.45.18a3.1,3.1,0,0,1,2.29,2.93,4.47,4.47,0,0,1-.55,2.2,4,4,0,0,1-1.63,1.59,5.27,5.27,0,0,1-2.57.59A5.06,5.06,0,0,1,16.72,25.7Zm4.09-.62a2.67,2.67,0,0,0,1-1.08,2.77,2.77,0,0,0,.3-1.19,2.34,2.34,0,0,0-.48-1.61,3.74,3.74,0,0,0-1.39-.89l-2.62-1a2.6,2.6,0,0,0-1.24,1,4,4,0,0,0-.45,2.1,2.73,2.73,0,0,0,.94,2.29,3.47,3.47,0,0,0,2.2.74A3.13,3.13,0,0,0,20.81,25.08Zm.7-7.78a3.43,3.43,0,0,0,.35-1.59,2.8,2.8,0,0,0-1.43-2.46A2.83,2.83,0,0,0,19,12.87a3.09,3.09,0,0,0-2,.68,2.22,2.22,0,0,0-.82,1.81,2,2,0,0,0,.4,1.3,3.1,3.1,0,0,0,1.25.83l2.5,1A2.8,2.8,0,0,0,21.51,17.3Z"/><path class="cls-3" d="M146.17,199.82a2.45,2.45,0,0,0,2.62.46,1.91,1.91,0,0,0-.68,1.63s0,.05,0,.08a2.24,2.24,0,1,0,4.43-.45,2,2,0,0,0-.68-1.25,2.45,2.45,0,0,0,2.62-.46,2.34,2.34,0,0,0,.19-2.91,2.08,2.08,0,0,0-2-1.09,2.52,2.52,0,0,0-1.87.81,4.61,4.61,0,0,1,1-2.58h-3.06a4.35,4.35,0,0,1,1,2.57,2.5,2.5,0,0,0-1.85-.79,2.08,2.08,0,0,0-2,1.09A2.34,2.34,0,0,0,146.17,199.82Z"/><path d="M153.56,208.22a3.82,3.82,0,0,1,1.57,1.28,3.3,3.3,0,0,1,.59,2,3,3,0,0,1-.8,2.21,3.9,3.9,0,0,1-1.69,1v.08l.21.1a3.33,3.33,0,0,1,1.57,1.26,3.48,3.48,0,0,1,.54,1.94,3,3,0,0,1-.62,1.83,4.16,4.16,0,0,1-1.61,1.28,5.19,5.19,0,0,1-4.3,0,3.39,3.39,0,0,1-1.39-1.24,3.07,3.07,0,0,1-.47-1.62,2.67,2.67,0,0,1,.67-1.81,4.58,4.58,0,0,1,1.56-1.17v-.08l-.45-.18a3.1,3.1,0,0,1-2.29-2.93,4.47,4.47,0,0,1,.55-2.2,4,4,0,0,1,1.63-1.59,5.26,5.26,0,0,1,2.57-.59A5.06,5.06,0,0,1,153.56,208.22Zm-4.09.62a2.68,2.68,0,0,0-1,1.08,2.77,2.77,0,0,0-.3,1.19,2.34,2.34,0,0,0,.48,1.61,3.73,3.73,0,0,0,1.39.89l2.62,1a2.59,2.59,0,0,0,1.24-1,4,4,0,0,0,.45-2.1,2.73,2.73,0,0,0-.94-2.29,3.47,3.47,0,0,0-2.2-.74A3.13,3.13,0,0,0,149.48,208.84Zm-.7,7.78a3.43,3.43,0,0,0-.35,1.59,2.77,2.77,0,0,0,.39,1.45,2.81,2.81,0,0,0,1,1,2.84,2.84,0,0,0,1.43.37,3.09,3.09,0,0,0,2-.68,2.22,2.22,0,0,0,.82-1.81,2,2,0,0,0-.4-1.3,3.1,3.1,0,0,0-1.25-.83l-2.5-1A2.8,2.8,0,0,0,148.78,216.62Z"/><path class="cls-3" d="M97.71,80c-3.58-3.91-9.07-1.59-9.07-1.59,1.54-1.64,2.56-2.95,2.37-5.64,0-.09,0-.18,0-.27a7.75,7.75,0,1,0-15.34,1.57c.18,1.86,1.1,3,2.36,4.34,0,0-5.5-2.32-9.07,1.59A8.09,8.09,0,0,0,68.31,90c1.13,1.52,2.81,4.08,6.79,3.79,3.52-.26,4-.86,6.46-2.79A16,16,0,0,1,78,100h10.6c-1.95-2-3.67-6.75-3.45-8.89,2.37,1.89,2.91,2.48,6.39,2.74,4,.3,5.66-2.26,6.79-3.79A8.09,8.09,0,0,0,97.71,80Z"/><path class="cls-3" d="M60.55,45c-3.58-3.91-9.07-1.59-9.07-1.59C53,41.81,54,40.5,53.84,37.81c0-.09,0-.18,0-.27a7.75,7.75,0,1,0-15.34,1.57c.18,1.86,1.1,3,2.36,4.34,0,0-5.5-2.32-9.07,1.59a8.09,8.09,0,0,0-.66,10.07c1.13,1.52,2.81,4.08,6.79,3.79,3.52-.26,4-.86,6.46-2.79A16,16,0,0,1,40.88,65h10.6c-1.95-2-3.67-6.75-3.45-8.89,2.37,1.89,2.91,2.48,6.39,2.74,4,.3,5.66-2.26,6.79-3.79A8.09,8.09,0,0,0,60.55,45Z"/><path class="cls-3" d="M60.55,115.07c-3.58-3.91-9.07-1.59-9.07-1.59,1.54-1.64,2.56-2.95,2.37-5.64,0-.09,0-.18,0-.27a7.75,7.75,0,1,0-15.34,1.57c.18,1.86,1.1,3,2.36,4.34,0,0-5.5-2.32-9.07,1.59a8.09,8.09,0,0,0-.66,10.07c1.13,1.52,2.81,4.08,6.79,3.79,3.52-.26,4-.86,6.46-2.79a16,16,0,0,1-3.51,8.94h10.6c-1.95-2-3.67-6.75-3.45-8.89,2.37,1.89,2.91,2.48,6.39,2.74,4,.3,5.66-2.26,6.79-3.79A8.09,8.09,0,0,0,60.55,115.07Z"/><path class="cls-3" d="M60.55,189.19c-3.58,3.91-9.07,1.59-9.07,1.59,1.54,1.64,2.56,2.95,2.37,5.64,0,.09,0,.18,0,.27a7.75,7.75,0,1,1-15.34-1.57c.18-1.86,1.1-3,2.36-4.34,0,0-5.5,2.32-9.07-1.59a8.09,8.09,0,0,1-.66-10.07c1.13-1.52,2.81-4.08,6.79-3.79,3.52.26,4,.86,6.46,2.79a16,16,0,0,0-3.51-8.94h10.6c-1.95,2-3.67,6.75-3.45,8.89,2.37-1.89,2.91-2.48,6.39-2.74,4-.3,5.66,2.26,6.79,3.79A8.09,8.09,0,0,1,60.55,189.19Z"/><path class="cls-3" d="M138.8,45c-3.58-3.91-9.07-1.59-9.07-1.59,1.54-1.64,2.56-2.95,2.37-5.64,0-.09,0-.18,0-.27a7.75,7.75,0,1,0-15.34,1.57c.18,1.86,1.1,3,2.36,4.34,0,0-5.5-2.32-9.07,1.59a8.09,8.09,0,0,0-.66,10.07c1.13,1.52,2.81,4.08,6.79,3.79,3.52-.26,4-.86,6.46-2.79A16,16,0,0,1,119.13,65h10.6c-1.95-2-3.67-6.75-3.45-8.89,2.37,1.89,2.91,2.48,6.39,2.74,4,.3,5.66-2.26,6.79-3.79A8.09,8.09,0,0,0,138.8,45Z"/><path class="cls-3" d="M138.8,115.07c-3.58-3.91-9.07-1.59-9.07-1.59,1.54-1.64,2.56-2.95,2.37-5.64,0-.09,0-.18,0-.27a7.75,7.75,0,1,0-15.34,1.57c.18,1.86,1.1,3,2.36,4.34,0,0-5.5-2.32-9.07,1.59a8.09,8.09,0,0,0-.66,10.07c1.13,1.52,2.81,4.08,6.79,3.79,3.52-.26,4-.86,6.46-2.79a16,16,0,0,1-3.51,8.94h10.6c-1.95-2-3.67-6.75-3.45-8.89,2.37,1.89,2.91,2.48,6.39,2.74,4,.3,5.66-2.26,6.79-3.79A8.09,8.09,0,0,0,138.8,115.07Z"/><path class="cls-3" d="M138.8,189.19c-3.58,3.91-9.07,1.59-9.07,1.59,1.54,1.64,2.56,2.95,2.37,5.64,0,.09,0,.18,0,.27a7.75,7.75,0,1,1-15.34-1.57c.18-1.86,1.1-3,2.36-4.34,0,0-5.5,2.32-9.07-1.59a8.09,8.09,0,0,1-.66-10.07c1.13-1.52,2.81-4.08,6.79-3.79,3.52.26,4,.86,6.46,2.79a16,16,0,0,0-3.51-8.94h10.6c-1.95,2-3.67,6.75-3.45,8.89,2.37-1.89,2.91-2.48,6.39-2.74,4-.3,5.66,2.26,6.79,3.79A8.09,8.09,0,0,1,138.8,189.19Z"/><path class="cls-3" d="M97.71,152.2c-3.58,3.91-9.07,1.59-9.07,1.59,1.54,1.64,2.56,2.95,2.37,5.64,0,.09,0,.18,0,.27a7.75,7.75,0,1,1-15.34-1.57c.18-1.86,1.1-3,2.36-4.34,0,0-5.5,2.32-9.07-1.59a8.09,8.09,0,0,1-.66-10.07c1.13-1.52,2.81-4.08,6.79-3.79,3.52.26,4,.86,6.46,2.79A16,16,0,0,0,78,132.2h10.6c-1.95,2-3.67,6.75-3.45,8.89,2.37-1.89,2.91-2.48,6.39-2.74,4-.3,5.66,2.26,6.79,3.79A8.09,8.09,0,0,1,97.71,152.2Z"/></g></g></svg>