<svg xmlns="http://www.w3.org/2000/svg" viewBox="0 0 166.48 233.07"><defs><style>.cls-1{fill:#fff;}.cls-2{fill:#65a7dd;}.cls-3{fill:#af0f07;}.cls-4{fill:#a43e32;}</style></defs><title>Asset 12</title><g id="Layer_2" data-name="Layer 2"><g id="Objects"><rect class="cls-1" x="0.11" y="0.11" width="166.25" height="232.84" rx="5.94" ry="5.94"/><path class="cls-2" d="M160.43,233.07H6.05A6.06,6.06,0,0,1,0,227V6.05A6.06,6.06,0,0,1,6.05,0H160.43a6.06,6.06,0,0,1,6.05,6.05V227A6.06,6.06,0,0,1,160.43,233.07ZM6.05.23A5.83,5.83,0,0,0,.23,6.05V227a5.83,5.83,0,0,0,5.82,5.82H160.43a5.83,5.83,0,0,0,5.82-5.82V6.05A5.83,5.83,0,0,0,160.43.23Z"/><circle class="cls-1" cx="148.53" cy="18.48" r="0.57"/><circle class="cls-1" cx="121.42" cy="18.48" r="0.57"/><circle class="cls-1" cx="96.48" cy="18.48" r="0.57"/><circle class="cls-1" cx="71.45" cy="18.66" r="0.57"/><circle class="cls-1" cx="148.53" cy="39.61" r="0.57"/><circle class="cls-1" cx="148.53" cy="58.9" r="0.57"/><circle class="cls-1" cx="148.53" cy="79.11" r="0.57"/><circle class="cls-1" cx="148.53" cy="91.89" r="0.57"/><circle class="cls-1" cx="148.53" cy="104.72" r="0.57"/><circle class="cls-1" cx="18.32" cy="19.04" r="0.57"/><circle class="cls-1" cx="45.74" cy="18.66" r="0.57"/><circle class="cls-1" cx="18.32" cy="39.16" r="0.57"/><circle class="cls-1" cx="18.32" cy="59.03" r="0.57"/><circle class="cls-1" cx="18.32" cy="78.97" r="0.57"/><circle class="cls-1" cx="18.32" cy="91.89" r="0.57"/><circle class="cls-1" cx="18.32" cy="105.29" r="0.57"/><circle class="cls-1" cx="18.32" cy="118.21" r="0.57"/><circle class="cls-1" cx="18.32" cy="131.13" r="0.57"/><circle class="cls-1" cx="18.32" cy="144.53" r="0.57"/><circle class="cls-1" cx="18.32" cy="157.95" r="0.57"/><circle class="cls-1" cx="18.32" cy="169.95" r="0.57"/><circle class="cls-1" cx="18.32" cy="183.35" r="0.57"/><circle class="cls-1" cx="18.32" cy="196.39" r="0.57"/><circle class="cls-1" cx="18.55" cy="215.57" r="0.57"/><circle class="cls-1" cx="39.07" cy="216.14" r="0.57"/><circle class="cls-1" cx="65.5" cy="216.14" r="0.57"/><circle class="cls-1" cx="91.89" cy="216.14" r="0.57"/><circle class="cls-1" cx="117.59" cy="216.14" r="0.57"/><circle class="cls-1" cx="148.53" cy="117.9" r="0.57"/><circle class="cls-1" cx="148.53" cy="130.22" r="0.57"/><circle class="cls-1" cx="148.53" cy="143.51" r="0.57"/><circle class="cls-1" cx="148.53" cy="156.61" r="0.57"/><circle class="cls-1" cx="148.53" cy="169.36" r="0.57"/><circle class="cls-1" cx="148.53" cy="181.94" r="0.57"/><circle class="cls-1" cx="148.53" cy="194.77" r="0.57"/><circle class="cls-1" cx="148.53" cy="214.34" r="0.57"/><polygon class="cls-3" points="16.79 28.37 12.07 33.58 16.27 39.31 21.12 34.05 16.79 28.37"/><polygon class="cls-3" points="149.49 193.14 144.76 198.36 148.97 204.08 153.81 198.83 149.49 193.14"/><path class="cls-4" d="M14.54,25.19A3.84,3.84,0,0,1,13,23.91a3.3,3.3,0,0,1-.59-2,3,3,0,0,1,.8-2.21,3.91,3.91,0,0,1,1.69-1v-.08l-.21-.1a3.34,3.34,0,0,1-1.57-1.26,3.48,3.48,0,0,1-.54-1.94,3,3,0,0,1,.62-1.83,4.15,4.15,0,0,1,1.61-1.28,5.18,5.18,0,0,1,4.3,0,3.38,3.38,0,0,1,1.39,1.24,3.08,3.08,0,0,1,.47,1.62,2.67,2.67,0,0,1-.67,1.81,4.6,4.6,0,0,1-1.56,1.17v.08l.45.18a3.1,3.1,0,0,1,2.29,2.93,4.47,4.47,0,0,1-.55,2.2A4,4,0,0,1,19.24,25a5.27,5.27,0,0,1-2.57.59A5.07,5.07,0,0,1,14.54,25.19Zm4.08-.62a2.67,2.67,0,0,0,1-1.08,2.78,2.78,0,0,0,.3-1.19,2.34,2.34,0,0,0-.48-1.61A3.72,3.72,0,0,0,18,19.79l-2.62-1a2.6,2.6,0,0,0-1.24,1,4,4,0,0,0-.45,2.1,2.73,2.73,0,0,0,.94,2.29,3.46,3.46,0,0,0,2.2.74A3.12,3.12,0,0,0,18.63,24.57Zm.7-7.78a3.43,3.43,0,0,0,.35-1.59,2.77,2.77,0,0,0-.39-1.45,2.81,2.81,0,0,0-1-1,2.84,2.84,0,0,0-1.43-.37,3.08,3.08,0,0,0-2,.68A2.22,2.22,0,0,0,14,14.85a2,2,0,0,0,.4,1.3,3.11,3.11,0,0,0,1.25.83l2.5,1A2.79,2.79,0,0,0,19.32,16.79Z"/><path class="cls-4" d="M151.3,207.65a3.84,3.84,0,0,1,1.57,1.28,3.3,3.3,0,0,1,.59,2,3,3,0,0,1-.8,2.21,3.91,3.91,0,0,1-1.69,1v.08l.21.1a3.34,3.34,0,0,1,1.57,1.26,3.48,3.48,0,0,1,.54,1.94,3,3,0,0,1-.62,1.83,4.15,4.15,0,0,1-1.61,1.28,5.18,5.18,0,0,1-4.3,0,3.38,3.38,0,0,1-1.39-1.24,3.08,3.08,0,0,1-.47-1.62,2.67,2.67,0,0,1,.67-1.81,4.59,4.59,0,0,1,1.56-1.17v-.08l-.45-.18a3.1,3.1,0,0,1-2.29-2.93,4.47,4.47,0,0,1,.55-2.2,4,4,0,0,1,1.63-1.59,5.27,5.27,0,0,1,2.57-.59A5.07,5.07,0,0,1,151.3,207.65Zm-4.08.62a2.66,2.66,0,0,0-1,1.08,2.78,2.78,0,0,0-.3,1.19,2.34,2.34,0,0,0,.48,1.61,3.72,3.72,0,0,0,1.39.89l2.62,1a2.6,2.6,0,0,0,1.24-1,4,4,0,0,0,.45-2.1,2.73,2.73,0,0,0-.94-2.29,3.46,3.46,0,0,0-2.2-.74A3.12,3.12,0,0,0,147.22,208.27Zm-.7,7.78a3.43,3.43,0,0,0-.35,1.59,2.77,2.77,0,0,0,.39,1.45,2.8,2.8,0,0,0,1,1,2.84,2.84,0,0,0,1.43.37,3.08,3.08,0,0,0,2-.68,2.22,2.22,0,0,0,.82-1.81,2,2,0,0,0-.4-1.3,3.11,3.11,0,0,0-1.25-.83l-2.5-1A2.79,2.79,0,0,0,146.52,216.05Z"/><polygon class="cls-3" points="50.71 23.55 37.42 39.7 50.71 56.11 64.35 39.83 50.71 23.55"/><polygon class="cls-3" points="83.04 56 69.75 72.14 83.04 88.55 96.68 72.27 83.04 56"/><polygon class="cls-3" points="83.04 140.46 69.75 156.61 83.04 173.01 96.68 156.74 83.04 140.46"/><polygon class="cls-3" points="50.71 173.12 37.42 189.27 50.71 205.68 64.35 189.4 50.71 173.12"/><polygon class="cls-3" points="50.71 98.34 37.42 114.49 50.71 130.89 64.35 114.61 50.71 98.34"/><polygon class="cls-3" points="115.37 23.55 102.08 39.7 115.37 56.11 129.01 39.83 115.37 23.55"/><polygon class="cls-3" points="115.37 173.12 102.08 189.27 115.37 205.68 129.01 189.4 115.37 173.12"/><polygon class="cls-3" points="115.37 98.34 102.08 114.49 115.37 130.89 129.01 114.61 115.37 98.34"/></g></g></svg>