<svg id="svg2" xmlns="http://www.w3.org/2000/svg" viewBox="0 0 167.09 242.67"><title>8-Diamonds</title><g id="Layer_1"><g id="path5"><path d="M166.84,235.55a6.89,6.89,0,0,1-6.87,6.87H7.11a6.88,6.88,0,0,1-6.86-6.87V7.12A6.89,6.89,0,0,1,7.11.25H160a6.89,6.89,0,0,1,6.87,6.87Z" transform="translate(0 0)" style="fill:#fff"/><path d="M160,242.67H7.11A7.12,7.12,0,0,1,0,235.55V7.12A7.12,7.12,0,0,1,7.11,0H160a7.13,7.13,0,0,1,7.12,7.12V235.55A7.13,7.13,0,0,1,160,242.67ZM7.11.5A6.62,6.62,0,0,0,.5,7.12V235.55a6.62,6.62,0,0,0,6.61,6.62H160a6.63,6.63,0,0,0,6.62-6.62V7.12A6.63,6.63,0,0,0,160,.5Z" transform="translate(0 0)"/></g></g><g id="text3788" style="isolation:isolate"><g style="isolation:isolate"><path d="M13.5,14a5.29,5.29,0,0,1-2.59-1.83,4.78,4.78,0,0,1-.84-2.84,5.56,5.56,0,0,1,1.8-4.2,6.67,6.67,0,0,1,4.78-1.7,6.71,6.71,0,0,1,4.83,1.74A5.64,5.64,0,0,1,23.3,9.4a4.67,4.67,0,0,1-.84,2.77A5.27,5.27,0,0,1,19.92,14a6.16,6.16,0,0,1,3.21,2.22,6.1,6.1,0,0,1,1.1,3.66,6.58,6.58,0,0,1-2.08,4.94,7.55,7.55,0,0,1-5.47,2,7.54,7.54,0,0,1-5.47-2,6.68,6.68,0,0,1-2.08-5A6.05,6.05,0,0,1,10.28,16,5.68,5.68,0,0,1,13.5,14ZM12,19.8a5.08,5.08,0,0,0,.57,2.33,4,4,0,0,0,1.7,1.74,5,5,0,0,0,2.42.62A4.54,4.54,0,0,0,20,23.19a4.44,4.44,0,0,0,1.31-3.3A4.51,4.51,0,0,0,20,16.54a4.64,4.64,0,0,0-3.38-1.33A4.47,4.47,0,0,0,12,19.8Zm.91-10.58a3.56,3.56,0,0,0,1,2.66,3.71,3.71,0,0,0,2.72,1,3.64,3.64,0,0,0,2.66-1,3.38,3.38,0,0,0,1-2.51,3.51,3.51,0,0,0-1.07-2.6,3.64,3.64,0,0,0-2.66-1.05,3.68,3.68,0,0,0-2.67,1A3.32,3.32,0,0,0,12.94,9.23Z" transform="translate(0 0)" style="fill:#df0000"/></g></g><g id="text3788-4" style="isolation:isolate"><g style="isolation:isolate"><path d="M153.83,229.14a5.29,5.29,0,0,1,2.59,1.83,4.78,4.78,0,0,1,.84,2.84,5.56,5.56,0,0,1-1.8,4.2,7.56,7.56,0,0,1-9.61,0,5.64,5.64,0,0,1-1.83-4.24,4.68,4.68,0,0,1,.84-2.77,5.27,5.27,0,0,1,2.54-1.82,6.16,6.16,0,0,1-3.21-2.22,6.1,6.1,0,0,1-1.1-3.66,6.58,6.58,0,0,1,2.08-4.94,8.46,8.46,0,0,1,10.94,0,6.68,6.68,0,0,1,2.08,5,6.05,6.05,0,0,1-1.13,3.74A5.67,5.67,0,0,1,153.83,229.14Zm1.47-5.81a5.08,5.08,0,0,0-.57-2.33,4,4,0,0,0-1.7-1.74,5,5,0,0,0-2.42-.62,4.54,4.54,0,0,0-3.33,1.3,4.44,4.44,0,0,0-1.31,3.3,4.52,4.52,0,0,0,1.35,3.36,4.64,4.64,0,0,0,3.38,1.33,4.47,4.47,0,0,0,4.59-4.59Zm-.91,10.58a3.56,3.56,0,0,0-1-2.66,3.71,3.71,0,0,0-2.72-1,3.64,3.64,0,0,0-2.66,1,3.38,3.38,0,0,0-1,2.51,3.51,3.51,0,0,0,1.07,2.6,3.93,3.93,0,0,0,5.34,0A3.32,3.32,0,0,0,154.39,233.9Z" transform="translate(0 0)" style="fill:#df0000"/></g></g><g id="layer1-2-6"><g id="dl-6"><path d="M21.76,37.26A41.08,41.08,0,0,1,17,28.73a41.08,41.08,0,0,1-4.79,8.53,34.93,34.93,0,0,1-7,7,34.87,34.87,0,0,1,7,7A41.05,41.05,0,0,1,17,59.74a41.05,41.05,0,0,1,4.79-8.53,34.87,34.87,0,0,1,7-7A34.93,34.93,0,0,1,21.76,37.26Z" transform="translate(0 0)" style="fill:#df0000"/></g></g><g id="layer1-2-6-4"><g id="dl-6-9"><path d="M155.41,191.52a41.08,41.08,0,0,1-4.79-8.53,41.08,41.08,0,0,1-4.79,8.53,34.93,34.93,0,0,1-7,7,34.87,34.87,0,0,1,7,7,41.05,41.05,0,0,1,4.79,8.53,41.05,41.05,0,0,1,4.79-8.53,34.87,34.87,0,0,1,7-7A34.93,34.93,0,0,1,155.41,191.52Z" transform="translate(0 0)" style="fill:#df0000"/></g></g><g id="layer1-2-6-8"><g id="dl-6-8"><path d="M120.12,181.39a72,72,0,0,1-8.39-14.95,72,72,0,0,1-8.39,14.95A61.22,61.22,0,0,1,91,193.62a61.11,61.11,0,0,1,12.31,12.23,72,72,0,0,1,8.39,14.94,72,72,0,0,1,8.39-14.94,61.11,61.11,0,0,1,12.31-12.23A61.22,61.22,0,0,1,120.12,181.39Z" transform="translate(0 0)" style="fill:#df0000"/></g></g><g id="layer1-2-6-8-2"><g id="dl-6-8-6"><path d="M120.12,37A72,72,0,0,1,111.73,22,72,72,0,0,1,103.33,37,61.22,61.22,0,0,1,91,49.22a61.11,61.11,0,0,1,12.31,12.23,72,72,0,0,1,8.39,14.94,72,72,0,0,1,8.39-14.94,61.11,61.11,0,0,1,12.31-12.23A61.22,61.22,0,0,1,120.12,37Z" transform="translate(0 0)" style="fill:#df0000"/></g></g><g id="layer1-2-6-8-2-8"><g id="dl-6-8-6-8"><path d="M120.12,108.29a72,72,0,0,1-8.39-14.95,72,72,0,0,1-8.39,14.95A61.22,61.22,0,0,1,91,120.52a61.11,61.11,0,0,1,12.31,12.23,72,72,0,0,1,8.39,14.94,72,72,0,0,1,8.39-14.94,61.11,61.11,0,0,1,12.31-12.23A61.22,61.22,0,0,1,120.12,108.29Z" transform="translate(0 0)" style="fill:#df0000"/></g></g><g id="layer1-2-6-8-8"><g id="dl-6-8-8"><path d="M62.81,181.51a72,72,0,0,1-8.39-14.95A72,72,0,0,1,46,181.51a61.22,61.22,0,0,1-12.31,12.23A61.11,61.11,0,0,1,46,206a72,72,0,0,1,8.39,14.94A72,72,0,0,1,62.81,206a61.11,61.11,0,0,1,12.31-12.23A61.22,61.22,0,0,1,62.81,181.51Z" transform="translate(0 0)" style="fill:#df0000"/></g></g><g id="layer1-2-6-8-2-4"><g id="dl-6-8-6-3"><path d="M62.81,37.11a72,72,0,0,1-8.39-14.95A72,72,0,0,1,46,37.11,61.22,61.22,0,0,1,33.71,49.34,61.11,61.11,0,0,1,46,61.57a72,72,0,0,1,8.39,14.94,72,72,0,0,1,8.39-14.94A61.11,61.11,0,0,1,75.12,49.34,61.22,61.22,0,0,1,62.81,37.11Z" transform="translate(0 0)" style="fill:#df0000"/></g></g><g id="layer1-2-6-8-2-8-1"><g id="dl-6-8-6-8-4"><path d="M62.81,108.41a72,72,0,0,1-8.39-14.95A72,72,0,0,1,46,108.41a61.22,61.22,0,0,1-12.31,12.23A61.11,61.11,0,0,1,46,132.87a72,72,0,0,1,8.39,14.94,72,72,0,0,1,8.39-14.94,61.11,61.11,0,0,1,12.31-12.23A61.22,61.22,0,0,1,62.81,108.41Z" transform="translate(0 0)" style="fill:#df0000"/></g></g><g id="layer1-2-6-8-2-4-8"><g id="dl-6-8-6-3-8"><path d="M91.61,73.31a72,72,0,0,1-8.39-14.95,72,72,0,0,1-8.39,14.95A61.22,61.22,0,0,1,62.51,85.54,61.11,61.11,0,0,1,74.82,97.77a72,72,0,0,1,8.39,14.94,72,72,0,0,1,8.39-14.94,61.11,61.11,0,0,1,12.31-12.23A61.22,61.22,0,0,1,91.61,73.31Z" transform="translate(0 0)" style="fill:#df0000"/></g></g><g id="layer1-2-6-8-8-6"><g id="dl-6-8-8-8"><path d="M91.61,144.69a72,72,0,0,1-8.39-14.95,72,72,0,0,1-8.39,14.95,61.22,61.22,0,0,1-12.31,12.23,61.11,61.11,0,0,1,12.31,12.23,72,72,0,0,1,8.39,14.94,72,72,0,0,1,8.39-14.94,61.11,61.11,0,0,1,12.31-12.23A61.22,61.22,0,0,1,91.61,144.69Z" transform="translate(0 0)" style="fill:#df0000"/></g></g></svg>