<svg id="svg2" xmlns="http://www.w3.org/2000/svg" viewBox="0 0 167.09 242.67"><title>8-Hearts</title><g id="Layer_1"><g id="path5"><path d="M166.84,235.55a6.89,6.89,0,0,1-6.87,6.87H7.11a6.88,6.88,0,0,1-6.86-6.87V7.12A6.89,6.89,0,0,1,7.11.25H160a6.89,6.89,0,0,1,6.87,6.87Z" transform="translate(0 0)" style="fill:#fff"/><path d="M160,242.67H7.11A7.12,7.12,0,0,1,0,235.55V7.12A7.12,7.12,0,0,1,7.11,0H160a7.13,7.13,0,0,1,7.12,7.12V235.55A7.13,7.13,0,0,1,160,242.67ZM7.11.5A6.62,6.62,0,0,0,.5,7.12V235.55a6.62,6.62,0,0,0,6.61,6.62H160a6.63,6.63,0,0,0,6.62-6.62V7.12A6.63,6.63,0,0,0,160,.5Z" transform="translate(0 0)"/></g></g><g id="text3788" style="isolation:isolate"><g style="isolation:isolate"><path d="M14.43,15.59a5.29,5.29,0,0,1-2.59-1.83A4.78,4.78,0,0,1,11,10.92a5.56,5.56,0,0,1,1.8-4.2A6.67,6.67,0,0,1,17.57,5,6.71,6.71,0,0,1,22.4,6.76,5.64,5.64,0,0,1,24.23,11a4.67,4.67,0,0,1-.84,2.77,5.27,5.27,0,0,1-2.54,1.82,6.16,6.16,0,0,1,3.21,2.22,6.1,6.1,0,0,1,1.1,3.66,6.58,6.58,0,0,1-2.08,4.94,7.55,7.55,0,0,1-5.47,2,7.54,7.54,0,0,1-5.47-2,6.68,6.68,0,0,1-2.08-5,6.05,6.05,0,0,1,1.13-3.74A5.68,5.68,0,0,1,14.43,15.59ZM13,21.4a5.08,5.08,0,0,0,.57,2.33,4,4,0,0,0,1.7,1.74,5,5,0,0,0,2.42.62A4.54,4.54,0,0,0,21,24.79a4.44,4.44,0,0,0,1.31-3.3,4.51,4.51,0,0,0-1.35-3.36,4.64,4.64,0,0,0-3.38-1.33A4.47,4.47,0,0,0,13,21.4Zm.91-10.58a3.56,3.56,0,0,0,1,2.66,3.71,3.71,0,0,0,2.72,1,3.64,3.64,0,0,0,2.66-1,3.38,3.38,0,0,0,1-2.51,3.51,3.51,0,0,0-1.07-2.6A3.64,3.64,0,0,0,17.6,7.33a3.68,3.68,0,0,0-2.67,1A3.32,3.32,0,0,0,13.87,10.83Z" transform="translate(0 0)" style="fill:#df0000"/></g></g><g id="layer1-9-6"><g id="hl-8"><path d="M23.33,32.28c-5.43,0-6.15,5.45-6.15,5.45s-.72-5.45-6.15-5.45c-3.8,0-7.24,2.44-7.24,7.05,0,6.09,11,12.21,13.39,21.15,2.26-8.93,13.39-15.07,13.39-21.15C30.57,34.73,27.13,32.28,23.33,32.28Z" transform="translate(0 0)" style="fill:#df0000"/></g></g><g id="text3788-4" style="isolation:isolate"><g style="isolation:isolate"><path d="M153.16,225.94a5.29,5.29,0,0,1,2.59,1.83,4.78,4.78,0,0,1,.84,2.84,5.56,5.56,0,0,1-1.8,4.2,7.56,7.56,0,0,1-9.61,0,5.64,5.64,0,0,1-1.83-4.24,4.67,4.67,0,0,1,.84-2.77,5.27,5.27,0,0,1,2.54-1.82,6.16,6.16,0,0,1-3.21-2.22,6.1,6.1,0,0,1-1.1-3.66,6.58,6.58,0,0,1,2.08-4.94,8.46,8.46,0,0,1,10.94,0,6.68,6.68,0,0,1,2.08,5,6.06,6.06,0,0,1-1.13,3.74A5.68,5.68,0,0,1,153.16,225.94Zm1.47-5.81a5.09,5.09,0,0,0-.57-2.33,4,4,0,0,0-1.7-1.74,5,5,0,0,0-2.42-.62,4.54,4.54,0,0,0-3.33,1.3,4.44,4.44,0,0,0-1.31,3.3,4.51,4.51,0,0,0,1.35,3.36,4.63,4.63,0,0,0,3.38,1.33,4.47,4.47,0,0,0,4.59-4.59Zm-.91,10.58a3.56,3.56,0,0,0-1-2.66,3.71,3.71,0,0,0-2.72-1,3.64,3.64,0,0,0-2.66,1,3.38,3.38,0,0,0-1,2.51,3.51,3.51,0,0,0,1.07,2.6,3.93,3.93,0,0,0,5.34,0A3.32,3.32,0,0,0,153.72,230.7Z" transform="translate(0 0)" style="fill:#df0000"/></g></g><g id="layer1-9-6-5"><g id="hl-8-1"><path d="M144,209.25c5.43,0,6.15-5.45,6.15-5.45s.72,5.45,6.15,5.45c3.8,0,7.24-2.44,7.24-7.05,0-6.09-11-12.21-13.39-21.15-2.26,8.93-13.39,15.07-13.39,21.15C136.76,206.8,140.2,209.25,144,209.25Z" transform="translate(0 0)" style="fill:#df0000"/></g></g><g id="layer1-9-6-8"><g id="hl-8-8"><path d="M64.73,8.2c-9,0-10.22,9-10.22,9s-1.2-9-10.22-9c-6.31,0-12,4.05-12,11.7C32.28,30,50.56,40.17,54.51,55,58.27,40.18,76.74,30,76.74,19.9,76.74,12.25,71,8.2,64.73,8.2Z" transform="translate(0 0)" style="fill:#df0000"/></g></g><g id="layer1-9-6-8-9"><g id="hl-8-8-5"><path d="M44.3,231.41c9,0,10.22-9,10.22-9s1.2,9,10.22,9c6.31,0,12-4.05,12-11.7,0-10.11-18.28-20.27-22.23-35.11-3.76,14.83-22.23,25-22.23,35.11C32.28,227.36,38,231.41,44.3,231.41Z" transform="translate(0 0)" style="fill:#df0000"/></g></g><g id="layer1-9-6-8-8"><g id="hl-8-8-8"><path d="M64.73,101.9c-9,0-10.22,9-10.22,9s-1.2-9-10.22-9c-6.31,0-12,4.05-12,11.7,0,10.11,18.28,20.27,22.23,35.11,3.76-14.83,22.23-25,22.23-35.11C76.74,106,71,101.9,64.73,101.9Z" transform="translate(0 0)" style="fill:#df0000"/></g></g><g id="layer1-9-6-8-88"><g id="hl-8-8-4"><path d="M122.47,7.86c-9,0-10.22,9-10.22,9s-1.2-9-10.22-9c-6.31,0-12,4.05-12,11.7,0,10.11,18.28,20.27,22.23,35.11,3.76-14.83,22.23-25,22.23-35.11C134.48,11.92,128.77,7.86,122.47,7.86Z" transform="translate(0 0)" style="fill:#df0000"/></g></g><g id="layer1-9-6-8-9-3"><g id="hl-8-8-5-1"><path d="M102,232.68c9,0,10.22-9,10.22-9s1.2,9,10.22,9c6.31,0,12-4.05,12-11.7,0-10.11-18.28-20.27-22.23-35.11C108.49,200.7,90,210.87,90,221,90,228.63,95.73,232.68,102,232.68Z" transform="translate(0 0)" style="fill:#df0000"/></g></g><g id="layer1-9-6-8-8-4"><g id="hl-8-8-8-9"><path d="M122.47,101.57c-9,0-10.22,9-10.22,9s-1.2-9-10.22-9c-6.31,0-12,4.05-12,11.7,0,10.11,18.28,20.27,22.23,35.11,3.76-14.83,22.23-25,22.23-35.11C134.48,105.62,128.77,101.57,122.47,101.57Z" transform="translate(0 0)" style="fill:#df0000"/></g></g><g id="layer1-9-6-8-884"><g id="hl-8-8-3"><path d="M93.89,53.3c-9,0-10.22,9-10.22,9s-1.2-9-10.22-9c-6.31,0-12,4.05-12,11.7,0,10.11,18.28,20.27,22.23,35.11,3.76-14.83,22.23-25,22.23-35.11C105.91,57.35,100.2,53.3,93.89,53.3Z" transform="translate(0 0)" style="fill:#df0000"/></g></g><g id="layer1-9-6-8-884-8"><g id="hl-8-8-3-8"><path d="M73,186.12c9,0,10.22-9,10.22-9s1.2,9,10.22,9c6.31,0,12-4.05,12-11.7,0-10.11-18.28-20.27-22.23-35.11C79.46,154.13,61,164.3,61,174.41,61,182.06,66.69,186.12,73,186.12Z" transform="translate(0 0)" style="fill:#df0000"/></g></g></svg>