<svg xmlns="http://www.w3.org/2000/svg" viewBox="0 0 166.59 233.13"><defs><style>.cls-1{fill:#fff;}.cls-2{fill:#65a7dd;}.cls-3{fill:#a43e32;}.cls-4{fill:#af0f07;}</style></defs><title>Asset 22</title><g id="Layer_2" data-name="Layer 2"><g id="Objects"><rect class="cls-1" x="0.12" y="0.12" width="166.36" height="232.9" rx="5.94" ry="5.94"/><path class="cls-2" d="M160.53,233.13H6.06A6.06,6.06,0,0,1,0,227.08V6.06A6.06,6.06,0,0,1,6.06,0H160.53a6.06,6.06,0,0,1,6.06,6.06v221A6.06,6.06,0,0,1,160.53,233.13ZM6.06.23A5.83,5.83,0,0,0,.23,6.06v221a5.83,5.83,0,0,0,5.82,5.82H160.53a5.83,5.83,0,0,0,5.82-5.82V6.06A5.83,5.83,0,0,0,160.53.23Z"/><circle class="cls-1" cx="148.63" cy="18.48" r="0.57"/><circle class="cls-1" cx="121.5" cy="18.48" r="0.57"/><circle class="cls-1" cx="96.54" cy="18.48" r="0.57"/><circle class="cls-1" cx="71.49" cy="18.66" r="0.57"/><circle class="cls-1" cx="148.63" cy="39.62" r="0.57"/><circle class="cls-1" cx="148.63" cy="58.91" r="0.57"/><circle class="cls-1" cx="148.63" cy="79.13" r="0.57"/><circle class="cls-1" cx="148.63" cy="91.91" r="0.57"/><circle class="cls-1" cx="148.63" cy="104.74" r="0.57"/><circle class="cls-1" cx="18.33" cy="19.05" r="0.57"/><circle class="cls-1" cx="45.77" cy="18.66" r="0.57"/><circle class="cls-1" cx="18.33" cy="39.17" r="0.57"/><circle class="cls-1" cx="18.33" cy="59.05" r="0.57"/><circle class="cls-1" cx="18.33" cy="78.99" r="0.57"/><circle class="cls-1" cx="18.33" cy="91.91" r="0.57"/><circle class="cls-1" cx="18.33" cy="105.31" r="0.57"/><circle class="cls-1" cx="18.33" cy="118.24" r="0.57"/><circle class="cls-1" cx="18.33" cy="131.17" r="0.57"/><circle class="cls-1" cx="18.33" cy="144.57" r="0.57"/><circle class="cls-1" cx="18.33" cy="158" r="0.57"/><circle class="cls-1" cx="18.33" cy="170" r="0.57"/><circle class="cls-1" cx="18.33" cy="183.39" r="0.57"/><circle class="cls-1" cx="18.33" cy="196.44" r="0.57"/><circle class="cls-1" cx="18.56" cy="215.63" r="0.57"/><circle class="cls-1" cx="39.09" cy="216.2" r="0.57"/><circle class="cls-1" cx="65.54" cy="216.2" r="0.57"/><circle class="cls-1" cx="91.94" cy="216.2" r="0.57"/><circle class="cls-1" cx="117.67" cy="216.2" r="0.57"/><circle class="cls-1" cx="148.63" cy="117.93" r="0.57"/><circle class="cls-1" cx="148.63" cy="130.26" r="0.57"/><circle class="cls-1" cx="148.63" cy="143.55" r="0.57"/><circle class="cls-1" cx="148.63" cy="156.65" r="0.57"/><circle class="cls-1" cx="148.63" cy="169.41" r="0.57"/><circle class="cls-1" cx="148.63" cy="181.98" r="0.57"/><circle class="cls-1" cx="148.63" cy="194.82" r="0.57"/><circle class="cls-1" cx="148.63" cy="214.39" r="0.57"/><path class="cls-3" d="M15,28.69a3.83,3.83,0,0,1-1.57-1.28,3.3,3.3,0,0,1-.59-2,3,3,0,0,1,.8-2.21,3.9,3.9,0,0,1,1.69-1v-.08l-.21-.1a3.34,3.34,0,0,1-1.57-1.26A3.48,3.48,0,0,1,13,18.81,3,3,0,0,1,13.63,17a4.16,4.16,0,0,1,1.61-1.28,5.19,5.19,0,0,1,4.3,0A3.39,3.39,0,0,1,20.93,17a3.07,3.07,0,0,1,.47,1.62,2.67,2.67,0,0,1-.67,1.81,4.59,4.59,0,0,1-1.56,1.18v.08l.45.17a3.1,3.1,0,0,1,2.29,2.93,4.47,4.47,0,0,1-.55,2.2,4,4,0,0,1-1.63,1.59,5.26,5.26,0,0,1-2.57.59A5.08,5.08,0,0,1,15,28.69Zm4.09-.62a2.67,2.67,0,0,0,1-1.08,2.77,2.77,0,0,0,.3-1.19,2.34,2.34,0,0,0-.48-1.61,3.74,3.74,0,0,0-1.39-.89l-2.62-1a2.59,2.59,0,0,0-1.24,1,4,4,0,0,0-.45,2.1,2.73,2.73,0,0,0,.94,2.29,3.47,3.47,0,0,0,2.2.74A3.13,3.13,0,0,0,19.1,28.07Zm.7-7.78a3.44,3.44,0,0,0,.35-1.59,2.8,2.8,0,0,0-1.43-2.46,2.84,2.84,0,0,0-1.43-.37,3.09,3.09,0,0,0-2,.68,2.22,2.22,0,0,0-.82,1.81,2,2,0,0,0,.4,1.3,3.11,3.11,0,0,0,1.25.84l2.5,1A2.8,2.8,0,0,0,19.8,20.28Z"/><path class="cls-3" d="M151.86,211.2a3.82,3.82,0,0,1,1.57,1.28,3.3,3.3,0,0,1,.59,2,3,3,0,0,1-.8,2.21,3.9,3.9,0,0,1-1.69,1v.08l.21.1a3.33,3.33,0,0,1,1.57,1.26,3.48,3.48,0,0,1,.54,1.94,3,3,0,0,1-.62,1.83,4.16,4.16,0,0,1-1.61,1.28,5.19,5.19,0,0,1-4.3,0,3.39,3.39,0,0,1-1.39-1.24,3.07,3.07,0,0,1-.47-1.62,2.67,2.67,0,0,1,.67-1.81,4.57,4.57,0,0,1,1.56-1.17v-.08l-.45-.18a3.1,3.1,0,0,1-2.29-2.93,4.47,4.47,0,0,1,.55-2.2,4,4,0,0,1,1.63-1.59,5.26,5.26,0,0,1,2.57-.59A5.06,5.06,0,0,1,151.86,211.2Zm-4.09.62a2.68,2.68,0,0,0-1,1.08,2.77,2.77,0,0,0-.3,1.19,2.34,2.34,0,0,0,.48,1.61,3.73,3.73,0,0,0,1.39.89l2.62,1a2.59,2.59,0,0,0,1.24-1,4,4,0,0,0,.45-2.1,2.73,2.73,0,0,0-.94-2.29,3.47,3.47,0,0,0-2.2-.74A3.13,3.13,0,0,0,147.77,211.82Zm-.7,7.78a3.43,3.43,0,0,0-.35,1.59,2.77,2.77,0,0,0,.39,1.45,2.81,2.81,0,0,0,1,1,2.84,2.84,0,0,0,1.43.37,3.09,3.09,0,0,0,2-.68,2.22,2.22,0,0,0,.82-1.8,2,2,0,0,0-.4-1.3,3.1,3.1,0,0,0-1.25-.83l-2.5-1A2.8,2.8,0,0,0,147.07,219.6Z"/><path class="cls-4" d="M19.85,34.67a2.26,2.26,0,0,0-2.44,2.1A2.26,2.26,0,0,0,15,34.67c-2.5.06-2.83,2.86-2,4.28a13.08,13.08,0,0,0,2.2,2.77,21.07,21.07,0,0,1,2.17,2.4s0,.07,0,.05,0-.05,0-.05a21.07,21.07,0,0,1,2.17-2.4A13.08,13.08,0,0,0,21.8,39C22.68,37.54,22.35,34.73,19.85,34.67Z"/><path class="cls-4" d="M151.08,206.83a2.26,2.26,0,0,1-2.44-2.11,2.26,2.26,0,0,1-2.44,2.11c-2.5-.06-2.83-2.86-2-4.28a13.07,13.07,0,0,1,2.2-2.77,21.08,21.08,0,0,0,2.17-2.4s0-.07,0-.05,0,.05,0,.05a21.08,21.08,0,0,0,2.17,2.4,13.07,13.07,0,0,1,2.2,2.77C153.92,204,153.58,206.77,151.08,206.83Z"/><path class="cls-4" d="M64.64,28.65c-5.48-.13-6.74,4.05-7,6.07-.29-2-1.55-6.2-7-6.07-7.21.17-8.16,8.25-5.65,12.33a37.69,37.69,0,0,0,6.34,8c2.37,2.45,5.21,5.22,6.25,6.91,0,0,.06.2.09.14s.09-.14.09-.14c1-1.69,3.88-4.45,6.25-6.91a37.69,37.69,0,0,0,6.34-8C72.81,36.9,71.85,28.83,64.64,28.65Z"/><path class="cls-4" d="M64.64,104.45c-5.48-.13-6.74,4.05-7,6.07-.29-2-1.55-6.2-7-6.07-7.21.17-8.16,8.25-5.65,12.33a37.69,37.69,0,0,0,6.34,8c2.37,2.45,5.21,5.22,6.25,6.91,0,0,.06.2.09.14s.09-.14.09-.14c1-1.69,3.88-4.45,6.25-6.91a37.69,37.69,0,0,0,6.34-8C72.81,112.7,71.85,104.62,64.64,104.45Z"/><path class="cls-4" d="M64.64,207.63c-5.48.13-6.74-4.05-7-6.07-.29,2-1.55,6.2-7,6.07-7.21-.17-8.16-8.25-5.65-12.33a37.69,37.69,0,0,1,6.34-8c2.37-2.45,5.21-5.22,6.25-6.91,0,0,.06-.2.09-.14s.09.14.09.14c1,1.69,3.88,4.45,6.25,6.91a37.69,37.69,0,0,1,6.34,8C72.81,199.37,71.85,207.45,64.64,207.63Z"/><path class="cls-4" d="M117.32,28.65c-5.48-.13-6.74,4.05-7,6.07-.29-2-1.55-6.2-7-6.07C96,28.83,95.09,36.9,97.6,41a37.69,37.69,0,0,0,6.34,8c2.37,2.45,5.21,5.22,6.25,6.91,0,0,.06.2.09.14s.09-.14.09-.14c1-1.69,3.88-4.45,6.25-6.91A37.69,37.69,0,0,0,123,41C125.49,36.9,124.53,28.83,117.32,28.65Z"/><path class="cls-4" d="M117.32,104.45c-5.48-.13-6.74,4.05-7,6.07-.29-2-1.55-6.2-7-6.07-7.21.17-8.16,8.25-5.65,12.33a37.69,37.69,0,0,0,6.34,8c2.37,2.45,5.21,5.22,6.25,6.91,0,0,.06.2.09.14s.09-.14.09-.14c1-1.69,3.88-4.45,6.25-6.91a37.69,37.69,0,0,0,6.34-8C125.49,112.7,124.53,104.62,117.32,104.45Z"/><path class="cls-4" d="M117.32,207.63c-5.48.13-6.74-4.05-7-6.07-.29,2-1.55,6.2-7,6.07-7.21-.17-8.16-8.25-5.65-12.33a37.69,37.69,0,0,1,6.34-8c2.37-2.45,5.21-5.22,6.25-6.91,0,0,.06-.2.09-.14s.09.14.09.14c1,1.69,3.88,4.45,6.25,6.91a37.69,37.69,0,0,1,6.34,8C125.49,199.37,124.53,207.45,117.32,207.63Z"/><path class="cls-4" d="M90.52,67.47c-5.48-.13-6.74,4.05-7,6.07-.29-2-1.55-6.2-7-6.07-7.21.17-8.16,8.25-5.65,12.33a37.69,37.69,0,0,0,6.34,8c2.37,2.45,5.21,5.22,6.25,6.91,0,0,.06.2.09.14s.09-.14.09-.14c1-1.69,3.88-4.45,6.25-6.91a37.69,37.69,0,0,0,6.34-8C98.68,75.73,97.73,67.65,90.52,67.47Z"/><path class="cls-4" d="M90.52,167.87c-5.48.13-6.74-4.05-7-6.07-.29,2-1.55,6.2-7,6.07-7.21-.17-8.16-8.25-5.65-12.33a37.7,37.7,0,0,1,6.34-8c2.37-2.45,5.21-5.22,6.25-6.91,0,0,.06-.2.09-.14s.09.14.09.14c1,1.69,3.88,4.45,6.25,6.91a37.69,37.69,0,0,1,6.34,8C98.68,159.62,97.73,167.69,90.52,167.87Z"/></g></g></svg>