<svg xmlns="http://www.w3.org/2000/svg" viewBox="0 0 166.59 233.13"><defs><style>.cls-1{fill:#fff;}.cls-2{fill:#65a7dd;}.cls-3{fill:#151515;}</style></defs><title>Asset 35</title><g id="Layer_2" data-name="Layer 2"><g id="Objects"><rect class="cls-1" x="0.12" y="0.12" width="166.36" height="232.9" rx="5.94" ry="5.94"/><path class="cls-2" d="M160.53,233.13H6.06A6.06,6.06,0,0,1,0,227.08V6.06A6.06,6.06,0,0,1,6.06,0H160.53a6.06,6.06,0,0,1,6.06,6.06v221A6.06,6.06,0,0,1,160.53,233.13ZM6.06.23A5.83,5.83,0,0,0,.23,6.06v221a5.83,5.83,0,0,0,5.82,5.82H160.53a5.83,5.83,0,0,0,5.82-5.82V6.06A5.83,5.83,0,0,0,160.53.23Z"/><circle class="cls-1" cx="148.63" cy="18.48" r="0.57"/><circle class="cls-1" cx="121.5" cy="18.48" r="0.57"/><circle class="cls-1" cx="96.54" cy="18.48" r="0.57"/><circle class="cls-1" cx="71.49" cy="18.66" r="0.57"/><circle class="cls-1" cx="148.63" cy="39.62" r="0.57"/><circle class="cls-1" cx="148.63" cy="58.91" r="0.57"/><circle class="cls-1" cx="148.63" cy="79.13" r="0.57"/><circle class="cls-1" cx="148.63" cy="91.91" r="0.57"/><circle class="cls-1" cx="148.63" cy="104.74" r="0.57"/><circle class="cls-1" cx="18.33" cy="19.05" r="0.57"/><circle class="cls-1" cx="45.77" cy="18.66" r="0.57"/><circle class="cls-1" cx="18.33" cy="39.17" r="0.57"/><circle class="cls-1" cx="18.33" cy="59.05" r="0.57"/><circle class="cls-1" cx="18.33" cy="78.99" r="0.57"/><circle class="cls-1" cx="18.33" cy="91.91" r="0.57"/><circle class="cls-1" cx="18.33" cy="105.31" r="0.57"/><circle class="cls-1" cx="18.33" cy="118.24" r="0.57"/><circle class="cls-1" cx="18.33" cy="131.17" r="0.57"/><circle class="cls-1" cx="18.33" cy="144.57" r="0.57"/><circle class="cls-1" cx="18.33" cy="158" r="0.57"/><circle class="cls-1" cx="18.33" cy="170" r="0.57"/><circle class="cls-1" cx="18.33" cy="183.39" r="0.57"/><circle class="cls-1" cx="18.33" cy="196.44" r="0.57"/><circle class="cls-1" cx="18.56" cy="215.63" r="0.57"/><circle class="cls-1" cx="39.09" cy="216.19" r="0.57"/><circle class="cls-1" cx="65.54" cy="216.19" r="0.57"/><circle class="cls-1" cx="91.94" cy="216.19" r="0.57"/><circle class="cls-1" cx="117.67" cy="216.19" r="0.57"/><circle class="cls-1" cx="148.63" cy="117.93" r="0.57"/><circle class="cls-1" cx="148.63" cy="130.26" r="0.57"/><circle class="cls-1" cx="148.63" cy="143.55" r="0.57"/><circle class="cls-1" cx="148.63" cy="156.65" r="0.57"/><circle class="cls-1" cx="148.63" cy="169.41" r="0.57"/><circle class="cls-1" cx="148.63" cy="181.98" r="0.57"/><circle class="cls-1" cx="148.63" cy="194.82" r="0.57"/><circle class="cls-1" cx="148.63" cy="214.39" r="0.57"/><path d="M15.39,22.81a3.83,3.83,0,0,1-1.57-1.28,3.3,3.3,0,0,1-.59-2,3,3,0,0,1,.8-2.21,3.9,3.9,0,0,1,1.69-1v-.08l-.21-.1a3.34,3.34,0,0,1-1.57-1.26,3.48,3.48,0,0,1-.54-1.94A3,3,0,0,1,14,11.09a4.16,4.16,0,0,1,1.61-1.28,5.18,5.18,0,0,1,4.3,0,3.39,3.39,0,0,1,1.39,1.24,3.07,3.07,0,0,1,.47,1.62,2.67,2.67,0,0,1-.67,1.81,4.59,4.59,0,0,1-1.56,1.17v.08l.45.17a3.1,3.1,0,0,1,2.29,2.93,4.47,4.47,0,0,1-.55,2.2,4,4,0,0,1-1.63,1.59,5.26,5.26,0,0,1-2.57.59A5.08,5.08,0,0,1,15.39,22.81Zm4.09-.62a2.67,2.67,0,0,0,1-1.08,2.77,2.77,0,0,0,.3-1.19,2.34,2.34,0,0,0-.48-1.61,3.73,3.73,0,0,0-1.39-.89l-2.62-1a2.6,2.6,0,0,0-1.24,1,4,4,0,0,0-.45,2.1,2.73,2.73,0,0,0,.94,2.29,3.47,3.47,0,0,0,2.2.74A3.13,3.13,0,0,0,19.48,22.19Zm.7-7.78a3.43,3.43,0,0,0,.35-1.59,2.77,2.77,0,0,0-.39-1.45,2.81,2.81,0,0,0-1-1A2.84,2.84,0,0,0,17.67,10a3.09,3.09,0,0,0-2,.68,2.22,2.22,0,0,0-.82,1.81,2,2,0,0,0,.4,1.3,3.12,3.12,0,0,0,1.25.83l2.5,1A2.8,2.8,0,0,0,20.18,14.4Z"/><path d="M152.23,205.31a3.82,3.82,0,0,1,1.57,1.28,3.3,3.3,0,0,1,.59,2,3,3,0,0,1-.8,2.21,3.9,3.9,0,0,1-1.69,1v.08l.21.1a3.33,3.33,0,0,1,1.57,1.26,3.48,3.48,0,0,1,.54,1.94,3,3,0,0,1-.62,1.83,4.16,4.16,0,0,1-1.61,1.28,5.19,5.19,0,0,1-4.3,0,3.39,3.39,0,0,1-1.39-1.24,3.07,3.07,0,0,1-.47-1.62,2.67,2.67,0,0,1,.67-1.81,4.58,4.58,0,0,1,1.56-1.17v-.08l-.45-.18a3.1,3.1,0,0,1-2.29-2.93,4.47,4.47,0,0,1,.55-2.2,4,4,0,0,1,1.63-1.59,5.26,5.26,0,0,1,2.57-.59A5.06,5.06,0,0,1,152.23,205.31Zm-4.09.62a2.68,2.68,0,0,0-1,1.08,2.77,2.77,0,0,0-.3,1.19,2.34,2.34,0,0,0,.48,1.61,3.73,3.73,0,0,0,1.39.89l2.62,1a2.59,2.59,0,0,0,1.24-1,4,4,0,0,0,.45-2.1,2.73,2.73,0,0,0-.94-2.29,3.47,3.47,0,0,0-2.2-.74A3.13,3.13,0,0,0,148.14,205.94Zm-.7,7.78a3.43,3.43,0,0,0-.35,1.59,2.77,2.77,0,0,0,.39,1.45,2.81,2.81,0,0,0,1,1,2.84,2.84,0,0,0,1.43.37,3.09,3.09,0,0,0,2-.68,2.22,2.22,0,0,0,.82-1.81,2,2,0,0,0-.4-1.3,3.1,3.1,0,0,0-1.25-.83l-2.5-1A2.8,2.8,0,0,0,147.45,213.72Z"/><path class="cls-3" d="M95.79,73.22c-3.68-4-7.95-7.92-9.73-10-1.34-1.54-2.29-2.71-2.68-3.2V59.8l-.1.13-.1-.13v.25c-.39.49-1.34,1.66-2.68,3.2-1.79,2.05-6.06,6-9.73,10a12.19,12.19,0,0,0-3.28,11.34c.7,3.32,4.17,6.45,9.64,5.77A6.09,6.09,0,0,0,81,88.27a12.7,12.7,0,0,1-3.16,7.15h10.6a13.56,13.56,0,0,1-2.87-7.13,6.09,6.09,0,0,0,3.86,2c5.46.68,8.94-2.44,9.64-5.77A12.19,12.19,0,0,0,95.79,73.22Z"/><path class="cls-3" d="M66.22,35.17c-3.68-4-7.95-7.92-9.73-10-1.34-1.54-2.29-2.71-2.68-3.2v-.25l-.1.13-.1-.13V22c-.39.49-1.34,1.66-2.68,3.2-1.79,2.05-6.06,6-9.73,10a12.19,12.19,0,0,0-3.28,11.34c.7,3.32,4.17,6.45,9.64,5.77a6.09,6.09,0,0,0,3.88-2.06,12.7,12.7,0,0,1-3.16,7.15h10.6A13.56,13.56,0,0,1,56,50.24a6.09,6.09,0,0,0,3.86,2c5.46.68,8.94-2.44,9.64-5.77A12.19,12.19,0,0,0,66.22,35.17Z"/><path class="cls-3" d="M66.22,111.75c-3.68-4-7.95-7.92-9.73-10-1.34-1.54-2.29-2.71-2.68-3.2v-.25l-.1.13-.1-.13v.25c-.39.49-1.34,1.66-2.68,3.2-1.79,2.05-6.06,6-9.73,10a12.19,12.19,0,0,0-3.28,11.34c.7,3.32,4.17,6.45,9.64,5.77a6.09,6.09,0,0,0,3.88-2.06,12.7,12.7,0,0,1-3.16,7.15h10.6A13.56,13.56,0,0,1,56,126.82a6.09,6.09,0,0,0,3.86,2c5.46.68,8.94-2.44,9.64-5.77A12.19,12.19,0,0,0,66.22,111.75Z"/><path class="cls-3" d="M66.22,194.59c-3.68,4-7.95,7.92-9.73,10-1.34,1.54-2.29,2.71-2.68,3.2V208l-.1-.13-.1.13v-.25c-.39-.49-1.34-1.66-2.68-3.2-1.79-2.05-6.06-6-9.73-10a12.19,12.19,0,0,1-3.28-11.34c.7-3.32,4.17-6.45,9.64-5.77a6.09,6.09,0,0,1,3.88,2.06,12.7,12.7,0,0,0-3.16-7.15h10.6A13.56,13.56,0,0,0,56,179.52a6.09,6.09,0,0,1,3.86-2c5.46-.68,8.94,2.44,9.64,5.77A12.19,12.19,0,0,1,66.22,194.59Z"/><path class="cls-3" d="M126.29,35.17c-3.68-4-7.95-7.92-9.73-10-1.34-1.54-2.29-2.71-2.68-3.2v-.25l-.1.13-.1-.13V22c-.39.49-1.34,1.66-2.68,3.2-1.79,2.05-6.06,6-9.73,10A12.19,12.19,0,0,0,98,46.51c.7,3.32,4.17,6.45,9.64,5.77a6.09,6.09,0,0,0,3.88-2.06,12.7,12.7,0,0,1-3.16,7.15h10.6a13.56,13.56,0,0,1-2.87-7.13,6.09,6.09,0,0,0,3.86,2c5.46.68,8.94-2.44,9.64-5.77A12.19,12.19,0,0,0,126.29,35.17Z"/><path class="cls-3" d="M126.29,111.75c-3.68-4-7.95-7.92-9.73-10-1.34-1.54-2.29-2.71-2.68-3.2v-.25l-.1.13-.1-.13v.25c-.39.49-1.34,1.66-2.68,3.2-1.79,2.05-6.06,6-9.73,10A12.19,12.19,0,0,0,98,123.09c.7,3.32,4.17,6.45,9.64,5.77a6.09,6.09,0,0,0,3.88-2.06,12.7,12.7,0,0,1-3.16,7.15h10.6a13.56,13.56,0,0,1-2.87-7.13,6.09,6.09,0,0,0,3.86,2c5.46.68,8.94-2.44,9.64-5.77A12.19,12.19,0,0,0,126.29,111.75Z"/><path class="cls-3" d="M126.29,194.59c-3.68,4-7.95,7.92-9.73,10-1.34,1.54-2.29,2.71-2.68,3.2V208l-.1-.13-.1.13v-.25c-.39-.49-1.34-1.66-2.68-3.2-1.79-2.05-6.06-6-9.73-10A12.19,12.19,0,0,1,98,183.25c.7-3.32,4.17-6.45,9.64-5.77a6.09,6.09,0,0,1,3.88,2.06,12.7,12.7,0,0,0-3.16-7.15h10.6a13.56,13.56,0,0,0-2.87,7.13,6.09,6.09,0,0,1,3.86-2c5.46-.68,8.94,2.44,9.64,5.77A12.19,12.19,0,0,1,126.29,194.59Z"/><path class="cls-3" d="M95.79,158.71c-3.68,4-7.95,7.92-9.73,10-1.34,1.54-2.29,2.71-2.68,3.2v.25l-.1-.13-.1.13v-.25c-.39-.49-1.34-1.66-2.68-3.2-1.79-2.05-6.06-6-9.73-10a12.19,12.19,0,0,1-3.28-11.34c.7-3.32,4.17-6.45,9.64-5.77A6.09,6.09,0,0,1,81,143.67a12.7,12.7,0,0,0-3.16-7.15h10.6a13.56,13.56,0,0,0-2.87,7.13,6.09,6.09,0,0,1,3.86-2c5.46-.68,8.94,2.44,9.64,5.77A12.19,12.19,0,0,1,95.79,158.71Z"/><path class="cls-3" d="M152.67,197c-1.07,1.17-2.32,2.31-2.84,2.91s-.67.79-.78.93v.07l0,0,0,0v-.07c-.11-.14-.39-.48-.78-.93s-1.77-1.74-2.84-2.91a3.56,3.56,0,0,1-1-3.31,2.38,2.38,0,0,1,2.81-1.68,1.78,1.78,0,0,1,1.13.6,3.7,3.7,0,0,0-.92-2.09h3.09a4,4,0,0,0-.84,2.08,1.78,1.78,0,0,1,1.13-.59,2.38,2.38,0,0,1,2.81,1.68A3.56,3.56,0,0,1,152.67,197Z"/><path class="cls-3" d="M22.36,30.87C21.28,29.7,20,28.56,19.52,28s-.67-.79-.78-.93V27l0,0,0,0V27c-.11.14-.39.48-.78.93s-1.77,1.74-2.84,2.91a3.56,3.56,0,0,0-1,3.31,2.38,2.38,0,0,0,2.81,1.68,1.78,1.78,0,0,0,1.13-.6,3.7,3.7,0,0,1-.92,2.09h3.09a4,4,0,0,1-.84-2.08,1.78,1.78,0,0,0,1.13.59,2.38,2.38,0,0,0,2.81-1.68A3.56,3.56,0,0,0,22.36,30.87Z"/></g></g></svg>