<svg id="svg2" xmlns="http://www.w3.org/2000/svg" viewBox="0 0 167.09 242.67"><title>8-Spades</title><g id="Layer_1"><g id="path5"><path d="M166.84,235.55a6.89,6.89,0,0,1-6.87,6.87H7.11a6.88,6.88,0,0,1-6.86-6.87V7.12A6.89,6.89,0,0,1,7.11.25H160a6.89,6.89,0,0,1,6.87,6.87Z" transform="translate(0 0)" style="fill:#fff"/><path d="M160,242.67H7.11A7.12,7.12,0,0,1,0,235.55V7.12A7.12,7.12,0,0,1,7.11,0H160a7.13,7.13,0,0,1,7.12,7.12V235.55A7.13,7.13,0,0,1,160,242.67ZM7.11.5A6.62,6.62,0,0,0,.5,7.12V235.55a6.62,6.62,0,0,0,6.61,6.62H160a6.63,6.63,0,0,0,6.62-6.62V7.12A6.63,6.63,0,0,0,160,.5Z" transform="translate(0 0)"/></g></g><g id="text3788" style="isolation:isolate"><g style="isolation:isolate"><path d="M14.2,15.59a5.29,5.29,0,0,1-2.59-1.83,4.78,4.78,0,0,1-.84-2.84,5.56,5.56,0,0,1,1.8-4.2A6.67,6.67,0,0,1,17.34,5a6.71,6.71,0,0,1,4.83,1.74A5.64,5.64,0,0,1,24,11a4.67,4.67,0,0,1-.84,2.77,5.27,5.27,0,0,1-2.54,1.82,6.16,6.16,0,0,1,3.21,2.22,6.1,6.1,0,0,1,1.1,3.66,6.58,6.58,0,0,1-2.08,4.94,7.55,7.55,0,0,1-5.47,2,7.54,7.54,0,0,1-5.47-2,6.68,6.68,0,0,1-2.08-5A6.05,6.05,0,0,1,11,17.65,5.68,5.68,0,0,1,14.2,15.59ZM12.73,21.4a5.08,5.08,0,0,0,.57,2.33A4,4,0,0,0,15,25.47a5,5,0,0,0,2.42.62,4.54,4.54,0,0,0,3.33-1.3,4.44,4.44,0,0,0,1.31-3.3,4.51,4.51,0,0,0-1.35-3.36,4.64,4.64,0,0,0-3.38-1.33,4.47,4.47,0,0,0-4.59,4.59Zm.91-10.58a3.56,3.56,0,0,0,1,2.66,3.71,3.71,0,0,0,2.72,1,3.64,3.64,0,0,0,2.66-1,3.38,3.38,0,0,0,1-2.51A3.51,3.51,0,0,0,20,8.38a3.64,3.64,0,0,0-2.66-1.05,3.68,3.68,0,0,0-2.67,1A3.32,3.32,0,0,0,13.64,10.83Z" transform="translate(0 0)"/></g></g><g id="layer1-7"><g id="sl"><path d="M29,49.35c-.37-5.6-11.69-16.13-12.05-18.76C16.56,33.22,5.24,43.75,4.88,49.35A4.9,4.9,0,0,0,10,54.94c2.77,0,5.06-3.86,5.84-4.61.37,1-2.42,9.22-3.29,9.22h8.77c-.87,0-3.65-8.23-3.29-9.22.69.68,2.71,4.49,5.84,4.61A4.9,4.9,0,0,0,29,49.35Z" transform="translate(0 0)"/></g></g><g id="layer1-7-88"><g id="sl-4"><path d="M75.77,52.08c-.64-9.82-20.52-28.32-21.16-32.94C54,23.76,34.09,42.25,33.45,52.08c-.45,6.95,4.49,9.82,9,9.82,4.86-.05,8.88-6.78,10.26-8.09C53.33,55.55,48.44,70,46.92,70H62.31c-1.53,0-6.41-14.45-5.77-16.18C57.75,55,61.3,61.7,66.8,61.91,71.28,61.9,76.22,59,75.77,52.08Z" transform="translate(0 0)"/></g></g><g id="text3788-7" style="isolation:isolate"><g style="isolation:isolate"><path d="M153.32,227.55a5.29,5.29,0,0,1,2.59,1.83,4.78,4.78,0,0,1,.84,2.84,5.56,5.56,0,0,1-1.8,4.2,7.56,7.56,0,0,1-9.61,0,5.64,5.64,0,0,1-1.83-4.24,4.67,4.67,0,0,1,.84-2.77,5.27,5.27,0,0,1,2.54-1.82,6.16,6.16,0,0,1-3.21-2.22,6.1,6.1,0,0,1-1.1-3.66,6.58,6.58,0,0,1,2.08-4.94,8.46,8.46,0,0,1,10.94,0,6.68,6.68,0,0,1,2.08,5,6.06,6.06,0,0,1-1.13,3.74A5.68,5.68,0,0,1,153.32,227.55Zm1.47-5.81a5.09,5.09,0,0,0-.57-2.33,4,4,0,0,0-1.7-1.74,5,5,0,0,0-2.42-.62,4.54,4.54,0,0,0-3.33,1.3,4.44,4.44,0,0,0-1.31,3.3,4.51,4.51,0,0,0,1.35,3.36,4.63,4.63,0,0,0,3.38,1.33,4.47,4.47,0,0,0,4.59-4.59Zm-.91,10.58a3.56,3.56,0,0,0-1-2.66,3.71,3.71,0,0,0-2.72-1,3.64,3.64,0,0,0-2.66,1,3.38,3.38,0,0,0-1,2.51,3.51,3.51,0,0,0,1.07,2.6,3.93,3.93,0,0,0,5.34,0A3.32,3.32,0,0,0,153.88,232.31Z" transform="translate(0 0)"/></g></g><g id="layer1-7-3"><g id="sl-1"><path d="M138.17,193.76c.37,5.6,11.69,16.13,12.05,18.76.37-2.63,11.69-13.17,12.05-18.76a4.9,4.9,0,0,0-5.11-5.6c-2.77,0-5.06,3.86-5.84,4.61-.37-1,2.42-9.22,3.29-9.22h-8.77c.87,0,3.65,8.23,3.29,9.22-.69-.68-2.71-4.49-5.84-4.61A4.9,4.9,0,0,0,138.17,193.76Z" transform="translate(0 0)"/></g></g><g id="layer1-7-88-7"><g id="sl-4-5"><path d="M33.5,191.06C34.14,200.88,54,219.37,54.66,224c.64-4.62,20.52-23.12,21.16-32.94.45-6.95-4.49-9.82-9-9.82C62,181.28,58,188,56.58,189.32c-.64-1.73,4.25-16.18,5.77-16.18H47c1.53,0,6.41,14.45,5.77,16.18-1.21-1.2-4.76-7.89-10.26-8.09C38,181.23,33,184.11,33.5,191.06Z" transform="translate(0 0)"/></g></g><g id="layer1-7-88-6"><g id="sl-4-8"><path d="M75.85,126.58c-.64-9.82-20.52-28.32-21.16-32.94-.64,4.62-20.52,23.12-21.16,32.94-.45,6.95,4.49,9.82,9,9.82,4.86-.05,8.88-6.78,10.26-8.09C53.41,130,48.53,144.5,47,144.5H62.39c-1.53,0-6.41-14.45-5.77-16.18,1.21,1.2,4.76,7.89,10.26,8.09C71.37,136.4,76.3,133.53,75.85,126.58Z" transform="translate(0 0)"/></g></g><g id="layer1-7-88-68"><g id="sl-4-84"><path d="M133.66,51.88c-.64-9.82-20.52-28.32-21.16-32.94C111.86,23.56,92,42.05,91.34,51.88c-.45,6.95,4.49,9.82,9,9.82,4.86-.05,8.88-6.78,10.26-8.09.64,1.73-4.25,16.18-5.77,16.18h15.39c-1.53,0-6.41-14.45-5.77-16.18,1.21,1.2,4.76,7.89,10.26,8.09C129.17,61.7,134.11,58.83,133.66,51.88Z" transform="translate(0 0)"/></g></g><g id="layer1-7-88-7-3"><g id="sl-4-5-1"><path d="M91.38,190.86c.64,9.82,20.52,28.32,21.16,32.94.64-4.62,20.52-23.12,21.16-32.94.45-6.95-4.49-9.82-9-9.82-4.86.05-8.88,6.78-10.26,8.09-.64-1.73,4.25-16.18,5.77-16.18H104.85c1.53,0,6.41,14.45,5.77,16.18-1.21-1.2-4.76-7.89-10.26-8.09C95.87,181,90.94,183.91,91.38,190.86Z" transform="translate(0 0)"/></g></g><g id="layer1-7-88-6-4"><g id="sl-4-8-9"><path d="M133.74,126.38c-.64-9.82-20.52-28.32-21.16-32.94-.64,4.62-20.52,23.12-21.16,32.94-.45,6.95,4.49,9.82,9,9.82,4.86-.05,8.88-6.78,10.26-8.09.64,1.73-4.25,16.18-5.77,16.18h15.39c-1.53,0-6.41-14.45-5.77-16.18,1.21,1.2,4.76,7.89,10.26,8.09C129.26,136.21,134.19,133.33,133.74,126.38Z" transform="translate(0 0)"/></g></g><g id="layer1-7-88-688"><g id="sl-4-4"><path d="M104.65,91.45C104,81.63,84.14,63.14,83.49,58.51,82.85,63.13,63,81.63,62.33,91.45c-.45,6.95,4.49,9.82,9,9.82,4.86-.05,8.88-6.78,10.26-8.09.64,1.73-4.25,16.18-5.77,16.18H91.19c-1.53,0-6.41-14.45-5.77-16.18,1.21,1.2,4.76,7.89,10.26,8.09C100.17,101.28,105.1,98.4,104.65,91.45Z" transform="translate(0 0)"/></g></g><g id="layer1-7-88-688-6"><g id="sl-4-4-8"><path d="M62,154.29c.64,9.82,20.52,28.32,21.16,32.94.64-4.62,20.52-23.12,21.16-32.94.45-6.95-4.49-9.82-9-9.82-4.86.05-8.88,6.78-10.26,8.09-.64-1.73,4.25-16.18,5.77-16.18H75.47c1.53,0,6.41,14.45,5.77,16.18-1.21-1.2-4.76-7.89-10.26-8.09C66.49,144.47,61.56,147.34,62,154.29Z" transform="translate(0 0)"/></g></g></svg>