<svg id="svg2" xmlns="http://www.w3.org/2000/svg" viewBox="0 0 167.09 242.67"><title>9-Clubs</title><g id="Layer_1"><g id="path5"><path d="M166.84,235.55a6.89,6.89,0,0,1-6.87,6.87H7.11a6.88,6.88,0,0,1-6.86-6.87V7.12A6.89,6.89,0,0,1,7.11.25H160a6.89,6.89,0,0,1,6.87,6.87Z" transform="translate(0 0)" style="fill:#fff"/><path d="M160,242.67H7.11A7.12,7.12,0,0,1,0,235.55V7.12A7.12,7.12,0,0,1,7.11,0H160a7.13,7.13,0,0,1,7.12,7.12V235.55A7.13,7.13,0,0,1,160,242.67ZM7.11.5A6.62,6.62,0,0,0,.5,7.12V235.55a6.62,6.62,0,0,0,6.61,6.62H160a6.63,6.63,0,0,0,6.62-6.62V7.12A6.63,6.63,0,0,0,160,.5Z" transform="translate(0 0)"/></g></g><g id="text3788" style="isolation:isolate"><g style="isolation:isolate"><path d="M10.06,22.25l2.7-.25a4.69,4.69,0,0,0,1.31,2.77,3.6,3.6,0,0,0,2.48.86A4.28,4.28,0,0,0,18.83,25a4.85,4.85,0,0,0,1.6-1.59,9.32,9.32,0,0,0,1-2.68,14.12,14.12,0,0,0,.42-3.44q0-.19,0-.56a6.43,6.43,0,0,1-2.3,2.18,6.26,6.26,0,0,1-3.16.84,6.4,6.4,0,0,1-4.81-2.06,7.55,7.55,0,0,1-2-5.44,7.73,7.73,0,0,1,2.05-5.61,6.87,6.87,0,0,1,5.15-2.12,7.35,7.35,0,0,1,4.09,1.2,7.52,7.52,0,0,1,2.81,3.43,16.89,16.89,0,0,1,1,6.45,20.86,20.86,0,0,1-1,7,8.19,8.19,0,0,1-2.84,4,7.34,7.34,0,0,1-4.41,1.36,6.42,6.42,0,0,1-4.39-1.49A6.41,6.41,0,0,1,10.06,22.25ZM21.58,12.14A5.51,5.51,0,0,0,20.29,8.3a4,4,0,0,0-3.1-1.42,4.28,4.28,0,0,0-3.27,1.53,5.68,5.68,0,0,0-1.39,4,4.9,4.9,0,0,0,1.32,3.55,4.35,4.35,0,0,0,3.26,1.37,4.17,4.17,0,0,0,3.21-1.37A5.38,5.38,0,0,0,21.58,12.14Z" transform="translate(0 0)"/></g></g><g id="layer1-1-4"><g id="cl-9"><path d="M20.69,43.74s3.53-2.82,3.53-6.74a6.47,6.47,0,0,0-6.74-6.09A6.47,6.47,0,0,0,10.75,37c0,3.91,3.53,6.74,3.53,6.74-3.92-3.05-10.91-1-10.91,5.13a6.48,6.48,0,0,0,6.42,6.42c4.7,0,6.74-5.13,6.74-5.13s.6,5.85-2.89,9h7.7c-3.48-3.13-2.89-9-2.89-9s2,5.13,6.74,5.13a6.48,6.48,0,0,0,6.42-6.42C31.6,42.77,24.61,40.69,20.69,43.74Z" transform="translate(0 0)"/></g></g><g id="text3788-8" style="isolation:isolate"><g style="isolation:isolate"><path d="M157.11,219.76l-2.7.25a4.7,4.7,0,0,0-1.31-2.77,3.6,3.6,0,0,0-2.48-.86,4.28,4.28,0,0,0-2.27.59,4.85,4.85,0,0,0-1.6,1.59,9.31,9.31,0,0,0-1,2.68,14.12,14.12,0,0,0-.42,3.44c0,.13,0,.31,0,.56a6.43,6.43,0,0,1,2.3-2.18,6.26,6.26,0,0,1,3.16-.84,6.4,6.4,0,0,1,4.81,2.06,7.55,7.55,0,0,1,2,5.44,7.73,7.73,0,0,1-2.05,5.61,6.87,6.87,0,0,1-5.15,2.13,7.35,7.35,0,0,1-4.09-1.2,7.52,7.52,0,0,1-2.81-3.43,16.89,16.89,0,0,1-1-6.45,20.85,20.85,0,0,1,1-7,8.19,8.19,0,0,1,2.84-4,7.34,7.34,0,0,1,4.41-1.36,6.05,6.05,0,0,1,6.44,5.69ZM145.6,229.87a5.51,5.51,0,0,0,1.29,3.84,4,4,0,0,0,3.1,1.42,4.28,4.28,0,0,0,3.27-1.53,5.68,5.68,0,0,0,1.39-4,4.9,4.9,0,0,0-1.32-3.55,4.35,4.35,0,0,0-3.26-1.37,4.17,4.17,0,0,0-3.21,1.37A5.38,5.38,0,0,0,145.6,229.87Z" transform="translate(0 0)"/></g></g><g id="layer1-1-4-1"><g id="cl-9-7"><path d="M146.48,198.74s-3.53,2.82-3.53,6.74a6.77,6.77,0,0,0,13.47,0c0-3.91-3.53-6.74-3.53-6.74,3.92,3.05,10.91,1,10.91-5.13a6.48,6.48,0,0,0-6.42-6.42c-4.7,0-6.74,5.13-6.74,5.13s-.6-5.85,2.89-9h-7.7c3.48,3.13,2.89,9,2.89,9s-2-5.13-6.74-5.13a6.48,6.48,0,0,0-6.42,6.42C135.58,199.71,142.56,201.79,146.48,198.74Z" transform="translate(0 0)"/></g></g><g id="cl-9-8"><path d="M57.57,25.1s6-4.77,6-11.39A10.94,10.94,0,0,0,52.15,3.4,11,11,0,0,0,40.76,13.71c0,6.62,6,11.39,6,11.39-6.63-5.16-18.44-1.64-18.44,8.68A11,11,0,0,0,39.13,44.63c8,0,11.39-8.68,11.39-8.68s1,9.89-4.88,15.19h13c-5.89-5.29-4.88-15.19-4.88-15.19s3.44,8.68,11.39,8.68A11,11,0,0,0,76,33.78C76,23.46,64.2,19.94,57.57,25.1Z" transform="translate(0 0)"/></g><g id="cl-9-8-0"><path d="M57.11,93.2s6-4.77,6-11.39A10.94,10.94,0,0,0,51.69,71.5,11,11,0,0,0,40.29,81.81c0,6.62,6,11.39,6,11.39-6.63-5.16-18.44-1.64-18.44,8.68a11,11,0,0,0,10.85,10.85c8,0,11.39-8.68,11.39-8.68s1,9.89-4.88,15.19h13c-5.89-5.29-4.88-15.19-4.88-15.19s3.44,8.68,11.39,8.68a11,11,0,0,0,10.85-10.85C75.56,91.56,63.74,88,57.11,93.2Z" transform="translate(0 0)"/></g><g id="cl-9-8-9"><path d="M121.56,24.93s6-4.77,6-11.39a11.45,11.45,0,0,0-22.78,0c0,6.62,6,11.39,6,11.39-6.63-5.16-18.44-1.64-18.44,8.68a11,11,0,0,0,10.85,10.85c8,0,11.39-8.68,11.39-8.68s1,9.89-4.88,15.19h13c-5.89-5.29-4.88-15.19-4.88-15.19s3.44,8.68,11.39,8.68A11,11,0,0,0,140,33.61C140,23.29,128.19,19.76,121.56,24.93Z" transform="translate(0 0)"/></g><g id="cl-9-8-0-4"><path d="M121.56,93s6-4.77,6-11.39a11.45,11.45,0,0,0-22.78,0c0,6.62,6,11.39,6,11.39-6.63-5.16-18.44-1.64-18.44,8.68a11,11,0,0,0,10.85,10.85c8,0,11.39-8.68,11.39-8.68s1,9.89-4.88,15.19h13c-5.89-5.29-4.88-15.19-4.88-15.19s3.44,8.68,11.39,8.68A11,11,0,0,0,140,101.71C140,91.39,128.19,87.86,121.56,93Z" transform="translate(0 0)"/></g><g id="cl-9-8-8"><path d="M89.58,59.28s6-4.77,6-11.39A10.94,10.94,0,0,0,84.15,37.58,11,11,0,0,0,72.76,47.89c0,6.62,6,11.39,6,11.39C72.1,54.12,60.28,57.64,60.28,68A11,11,0,0,0,71.13,78.81c8,0,11.39-8.68,11.39-8.68s1,9.89-4.88,15.19h13C84.77,80,85.78,70.13,85.78,70.13s3.44,8.68,11.39,8.68A11,11,0,0,0,108,68C108,57.64,96.2,54.12,89.58,59.28Z" transform="translate(0 0)"/></g><g id="cl-9-8-4"><path d="M110.06,217.8s-6,4.77-6,11.39a11.45,11.45,0,0,0,22.78,0c0-6.62-6-11.39-6-11.39,6.63,5.16,18.44,1.64,18.44-8.68a11,11,0,0,0-10.85-10.85c-8,0-11.39,8.68-11.39,8.68s-1-9.89,4.88-15.19H109c5.89,5.29,4.88,15.19,4.88,15.19s-3.44-8.68-11.39-8.68a11,11,0,0,0-10.85,10.85C91.62,219.44,103.43,223,110.06,217.8Z" transform="translate(0 0)"/></g><g id="cl-9-8-0-2"><path d="M110.71,149.7s-6,4.77-6,11.39a11.45,11.45,0,0,0,22.78,0c0-6.62-6-11.39-6-11.39,6.63,5.16,18.44,1.64,18.44-8.68a11,11,0,0,0-10.85-10.85c-8,0-11.39,8.68-11.39,8.68s-1-9.89,4.88-15.19h-13c5.89,5.29,4.88,15.19,4.88,15.19s-3.44-8.68-11.39-8.68A11,11,0,0,0,92.26,141C92.26,151.34,104.08,154.86,110.71,149.7Z" transform="translate(0 0)"/></g><g id="cl-9-8-9-6"><path d="M46.08,218s-6,4.77-6,11.39A10.94,10.94,0,0,0,51.5,239.67a11,11,0,0,0,11.39-10.31c0-6.62-6-11.39-6-11.39,6.63,5.16,18.44,1.64,18.44-8.68a11,11,0,0,0-10.85-10.85c-8,0-11.39,8.68-11.39,8.68s-1-9.89,4.88-15.19H45c5.89,5.29,4.88,15.19,4.88,15.19s-3.44-8.68-11.39-8.68a11,11,0,0,0-10.85,10.85C27.63,219.61,39.45,223.14,46.08,218Z" transform="translate(0 0)"/></g><g id="cl-9-8-0-4-9"><path d="M46.26,149.88s-6,4.77-6,11.39a10.94,10.94,0,0,0,11.39,10.31,11,11,0,0,0,11.39-10.31c0-6.62-6-11.39-6-11.39,6.63,5.16,18.44,1.64,18.44-8.68a11,11,0,0,0-10.85-10.85c-8,0-11.39,8.68-11.39,8.68s-1-9.89,4.88-15.19h-13c5.89,5.29,4.88,15.19,4.88,15.19s-3.44-8.68-11.39-8.68a11,11,0,0,0-10.85,10.85C27.82,151.51,39.63,155,46.26,149.88Z" transform="translate(0 0)"/></g></svg>