<svg xmlns="http://www.w3.org/2000/svg" viewBox="0 0 166.55 233.13"><defs><style>.cls-1{fill:#fff;}.cls-2{fill:#65a7dd;}.cls-3{fill:#151515;}</style></defs><title>Asset 47</title><g id="Layer_2" data-name="Layer 2"><g id="Objects"><rect class="cls-1" x="0.12" y="0.12" width="166.32" height="232.9" rx="5.94" ry="5.94"/><path class="cls-2" d="M160.5,233.13H6.05A6.06,6.06,0,0,1,0,227.08V6.06A6.06,6.06,0,0,1,6.05,0H160.5a6.06,6.06,0,0,1,6.05,6.06v221A6.06,6.06,0,0,1,160.5,233.13ZM6.05.23A5.83,5.83,0,0,0,.23,6.06v221a5.83,5.83,0,0,0,5.82,5.82H160.5a5.83,5.83,0,0,0,5.82-5.82V6.06A5.83,5.83,0,0,0,160.5.23Z"/><path class="cls-3" d="M21.64,33.44A2.45,2.45,0,0,0,19,33a1.91,1.91,0,0,0,.68-1.63s0-.05,0-.08a2.24,2.24,0,1,0-4.43.45A2,2,0,0,0,16,33a2.45,2.45,0,0,0-2.62.46,2.34,2.34,0,0,0-.19,2.91,2.08,2.08,0,0,0,2,1.09A2.52,2.52,0,0,0,17,36.63a4.61,4.61,0,0,1-1,2.58H19a4.35,4.35,0,0,1-1-2.57,2.5,2.5,0,0,0,1.85.79,2.08,2.08,0,0,0,2-1.09A2.34,2.34,0,0,0,21.64,33.44Z"/><path d="M13.48,24.56a2.15,2.15,0,0,1-.42-.78,2.7,2.7,0,0,1-.13-.76,1.4,1.4,0,0,1,.49-1.11,1.21,1.21,0,0,1,.8-.29.81.81,0,0,1,.7.35.77.77,0,0,1,.13.25,1.33,1.33,0,0,1,0,.31.89.89,0,0,1-.25.58,2.16,2.16,0,0,1-.37.33.72.72,0,0,0-.24.24.62.62,0,0,0-.07.3.74.74,0,0,0,.4.61,2.23,2.23,0,0,0,1.21.26,2.41,2.41,0,0,0,1.33-.41,3,3,0,0,0,1.06-1.36,7.05,7.05,0,0,0,.5-1.81,12,12,0,0,0,.17-1.81V18.6l-.14-.06a2.93,2.93,0,0,1-1.08,1.21,2.58,2.58,0,0,1-1.41.48A3.66,3.66,0,0,1,14,19.59a3.5,3.5,0,0,1-1.16-1.47,4.82,4.82,0,0,1-.41-2A5.19,5.19,0,0,1,12.9,14a4.46,4.46,0,0,1,1.37-1.76,3.37,3.37,0,0,1,2.12-.7,3.43,3.43,0,0,1,2.22.78,4.94,4.94,0,0,1,1.48,2.22A10,10,0,0,1,20.62,18a12.12,12.12,0,0,1-.41,3.12A7.13,7.13,0,0,1,19,23.67a4.13,4.13,0,0,1-3.32,1.82A2.89,2.89,0,0,1,13.48,24.56Zm3.9-5.49a3,3,0,0,0,.86-1.27,5.21,5.21,0,0,0,.32-1.89,6.07,6.07,0,0,0-.5-2.65,1.72,1.72,0,0,0-1.67-1,1.79,1.79,0,0,0-1.72,1.13,5.91,5.91,0,0,0-.53,2.56,6.27,6.27,0,0,0,.47,2.58,1.59,1.59,0,0,0,1.55,1A1.88,1.88,0,0,0,17.38,19.07Z"/><path class="cls-3" d="M143.66,199.16a2.45,2.45,0,0,0,2.62.46,1.91,1.91,0,0,0-.68,1.63s0,.05,0,.08a2.24,2.24,0,1,0,4.43-.45,2,2,0,0,0-.68-1.25,2.45,2.45,0,0,0,2.62-.46,2.34,2.34,0,0,0,.19-2.91,2.08,2.08,0,0,0-2-1.09,2.52,2.52,0,0,0-1.87.81,4.61,4.61,0,0,1,1-2.58h-3.06a4.35,4.35,0,0,1,1,2.57,2.5,2.5,0,0,0-1.85-.79,2.08,2.08,0,0,0-2,1.09A2.34,2.34,0,0,0,143.66,199.16Z"/><path d="M151.82,208.05a2.15,2.15,0,0,1,.42.78,2.7,2.7,0,0,1,.13.76,1.4,1.4,0,0,1-.49,1.11,1.21,1.21,0,0,1-.8.29.81.81,0,0,1-.7-.35.77.77,0,0,1-.13-.25,1.33,1.33,0,0,1,0-.31.89.89,0,0,1,.25-.58,2.17,2.17,0,0,1,.37-.33.72.72,0,0,0,.24-.24.62.62,0,0,0,.07-.3.74.74,0,0,0-.4-.61,2.23,2.23,0,0,0-1.21-.26,2.41,2.41,0,0,0-1.33.41,3,3,0,0,0-1.06,1.36,7,7,0,0,0-.5,1.81,12,12,0,0,0-.17,1.81V214l.14.06a2.93,2.93,0,0,1,1.08-1.21,2.58,2.58,0,0,1,1.41-.48,3.66,3.66,0,0,1,2.19.64,3.5,3.5,0,0,1,1.16,1.47,4.82,4.82,0,0,1,.41,2,5.19,5.19,0,0,1-.47,2.11,4.46,4.46,0,0,1-1.37,1.76,3.37,3.37,0,0,1-2.12.7,3.43,3.43,0,0,1-2.22-.78A4.94,4.94,0,0,1,145.2,218a10,10,0,0,1-.52-3.41,12.12,12.12,0,0,1,.41-3.12,7.13,7.13,0,0,1,1.18-2.54,4.13,4.13,0,0,1,3.32-1.82A2.88,2.88,0,0,1,151.82,208.05Zm-3.9,5.49a3,3,0,0,0-.86,1.27,5.21,5.21,0,0,0-.32,1.89,6.07,6.07,0,0,0,.5,2.65,1.72,1.72,0,0,0,1.67,1,1.79,1.79,0,0,0,1.72-1.13,5.91,5.91,0,0,0,.53-2.56,6.27,6.27,0,0,0-.47-2.58,1.59,1.59,0,0,0-1.55-1A1.88,1.88,0,0,0,147.92,213.54Z"/><path class="cls-3" d="M96.35,116.29c-3.58-3.91-9.07-1.59-9.07-1.59,1.54-1.64,2.56-2.95,2.37-5.64,0-.09,0-.18,0-.27a7.75,7.75,0,1,0-15.33,1.57c.18,1.86,1.1,3,2.36,4.34,0,0-5.5-2.32-9.07,1.59A8.1,8.1,0,0,0,67,126.36c1.13,1.52,2.81,4.08,6.79,3.79,3.52-.26,4-.86,6.45-2.79a16,16,0,0,1-3.51,8.94H87.28c-1.95-2-3.67-6.75-3.45-8.89,2.36,1.89,2.91,2.48,6.39,2.74,4,.3,5.66-2.26,6.79-3.79A8.1,8.1,0,0,0,96.35,116.29Z"/><path class="cls-3" d="M58.27,40.69c-3.58-3.91-9.07-1.59-9.07-1.59,1.54-1.64,2.56-2.95,2.37-5.64,0-.09,0-.18,0-.27a7.75,7.75,0,1,0-15.33,1.57c.18,1.86,1.1,3,2.36,4.34,0,0-5.5-2.32-9.07,1.59a8.1,8.1,0,0,0-.66,10.07c1.13,1.52,2.81,4.08,6.79,3.79,3.52-.26,4-.86,6.45-2.79a16,16,0,0,1-3.51,8.94H49.2c-1.95-2-3.67-6.75-3.45-8.89,2.36,1.89,2.91,2.48,6.39,2.74,4,.3,5.66-2.26,6.79-3.79A8.1,8.1,0,0,0,58.27,40.69Z"/><path class="cls-3" d="M58.27,90.85c-3.58-3.91-9.07-1.59-9.07-1.59,1.54-1.64,2.56-2.95,2.37-5.64,0-.09,0-.18,0-.27a7.75,7.75,0,1,0-15.33,1.57c.18,1.86,1.1,3,2.36,4.34,0,0-5.5-2.32-9.07,1.59a8.1,8.1,0,0,0-.66,10.07c1.13,1.52,2.81,4.08,6.79,3.79,3.52-.26,4-.86,6.45-2.79a16,16,0,0,1-3.51,8.94H49.2c-1.95-2-3.67-6.75-3.45-8.89,2.36,1.89,2.91,2.48,6.39,2.74,4,.3,5.66-2.26,6.79-3.79A8.1,8.1,0,0,0,58.27,90.85Z"/><path class="cls-3" d="M58.27,195.93c-3.58,3.91-9.07,1.59-9.07,1.59,1.54,1.64,2.56,2.95,2.37,5.64,0,.09,0,.18,0,.27a7.75,7.75,0,1,1-15.33-1.57c.18-1.86,1.1-3,2.36-4.34,0,0-5.5,2.32-9.07-1.59a8.1,8.1,0,0,1-.66-10.07c1.13-1.52,2.81-4.08,6.79-3.79,3.52.26,4,.86,6.45,2.79a16,16,0,0,0-3.51-8.94H49.2c-1.95,2-3.67,6.75-3.45,8.89,2.36-1.89,2.91-2.48,6.39-2.74,4-.3,5.66,2.26,6.79,3.79A8.1,8.1,0,0,1,58.27,195.93Z"/><path class="cls-3" d="M136.5,40.69c-3.58-3.91-9.07-1.59-9.07-1.59,1.54-1.64,2.56-2.95,2.37-5.64,0-.09,0-.18,0-.27a7.75,7.75,0,1,0-15.33,1.57c.18,1.86,1.1,3,2.36,4.34,0,0-5.5-2.32-9.07,1.59a8.1,8.1,0,0,0-.66,10.07c1.13,1.52,2.81,4.08,6.79,3.79,3.52-.26,4-.86,6.45-2.79a16,16,0,0,1-3.51,8.94h10.59c-1.95-2-3.67-6.75-3.45-8.89,2.36,1.89,2.91,2.48,6.39,2.74,4,.3,5.66-2.26,6.79-3.79A8.1,8.1,0,0,0,136.5,40.69Z"/><path class="cls-3" d="M136.5,90.85c-3.58-3.91-9.07-1.59-9.07-1.59,1.54-1.64,2.56-2.95,2.37-5.64,0-.09,0-.18,0-.27a7.75,7.75,0,1,0-15.33,1.57c.18,1.86,1.1,3,2.36,4.34,0,0-5.5-2.32-9.07,1.59a8.1,8.1,0,0,0-.66,10.07c1.13,1.52,2.81,4.08,6.79,3.79,3.52-.26,4-.86,6.45-2.79a16,16,0,0,1-3.51,8.94h10.59c-1.95-2-3.67-6.75-3.45-8.89,2.36,1.89,2.91,2.48,6.39,2.74,4,.3,5.66-2.26,6.79-3.79A8.1,8.1,0,0,0,136.5,90.85Z"/><path class="cls-3" d="M136.5,195.93c-3.58,3.91-9.07,1.59-9.07,1.59,1.54,1.64,2.56,2.95,2.37,5.64,0,.09,0,.18,0,.27a7.75,7.75,0,1,1-15.33-1.57c.18-1.86,1.1-3,2.36-4.34,0,0-5.5,2.32-9.07-1.59a8.1,8.1,0,0,1-.66-10.07c1.13-1.52,2.81-4.08,6.79-3.79,3.52.26,4,.86,6.45,2.79a16,16,0,0,0-3.51-8.94h10.59c-1.95,2-3.67,6.75-3.45,8.89,2.36-1.89,2.91-2.48,6.39-2.74,4-.3,5.66,2.26,6.79,3.79A8.1,8.1,0,0,1,136.5,195.93Z"/><path class="cls-3" d="M58.27,145.76c-3.58,3.91-9.07,1.59-9.07,1.59,1.54,1.64,2.56,2.95,2.37,5.64,0,.09,0,.18,0,.27a7.75,7.75,0,1,1-15.33-1.57c.18-1.86,1.1-3,2.36-4.34,0,0-5.5,2.32-9.07-1.59a8.1,8.1,0,0,1-.66-10.07c1.13-1.52,2.81-4.08,6.79-3.79,3.52.26,4,.86,6.45,2.79a16,16,0,0,0-3.51-8.94H49.2c-1.95,2-3.67,6.75-3.45,8.89,2.36-1.89,2.91-2.48,6.39-2.74,4-.3,5.66,2.26,6.79,3.79A8.1,8.1,0,0,1,58.27,145.76Z"/><path class="cls-3" d="M136.5,145.76c-3.58,3.91-9.07,1.59-9.07,1.59C129,149,130,150.3,129.8,153c0,.09,0,.18,0,.27a7.75,7.75,0,1,1-15.33-1.57c.18-1.86,1.1-3,2.36-4.34,0,0-5.5,2.32-9.07-1.59a8.1,8.1,0,0,1-.66-10.07c1.13-1.52,2.81-4.08,6.79-3.79,3.52.26,4,.86,6.45,2.79a16,16,0,0,0-3.51-8.94h10.59c-1.95,2-3.67,6.75-3.45,8.89,2.36-1.89,2.91-2.48,6.39-2.74,4-.3,5.66,2.26,6.79,3.79A8.1,8.1,0,0,1,136.5,145.76Z"/></g></g></svg>