<svg xmlns="http://www.w3.org/2000/svg" viewBox="0 0 166.48 233.07"><defs><style>.cls-1{fill:#fff;}.cls-2{fill:#65a7dd;}.cls-3{fill:#af0f07;}.cls-4{fill:#a43e32;}</style></defs><title>Asset 11</title><g id="Layer_2" data-name="Layer 2"><g id="Objects"><rect class="cls-1" x="0.12" y="0.11" width="166.25" height="232.84" rx="5.94" ry="5.94"/><path class="cls-2" d="M160.43,233.07H6.05A6.06,6.06,0,0,1,0,227V6.05A6.06,6.06,0,0,1,6.05,0H160.43a6.06,6.06,0,0,1,6.05,6.05V227A6.06,6.06,0,0,1,160.43,233.07ZM6.05.23A5.83,5.83,0,0,0,.23,6.05V227a5.83,5.83,0,0,0,5.82,5.82H160.43a5.83,5.83,0,0,0,5.82-5.82V6.05A5.83,5.83,0,0,0,160.43.23Z"/><circle class="cls-1" cx="148.53" cy="18.48" r="0.57"/><circle class="cls-1" cx="121.42" cy="18.48" r="0.57"/><circle class="cls-1" cx="96.48" cy="18.48" r="0.57"/><circle class="cls-1" cx="71.45" cy="18.66" r="0.57"/><circle class="cls-1" cx="148.53" cy="39.61" r="0.57"/><circle class="cls-1" cx="148.53" cy="58.9" r="0.57"/><circle class="cls-1" cx="148.53" cy="79.11" r="0.57"/><circle class="cls-1" cx="148.53" cy="91.89" r="0.57"/><circle class="cls-1" cx="148.53" cy="104.72" r="0.57"/><circle class="cls-1" cx="18.32" cy="19.04" r="0.57"/><circle class="cls-1" cx="45.74" cy="18.66" r="0.57"/><circle class="cls-1" cx="18.32" cy="39.16" r="0.57"/><circle class="cls-1" cx="18.32" cy="59.03" r="0.57"/><circle class="cls-1" cx="18.32" cy="78.97" r="0.57"/><circle class="cls-1" cx="18.32" cy="91.89" r="0.57"/><circle class="cls-1" cx="18.32" cy="105.28" r="0.57"/><circle class="cls-1" cx="18.32" cy="118.21" r="0.57"/><circle class="cls-1" cx="18.32" cy="131.13" r="0.57"/><circle class="cls-1" cx="18.32" cy="144.53" r="0.57"/><circle class="cls-1" cx="18.32" cy="157.95" r="0.57"/><circle class="cls-1" cx="18.32" cy="169.95" r="0.57"/><circle class="cls-1" cx="18.32" cy="183.35" r="0.57"/><circle class="cls-1" cx="18.32" cy="196.39" r="0.57"/><circle class="cls-1" cx="18.55" cy="215.57" r="0.57"/><circle class="cls-1" cx="39.07" cy="216.14" r="0.57"/><circle class="cls-1" cx="65.5" cy="216.14" r="0.57"/><circle class="cls-1" cx="91.89" cy="216.14" r="0.57"/><circle class="cls-1" cx="117.59" cy="216.14" r="0.57"/><circle class="cls-1" cx="148.53" cy="117.9" r="0.57"/><circle class="cls-1" cx="148.53" cy="130.22" r="0.57"/><circle class="cls-1" cx="148.53" cy="143.51" r="0.57"/><circle class="cls-1" cx="148.53" cy="156.61" r="0.57"/><circle class="cls-1" cx="148.53" cy="169.36" r="0.57"/><circle class="cls-1" cx="148.53" cy="181.94" r="0.57"/><circle class="cls-1" cx="148.53" cy="194.77" r="0.57"/><circle class="cls-1" cx="148.53" cy="214.34" r="0.57"/><polygon class="cls-3" points="148.29 193.01 143.57 198.22 147.77 203.95 152.62 198.69 148.29 193.01"/><polygon class="cls-3" points="15.39 30.07 10.66 35.28 14.87 41.01 19.71 35.75 15.39 30.07"/><path class="cls-4" d="M12.69,24.93a2.14,2.14,0,0,1-.42-.78,2.72,2.72,0,0,1-.13-.76,1.41,1.41,0,0,1,.49-1.11,1.21,1.21,0,0,1,.8-.29.81.81,0,0,1,.7.35.79.79,0,0,1,.13.25,1.35,1.35,0,0,1,0,.31.9.9,0,0,1-.25.58,2.18,2.18,0,0,1-.37.33.72.72,0,0,0-.24.24.63.63,0,0,0-.07.3.74.74,0,0,0,.4.61,2.24,2.24,0,0,0,1.21.26,2.41,2.41,0,0,0,1.33-.41,3,3,0,0,0,1.06-1.36,7,7,0,0,0,.51-1.81A11.94,11.94,0,0,0,18,19.85V19l-.14-.06a2.93,2.93,0,0,1-1.08,1.21,2.58,2.58,0,0,1-1.41.48A3.66,3.66,0,0,1,13.22,20a3.5,3.5,0,0,1-1.16-1.46,4.82,4.82,0,0,1-.41-2,5.19,5.19,0,0,1,.47-2.11,4.46,4.46,0,0,1,1.37-1.76A3.37,3.37,0,0,1,15.6,12a3.43,3.43,0,0,1,2.22.78A4.93,4.93,0,0,1,19.31,15a10,10,0,0,1,.52,3.41,12.11,12.11,0,0,1-.41,3.12A7.13,7.13,0,0,1,18.24,24a4.13,4.13,0,0,1-3.32,1.82A2.88,2.88,0,0,1,12.69,24.93Zm3.9-5.49a3,3,0,0,0,.86-1.27,5.21,5.21,0,0,0,.32-1.89,6.06,6.06,0,0,0-.51-2.65,1.72,1.72,0,0,0-1.67-1,1.79,1.79,0,0,0-1.72,1.13,5.91,5.91,0,0,0-.53,2.56,6.26,6.26,0,0,0,.47,2.58,1.59,1.59,0,0,0,1.55,1A1.87,1.87,0,0,0,16.59,19.44Z"/><path class="cls-3" d="M151,208.38a2.14,2.14,0,0,1,.42.78,2.71,2.71,0,0,1,.13.76A1.41,1.41,0,0,1,151,211a1.21,1.21,0,0,1-.8.29.81.81,0,0,1-.7-.35.8.8,0,0,1-.13-.25,1.36,1.36,0,0,1,0-.31.9.9,0,0,1,.25-.58,2.19,2.19,0,0,1,.37-.33.71.71,0,0,0,.24-.24.63.63,0,0,0,.07-.3.74.74,0,0,0-.4-.61,2.23,2.23,0,0,0-1.21-.26,2.41,2.41,0,0,0-1.33.41,3,3,0,0,0-1.06,1.36,7,7,0,0,0-.51,1.81,12,12,0,0,0-.17,1.81v.87l.14.06a2.93,2.93,0,0,1,1.08-1.21,2.57,2.57,0,0,1,1.41-.48,3.67,3.67,0,0,1,2.19.64,3.51,3.51,0,0,1,1.16,1.47,4.82,4.82,0,0,1,.41,2,5.19,5.19,0,0,1-.47,2.11,4.46,4.46,0,0,1-1.37,1.76,3.37,3.37,0,0,1-2.12.7,3.43,3.43,0,0,1-2.22-.78,4.93,4.93,0,0,1-1.48-2.22,10,10,0,0,1-.52-3.41,12.11,12.11,0,0,1,.41-3.12,7.12,7.12,0,0,1,1.18-2.54,4.13,4.13,0,0,1,3.32-1.82A2.88,2.88,0,0,1,151,208.38Zm-3.9,5.49a3,3,0,0,0-.86,1.27,5.21,5.21,0,0,0-.32,1.89,6.07,6.07,0,0,0,.51,2.65,1.72,1.72,0,0,0,1.67,1,1.79,1.79,0,0,0,1.72-1.13,5.91,5.91,0,0,0,.53-2.56,6.27,6.27,0,0,0-.47-2.58,1.59,1.59,0,0,0-1.55-1A1.88,1.88,0,0,0,147.08,213.87Z"/><polygon class="cls-3" points="48.63 24.91 35.34 41.06 48.63 57.47 62.27 41.19 48.63 24.91"/><polygon class="cls-3" points="83.39 101.84 70.1 117.99 83.39 134.4 97.03 118.12 83.39 101.84"/><polygon class="cls-3" points="48.63 74.77 35.34 90.92 48.63 107.32 62.27 91.05 48.63 74.77"/><polygon class="cls-3" points="48.63 124.63 35.34 140.77 48.63 157.18 62.27 140.9 48.63 124.63"/><polygon class="cls-3" points="48.63 174.48 35.34 190.63 48.63 207.04 62.27 190.76 48.63 174.48"/><polygon class="cls-3" points="117.91 24.91 104.61 41.06 117.91 57.47 131.54 41.19 117.91 24.91"/><polygon class="cls-3" points="117.91 74.77 104.61 90.92 117.91 107.32 131.54 91.05 117.91 74.77"/><polygon class="cls-3" points="117.91 124.63 104.61 140.77 117.91 157.18 131.54 140.9 117.91 124.63"/><polygon class="cls-3" points="117.91 174.48 104.61 190.63 117.91 207.04 131.54 190.76 117.91 174.48"/></g></g></svg>