<svg id="svg2" xmlns="http://www.w3.org/2000/svg" viewBox="0 0 167.09 242.67"><title>9-Diamonds</title><g id="Layer_1"><g id="path5"><path d="M166.84,235.55a6.89,6.89,0,0,1-6.87,6.87H7.11a6.88,6.88,0,0,1-6.86-6.87V7.12A6.89,6.89,0,0,1,7.11.25H160a6.89,6.89,0,0,1,6.87,6.87Z" transform="translate(0 0)" style="fill:#fff"/><path d="M160,242.67H7.11A7.12,7.12,0,0,1,0,235.55V7.12A7.12,7.12,0,0,1,7.11,0H160a7.13,7.13,0,0,1,7.12,7.12V235.55A7.13,7.13,0,0,1,160,242.67ZM7.11.5A6.62,6.62,0,0,0,.5,7.12V235.55a6.62,6.62,0,0,0,6.61,6.62H160a6.63,6.63,0,0,0,6.62-6.62V7.12A6.63,6.63,0,0,0,160,.5Z" transform="translate(0 0)"/></g></g><g id="text3788" style="isolation:isolate"><g style="isolation:isolate"><path d="M9.6,21.12l2.7-.25a4.69,4.69,0,0,0,1.31,2.77,3.6,3.6,0,0,0,2.48.86,4.28,4.28,0,0,0,2.27-.59A4.85,4.85,0,0,0,20,22.31a9.32,9.32,0,0,0,1-2.68,14.12,14.12,0,0,0,.42-3.44q0-.19,0-.56a6.43,6.43,0,0,1-2.3,2.18,6.26,6.26,0,0,1-3.16.84,6.4,6.4,0,0,1-4.81-2.06,7.55,7.55,0,0,1-2-5.44,7.73,7.73,0,0,1,2.05-5.61,6.87,6.87,0,0,1,5.15-2.12,7.35,7.35,0,0,1,4.09,1.2A7.52,7.52,0,0,1,23.28,8a16.89,16.89,0,0,1,1,6.45,20.86,20.86,0,0,1-1,7,8.19,8.19,0,0,1-2.84,4A7.34,7.34,0,0,1,16,26.8a6.42,6.42,0,0,1-4.39-1.49A6.41,6.41,0,0,1,9.6,21.12ZM21.11,11a5.51,5.51,0,0,0-1.29-3.84,4,4,0,0,0-3.1-1.42,4.28,4.28,0,0,0-3.27,1.53,5.68,5.68,0,0,0-1.39,4,4.9,4.9,0,0,0,1.32,3.55,4.35,4.35,0,0,0,3.26,1.37,4.17,4.17,0,0,0,3.21-1.37A5.38,5.38,0,0,0,21.11,11Z" transform="translate(0 0)" style="fill:#df0000"/></g></g><g id="text3788-4" style="isolation:isolate"><g style="isolation:isolate"><path d="M157.74,222l-2.7.25a4.68,4.68,0,0,0-1.31-2.77,3.6,3.6,0,0,0-2.48-.86,4.28,4.28,0,0,0-2.27.59,4.85,4.85,0,0,0-1.6,1.59,9.34,9.34,0,0,0-1,2.68,14.12,14.12,0,0,0-.42,3.44c0,.13,0,.31,0,.56a6.43,6.43,0,0,1,2.3-2.18,6.26,6.26,0,0,1,3.16-.84,6.4,6.4,0,0,1,4.81,2.06,7.55,7.55,0,0,1,2,5.44,7.73,7.73,0,0,1-2.05,5.61,6.87,6.87,0,0,1-5.15,2.13,7.35,7.35,0,0,1-4.09-1.2,7.52,7.52,0,0,1-2.81-3.43,16.89,16.89,0,0,1-1-6.45,20.88,20.88,0,0,1,1-7,8.19,8.19,0,0,1,2.84-4,7.34,7.34,0,0,1,4.41-1.36,6.05,6.05,0,0,1,6.44,5.69Zm-11.52,10.11a5.51,5.51,0,0,0,1.29,3.84,4,4,0,0,0,3.1,1.42,4.28,4.28,0,0,0,3.27-1.53,5.67,5.67,0,0,0,1.39-4,4.9,4.9,0,0,0-1.32-3.55,4.35,4.35,0,0,0-3.26-1.37,4.17,4.17,0,0,0-3.21,1.37A5.39,5.39,0,0,0,146.22,232.12Z" transform="translate(0 0)" style="fill:#df0000"/></g></g><g id="layer1-2-6"><g id="dl-6"><path d="M21.76,37.26A41.08,41.08,0,0,1,17,28.73a41.08,41.08,0,0,1-4.79,8.53,34.93,34.93,0,0,1-7,7,34.87,34.87,0,0,1,7,7A41.05,41.05,0,0,1,17,59.74a41.05,41.05,0,0,1,4.79-8.53,34.87,34.87,0,0,1,7-7A34.93,34.93,0,0,1,21.76,37.26Z" transform="translate(0 0)" style="fill:#df0000"/></g></g><g id="layer1-2-6-4"><g id="dl-6-9"><path d="M155.41,191.52a41.08,41.08,0,0,1-4.79-8.53,41.08,41.08,0,0,1-4.79,8.53,34.93,34.93,0,0,1-7,7,34.87,34.87,0,0,1,7,7,41.05,41.05,0,0,1,4.79,8.53,41.05,41.05,0,0,1,4.79-8.53,34.87,34.87,0,0,1,7-7A34.93,34.93,0,0,1,155.41,191.52Z" transform="translate(0 0)" style="fill:#df0000"/></g></g><g id="layer1-2-6-8-8"><g id="dl-6-8-8"><path d="M62.52,198.68a72,72,0,0,1-8.39-14.95,72,72,0,0,1-8.39,14.95,61.22,61.22,0,0,1-12.31,12.23,61.11,61.11,0,0,1,12.31,12.23,72,72,0,0,1,8.39,14.94,72,72,0,0,1,8.39-14.94,61.11,61.11,0,0,1,12.31-12.23A61.22,61.22,0,0,1,62.52,198.68Z" transform="translate(0 0)" style="fill:#df0000"/></g></g><g id="layer1-2-6-8-2-4"><g id="dl-6-8-6-3"><path d="M62.52,19.39A72,72,0,0,1,54.13,4.44a72,72,0,0,1-8.39,14.95A61.22,61.22,0,0,1,33.42,31.62,61.11,61.11,0,0,1,45.73,43.85,72,72,0,0,1,54.13,58.8a72,72,0,0,1,8.39-14.94A61.11,61.11,0,0,1,74.84,31.62,61.22,61.22,0,0,1,62.52,19.39Z" transform="translate(0 0)" style="fill:#df0000"/></g></g><g id="layer1-2-6-8-2-8-1"><g id="dl-6-8-6-8-4"><path d="M62.52,139A72,72,0,0,1,54.13,124,72,72,0,0,1,45.73,139a61.22,61.22,0,0,1-12.31,12.23,61.11,61.11,0,0,1,12.31,12.23,72,72,0,0,1,8.39,14.94,72,72,0,0,1,8.39-14.94,61.11,61.11,0,0,1,12.31-12.23A61.22,61.22,0,0,1,62.52,139Z" transform="translate(0 0)" style="fill:#df0000"/></g></g><g id="layer1-2-6-8-2-8-1-4"><g id="dl-6-8-6-8-4-9"><path d="M62.52,79.12a72,72,0,0,1-8.39-14.95,72,72,0,0,1-8.39,14.95A61.22,61.22,0,0,1,33.42,91.35a61.11,61.11,0,0,1,12.31,12.23,72,72,0,0,1,8.39,14.94,72,72,0,0,1,8.39-14.94A61.11,61.11,0,0,1,74.84,91.35,61.22,61.22,0,0,1,62.52,79.12Z" transform="translate(0 0)" style="fill:#df0000"/></g></g><g id="layer1-2-6-8-8-9"><g id="dl-6-8-8-4"><path d="M121.29,198.68a72,72,0,0,1-8.39-14.95,72,72,0,0,1-8.39,14.95,61.22,61.22,0,0,1-12.31,12.23,61.11,61.11,0,0,1,12.31,12.23,72,72,0,0,1,8.39,14.94,72,72,0,0,1,8.39-14.94,61.11,61.11,0,0,1,12.31-12.23A61.22,61.22,0,0,1,121.29,198.68Z" transform="translate(0 0)" style="fill:#df0000"/></g></g><g id="layer1-2-6-8-2-4-9"><g id="dl-6-8-6-3-0"><path d="M121.29,19.39A72,72,0,0,1,112.9,4.44a72,72,0,0,1-8.39,14.95A61.22,61.22,0,0,1,92.19,31.62,61.11,61.11,0,0,1,104.5,43.85,72,72,0,0,1,112.9,58.8a72,72,0,0,1,8.39-14.94A61.11,61.11,0,0,1,133.6,31.62,61.22,61.22,0,0,1,121.29,19.39Z" transform="translate(0 0)" style="fill:#df0000"/></g></g><g id="layer1-2-6-8-2-8-1-9"><g id="dl-6-8-6-8-4-1"><path d="M121.29,139A72,72,0,0,1,112.9,124,72,72,0,0,1,104.5,139a61.22,61.22,0,0,1-12.31,12.23,61.11,61.11,0,0,1,12.31,12.23,72,72,0,0,1,8.39,14.94,72,72,0,0,1,8.39-14.94,61.11,61.11,0,0,1,12.31-12.23A61.22,61.22,0,0,1,121.29,139Z" transform="translate(0 0)" style="fill:#df0000"/></g></g><g id="layer1-2-6-8-2-8-1-4-7"><g id="dl-6-8-6-8-4-9-7"><path d="M121.29,79.12a72,72,0,0,1-8.39-14.95,72,72,0,0,1-8.39,14.95A61.22,61.22,0,0,1,92.19,91.35a61.11,61.11,0,0,1,12.31,12.23,72,72,0,0,1,8.39,14.94,72,72,0,0,1,8.39-14.94A61.11,61.11,0,0,1,133.6,91.35,61.22,61.22,0,0,1,121.29,79.12Z" transform="translate(0 0)" style="fill:#df0000"/></g></g><g id="layer1-2-6-8-2-4-8"><g id="dl-6-8-6-3-5"><path d="M91.61,49.6a72,72,0,0,1-8.39-14.95A72,72,0,0,1,74.82,49.6,61.22,61.22,0,0,1,62.51,61.83,61.11,61.11,0,0,1,74.82,74.06,72,72,0,0,1,83.21,89a72,72,0,0,1,8.39-14.94,61.11,61.11,0,0,1,12.31-12.23A61.22,61.22,0,0,1,91.61,49.6Z" transform="translate(0 0)" style="fill:#df0000"/></g></g></svg>