<svg xmlns="http://www.w3.org/2000/svg" viewBox="0 0 166.48 233.07"><defs><style>.cls-1{fill:#fff;}.cls-2{fill:#65a7dd;}.cls-3{fill:#a43e32;}.cls-4{fill:#af0f07;}</style></defs><title>Asset 21</title><g id="Layer_2" data-name="Layer 2"><g id="Objects"><rect class="cls-1" x="0.12" y="0.12" width="166.25" height="232.84" rx="5.94" ry="5.94"/><path class="cls-2" d="M160.43,233.07H6.05A6.06,6.06,0,0,1,0,227V6.05A6.06,6.06,0,0,1,6.05,0H160.43a6.06,6.06,0,0,1,6.05,6.05V227A6.06,6.06,0,0,1,160.43,233.07ZM6.05.23A5.83,5.83,0,0,0,.23,6.05V227a5.83,5.83,0,0,0,5.82,5.82H160.43a5.83,5.83,0,0,0,5.82-5.82V6.05A5.83,5.83,0,0,0,160.43.23Z"/><path class="cls-3" d="M14,23.45a2.16,2.16,0,0,1-.42-.78,2.75,2.75,0,0,1-.13-.76,1.41,1.41,0,0,1,.49-1.11,1.21,1.21,0,0,1,.8-.29.81.81,0,0,1,.7.35.77.77,0,0,1,.13.25,1.3,1.3,0,0,1,0,.31.9.9,0,0,1-.25.58,2.1,2.1,0,0,1-.37.33.72.72,0,0,0-.24.24.63.63,0,0,0-.07.3.74.74,0,0,0,.4.61,2.24,2.24,0,0,0,1.21.26,2.41,2.41,0,0,0,1.33-.41A3,3,0,0,0,18.64,22a7.06,7.06,0,0,0,.51-1.81,12,12,0,0,0,.17-1.81v-.87l-.14-.06a2.93,2.93,0,0,1-1.08,1.21,2.57,2.57,0,0,1-1.41.48,3.66,3.66,0,0,1-2.19-.64A3.49,3.49,0,0,1,13.35,17a4.8,4.8,0,0,1-.41-2,5.19,5.19,0,0,1,.47-2.11,4.46,4.46,0,0,1,1.37-1.76,3.37,3.37,0,0,1,2.12-.7,3.43,3.43,0,0,1,2.22.78,4.94,4.94,0,0,1,1.48,2.22,10,10,0,0,1,.52,3.41A12.07,12.07,0,0,1,20.72,20a7.12,7.12,0,0,1-1.18,2.54,4.13,4.13,0,0,1-3.32,1.82A2.88,2.88,0,0,1,14,23.45ZM17.88,18a3,3,0,0,0,.86-1.27,5.21,5.21,0,0,0,.32-1.89,6.07,6.07,0,0,0-.51-2.65,1.72,1.72,0,0,0-1.67-1,1.78,1.78,0,0,0-1.72,1.13,5.91,5.91,0,0,0-.53,2.56,6.26,6.26,0,0,0,.47,2.58,1.59,1.59,0,0,0,1.55,1A1.88,1.88,0,0,0,17.88,18Z"/><path class="cls-4" d="M152.27,206.9a2.15,2.15,0,0,1,.42.78,2.72,2.72,0,0,1,.13.76,1.41,1.41,0,0,1-.49,1.11,1.21,1.21,0,0,1-.8.29.82.82,0,0,1-.7-.35.78.78,0,0,1-.13-.25,1.36,1.36,0,0,1,0-.31.9.9,0,0,1,.25-.58,2.15,2.15,0,0,1,.37-.33.73.73,0,0,0,.24-.24.63.63,0,0,0,.07-.3.74.74,0,0,0-.4-.61,2.24,2.24,0,0,0-1.21-.26,2.41,2.41,0,0,0-1.33.41,3,3,0,0,0-1.06,1.36,7,7,0,0,0-.51,1.81,12,12,0,0,0-.17,1.81v.87l.14.06a2.93,2.93,0,0,1,1.08-1.21,2.58,2.58,0,0,1,1.41-.48,3.65,3.65,0,0,1,2.19.64,3.5,3.5,0,0,1,1.16,1.46,4.82,4.82,0,0,1,.41,2,5.19,5.19,0,0,1-.47,2.11,4.46,4.46,0,0,1-1.37,1.76,3.37,3.37,0,0,1-2.12.7,3.43,3.43,0,0,1-2.22-.78,4.93,4.93,0,0,1-1.48-2.22,10,10,0,0,1-.52-3.41,12.11,12.11,0,0,1,.41-3.12,7.12,7.12,0,0,1,1.18-2.54A4.13,4.13,0,0,1,150,206,2.88,2.88,0,0,1,152.27,206.9Zm-3.9,5.49a3,3,0,0,0-.86,1.27,5.21,5.21,0,0,0-.32,1.89,6.05,6.05,0,0,0,.51,2.65,1.72,1.72,0,0,0,1.67,1,1.79,1.79,0,0,0,1.72-1.13,5.92,5.92,0,0,0,.53-2.56,6.26,6.26,0,0,0-.47-2.58,1.59,1.59,0,0,0-1.55-1A1.87,1.87,0,0,0,148.37,212.39Z"/><path class="cls-4" d="M151.82,201.75a2.26,2.26,0,0,1-2.44-2.1,2.26,2.26,0,0,1-2.44,2.1c-2.5-.06-2.83-2.86-2-4.28a13.07,13.07,0,0,1,2.2-2.77,21.07,21.07,0,0,0,2.17-2.4s0-.07,0-.05,0,.05,0,.05a21.07,21.07,0,0,0,2.17,2.4,13.07,13.07,0,0,1,2.2,2.77C154.65,198.89,154.32,201.69,151.82,201.75Z"/><path class="cls-4" d="M19.54,29.31a2.26,2.26,0,0,0-2.44,2.1,2.26,2.26,0,0,0-2.44-2.1c-2.5.06-2.83,2.86-2,4.28a13.07,13.07,0,0,0,2.2,2.77,21.07,21.07,0,0,1,2.17,2.4s0,.07,0,0,0,0,0,0a21.07,21.07,0,0,1,2.17-2.4,13.07,13.07,0,0,0,2.2-2.77C22.37,32.17,22,29.37,19.54,29.31Z"/><path class="cls-4" d="M51.78,27.18c-5.48-.13-6.74,4.05-7,6.07-.29-2-1.55-6.2-7-6.07-7.2.17-8.16,8.25-5.64,12.33a37.68,37.68,0,0,0,6.34,8c2.37,2.45,5.2,5.21,6.25,6.91,0,0,.06.2.09.14s.09-.14.09-.14c1-1.69,3.88-4.45,6.25-6.91a37.68,37.68,0,0,0,6.34-8C59.94,35.43,59,27.35,51.78,27.18Z"/><path class="cls-4" d="M86.83,103c-5.48-.13-6.74,4.05-7,6.07-.29-2-1.55-6.2-7-6.07-7.2.17-8.16,8.25-5.64,12.33a37.68,37.68,0,0,0,6.34,8c2.37,2.45,5.2,5.21,6.25,6.91,0,0,.06.2.09.14s.09-.14.09-.14c1-1.69,3.88-4.45,6.25-6.91a37.68,37.68,0,0,0,6.34-8C95,111.2,94,103.13,86.83,103Z"/><path class="cls-4" d="M51.78,77.7c-5.48-.13-6.74,4.05-7,6.07-.29-2-1.55-6.2-7-6.07-7.2.17-8.16,8.25-5.64,12.33a37.68,37.68,0,0,0,6.34,8c2.37,2.45,5.2,5.21,6.25,6.91,0,0,.06.2.09.14s.09-.14.09-.14c1-1.69,3.88-4.45,6.25-6.91a37.68,37.68,0,0,0,6.34-8C59.94,85.94,59,77.87,51.78,77.7Z"/><path class="cls-4" d="M51.78,206.11c-5.48.13-6.74-4.05-7-6.07-.29,2-1.55,6.2-7,6.07-7.2-.17-8.16-8.25-5.64-12.33a37.68,37.68,0,0,1,6.34-8c2.37-2.45,5.2-5.21,6.25-6.91,0,0,.06-.2.09-.14s.09.14.09.14c1,1.69,3.88,4.45,6.25,6.91a37.68,37.68,0,0,1,6.34,8C59.94,197.86,59,205.93,51.78,206.11Z"/><path class="cls-4" d="M51.78,155.59c-5.48.13-6.74-4.05-7-6.07-.29,2-1.55,6.2-7,6.07-7.2-.17-8.16-8.25-5.64-12.33a37.68,37.68,0,0,1,6.34-8c2.37-2.45,5.2-5.21,6.25-6.91,0,0,.06-.2.09-.14s.09.14.09.14c1,1.69,3.88,4.45,6.25,6.91a37.68,37.68,0,0,1,6.34,8C59.94,147.34,59,155.41,51.78,155.59Z"/><path class="cls-4" d="M125.67,27.18c-5.48-.13-6.74,4.05-7,6.07-.29-2-1.55-6.2-7-6.07-7.2.17-8.16,8.25-5.64,12.33a37.68,37.68,0,0,0,6.34,8c2.37,2.45,5.2,5.21,6.25,6.91,0,0,.06.2.09.14s.09-.14.09-.14c1-1.69,3.88-4.45,6.25-6.91a37.68,37.68,0,0,0,6.34-8C133.83,35.43,132.87,27.35,125.67,27.18Z"/><path class="cls-4" d="M125.67,77.7c-5.48-.13-6.74,4.05-7,6.07-.29-2-1.55-6.2-7-6.07-7.2.17-8.16,8.25-5.64,12.33a37.68,37.68,0,0,0,6.34,8c2.37,2.45,5.2,5.21,6.25,6.91,0,0,.06.2.09.14s.09-.14.09-.14c1-1.69,3.88-4.45,6.25-6.91a37.68,37.68,0,0,0,6.34-8C133.83,85.94,132.87,77.87,125.67,77.7Z"/><path class="cls-4" d="M125.67,206.11c-5.48.13-6.74-4.05-7-6.07-.29,2-1.55,6.2-7,6.07-7.2-.17-8.16-8.25-5.64-12.33a37.68,37.68,0,0,1,6.34-8c2.37-2.45,5.2-5.21,6.25-6.91,0,0,.06-.2.09-.14s.09.14.09.14c1,1.69,3.88,4.45,6.25,6.91a37.68,37.68,0,0,1,6.34,8C133.83,197.86,132.87,205.93,125.67,206.11Z"/><path class="cls-4" d="M125.67,155.59c-5.48.13-6.74-4.05-7-6.07-.29,2-1.55,6.2-7,6.07-7.2-.17-8.16-8.25-5.64-12.33a37.68,37.68,0,0,1,6.34-8c2.37-2.45,5.2-5.21,6.25-6.91,0,0,.06-.2.09-.14s.09.14.09.14c1,1.69,3.88,4.45,6.25,6.91a37.68,37.68,0,0,1,6.34,8C133.83,147.34,132.87,155.41,125.67,155.59Z"/><circle class="cls-1" cx="148.18" cy="18.48" r="0.57"/><circle class="cls-1" cx="121.07" cy="18.48" r="0.57"/><circle class="cls-1" cx="96.13" cy="18.48" r="0.57"/><circle class="cls-1" cx="71.09" cy="18.66" r="0.57"/><circle class="cls-1" cx="148.18" cy="39.61" r="0.57"/><circle class="cls-1" cx="148.18" cy="58.9" r="0.57"/><circle class="cls-1" cx="148.18" cy="79.11" r="0.57"/><circle class="cls-1" cx="148.18" cy="91.89" r="0.57"/><circle class="cls-1" cx="148.18" cy="104.72" r="0.57"/><circle class="cls-1" cx="17.97" cy="19.04" r="0.57"/><circle class="cls-1" cx="45.39" cy="18.66" r="0.57"/><circle class="cls-1" cx="17.97" cy="39.16" r="0.57"/><circle class="cls-1" cx="17.97" cy="59.03" r="0.57"/><circle class="cls-1" cx="17.97" cy="78.97" r="0.57"/><circle class="cls-1" cx="17.97" cy="91.89" r="0.57"/><circle class="cls-1" cx="17.97" cy="105.29" r="0.57"/><circle class="cls-1" cx="17.97" cy="118.21" r="0.57"/><circle class="cls-1" cx="17.97" cy="131.13" r="0.57"/><circle class="cls-1" cx="17.97" cy="144.53" r="0.57"/><circle class="cls-1" cx="17.97" cy="157.95" r="0.57"/><circle class="cls-1" cx="17.97" cy="169.95" r="0.57"/><circle class="cls-1" cx="17.97" cy="183.35" r="0.57"/><circle class="cls-1" cx="17.97" cy="196.39" r="0.57"/><circle class="cls-1" cx="18.2" cy="215.57" r="0.57"/><circle class="cls-1" cx="38.71" cy="216.14" r="0.57"/><circle class="cls-1" cx="65.14" cy="216.14" r="0.57"/><circle class="cls-1" cx="91.53" cy="216.14" r="0.57"/><circle class="cls-1" cx="117.24" cy="216.14" r="0.57"/><circle class="cls-1" cx="148.18" cy="117.9" r="0.57"/><circle class="cls-1" cx="148.18" cy="130.22" r="0.57"/><circle class="cls-1" cx="148.18" cy="143.51" r="0.57"/><circle class="cls-1" cx="148.18" cy="156.61" r="0.57"/><circle class="cls-1" cx="148.18" cy="169.36" r="0.57"/><circle class="cls-1" cx="148.18" cy="181.94" r="0.57"/><circle class="cls-1" cx="148.18" cy="194.77" r="0.57"/><circle class="cls-1" cx="148.18" cy="214.34" r="0.57"/></g></g></svg>