<svg id="svg2" xmlns="http://www.w3.org/2000/svg" viewBox="0 0 167.09 242.67"><title>9-Hearts</title><g id="Layer_1"><g id="path5"><path d="M166.84,235.55a6.89,6.89,0,0,1-6.87,6.87H7.11a6.88,6.88,0,0,1-6.86-6.87V7.12A6.89,6.89,0,0,1,7.11.25H160a6.89,6.89,0,0,1,6.87,6.87Z" transform="translate(0 0)" style="fill:#fff"/><path d="M160,242.67H7.11A7.12,7.12,0,0,1,0,235.55V7.12A7.12,7.12,0,0,1,7.11,0H160a7.13,7.13,0,0,1,7.12,7.12V235.55A7.13,7.13,0,0,1,160,242.67ZM7.11.5A6.62,6.62,0,0,0,.5,7.12V235.55a6.62,6.62,0,0,0,6.61,6.62H160a6.63,6.63,0,0,0,6.62-6.62V7.12A6.63,6.63,0,0,0,160,.5Z" transform="translate(0 0)"/></g></g><g id="layer1-9-6"><g id="hl-8"><path d="M23.33,32.28c-5.43,0-6.15,5.45-6.15,5.45s-.72-5.45-6.15-5.45c-3.8,0-7.24,2.44-7.24,7.05,0,6.09,11,12.21,13.39,21.15,2.26-8.93,13.39-15.07,13.39-21.15C30.57,34.73,27.13,32.28,23.33,32.28Z" transform="translate(0 0)" style="fill:#df0000"/></g></g><g id="layer1-9-6-5"><g id="hl-8-1"><path d="M144,209.25c5.43,0,6.15-5.45,6.15-5.45s.72,5.45,6.15,5.45c3.8,0,7.24-2.44,7.24-7.05,0-6.09-11-12.21-13.39-21.15-2.26,8.93-13.39,15.07-13.39,21.15C136.76,206.8,140.2,209.25,144,209.25Z" transform="translate(0 0)" style="fill:#df0000"/></g></g><g id="layer1-9-6-8"><g id="hl-8-8"><path d="M64.73,6.6c-9,0-10.22,9-10.22,9s-1.2-9-10.22-9c-6.31,0-12,4.05-12,11.7,0,10.11,18.28,20.27,22.23,35.11,3.76-14.83,22.23-25,22.23-35.11C76.74,10.65,71,6.6,64.73,6.6Z" transform="translate(0 0)" style="fill:#df0000"/></g></g><g id="layer1-9-6-8-9"><g id="hl-8-8-5"><path d="M44.3,236.21c9,0,10.22-9,10.22-9s1.2,9,10.22,9c6.31,0,12-4.05,12-11.7,0-10.11-18.28-20.27-22.23-35.11-3.76,14.83-22.23,25-22.23,35.11C32.28,232.16,38,236.21,44.3,236.21Z" transform="translate(0 0)" style="fill:#df0000"/></g></g><g id="layer1-9-6-8-8"><g id="hl-8-8-8"><path d="M64.73,71.83c-9,0-10.22,9-10.22,9s-1.2-9-10.22-9c-6.31,0-12,4.05-12,11.7,0,10.11,18.28,20.27,22.23,35.11,3.76-14.83,22.23-25,22.23-35.11C76.74,75.89,71,71.83,64.73,71.83Z" transform="translate(0 0)" style="fill:#df0000"/></g></g><g id="layer1-9-6-8-884-8"><g id="hl-8-8-3-8"><path d="M44.3,168.76c9,0,10.22-9,10.22-9s1.2,9,10.22,9c6.31,0,12-4.05,12-11.7,0-10.11-18.28-20.27-22.23-35.11-3.76,14.83-22.23,25-22.23,35.11C32.28,164.71,38,168.76,44.3,168.76Z" transform="translate(0 0)" style="fill:#df0000"/></g></g><g id="layer1-9-6-8-7"><g id="hl-8-8-1"><path d="M122.21,7.19c-9,0-10.22,9-10.22,9s-1.2-9-10.22-9c-6.31,0-12,4.05-12,11.7C89.76,29,108,39.17,112,54c3.76-14.83,22.23-25,22.23-35.11C134.22,11.25,128.51,7.19,122.21,7.19Z" transform="translate(0 0)" style="fill:#df0000"/></g></g><g id="layer1-9-6-8-9-7"><g id="hl-8-8-5-2"><path d="M101.78,236.81c9,0,10.22-9,10.22-9s1.2,9,10.22,9c6.31,0,12-4.05,12-11.7,0-10.11-18.28-20.27-22.23-35.11-3.76,14.83-22.23,25-22.23,35.11C89.76,232.76,95.47,236.81,101.78,236.81Z" transform="translate(0 0)" style="fill:#df0000"/></g></g><g id="layer1-9-6-8-8-7"><g id="hl-8-8-8-2"><path d="M122.21,72.43c-9,0-10.22,9-10.22,9s-1.2-9-10.22-9c-6.31,0-12,4.05-12,11.7,0,10.11,18.28,20.27,22.23,35.11,3.76-14.83,22.23-25,22.23-35.11C134.22,76.48,128.51,72.43,122.21,72.43Z" transform="translate(0 0)" style="fill:#df0000"/></g></g><g id="layer1-9-6-8-884-8-2"><g id="hl-8-8-3-8-6"><path d="M101.78,169.36c9,0,10.22-9,10.22-9s1.2,9,10.22,9c6.31,0,12-4.05,12-11.7,0-10.11-18.28-20.27-22.23-35.11-3.76,14.83-22.23,25-22.23,35.11C89.76,165.31,95.47,169.36,101.78,169.36Z" transform="translate(0 0)" style="fill:#df0000"/></g></g><g id="layer1-9-6-8-91"><g id="hl-8-8-7"><path d="M93.43,39.3c-9,0-10.22,9-10.22,9s-1.2-9-10.22-9c-6.31,0-12,4.05-12,11.7,0,10.11,18.28,20.27,22.23,35.11C87,71.28,105.45,61.11,105.45,51,105.45,43.35,99.74,39.3,93.43,39.3Z" transform="translate(0 0)" style="fill:#df0000"/></g></g><g id="text3788-43" style="isolation:isolate"><g style="isolation:isolate"><path d="M10.49,22.72l2.7-.25a4.69,4.69,0,0,0,1.31,2.77,3.6,3.6,0,0,0,2.48.86,4.28,4.28,0,0,0,2.27-.59,4.85,4.85,0,0,0,1.6-1.59,9.32,9.32,0,0,0,1-2.68,14.12,14.12,0,0,0,.42-3.44q0-.19,0-.56A6.43,6.43,0,0,1,20,19.41a6.26,6.26,0,0,1-3.16.84A6.4,6.4,0,0,1,12,18.18a7.55,7.55,0,0,1-2-5.44,7.73,7.73,0,0,1,2.05-5.61A6.87,6.87,0,0,1,17.27,5a7.35,7.35,0,0,1,4.09,1.2,7.52,7.52,0,0,1,2.81,3.43,16.89,16.89,0,0,1,1,6.45,20.86,20.86,0,0,1-1,7,8.19,8.19,0,0,1-2.84,4,7.34,7.34,0,0,1-4.41,1.36,6.42,6.42,0,0,1-4.39-1.49A6.41,6.41,0,0,1,10.49,22.72ZM22,12.61a5.51,5.51,0,0,0-1.29-3.84,4,4,0,0,0-3.1-1.42,4.28,4.28,0,0,0-3.27,1.53,5.68,5.68,0,0,0-1.39,4,4.9,4.9,0,0,0,1.32,3.55,4.35,4.35,0,0,0,3.26,1.37,4.17,4.17,0,0,0,3.21-1.37A5.38,5.38,0,0,0,22,12.61Z" transform="translate(0 0)" style="fill:#df0000"/></g></g><g id="text3788-43-3" style="isolation:isolate"><g style="isolation:isolate"><path d="M157.07,218.81l-2.7.25a4.7,4.7,0,0,0-1.31-2.77,3.6,3.6,0,0,0-2.48-.86,4.28,4.28,0,0,0-2.27.59,4.85,4.85,0,0,0-1.6,1.59,9.31,9.31,0,0,0-1,2.68,14.12,14.12,0,0,0-.42,3.44c0,.13,0,.31,0,.56a6.43,6.43,0,0,1,2.3-2.18,6.26,6.26,0,0,1,3.16-.84,6.4,6.4,0,0,1,4.81,2.06,7.55,7.55,0,0,1,2,5.44,7.73,7.73,0,0,1-2.05,5.61,6.87,6.87,0,0,1-5.15,2.13,7.35,7.35,0,0,1-4.09-1.2,7.52,7.52,0,0,1-2.81-3.43,16.89,16.89,0,0,1-1-6.45,20.85,20.85,0,0,1,1-7,8.19,8.19,0,0,1,2.84-4,7.34,7.34,0,0,1,4.41-1.36,6.05,6.05,0,0,1,6.44,5.69Zm-11.52,10.11a5.51,5.51,0,0,0,1.29,3.84,4,4,0,0,0,3.1,1.42,4.28,4.28,0,0,0,3.27-1.53,5.68,5.68,0,0,0,1.39-4,4.9,4.9,0,0,0-1.32-3.55,4.35,4.35,0,0,0-3.26-1.37,4.17,4.17,0,0,0-3.21,1.37A5.38,5.38,0,0,0,145.55,228.92Z" transform="translate(0 0)" style="fill:#df0000"/></g></g></svg>