<svg id="svg2" xmlns="http://www.w3.org/2000/svg" viewBox="0 0 167.09 242.67"><title>9-Spades</title><g id="Layer_1"><g id="path5"><path d="M166.84,235.55a6.89,6.89,0,0,1-6.87,6.87H7.11a6.88,6.88,0,0,1-6.86-6.87V7.12A6.89,6.89,0,0,1,7.11.25H160a6.89,6.89,0,0,1,6.87,6.87Z" transform="translate(0 0)" style="fill:#fff"/><path d="M160,242.67H7.11A7.12,7.12,0,0,1,0,235.55V7.12A7.12,7.12,0,0,1,7.11,0H160a7.13,7.13,0,0,1,7.12,7.12V235.55A7.13,7.13,0,0,1,160,242.67ZM7.11.5A6.62,6.62,0,0,0,.5,7.12V235.55a6.62,6.62,0,0,0,6.61,6.62H160a6.63,6.63,0,0,0,6.62-6.62V7.12A6.63,6.63,0,0,0,160,.5Z" transform="translate(0 0)"/></g></g><g id="text3788" style="isolation:isolate"><g style="isolation:isolate"><path d="M10.3,22.72l2.7-.25a4.69,4.69,0,0,0,1.31,2.77,3.6,3.6,0,0,0,2.48.86,4.28,4.28,0,0,0,2.27-.59,4.85,4.85,0,0,0,1.6-1.59,9.32,9.32,0,0,0,1-2.68,14.12,14.12,0,0,0,.42-3.44q0-.19,0-.56a6.43,6.43,0,0,1-2.3,2.18,6.26,6.26,0,0,1-3.16.84,6.4,6.4,0,0,1-4.81-2.06,7.55,7.55,0,0,1-2-5.44,7.73,7.73,0,0,1,2.05-5.61A6.87,6.87,0,0,1,17.08,5a7.35,7.35,0,0,1,4.09,1.2A7.52,7.52,0,0,1,24,9.65a16.89,16.89,0,0,1,1,6.45,20.86,20.86,0,0,1-1,7,8.19,8.19,0,0,1-2.84,4,7.34,7.34,0,0,1-4.41,1.36,6.42,6.42,0,0,1-4.39-1.49A6.41,6.41,0,0,1,10.3,22.72ZM21.81,12.61a5.51,5.51,0,0,0-1.29-3.84,4,4,0,0,0-3.1-1.42,4.28,4.28,0,0,0-3.27,1.53,5.68,5.68,0,0,0-1.39,4,4.9,4.9,0,0,0,1.32,3.55,4.35,4.35,0,0,0,3.26,1.37,4.17,4.17,0,0,0,3.21-1.37A5.38,5.38,0,0,0,21.81,12.61Z" transform="translate(0 0)"/></g></g><g id="layer1-7"><g id="sl"><path d="M29,49.35c-.37-5.6-11.69-16.13-12.05-18.76C16.56,33.22,5.24,43.75,4.88,49.35A4.9,4.9,0,0,0,10,54.94c2.77,0,5.06-3.86,5.84-4.61.37,1-2.42,9.22-3.29,9.22h8.77c-.87,0-3.65-8.23-3.29-9.22.69.68,2.71,4.49,5.84,4.61A4.9,4.9,0,0,0,29,49.35Z" transform="translate(0 0)"/></g></g><g id="layer1-7-88"><g id="sl-4"><path d="M74.17,39.28C73.53,29.46,53.65,11,53,6.34,52.37,11,32.49,29.45,31.85,39.28c-.45,6.95,4.49,9.82,9,9.82,4.86-.05,8.88-6.78,10.26-8.09.64,1.73-4.25,16.18-5.77,16.18H60.71c-1.53,0-6.41-14.45-5.77-16.18,1.21,1.2,4.76,7.89,10.26,8.09C69.68,49.1,74.62,46.23,74.17,39.28Z" transform="translate(0 0)"/></g></g><g id="text3788-7" style="isolation:isolate"><g style="isolation:isolate"><path d="M157.23,220.42l-2.7.25a4.7,4.7,0,0,0-1.31-2.77,3.6,3.6,0,0,0-2.48-.86,4.28,4.28,0,0,0-2.27.59,4.85,4.85,0,0,0-1.6,1.59,9.31,9.31,0,0,0-1,2.68,14.12,14.12,0,0,0-.42,3.44c0,.13,0,.31,0,.56a6.43,6.43,0,0,1,2.3-2.18,6.26,6.26,0,0,1,3.16-.84,6.4,6.4,0,0,1,4.81,2.06,7.55,7.55,0,0,1,2,5.44,7.73,7.73,0,0,1-2.05,5.61,6.87,6.87,0,0,1-5.15,2.13,7.35,7.35,0,0,1-4.09-1.2,7.52,7.52,0,0,1-2.81-3.43,16.89,16.89,0,0,1-1-6.45,20.85,20.85,0,0,1,1-7,8.19,8.19,0,0,1,2.84-4,7.34,7.34,0,0,1,4.41-1.36,6.05,6.05,0,0,1,6.44,5.69Zm-11.52,10.11a5.51,5.51,0,0,0,1.29,3.84,4,4,0,0,0,3.1,1.42,4.28,4.28,0,0,0,3.27-1.53,5.68,5.68,0,0,0,1.39-4,4.9,4.9,0,0,0-1.32-3.55,4.35,4.35,0,0,0-3.26-1.37,4.17,4.17,0,0,0-3.21,1.37A5.38,5.38,0,0,0,145.71,230.53Z" transform="translate(0 0)"/></g></g><g id="layer1-7-3"><g id="sl-1"><path d="M138.17,193.76c.37,5.6,11.69,16.13,12.05,18.76.37-2.63,11.69-13.17,12.05-18.76a4.9,4.9,0,0,0-5.11-5.6c-2.77,0-5.06,3.86-5.84,4.61-.37-1,2.42-9.22,3.29-9.22h-8.77c.87,0,3.65,8.23,3.29,9.22-.69-.68-2.71-4.49-5.84-4.61A4.9,4.9,0,0,0,138.17,193.76Z" transform="translate(0 0)"/></g></g><g id="layer1-7-88-8"><g id="sl-4-8"><path d="M74.5,102.21C73.86,92.39,54,73.9,53.34,69.27c-.64,4.62-20.52,23.12-21.16,32.94-.45,6.95,4.49,9.82,9,9.82C46,112,50,105.26,51.42,103.95c.64,1.73-4.25,16.18-5.77,16.18H61c-1.53,0-6.41-14.45-5.77-16.18,1.21,1.2,4.76,7.89,10.26,8.09C70,112,74.95,109.16,74.5,102.21Z" transform="translate(0 0)"/></g></g><g id="layer1-7-88-4"><g id="sl-4-3"><path d="M32.63,205.15c.64,9.82,20.52,28.32,21.16,32.94.64-4.62,20.52-23.12,21.16-32.94.45-6.95-4.49-9.82-9-9.82-4.86.05-8.88,6.78-10.26,8.09-.64-1.73,4.25-16.18,5.77-16.18H46.09c1.53,0,6.41,14.45,5.77,16.18-1.21-1.2-4.76-7.89-10.26-8.09C37.12,195.33,32.18,198.2,32.63,205.15Z" transform="translate(0 0)"/></g></g><g id="layer1-7-88-8-1"><g id="sl-4-8-4"><path d="M32.3,143.82c.64,9.82,20.52,28.32,21.16,32.94.64-4.62,20.52-23.12,21.16-32.94.45-6.95-4.49-9.82-9-9.82-4.86.05-8.88,6.78-10.26,8.09-.64-1.73,4.25-16.18,5.77-16.18H45.76c1.53,0,6.41,14.45,5.77,16.18-1.21-1.2-4.76-7.89-10.26-8.09C36.79,134,31.85,136.87,32.3,143.82Z" transform="translate(0 0)"/></g></g><g id="layer1-7-88-9"><g id="sl-4-2"><path d="M136.14,39.09C135.5,29.27,115.62,10.78,115,6.15c-.64,4.62-20.52,23.12-21.16,32.94-.45,6.95,4.49,9.82,9,9.82,4.86-.05,8.88-6.78,10.26-8.09.64,1.73-4.25,16.18-5.77,16.18h15.39c-1.53,0-6.41-14.45-5.77-16.18,1.21,1.2,4.76,7.89,10.26,8.09C131.65,48.92,136.59,46,136.14,39.09Z" transform="translate(0 0)"/></g></g><g id="layer1-7-88-8-0"><g id="sl-4-8-6"><path d="M136.47,102c-.64-9.82-20.52-28.32-21.16-32.94C114.67,73.71,94.79,92.2,94.15,102c-.45,6.95,4.49,9.82,9,9.82,4.86-.05,8.88-6.78,10.26-8.09.64,1.73-4.25,16.18-5.77,16.18H123c-1.53,0-6.41-14.45-5.77-16.18,1.21,1.2,4.76,7.89,10.26,8.09C132,111.85,136.91,109,136.47,102Z" transform="translate(0 0)"/></g></g><g id="layer1-7-88-4-8"><g id="sl-4-3-9"><path d="M94.6,205c.64,9.82,20.52,28.32,21.16,32.94.64-4.62,20.52-23.12,21.16-32.94.45-6.95-4.49-9.82-9-9.82-4.86.05-8.88,6.78-10.26,8.09-.64-1.73,4.25-16.18,5.77-16.18H108.06c1.53,0,6.41,14.45,5.77,16.18-1.21-1.2-4.76-7.89-10.26-8.09C99.08,195.14,94.15,198,94.6,205Z" transform="translate(0 0)"/></g></g><g id="layer1-7-88-8-1-2"><g id="sl-4-8-4-6"><path d="M94.27,143.63c.64,9.82,20.52,28.32,21.16,32.94.64-4.62,20.52-23.12,21.16-32.94.45-6.95-4.49-9.82-9-9.82-4.86.05-8.88,6.78-10.26,8.09-.64-1.73,4.25-16.18,5.77-16.18H107.73c1.53,0,6.41,14.45,5.77,16.18-1.21-1.2-4.76-7.89-10.26-8.09C98.75,133.81,93.82,136.68,94.27,143.63Z" transform="translate(0 0)"/></g></g><g id="layer1-7-88-6"><g id="sl-4-4"><path d="M105.31,71.69c-.64-9.82-20.52-28.32-21.16-32.94C83.51,43.37,63.63,61.86,63,71.69c-.45,6.95,4.49,9.82,9,9.82,4.86-.05,8.88-6.78,10.26-8.09C82.87,75.15,78,89.6,76.46,89.6H91.85c-1.53,0-6.41-14.45-5.77-16.18,1.21,1.2,4.76,7.89,10.26,8.09C100.83,81.51,105.76,78.63,105.31,71.69Z" transform="translate(0 0)"/></g></g></svg>