<svg xmlns="http://www.w3.org/2000/svg" viewBox="0 0 166.55 233.13"><defs><style>.cls-1{fill:#fff;}.cls-2{fill:#65a7dd;}.cls-3{fill:#151515;}</style></defs><title>Asset 34</title><g id="Layer_2" data-name="Layer 2"><g id="Objects"><rect class="cls-1" x="0.12" y="0.12" width="166.32" height="232.9" rx="5.94" ry="5.94"/><path class="cls-2" d="M160.5,233.13H6.05A6.06,6.06,0,0,1,0,227.08V6.06A6.06,6.06,0,0,1,6.05,0H160.5a6.06,6.06,0,0,1,6.05,6.06v221A6.06,6.06,0,0,1,160.5,233.13ZM6.05.23A5.83,5.83,0,0,0,.23,6.06v221a5.83,5.83,0,0,0,5.82,5.82H160.5a5.83,5.83,0,0,0,5.82-5.82V6.06A5.83,5.83,0,0,0,160.5.23Z"/><path d="M12.82,26.18a2.15,2.15,0,0,1-.42-.78,2.7,2.7,0,0,1-.13-.76,1.41,1.41,0,0,1,.49-1.11,1.21,1.21,0,0,1,.8-.29.81.81,0,0,1,.7.35.77.77,0,0,1,.13.25,1.33,1.33,0,0,1,0,.31.89.89,0,0,1-.25.58,2.16,2.16,0,0,1-.37.33.72.72,0,0,0-.24.24.62.62,0,0,0-.07.3.74.74,0,0,0,.4.61,2.24,2.24,0,0,0,1.21.26,2.41,2.41,0,0,0,1.33-.41,3,3,0,0,0,1.06-1.36,7.05,7.05,0,0,0,.5-1.81,12,12,0,0,0,.17-1.81v-.87L18,20.16a2.93,2.93,0,0,1-1.08,1.21,2.58,2.58,0,0,1-1.41.48,3.66,3.66,0,0,1-2.19-.64,3.5,3.5,0,0,1-1.16-1.47,4.82,4.82,0,0,1-.41-2,5.19,5.19,0,0,1,.47-2.11,4.46,4.46,0,0,1,1.37-1.76,3.37,3.37,0,0,1,2.12-.7A3.43,3.43,0,0,1,18,14a4.94,4.94,0,0,1,1.48,2.22A10,10,0,0,1,20,19.62a12.12,12.12,0,0,1-.41,3.12,7.13,7.13,0,0,1-1.18,2.54,4.13,4.13,0,0,1-3.32,1.82A2.89,2.89,0,0,1,12.82,26.18Zm3.9-5.49a3,3,0,0,0,.86-1.27,5.21,5.21,0,0,0,.32-1.89,6.07,6.07,0,0,0-.5-2.65,1.72,1.72,0,0,0-1.67-1A1.79,1.79,0,0,0,14,15a5.91,5.91,0,0,0-.53,2.56,6.27,6.27,0,0,0,.47,2.58,1.59,1.59,0,0,0,1.55,1A1.88,1.88,0,0,0,16.72,20.68Z"/><path d="M151.16,209.67a2.15,2.15,0,0,1,.42.78,2.7,2.7,0,0,1,.13.76,1.4,1.4,0,0,1-.49,1.11,1.21,1.21,0,0,1-.8.29.81.81,0,0,1-.7-.35.77.77,0,0,1-.13-.25,1.33,1.33,0,0,1,0-.31.89.89,0,0,1,.25-.58,2.16,2.16,0,0,1,.37-.33.72.72,0,0,0,.24-.24.62.62,0,0,0,.07-.3.74.74,0,0,0-.4-.61,2.24,2.24,0,0,0-1.21-.26,2.41,2.41,0,0,0-1.33.41,3,3,0,0,0-1.06,1.36,7.05,7.05,0,0,0-.5,1.81,12,12,0,0,0-.17,1.81v.87l.14.06a2.93,2.93,0,0,1,1.08-1.21,2.58,2.58,0,0,1,1.41-.48,3.66,3.66,0,0,1,2.19.64,3.5,3.5,0,0,1,1.16,1.47,4.82,4.82,0,0,1,.41,2,5.19,5.19,0,0,1-.47,2.11,4.46,4.46,0,0,1-1.37,1.76,3.37,3.37,0,0,1-2.12.7,3.43,3.43,0,0,1-2.22-.78,4.94,4.94,0,0,1-1.48-2.22,10,10,0,0,1-.52-3.41,12.12,12.12,0,0,1,.41-3.12,7.13,7.13,0,0,1,1.18-2.54,4.13,4.13,0,0,1,3.32-1.82A2.89,2.89,0,0,1,151.16,209.67Zm-3.9,5.49a3,3,0,0,0-.86,1.27,5.21,5.21,0,0,0-.32,1.89,6.07,6.07,0,0,0,.5,2.65,1.72,1.72,0,0,0,1.67,1,1.79,1.79,0,0,0,1.72-1.13,5.91,5.91,0,0,0,.53-2.56,6.27,6.27,0,0,0-.47-2.58,1.59,1.59,0,0,0-1.55-1A1.88,1.88,0,0,0,147.26,215.17Z"/><path class="cls-3" d="M90.51,114c-3.63-4-7.85-7.83-9.62-9.86-1.33-1.52-2.26-2.68-2.65-3.16v-.25l-.1.12-.1-.12V101c-.39.48-1.33,1.64-2.65,3.16-1.77,2-6,5.89-9.62,9.86a12.06,12.06,0,0,0-3.24,11.21c.69,3.29,4.12,6.38,9.52,5.7a6,6,0,0,0,3.84-2A12.55,12.55,0,0,1,72.77,136H83.24a13.4,13.4,0,0,1-2.83-7,6,6,0,0,0,3.81,2c5.4.68,8.84-2.42,9.52-5.7A12.06,12.06,0,0,0,90.51,114Z"/><path class="cls-3" d="M59,42.57c-3.63-4-7.85-7.83-9.62-9.86C48,31.19,47.09,30,46.7,29.55v-.25l-.1.12-.1-.12v.25c-.39.48-1.33,1.64-2.65,3.16-1.77,2-6,5.89-9.62,9.86A12.06,12.06,0,0,0,31,53.78c.69,3.29,4.12,6.38,9.52,5.7a6,6,0,0,0,3.84-2,12.55,12.55,0,0,1-3.12,7.07H51.71a13.4,13.4,0,0,1-2.83-7,6,6,0,0,0,3.81,2c5.4.68,8.84-2.42,9.52-5.7A12.06,12.06,0,0,0,59,42.57Z"/><path class="cls-3" d="M59,93.14c-3.63-4-7.85-7.83-9.62-9.86C48,81.76,47.09,80.6,46.7,80.12v-.25l-.1.12-.1-.12v.25c-.39.48-1.33,1.64-2.65,3.16-1.77,2-6,5.89-9.62,9.86A12.06,12.06,0,0,0,31,104.35c.69,3.29,4.12,6.38,9.52,5.7a6,6,0,0,0,3.84-2,12.56,12.56,0,0,1-3.12,7.07H51.71a13.4,13.4,0,0,1-2.83-7,6,6,0,0,0,3.81,2c5.4.68,8.84-2.42,9.52-5.7A12.06,12.06,0,0,0,59,93.14Z"/><path class="cls-3" d="M59,202.94c-3.63,4-7.85,7.83-9.62,9.86-1.33,1.52-2.26,2.68-2.65,3.16v.25l-.1-.12-.1.12V216c-.39-.48-1.33-1.64-2.65-3.16-1.77-2-6-5.89-9.62-9.86A12.06,12.06,0,0,1,31,191.73c.69-3.29,4.12-6.38,9.52-5.7a6,6,0,0,1,3.84,2A12.55,12.55,0,0,0,41.23,181H51.71a13.4,13.4,0,0,0-2.83,7,6,6,0,0,1,3.81-2c5.4-.68,8.84,2.42,9.52,5.7A12.06,12.06,0,0,1,59,202.94Z"/><path class="cls-3" d="M127.56,42.57c-3.63-4-7.85-7.83-9.62-9.86-1.33-1.52-2.26-2.68-2.65-3.16v-.25l-.1.12-.1-.12v.25c-.39.48-1.33,1.64-2.65,3.16-1.77,2-6,5.89-9.62,9.86a12.06,12.06,0,0,0-3.24,11.21c.69,3.29,4.12,6.38,9.52,5.7a6,6,0,0,0,3.84-2,12.55,12.55,0,0,1-3.12,7.07H120.3a13.4,13.4,0,0,1-2.83-7,6,6,0,0,0,3.81,2c5.4.68,8.84-2.42,9.52-5.7A12.06,12.06,0,0,0,127.56,42.57Z"/><path class="cls-3" d="M127.56,93.14c-3.63-4-7.85-7.83-9.62-9.86-1.33-1.52-2.26-2.68-2.65-3.16v-.25l-.1.12-.1-.12v.25c-.39.48-1.33,1.64-2.65,3.16-1.77,2-6,5.89-9.62,9.86a12.06,12.06,0,0,0-3.24,11.21c.69,3.29,4.12,6.38,9.52,5.7a6,6,0,0,0,3.84-2,12.55,12.55,0,0,1-3.12,7.07H120.3a13.4,13.4,0,0,1-2.83-7,6,6,0,0,0,3.81,2c5.4.68,8.84-2.42,9.52-5.7A12.06,12.06,0,0,0,127.56,93.14Z"/><path class="cls-3" d="M127.56,202.94c-3.63,4-7.85,7.83-9.62,9.86-1.33,1.52-2.26,2.68-2.65,3.16v.25l-.1-.12-.1.12V216c-.39-.48-1.33-1.64-2.65-3.16-1.77-2-6-5.89-9.62-9.86a12.06,12.06,0,0,1-3.24-11.21c.69-3.29,4.12-6.38,9.52-5.7a6,6,0,0,1,3.84,2,12.55,12.55,0,0,0-3.12-7.07H120.3a13.4,13.4,0,0,0-2.83,7,6,6,0,0,1,3.81-2c5.4-.68,8.84,2.42,9.52,5.7A12.06,12.06,0,0,1,127.56,202.94Z"/><path class="cls-3" d="M59,152.38c-3.63,4-7.85,7.83-9.62,9.86-1.33,1.52-2.26,2.68-2.65,3.16v.25l-.1-.12-.1.12v-.25c-.39-.48-1.33-1.64-2.65-3.16-1.77-2-6-5.89-9.62-9.86A12.06,12.06,0,0,1,31,141.17c.69-3.29,4.12-6.38,9.52-5.7a6,6,0,0,1,3.84,2,12.56,12.56,0,0,0-3.12-7.07H51.71a13.4,13.4,0,0,0-2.83,7,6,6,0,0,1,3.81-2c5.4-.68,8.84,2.42,9.52,5.7A12.06,12.06,0,0,1,59,152.38Z"/><path class="cls-3" d="M127.56,152.38c-3.63,4-7.85,7.83-9.62,9.86-1.33,1.52-2.26,2.68-2.65,3.16v.25l-.1-.12-.1.12v-.25c-.39-.48-1.33-1.64-2.65-3.16-1.77-2-6-5.89-9.62-9.86a12.06,12.06,0,0,1-3.24-11.21c.69-3.29,4.12-6.38,9.52-5.7a6,6,0,0,1,3.84,2,12.55,12.55,0,0,0-3.12-7.07H120.3a13.4,13.4,0,0,0-2.83,7,6,6,0,0,1,3.81-2c5.4-.68,8.84,2.42,9.52,5.7A12.06,12.06,0,0,1,127.56,152.38Z"/><path class="cls-3" d="M20.22,34.73c-1.07-1.17-2.32-2.31-2.84-2.91s-.67-.79-.78-.93v-.07l0,0,0,0v.07c-.11.14-.39.48-.78.93S14,33.56,12.92,34.73A3.56,3.56,0,0,0,12,38a2.38,2.38,0,0,0,2.81,1.68,1.78,1.78,0,0,0,1.13-.6A3.7,3.7,0,0,1,15,41.2h3.09a4,4,0,0,1-.84-2.08,1.78,1.78,0,0,0,1.13.59A2.38,2.38,0,0,0,21.17,38,3.56,3.56,0,0,0,20.22,34.73Z"/><path class="cls-3" d="M150.5,200.87c-1.07,1.17-2.32,2.31-2.84,2.91s-.67.79-.78.93v.07l0,0,0,0v-.07c-.11-.14-.39-.48-.78-.93s-1.77-1.74-2.84-2.91a3.56,3.56,0,0,1-1-3.31,2.38,2.38,0,0,1,2.81-1.68,1.78,1.78,0,0,1,1.13.6,3.7,3.7,0,0,0-.92-2.09h3.09a4,4,0,0,0-.84,2.08,1.77,1.77,0,0,1,1.13-.59,2.38,2.38,0,0,1,2.81,1.68A3.56,3.56,0,0,1,150.5,200.87Z"/><circle class="cls-1" cx="148.59" cy="18.48" r="0.57"/><circle class="cls-1" cx="121.47" cy="18.48" r="0.57"/><circle class="cls-1" cx="96.52" cy="18.48" r="0.57"/><circle class="cls-1" cx="71.48" cy="18.66" r="0.57"/><circle class="cls-1" cx="148.59" cy="39.62" r="0.57"/><circle class="cls-1" cx="148.59" cy="58.91" r="0.57"/><circle class="cls-1" cx="148.59" cy="79.13" r="0.57"/><circle class="cls-1" cx="148.59" cy="91.91" r="0.57"/><circle class="cls-1" cx="148.59" cy="104.74" r="0.57"/><circle class="cls-1" cx="18.33" cy="19.05" r="0.57"/><circle class="cls-1" cx="45.76" cy="18.66" r="0.57"/><circle class="cls-1" cx="18.33" cy="39.17" r="0.57"/><circle class="cls-1" cx="18.33" cy="59.05" r="0.57"/><circle class="cls-1" cx="18.33" cy="78.99" r="0.57"/><circle class="cls-1" cx="18.33" cy="91.91" r="0.57"/><circle class="cls-1" cx="18.33" cy="105.31" r="0.57"/><circle class="cls-1" cx="18.33" cy="118.24" r="0.57"/><circle class="cls-1" cx="18.33" cy="131.17" r="0.57"/><circle class="cls-1" cx="18.33" cy="144.57" r="0.57"/><circle class="cls-1" cx="18.33" cy="158" r="0.57"/><circle class="cls-1" cx="18.33" cy="170" r="0.57"/><circle class="cls-1" cx="18.33" cy="183.39" r="0.57"/><circle class="cls-1" cx="18.33" cy="196.44" r="0.57"/><circle class="cls-1" cx="18.56" cy="215.63" r="0.57"/><circle class="cls-1" cx="39.08" cy="216.2" r="0.57"/><circle class="cls-1" cx="65.52" cy="216.2" r="0.57"/><circle class="cls-1" cx="91.92" cy="216.2" r="0.57"/><circle class="cls-1" cx="117.64" cy="216.2" r="0.57"/><circle class="cls-1" cx="148.59" cy="117.93" r="0.57"/><circle class="cls-1" cx="148.59" cy="130.26" r="0.57"/><circle class="cls-1" cx="148.59" cy="143.55" r="0.57"/><circle class="cls-1" cx="148.59" cy="156.65" r="0.57"/><circle class="cls-1" cx="148.59" cy="169.41" r="0.57"/><circle class="cls-1" cx="148.59" cy="181.98" r="0.57"/><circle class="cls-1" cx="148.59" cy="194.82" r="0.57"/><circle class="cls-1" cx="148.59" cy="214.39" r="0.57"/></g></g></svg>