<svg id="svg2" xmlns="http://www.w3.org/2000/svg" viewBox="0 0 167.09 242.67"><title>Joker</title><g id="Layer_1"><g id="path5"><path d="M166.84,235.55a6.89,6.89,0,0,1-6.87,6.87H7.11a6.88,6.88,0,0,1-6.86-6.87V7.12A6.89,6.89,0,0,1,7.11.25H160a6.89,6.89,0,0,1,6.87,6.87Z" transform="translate(0 0)" style="fill:#fff"/><path d="M160,242.67H7.11A7.12,7.12,0,0,1,0,235.55V7.12A7.12,7.12,0,0,1,7.11,0H160a7.13,7.13,0,0,1,7.12,7.12V235.55A7.13,7.13,0,0,1,160,242.67ZM7.11.5A6.62,6.62,0,0,0,.5,7.12V235.55a6.62,6.62,0,0,0,6.61,6.62H160a6.63,6.63,0,0,0,6.62-6.62V7.12A6.63,6.63,0,0,0,160,.5Z" transform="translate(0 0)"/></g></g><g id="text3788" style="isolation:isolate"><g style="isolation:isolate"><path d="M18.51,4.45h4.63L20.24,18.32q-1.16,5.52-3,7.47t-5.77,2a7.06,7.06,0,0,1-4.94-1.52,5.34,5.34,0,0,1-1.64-4.12,10.61,10.61,0,0,1,.08-1.22l4.36-.47a8.75,8.75,0,0,0-.09,1.14,2.16,2.16,0,0,0,.63,1.67,2.75,2.75,0,0,0,1.92.58,2.87,2.87,0,0,0,2.55-1.06,17.34,17.34,0,0,0,1.33-4.58Z" transform="translate(0 0)" style="fill:#df0000"/></g></g><g id="layer1-7-88"><g id="sl-4"><path d="M128.77,119c7.87-9,6.69-41.88,10.1-46.39-4.51,3.41-37.42,2.23-46.39,10.1C86.14,88.31,87.9,95,91.75,98.86c4.21,4.12,13.43,1.79,15.73,1.86-.94,2-17.52,10.23-18.82,8.93l13.2,13.2c-1.31-1.31,6.89-17.89,8.93-18.82,0,2.07-2.68,10.85,1.86,15.74C116.5,123.6,123.2,125.36,128.77,119Z" transform="translate(0 0)"/></g></g><g id="text3019" style="isolation:isolate"><g style="isolation:isolate"><path d="M6.6,40.78A12.29,12.29,0,0,1,9.72,32a10.79,10.79,0,0,1,8.2-3.29A9.4,9.4,0,0,1,24.8,31.1a8.74,8.74,0,0,1,2.48,6.53A12.26,12.26,0,0,1,24.19,46a10.47,10.47,0,0,1-8.29,3.53,10.7,10.7,0,0,1-5-1.12,7.34,7.34,0,0,1-3.24-3.19A9.48,9.48,0,0,1,6.6,40.78Zm15.34-3.84a4.22,4.22,0,0,0-1.12-3.07,3.82,3.82,0,0,0-2.88-1.15,4.82,4.82,0,0,0-3.09,1.08,6.92,6.92,0,0,0-2.1,3.13A11.09,11.09,0,0,0,12,40.71a4.8,4.8,0,0,0,1.16,3.39,3.81,3.81,0,0,0,2.92,1.26,4.57,4.57,0,0,0,3.71-1.89A10.14,10.14,0,0,0,21.94,36.94Z" transform="translate(0 0)" style="fill:#df0000"/></g></g><g id="text3023" style="isolation:isolate"><g style="isolation:isolate"><path d="M4.07,77,9.83,49.51h5.38l-3,14.31,7-6.73h7l-8,7.24L22.47,77H17.09l-2.74-9.21L10.71,71,9.46,77Z" transform="translate(0 0)" style="fill:#df0000"/></g></g><g id="text3027" style="isolation:isolate"><g style="isolation:isolate"><path d="M23.55,91.06H10.05c0,.21,0,.38,0,.49a4.52,4.52,0,0,0,1.13,3.21A3.64,3.64,0,0,0,13.94,96a4.61,4.61,0,0,0,4.18-2.78l4.82.81a10.14,10.14,0,0,1-3.76,4.36,9.84,9.84,0,0,1-5.28,1.45,8.77,8.77,0,0,1-6.52-2.54,9.14,9.14,0,0,1-2.51-6.72,12.23,12.23,0,0,1,2.27-7.27A10.22,10.22,0,0,1,16,79a7.66,7.66,0,0,1,5.81,2.26,8.8,8.8,0,0,1,2.16,6.33A15,15,0,0,1,23.55,91.06ZM19,87.78c0-.24,0-.42,0-.54a4.84,4.84,0,0,0-1-3.32,3.4,3.4,0,0,0-2.66-1.11,4.23,4.23,0,0,0-3,1.26,6.7,6.7,0,0,0-1.79,3.71Z" transform="translate(0 0)" style="fill:#df0000"/></g></g><g id="text3031" style="isolation:isolate"><g style="isolation:isolate"><path d="M7.7,100.47h5l-.81,3.86Q14.73,100,18,100a6.25,6.25,0,0,1,2.49.58L18.44,105a4.57,4.57,0,0,0-1.56-.26,4.78,4.78,0,0,0-2.82,1,7,7,0,0,0-2.24,2.8,27.81,27.81,0,0,0-1.59,5.56l-1.31,6.24H3.54Z" transform="translate(0 0)" style="fill:#df0000"/></g></g><g id="layer1-9"><g id="hl"><path d="M48.11,66.91c-7.7,7.7-1,16.45-1,16.45s-8.75-6.7-16.45,1c-5.39,5.39-6.8,13.73-.27,20.27,8.64,8.64,32.94,1.7,49,11-9.46-15.88-2.37-40.36-11-49C61.84,60.11,53.5,61.52,48.11,66.91Z" transform="translate(0 0)" style="fill:#df0000"/></g></g><g id="layer1-1"><g id="cl"><path d="M51,149.16s-9.17-1-14.83,4.63c-3.31,3.31-5.86,11.74.93,18.53s15.22,4.23,18.53.93c5.65-5.65,4.63-14.83,4.63-14.83,1.25,10.07,14.35,17.15,23.17,8.34a13.23,13.23,0,0,0,0-18.53c-6.79-6.79-17.14-2.32-17.14-2.32s7.59-9.31,17.14-8.8L72.3,126c.51,9.55-8.8,17.14-8.8,17.14S68,132.79,61.18,126a13.23,13.23,0,0,0-18.53,0C33.84,134.81,40.92,147.91,51,149.16Z" transform="translate(0 0)"/></g></g><g id="layer1-2"><g id="dl"><path d="M114.48,138.36a87.92,87.92,0,0,1-20.16-5.66A87.92,87.92,0,0,1,100,152.85,74.76,74.76,0,0,1,99.91,174,74.63,74.63,0,0,1,121.1,174a87.86,87.86,0,0,1,20.15,5.66,87.86,87.86,0,0,1-5.66-20.15,74.63,74.63,0,0,1,.07-21.19A74.76,74.76,0,0,1,114.48,138.36Z" transform="translate(0 0)" style="fill:#df0000"/></g></g><g id="text3788-8" style="isolation:isolate"><g style="isolation:isolate"><path d="M149.15,237.91h-4.62L147.42,224q1.16-5.52,3-7.47t5.77-2a7.06,7.06,0,0,1,4.94,1.52,5.34,5.34,0,0,1,1.64,4.13,10.72,10.72,0,0,1-.08,1.22l-4.36.47a8.75,8.75,0,0,0,.09-1.14,2.16,2.16,0,0,0-.62-1.67,2.75,2.75,0,0,0-1.92-.58,2.87,2.87,0,0,0-2.55,1.06,17.32,17.32,0,0,0-1.33,4.58Z" transform="translate(0 0)" style="fill:#df0000"/></g></g><g id="text3019-4" style="isolation:isolate"><g style="isolation:isolate"><path d="M161.06,201.58a12.3,12.3,0,0,1-3.12,8.82,10.79,10.79,0,0,1-8.2,3.29,9.4,9.4,0,0,1-6.88-2.43,8.74,8.74,0,0,1-2.48-6.53,12.26,12.26,0,0,1,3.09-8.36,10.47,10.47,0,0,1,8.29-3.53,10.7,10.7,0,0,1,5,1.13,7.34,7.34,0,0,1,3.24,3.19A9.47,9.47,0,0,1,161.06,201.58Zm-15.34,3.84a4.22,4.22,0,0,0,1.12,3.07,3.82,3.82,0,0,0,2.88,1.15,4.82,4.82,0,0,0,3.09-1.08,6.92,6.92,0,0,0,2.1-3.13,11.09,11.09,0,0,0,.75-3.78,4.8,4.8,0,0,0-1.16-3.39,3.82,3.82,0,0,0-2.92-1.26,4.57,4.57,0,0,0-3.71,1.89A10.13,10.13,0,0,0,145.72,205.42Z" transform="translate(0 0)" style="fill:#df0000"/></g></g><g id="text3023-1" style="isolation:isolate"><g style="isolation:isolate"><path d="M163.59,165.37l-5.76,27.49h-5.38l3-14.31-7,6.73h-7l8-7.24-4.26-12.67h5.38l2.74,9.21,3.64-3.22,1.26-6Z" transform="translate(0 0)" style="fill:#df0000"/></g></g><g id="text3027-9" style="isolation:isolate"><g style="isolation:isolate"><path d="M144.11,151.3h13.5c0-.21,0-.37,0-.49a4.51,4.51,0,0,0-1.13-3.21,3.63,3.63,0,0,0-2.77-1.22,4.61,4.61,0,0,0-4.18,2.78l-4.82-.81a10.14,10.14,0,0,1,3.76-4.36,9.84,9.84,0,0,1,5.28-1.45,8.77,8.77,0,0,1,6.52,2.54,9.14,9.14,0,0,1,2.51,6.72,12.23,12.23,0,0,1-2.27,7.27,10.22,10.22,0,0,1-8.83,4.31,7.66,7.66,0,0,1-5.81-2.26,8.8,8.8,0,0,1-2.16-6.33A15,15,0,0,1,144.11,151.3Zm4.54,3.28c0,.24,0,.42,0,.54a4.84,4.84,0,0,0,1,3.32,3.4,3.4,0,0,0,2.66,1.11,4.23,4.23,0,0,0,3-1.26,6.7,6.7,0,0,0,1.79-3.71Z" transform="translate(0 0)" style="fill:#df0000"/></g></g><g id="text3031-0" style="isolation:isolate"><g style="isolation:isolate"><path d="M160,141.89h-5l.81-3.86q-2.81,4.33-6.09,4.33a6.25,6.25,0,0,1-2.49-.58l2.06-4.41a4.58,4.58,0,0,0,1.56.26,4.78,4.78,0,0,0,2.82-1,7,7,0,0,0,2.24-2.8,27.81,27.81,0,0,0,1.59-5.56l1.31-6.24h5.38Z" transform="translate(0 0)" style="fill:#df0000"/></g></g></svg>